<svg width="1837" height="1248" viewBox="0 0 1837 1248" fill="none" xmlns="http://www.w3.org/2000/svg">
<mask id="mask0" mask-type="alpha" maskUnits="userSpaceOnUse" x="120" y="178" width="1623" height="856">
<path d="M766.629 205.382L816.241 305.334L1006 253.326L1250.11 296.649L1489.61 410.158L1429.11 569.773L1742.68 696.308L1549.06 820.462L1322.75 804.947L1350.63 875.489L1114.36 761.896L1047.27 871.162L1057.26 1004.95L745.974 1033.54L646.015 824.076L378.898 859.08L422.696 680.801L287.262 704.275L376.651 637.046L145.404 642.849L487.145 494.411L120.269 337.497L366.499 257.784L512.202 353.221L612.73 178.071L766.629 205.382Z" fill="#5A1A4E"/>
</mask>
<g mask="url(#mask0)">
<path d="M766.629 205.383L816.242 305.334L1006 253.326L1250.11 296.649L1489.61 410.158L1429.11 569.773L1742.68 696.308L1549.06 820.462L1322.75 804.947L1350.63 875.489L1114.36 761.896L1047.27 871.162L1057.26 1004.95L745.975 1033.54L646.015 824.077L378.899 859.08L422.697 680.802L287.262 704.275L376.652 637.046L145.405 642.849L487.145 494.411L120.269 337.497L366.5 257.784L512.202 353.221L612.73 178.071L766.629 205.383Z" fill="#5A1A4E"/>
<path d="M834.248 207.58L1010.99 238.946L787.787 1496.66L611.044 1465.3L834.248 207.58Z" fill="url(#paint0_linear)"/>
<path d="M1008.61 238.498L1252.93 281.857L1029.73 1539.57L785.404 1496.22L1008.61 238.498Z" fill="url(#paint1_linear)"/>
<path d="M1252.93 281.857L1504.18 326.446L1280.98 1584.16L1029.73 1539.57L1252.93 281.857Z" fill="url(#paint2_linear)"/>
<path d="M1429.03 568.643L1754.79 626.455L1575.55 1636.44L1249.79 1578.63L1429.03 568.643Z" fill="url(#paint3_linear)"/>
<path d="M1324.11 807.345L1649.87 865.157L1470.63 1875.14L1144.87 1817.33L1324.11 807.345Z" fill="url(#paint4_linear)"/>
<rect width="68.6342" height="1277.37" transform="matrix(-0.984615 -0.174737 -0.174737 0.984615 834.248 207.58)" fill="url(#paint5_linear)"/>
<path d="M623.352 177.3L543.644 163.155L323.348 1410.67L401.993 1424.62L623.352 177.3Z" fill="url(#paint6_linear)"/>
<path d="M545.377 163.462L387.694 135.479L168.437 1383.18L324.018 1410.79L545.377 163.462Z" fill="url(#paint7_linear)"/>
<path d="M765.132 204.249L610.915 176.88L391.612 1424.57L543.773 1451.57L765.132 204.249Z" fill="url(#paint8_linear)"/>
<path d="M697.063 548.461C699.621 534.035 717.486 530 726.668 530L1153.07 530C1162.52 530 1174.72 543.25 1177.04 558.234C1179.35 573.219 1231.44 750.807 1231.44 750.807C1234.74 772.138 1223.05 785.919 1209.6 785.919L649.648 790C635.903 790 626 768.428 629.83 746.83L697.063 548.461Z" fill="url(#paint9_radial)" fill-opacity="0.6"/>
<path d="M1231.44 750.807C1236.23 749.4 1236.23 749.399 1236.23 749.398L1236.23 749.392L1236.22 749.368L1236.2 749.272L1236.08 748.891L1235.65 747.404C1235.27 746.1 1234.71 744.185 1233.99 741.744C1232.56 736.86 1230.52 729.866 1228.06 721.426C1223.14 704.546 1216.56 681.885 1209.91 658.758C1203.26 635.627 1196.53 612.041 1191.33 593.308C1186.07 574.354 1182.5 560.842 1181.98 557.47C1180.66 548.946 1176.57 541.032 1171.5 535.213C1166.59 529.584 1159.92 525 1153.07 525L726.668 525C721.502 525 713.979 526.109 707.24 529.302C700.552 532.472 693.989 538.054 692.213 547.194L625.095 745.225L624.973 745.584L624.907 745.957C622.825 757.699 624.44 769.529 628.604 778.6C632.663 787.442 639.9 795 649.648 795L649.666 795L649.684 795L1209.6 790.919C1209.61 790.919 1209.61 790.919 1209.62 790.919C1227.17 790.908 1239.97 773.259 1236.38 750.042L1236.33 749.716L1236.23 749.4L1231.44 750.807Z" stroke="#AE2D68" stroke-opacity="0.3" stroke-width="10"/>
<path d="M742.904 661.852C745.081 651.809 760.279 649 768.09 649L1130.85 649C1138.89 649 1149.27 658.224 1151.24 668.655C1153.21 679.087 1197.52 802.716 1197.52 802.716C1200.33 817.565 1190.38 827.159 1178.94 827.159L702.566 830C690.872 830 682.448 814.982 685.706 799.947L742.904 661.852Z" fill="url(#paint10_radial)" fill-opacity="0.4"/>
<path d="M1197.52 802.716C1202.23 801.029 1202.23 801.028 1202.23 801.027L1202.22 801.023L1202.22 801.006L1202.19 800.94L1202.1 800.675L1201.73 799.64C1201.4 798.732 1200.93 797.4 1200.32 795.7C1199.11 792.301 1197.37 787.433 1195.28 781.559C1191.09 769.809 1185.49 754.036 1179.84 737.939C1174.18 721.839 1168.46 705.428 1164.04 692.396C1161.83 685.878 1159.94 680.225 1158.56 675.888C1157.12 671.401 1156.33 668.661 1156.15 667.727C1154.93 661.266 1151.19 655.449 1146.74 651.27C1142.38 647.175 1136.61 644 1130.85 644L768.09 644C763.725 644 757.333 644.766 751.577 646.998C746.095 649.124 739.913 653.119 738.128 660.316L681.087 798.034L680.915 798.449L680.82 798.888C678.938 807.572 680.397 816.335 684.168 823.058C687.918 829.741 694.377 835 702.566 835L702.581 835L702.596 835L1178.94 832.159C1178.95 832.159 1178.96 832.159 1178.96 832.159C1186.07 832.155 1192.84 829.164 1197.41 823.717C1202.03 818.203 1204.09 810.536 1202.43 801.786L1202.36 801.399L1202.23 801.029L1197.52 802.716Z" stroke="#AE2D68" stroke-opacity="0.2" stroke-width="10"/>
<path d="M787.472 750.869C789.144 743.157 800.817 741 806.816 741L1085.43 741C1091.6 741 1099.57 748.083 1101.09 756.094C1102.6 764.105 1136.63 859.047 1136.63 859.047C1138.79 870.45 1131.15 877.818 1122.37 877.818L756.491 880C747.51 880 741.04 868.467 743.543 856.921L787.472 750.869Z" fill="url(#paint11_radial)" fill-opacity="0.2"/>
<path d="M1136.63 859.047C1141.34 857.359 1141.34 857.359 1141.34 857.358L1141.34 857.355L1141.33 857.342L1141.31 857.291L1141.24 857.088L1140.96 856.293C1140.71 855.597 1140.34 854.574 1139.87 853.269C1138.94 850.658 1137.61 846.92 1136 842.41C1132.79 833.387 1128.49 821.276 1124.14 808.916C1119.8 796.553 1115.41 783.955 1112.01 773.953C1110.32 768.95 1108.87 764.616 1107.81 761.295C1106.7 757.825 1106.12 755.797 1106 755.166C1105.01 749.915 1101.99 745.238 1098.43 741.897C1094.96 738.64 1090.26 736 1085.43 736L806.816 736C803.357 736 798.299 736.603 793.714 738.38C789.398 740.054 784.233 743.304 782.7 749.325L738.923 855.007L738.751 855.422L738.656 855.861C737.152 862.801 738.311 869.821 741.35 875.237C744.366 880.613 749.659 885 756.491 885L756.506 885L756.521 885L1122.37 882.818C1122.37 882.818 1122.38 882.818 1122.38 882.818C1128.16 882.814 1133.7 880.38 1137.43 875.92C1141.23 871.394 1142.87 865.144 1141.54 858.117L1141.47 857.73L1141.34 857.359L1136.63 859.047Z" stroke="#AE2D68" stroke-opacity="0.1" stroke-width="10"/>
<path d="M387.275 147.913L155.083 106.707L-63.1807 1354.58L165.916 1395.24L387.275 147.913Z" fill="url(#paint12_linear)"/>
<path d="M1111.35 764.468L1234.9 890.061L672.802 1434.46L549.126 1306.82L1111.35 764.468Z" fill="url(#paint13_linear)"/>
<path d="M93.7936 562.393L485.023 495.035L560.19 936.345L165.372 1003.54L93.7936 562.393Z" fill="url(#paint14_linear)"/>
<path d="M279.362 771.539L422.695 683.112L656.107 1065.15L511.104 1153.7L279.362 771.539Z" fill="url(#paint15_linear)"/>
<path d="M205.653 642.941L374.032 638.737L383.206 1086.3L213.324 1089.77L205.653 642.941Z" fill="url(#paint16_linear)"/>
<path d="M502.636 908.757L646.466 823.787L1318.46 1921.03L1173.46 2009.58L502.636 908.757Z" fill="url(#paint17_linear)"/>
<path d="M1096.21 834.99L1170.3 927.397L306.991 1597.14L233.738 1502.76L1096.21 834.99Z" fill="url(#paint18_linear)"/>
</g>
<path d="M624.749 378C628.206 358.073 652.344 352.5 664.749 352.5H1240.87C1253.64 352.5 1270.12 370.802 1273.25 391.5C1276.38 412.198 1346.75 657.5 1346.75 657.5C1351.21 686.964 1335.41 706 1317.25 706L560.686 711.637C542.115 711.637 528.735 681.839 533.91 652.007L624.749 378Z" fill="url(#paint19_radial)"/>
<path d="M1346.75 657.5C1351.56 656.121 1351.55 656.12 1351.55 656.119L1351.55 656.11L1351.54 656.077L1351.5 655.944L1351.35 655.418L1350.76 653.363C1350.25 651.562 1349.49 648.917 1348.53 645.544C1346.6 638.798 1343.84 629.136 1340.51 617.478C1333.87 594.16 1324.98 562.857 1315.99 530.907C1307 498.956 1297.91 466.37 1290.88 440.484C1283.79 414.382 1278.92 395.559 1278.19 390.752C1276.47 379.393 1271.13 368.796 1264.48 360.994C1258 353.399 1249.43 347.5 1240.87 347.5H664.749C657.957 347.5 648.045 348.999 639.214 353.278C630.413 357.541 622.097 364.902 619.891 376.764L529.164 650.434L529.048 650.786L528.984 651.153C526.237 666.99 528.38 682.914 533.832 695.057C539.168 706.941 548.464 716.637 560.686 716.637H560.705L560.723 716.637L1317.25 711C1317.25 711 1317.26 711 1317.27 711C1339.64 710.988 1356.42 687.966 1351.69 656.752L1351.64 656.432L1351.56 656.121L1346.75 657.5Z" stroke="#AE2D68" stroke-opacity="0.5" stroke-width="10"/>
<path d="M661.156 423.922C664.207 404.447 685.509 399 696.456 399H1204.89C1216.15 399 1230.7 416.887 1233.46 437.116C1236.23 457.345 1298.33 697.089 1298.33 697.089C1302.26 725.886 1288.32 744.491 1272.29 744.491L604.62 750C588.231 750 576.423 720.877 580.99 691.721L661.156 423.922Z" fill="url(#paint20_radial)" fill-opacity="0.8"/>
<path d="M1298.33 697.089C1303.17 695.836 1303.17 695.835 1303.17 695.833L1303.16 695.825L1303.16 695.792L1303.12 695.662L1302.99 695.148L1302.47 693.14C1302.21 692.13 1301.88 690.85 1301.48 689.32C1301.19 688.181 1300.86 686.904 1300.49 685.498C1298.79 678.904 1296.35 669.462 1293.42 658.067C1287.56 635.278 1279.71 604.683 1271.78 573.458C1263.84 542.229 1255.83 510.381 1249.62 485.08C1243.37 459.582 1239.06 441.162 1238.42 436.44C1236.91 425.413 1232.22 415.074 1226.33 407.422C1223.37 403.589 1220.03 400.309 1216.49 397.95C1212.99 395.614 1209.01 394 1204.89 394H696.456C690.32 394 681.414 395.496 673.481 399.752C665.504 404.032 658.193 411.319 656.273 422.8L576.2 690.287L576.103 690.612L576.05 690.947C573.637 706.353 575.517 721.846 580.313 733.673C584.936 745.075 593.208 755 604.62 755H604.64L604.661 755L1272.29 749.491C1272.3 749.491 1272.31 749.491 1272.31 749.491C1282.41 749.483 1291.37 743.6 1297.07 734.179C1302.78 724.759 1305.37 711.705 1303.28 696.412L1303.24 696.121L1303.17 695.836L1298.33 697.089Z" stroke="#AE2D68" stroke-opacity="0.4" stroke-width="10"/>
<path d="M588.464 381.378C591.958 373.273 600.098 368 609.117 368H1260.94C1270.16 368 1278.45 373.506 1281.81 381.875L1340.15 523.937L1377 619V676C1377 682.075 1372.08 687 1366 687H499C492.373 687 487 681.627 487 675V619L588.464 381.378Z" fill="#3F0606"/>
<path d="M602.781 338.262C606.139 330.227 613.962 325 622.63 325H1249.12C1257.98 325 1265.94 330.458 1269.17 338.754L1375.5 611.688C1381.03 625.888 1370.62 641.235 1355.45 641.235H508.554C493.161 641.235 482.74 625.465 488.704 611.195L602.781 338.262Z" fill="#4B1A1A"/>
<path d="M602.781 338.262C606.139 330.227 613.962 325 622.63 325H1249.12C1257.98 325 1265.94 330.458 1269.17 338.754L1375.5 611.688C1381.03 625.888 1370.62 641.235 1355.45 641.235H508.554C493.161 641.235 482.74 625.465 488.704 611.195L602.781 338.262Z" fill="url(#paint21_radial)"/>
<path d="M1311.99 482H570.014C565.588 482 562 485.506 562 489.83V626.17C562 630.494 565.588 634 570.014 634H1311.99C1316.41 634 1320 630.494 1320 626.17V489.83C1320 485.506 1316.41 482 1311.99 482Z" fill="url(#paint22_radial)"/>
<path d="M1311.99 482H570.014C565.588 482 562 485.506 562 489.83V626.17C562 630.494 565.588 634 570.014 634H1311.99C1316.41 634 1320 630.494 1320 626.17V489.83C1320 485.506 1316.41 482 1311.99 482Z" fill="url(#paint23_radial)" fill-opacity="0.5"/>
<path d="M1255.95 381.174L1255.48 490.697C1255.45 498.378 1249.24 504.581 1241.61 504.551C1233.98 504.521 1227.82 498.27 1227.86 490.589L1228.33 381.066C1228.37 373.384 1234.58 367.182 1242.2 367.212C1249.83 367.242 1255.99 373.493 1255.95 381.174Z" fill="url(#paint24_linear)"/>
<path d="M1255.95 381.174L1255.48 490.697C1255.45 498.378 1249.24 504.581 1241.61 504.551C1233.98 504.521 1227.82 498.27 1227.86 490.589L1228.33 381.066C1228.37 373.384 1234.58 367.182 1242.2 367.212C1249.83 367.242 1255.99 373.493 1255.95 381.174Z" fill="black" fill-opacity="0.2"/>
<path d="M1226.76 368.638C1236.4 373.193 1247.6 373.24 1257.27 368.733C1258.99 367.932 1258.42 365.339 1256.53 365.339H1242.01L1227.51 365.226C1225.6 365.211 1225.04 367.824 1226.76 368.638Z" fill="#191919"/>
<path d="M1230.13 373.554C1237.64 377.097 1246.34 377.133 1253.87 373.628C1255.2 373.005 1254.76 370.988 1253.29 370.988H1242L1230.72 370.9C1229.24 370.888 1228.79 372.921 1230.13 373.554Z" fill="#191919"/>
<path d="M1224.37 445.429L1232.85 446.801C1238.88 447.776 1245.02 447.793 1251.05 446.851L1260.15 445.429L1258.08 481.671C1257.79 486.744 1258.49 491.824 1260.15 496.622H1223.43C1225.9 491.868 1227.02 486.524 1226.67 481.173L1224.37 445.429Z" fill="#191919"/>
<g filter="url(#filter0_d)">
<path d="M1269.34 508.881C1259.09 484.068 1224.14 484.049 1213.93 508.888C1213.53 509.874 1214.26 510.953 1215.32 510.931L1241.59 510.398L1267.95 510.931C1269.01 510.953 1269.74 509.867 1269.34 508.881Z" fill="#191919"/>
</g>
<path d="M1280.2 386.854C1283.42 385.463 1282.3 380.608 1278.8 380.794L1255.27 382.043L1255.13 397.678L1280.2 386.854Z" fill="url(#paint25_linear)"/>
<path d="M1205.2 386.796C1202.05 385.329 1203.25 380.551 1206.72 380.773L1228.94 382.195V397.832L1205.2 386.796Z" fill="url(#paint26_linear)"/>
<path d="M1248.54 339.566C1248.54 356.495 1247.29 367.058 1242.26 367.058C1239.44 367.058 1238.6 361.865 1237.07 353.724C1234.12 338.035 1227.58 319.521 1239.27 308.644C1240.29 307.687 1241.32 306.768 1242.26 305.753C1243.52 324.081 1248.54 322.637 1248.54 339.566Z" fill="url(#paint27_radial)"/>
<path d="M1248.22 336.369C1248.16 353.298 1247.91 367.078 1242.89 367.058C1237.86 367.038 1237.24 349.362 1233.16 332.297C1233.23 315.368 1238.18 308.281 1242.14 301.012C1243.52 311.757 1248.29 319.44 1248.22 336.369Z" fill="url(#paint28_radial)"/>
<path d="M648.782 389.174L648.306 498.697C648.273 506.378 642.063 512.581 634.435 512.551C626.808 512.521 620.652 506.27 620.685 498.589L621.161 389.066C621.194 381.384 627.404 375.182 635.032 375.212C642.659 375.242 648.815 381.493 648.782 389.174Z" fill="url(#paint29_linear)"/>
<path d="M648.782 389.174L648.306 498.697C648.273 506.378 642.063 512.581 634.435 512.551C626.808 512.521 620.652 506.27 620.685 498.589L621.161 389.066C621.194 381.384 627.404 375.182 635.032 375.212C642.659 375.242 648.815 381.493 648.782 389.174Z" fill="black" fill-opacity="0.2"/>
<path d="M619.587 376.638C629.231 381.193 640.425 381.24 650.097 376.733C651.815 375.932 651.25 373.339 649.356 373.339H634.841L620.335 373.226C618.432 373.211 617.863 375.824 619.587 376.638Z" fill="#191919"/>
<path d="M622.962 381.554C630.463 385.097 639.17 385.133 646.693 381.628C648.03 381.005 647.59 378.988 646.117 378.988H634.826L623.544 378.9C622.064 378.888 621.621 380.921 622.962 381.554Z" fill="#191919"/>
<path d="M617.201 453.429L625.681 454.801C631.705 455.776 637.845 455.793 643.874 454.851L652.974 453.429L650.903 489.671C650.613 494.744 651.316 499.824 652.974 504.622H616.26C618.723 499.868 619.843 494.524 619.499 489.173L617.201 453.429Z" fill="#191919"/>
<g filter="url(#filter1_d)">
<path d="M662.163 516.881C651.916 492.068 616.968 492.049 606.762 516.888C606.357 517.874 607.089 518.953 608.147 518.931L634.418 518.398L660.777 518.931C661.838 518.953 662.57 517.867 662.163 516.881Z" fill="#191919"/>
</g>
<path d="M673.03 394.854C676.251 393.463 675.131 388.608 671.631 388.794L648.092 390.043L647.953 405.678L673.03 394.854Z" fill="url(#paint30_linear)"/>
<path d="M598.028 394.796C594.873 393.329 596.077 388.551 599.545 388.773L621.767 390.195V405.832L598.028 394.796Z" fill="url(#paint31_linear)"/>
<path d="M641.363 347.566C641.363 364.495 640.113 375.058 635.087 375.058C632.262 375.058 631.423 369.865 629.892 361.724C626.942 346.035 620.407 327.521 632.093 316.644C633.121 315.687 634.142 314.768 635.087 313.753C636.342 332.081 641.363 330.637 641.363 347.566Z" fill="url(#paint32_radial)"/>
<path d="M641.05 344.369C640.983 361.298 640.741 375.078 635.715 375.058C630.689 375.038 630.067 357.362 625.987 340.297C626.054 323.368 631.008 316.281 634.967 309.012C636.343 319.757 641.116 327.44 641.05 344.369Z" fill="url(#paint33_radial)"/>
<mask id="mask1" mask-type="alpha" maskUnits="userSpaceOnUse" x="623" y="0" width="647" height="491">
<rect x="623" width="646.89" height="491" fill="#C4C4C4"/>
</mask>
<g mask="url(#mask1)">
<path d="M936.895 661.95C1106.29 661.95 1243.61 523.351 1243.61 352.38C1243.61 181.409 1106.29 42.8097 936.895 42.8097C767.504 42.8097 630.185 181.409 630.185 352.38C630.185 523.351 767.504 661.95 936.895 661.95Z" fill="url(#paint34_radial)"/>
</g>
<path d="M1206.58 498.232C1208.47 498.232 1210 500.58 1210 503.478V598.754C1210 601.651 1208.47 604 1206.58 604H668.419C666.531 604 665 601.651 665 598.754V503.478C665 500.58 666.531 498.232 668.419 498.232L778 303H1101.5L1206.58 498.232Z" fill="#422680"/>
<path d="M1206.58 498.232C1208.47 498.232 1210 500.58 1210 503.478V598.754C1210 601.651 1208.47 604 1206.58 604H668.419C666.531 604 665 601.651 665 598.754V503.478C665 500.58 666.531 498.232 668.419 498.232L778 303H1101.5L1206.58 498.232Z" fill="url(#paint35_radial)" fill-opacity="0.3"/>
<path d="M1206.58 498.232C1208.47 498.232 1210 500.58 1210 503.478V598.754C1210 601.651 1208.47 604 1206.58 604H668.419C666.531 604 665 601.651 665 598.754V503.478C665 500.58 666.531 498.232 668.419 498.232L778 303H1101.5L1206.58 498.232Z" fill="url(#paint36_radial)" fill-opacity="0.3"/>
<path d="M1206.58 498.232C1208.47 498.232 1210 500.58 1210 503.478V598.754C1210 601.651 1208.47 604 1206.58 604H668.419C666.531 604 665 601.651 665 598.754V503.478C665 500.58 666.531 498.232 668.419 498.232L778 303H1101.5L1206.58 498.232Z" fill="url(#paint37_radial)" fill-opacity="0.2"/>
<path d="M668.419 498.232C668.419 498.232 1204.69 498.232 1206.58 498.232M668.419 498.232C666.531 498.232 665 500.58 665 503.478V598.754C665 601.651 666.531 604 668.419 604H1206.58C1208.47 604 1210 601.651 1210 598.754V503.478C1210 500.58 1208.47 498.232 1206.58 498.232M668.419 498.232L778 303H1101.5L1206.58 498.232" stroke="#191919" stroke-width="6" stroke-linejoin="round"/>
<g filter="url(#filter2_di)">
<path d="M682.242 508.541C682.041 509.378 681.839 510.288 681.637 511.269C681.435 512.236 681.277 513.095 681.161 513.846H679.108L678.956 513.608C679.158 512.843 679.432 512.005 679.778 511.096C680.124 510.172 680.477 509.321 680.837 508.541H682.242ZM678.243 508.541C678.041 509.378 677.839 510.288 677.638 511.269C677.436 512.236 677.277 513.095 677.162 513.846H675.13L675 513.608C675.202 512.843 675.468 512.005 675.8 511.096C676.146 510.172 676.499 509.321 676.859 508.541H678.243ZM694.379 523.74C694.487 523.979 694.573 524 694.811 524H695.503C695.741 524 695.827 523.979 695.914 523.74L702.054 508.974C702.075 508.909 702.097 508.844 702.097 508.779C702.097 508.606 701.967 508.498 701.751 508.498H700.648C700.216 508.498 700.173 508.801 699.762 509.884L695.157 521.207L690.552 509.884C690.12 508.801 690.098 508.498 689.666 508.498H688.563C688.325 508.498 688.196 508.606 688.196 508.779C688.196 508.844 688.217 508.909 688.239 508.974L691.374 516.487C690.725 518.068 690.077 519.648 689.471 521.229L684.866 509.884C684.434 508.801 684.391 508.498 683.98 508.498H682.877C682.64 508.498 682.51 508.606 682.51 508.779C682.51 508.844 682.51 508.909 682.553 508.974L688.693 523.762C688.779 523.957 688.888 524 689.104 524H689.796C690.033 524 690.12 524 690.228 523.74L692.303 518.717L694.379 523.74ZM715.197 508.585C715.132 508.65 715.111 508.736 715.111 508.823V512.915H705.944V508.823C705.944 508.628 705.771 508.498 705.598 508.498H704.474C704.301 508.498 704.15 508.606 704.15 508.823V523.676C704.15 523.892 704.258 524 704.474 524H705.577C705.814 524 705.944 523.892 705.944 523.676V519.215H715.111V523.676C715.111 523.892 715.219 524 715.456 524H716.537C716.754 524 716.905 523.914 716.905 523.676V508.823C716.905 508.628 716.732 508.498 716.537 508.498H715.456C715.348 508.498 715.262 508.52 715.197 508.585ZM715.111 517.397H705.944V514.712H715.111V517.397ZM719.296 524H729.457C729.694 524 729.824 523.87 729.824 523.632V522.571C729.824 522.333 729.651 522.203 729.435 522.203H720.766V519.215H727.705C727.9 519.215 728.03 519.021 728.03 518.847V517.743C728.03 517.548 727.9 517.397 727.705 517.397H720.766V514.712H727.705C727.9 514.712 728.03 514.539 728.03 514.344V513.261C728.03 513.066 727.9 512.893 727.705 512.893H720.766V510.295H729.5C729.738 510.295 729.846 510.165 729.846 509.905V508.823C729.846 508.606 729.738 508.498 729.521 508.498H719.296C719.079 508.498 718.95 508.585 718.95 508.801V523.654C718.95 523.892 719.058 524 719.296 524ZM744.647 508.476H743.695C743.522 508.476 743.371 508.628 743.371 508.801L743.285 520.991L734.097 508.585C734.01 508.476 733.902 508.411 733.751 508.411H732.259C732.043 508.411 731.891 508.563 731.891 508.758V520.601C731.891 520.774 731.999 520.883 732.216 520.883L737.447 520.904C737.664 520.904 737.793 520.731 737.793 520.536V519.432C737.793 519.237 737.664 519.085 737.469 519.085L733.686 519.064V511.01L743.285 524H744.668C744.928 524 745.057 523.892 745.057 523.676L745.165 508.823C745.165 508.628 745.079 508.476 744.755 508.476H744.647ZM739.35 522.182H732.237C731.999 522.182 731.891 522.355 731.891 522.571V523.676C731.891 523.892 732.021 524 732.216 524H739.328C739.523 524 739.674 523.827 739.674 523.632V522.528C739.674 522.333 739.545 522.182 739.35 522.182ZM755.355 524H760.328C764.414 524 768.132 520.731 768.132 516.271C768.132 511.897 764.608 508.498 760.328 508.498H755.355C755.117 508.498 755.009 508.628 755.009 508.866V523.697C755.009 523.914 755.161 524 755.355 524ZM756.782 510.273H760.328C763.57 510.273 766.338 512.633 766.338 516.098C766.338 519.475 763.722 522.225 760.263 522.225H756.782V510.273ZM778.167 508.022C773.757 508.022 770.189 511.616 770.189 516.011C770.189 520.406 773.757 524 778.167 524C782.556 524 786.144 520.406 786.144 516.011C786.144 511.616 782.556 508.022 778.167 508.022ZM778.167 522.247C774.729 522.247 771.941 519.432 771.941 516.011C771.941 512.568 774.729 509.775 778.167 509.775C781.583 509.775 784.372 512.568 784.372 516.011C784.372 519.432 781.583 522.247 778.167 522.247ZM797.907 513.781L795.831 508.758C795.723 508.498 795.637 508.498 795.399 508.498H794.707C794.491 508.498 794.383 508.541 794.297 508.736L788.157 523.524C788.113 523.589 788.113 523.654 788.113 523.719C788.113 523.892 788.243 524 788.481 524H789.584C789.994 524 790.038 523.697 790.47 522.615L795.075 511.269C795.68 512.85 796.329 514.43 796.977 516.011L793.842 523.524C793.821 523.589 793.799 523.654 793.799 523.719C793.799 523.892 793.929 524 794.167 524H795.269C795.702 524 795.723 523.697 796.156 522.615L800.761 511.291L805.365 522.615C805.776 523.697 805.819 524 806.252 524H807.354C807.571 524 807.7 523.892 807.7 523.719C807.7 523.654 807.679 523.589 807.657 523.524L801.517 508.758C801.431 508.52 801.344 508.498 801.107 508.498H800.415C800.177 508.498 800.09 508.52 799.982 508.758L797.907 513.781ZM810.099 524H820.26C820.498 524 820.628 523.87 820.628 523.632V522.571C820.628 522.333 820.455 522.203 820.238 522.203H811.569V519.215H818.509C818.703 519.215 818.833 519.021 818.833 518.847V517.743C818.833 517.548 818.703 517.397 818.509 517.397H811.569V514.712H818.509C818.703 514.712 818.833 514.539 818.833 514.344V513.261C818.833 513.066 818.703 512.893 818.509 512.893H811.569V510.295H820.303C820.541 510.295 820.649 510.165 820.649 509.905V508.823C820.649 508.606 820.541 508.498 820.325 508.498H810.099C809.883 508.498 809.753 508.585 809.753 508.801V523.654C809.753 523.892 809.861 524 810.099 524ZM825.55 510.88C826.09 510.273 826.782 509.819 827.603 509.71C827.798 509.689 827.949 509.602 827.949 509.386V508.39C827.949 508.173 827.841 508 827.603 508C824.966 508.13 822.934 510.447 822.934 512.915C822.934 513.564 823.085 514.236 823.409 514.885C824.101 516.292 825.917 517.288 825.917 519.042C825.917 520.558 824.577 522.203 823.042 522.398C822.847 522.42 822.696 522.55 822.696 522.745V523.697C822.696 523.914 822.804 524.087 823.042 524.087C825.658 523.935 827.603 521.705 827.603 519.194C827.603 517.094 826.328 516.076 825.268 514.669C824.879 514.149 824.685 513.564 824.685 513.001C824.685 512.157 825.42 511.01 825.55 510.88ZM838.769 508.498H832.78C832.586 508.498 832.434 508.628 832.434 508.823V523.654C832.434 523.849 832.586 524 832.78 524H833.861C834.077 524 834.229 523.827 834.229 523.654V510.295H838.769C839.006 510.295 839.158 510.143 839.158 509.884V508.823C839.115 508.628 838.963 508.498 838.769 508.498ZM841.535 508.498C841.362 508.498 841.211 508.628 841.211 508.823V523.676C841.211 523.892 841.319 524 841.535 524H842.659C842.875 524 843.027 523.892 843.027 523.676V508.844C843.027 508.65 842.94 508.498 842.659 508.498H841.535ZM847.613 520.06C848.715 521.965 850.596 523.329 852.758 523.805C854.963 524.303 857.32 523.849 859.136 522.506C859.309 522.376 859.46 522.225 859.352 522.03C859.33 521.987 858.746 521.012 858.746 521.012C858.573 520.731 858.465 520.753 858.228 520.904C855.525 522.615 852.542 522.485 850.488 520.753C848.413 519.042 847.742 516.076 848.823 513.629C849.861 511.291 852.239 509.862 854.747 509.862C856.001 509.949 857.233 510.273 858.228 511.053C858.444 511.248 858.66 511.183 858.833 510.923L859.373 510.035C859.481 509.84 859.438 509.732 859.2 509.559C856.952 507.913 853.969 507.589 851.396 508.671C848.91 509.732 847.094 512.006 846.64 514.647C846.337 516.509 846.661 518.436 847.613 520.06C847.959 520.644 847.267 519.454 847.613 520.06ZM876.727 508.758C876.619 508.541 876.576 508.476 876.295 508.476H876.23C875.992 508.476 875.884 508.541 875.776 508.758L869.333 523.481C869.29 523.546 869.29 523.611 869.29 523.676C869.29 523.87 869.463 524 869.701 524H882.781C883.018 524 883.148 523.914 883.148 523.74C883.148 523.676 883.148 523.632 883.083 523.481C883.083 523.459 876.727 508.758 876.727 508.758ZM876.252 511.854L880.619 522.16H871.863L876.252 511.854ZM897.964 508.476H897.013C896.84 508.476 896.689 508.628 896.689 508.801L896.602 520.991L887.414 508.585C887.328 508.476 887.22 508.411 887.068 508.411H885.577C885.36 508.411 885.209 508.563 885.209 508.758V520.601C885.209 520.774 885.317 520.883 885.533 520.883L890.765 520.904C890.981 520.904 891.111 520.731 891.111 520.536V519.432C891.111 519.237 890.981 519.085 890.787 519.085L887.003 519.064V511.01L896.602 524H897.986C898.245 524 898.375 523.892 898.375 523.676L898.483 508.823C898.483 508.628 898.397 508.476 898.072 508.476H897.964ZM892.668 522.182H885.555C885.317 522.182 885.209 522.355 885.209 522.571V523.676C885.209 523.892 885.339 524 885.533 524H892.646C892.841 524 892.992 523.827 892.992 523.632V522.528C892.992 522.333 892.862 522.182 892.668 522.182ZM900.883 524H905.855C909.941 524 913.66 520.731 913.66 516.271C913.66 511.897 910.136 508.498 905.855 508.498H900.883C900.645 508.498 900.537 508.628 900.537 508.866V523.697C900.537 523.914 900.688 524 900.883 524ZM902.31 510.273H905.855C909.098 510.273 911.865 512.633 911.865 516.098C911.865 519.475 909.249 522.225 905.79 522.225H902.31V510.273ZM925.323 517.159H931.376C931.571 517.159 931.701 516.964 931.701 516.769V515.686C931.701 515.491 931.571 515.34 931.376 515.34H925.323V510.295H933.863C934.079 510.295 934.23 510.122 934.23 509.905V508.866C934.23 508.628 934.1 508.498 933.863 508.498H923.853C923.615 508.498 923.507 508.606 923.507 508.844V523.697C923.507 523.914 923.637 524 923.853 524H924.956C925.172 524 925.323 523.914 925.323 523.697V517.159ZM944.257 508.022C939.847 508.022 936.279 511.616 936.279 516.011C936.279 520.406 939.847 524 944.257 524C948.646 524 952.234 520.406 952.234 516.011C952.234 511.616 948.646 508.022 944.257 508.022ZM944.257 522.247C940.819 522.247 938.031 519.432 938.031 516.011C938.031 512.568 940.819 509.775 944.257 509.775C947.673 509.775 950.462 512.568 950.462 516.011C950.462 519.432 947.673 522.247 944.257 522.247ZM954.55 516.466C954.356 516.466 954.204 516.617 954.204 516.834V523.676C954.204 523.892 954.312 524 954.55 524H955.674C955.891 524 955.999 523.892 955.999 523.676V518.241H959.696L962.96 523.676C963.068 523.849 963.219 524 963.436 524H965.057C965.187 524 965.252 523.979 965.252 523.935C965.252 523.892 965.23 523.849 965.187 523.762L961.814 518.133C963.933 517.527 965.49 515.535 965.49 513.348C965.49 510.728 963.284 508.498 960.712 508.498H955.48C955.264 508.498 955.134 508.606 955.134 508.823V509.905C955.134 510.122 955.242 510.273 955.48 510.273H960.69C962.333 510.273 963.674 511.789 963.674 513.37C963.674 514.907 962.376 516.357 960.841 516.466H954.55ZM978.681 510.685C979.481 511.183 979.589 511.226 979.697 511.226C980.021 511.226 980.605 510.706 980.605 510.23C980.605 510.079 980.562 509.949 980.453 509.84C979.2 508.585 977.189 508.022 975.524 508.022C971.114 508.022 967.547 511.681 967.547 516.011C967.547 517.505 967.958 518.956 968.714 520.211C968.714 520.233 968.52 519.887 968.52 519.865C969.925 522.376 972.584 524 975.481 524C977.232 524 978.854 523.459 980.281 522.463C980.518 522.29 980.626 522.203 980.626 521.943V517.418C980.626 517.115 980.41 516.899 980.108 516.899H979.351C979.048 516.899 978.854 517.115 978.854 517.418V521.207C977.773 521.749 976.605 522.225 975.395 522.225C972.065 522.225 969.32 519.367 969.32 516.033C969.32 512.655 972.281 509.884 975.676 509.884C976.713 509.884 977.751 510.143 978.681 510.685ZM983.009 508.498C982.836 508.498 982.685 508.628 982.685 508.823V523.676C982.685 523.892 982.793 524 983.009 524H984.133C984.349 524 984.501 523.892 984.501 523.676V508.844C984.501 508.65 984.414 508.498 984.133 508.498H983.009ZM988.351 524H998.512C998.749 524 998.879 523.87 998.879 523.632V522.571C998.879 522.333 998.706 522.203 998.49 522.203H989.821V519.215H996.76C996.955 519.215 997.085 519.021 997.085 518.847V517.743C997.085 517.548 996.955 517.397 996.76 517.397H989.821V514.712H996.76C996.955 514.712 997.085 514.539 997.085 514.344V513.261C997.085 513.066 996.955 512.893 996.76 512.893H989.821V510.295H998.555C998.793 510.295 998.901 510.165 998.901 509.905V508.823C998.901 508.606 998.793 508.498 998.577 508.498H988.351C988.135 508.498 988.005 508.585 988.005 508.801V523.654C988.005 523.892 988.113 524 988.351 524ZM1013.7 508.476H1012.75C1012.58 508.476 1012.43 508.628 1012.43 508.801L1012.34 520.991L1003.15 508.585C1003.07 508.476 1002.96 508.411 1002.81 508.411H1001.31C1001.1 508.411 1000.95 508.563 1000.95 508.758V520.601C1000.95 520.774 1001.05 520.883 1001.27 520.883L1006.5 520.904C1006.72 520.904 1006.85 520.731 1006.85 520.536V519.432C1006.85 519.237 1006.72 519.085 1006.52 519.085L1002.74 519.064V511.01L1012.34 524H1013.72C1013.98 524 1014.11 523.892 1014.11 523.676L1014.22 508.823C1014.22 508.628 1014.13 508.476 1013.81 508.476H1013.7ZM1008.41 522.182H1001.29C1001.05 522.182 1000.95 522.355 1000.95 522.571V523.676C1000.95 523.892 1001.08 524 1001.27 524H1008.38C1008.58 524 1008.73 523.827 1008.73 523.632V522.528C1008.73 522.333 1008.6 522.182 1008.41 522.182ZM1024.39 508.498C1024.22 508.498 1024.06 508.628 1024.06 508.823V523.676C1024.06 523.892 1024.17 524 1024.39 524H1025.51C1025.73 524 1025.88 523.892 1025.88 523.676V508.844C1025.88 508.65 1025.79 508.498 1025.51 508.498H1024.39ZM1042.14 508.476H1041.19C1041.02 508.476 1040.87 508.628 1040.87 508.801L1040.78 520.991L1031.59 508.585C1031.5 508.476 1031.4 508.411 1031.24 508.411H1029.75C1029.54 508.411 1029.39 508.563 1029.39 508.758V520.601C1029.39 520.774 1029.49 520.883 1029.71 520.883L1034.94 520.904C1035.16 520.904 1035.29 520.731 1035.29 520.536V519.432C1035.29 519.237 1035.16 519.085 1034.96 519.085L1031.18 519.064V511.01L1040.78 524H1042.16C1042.42 524 1042.55 523.892 1042.55 523.676L1042.66 508.823C1042.66 508.628 1042.57 508.476 1042.25 508.476H1042.14ZM1036.84 522.182H1029.73C1029.49 522.182 1029.39 522.355 1029.39 522.571V523.676C1029.39 523.892 1029.52 524 1029.71 524H1036.82C1037.02 524 1037.17 523.827 1037.17 523.632V522.528C1037.17 522.333 1037.04 522.182 1036.84 522.182ZM1058.57 508.974C1058.59 508.909 1058.61 508.844 1058.61 508.779C1058.61 508.606 1058.46 508.498 1058.25 508.498H1057.14C1056.71 508.498 1056.69 508.801 1056.26 509.862L1051.65 521.207L1047.07 509.862C1046.64 508.801 1046.59 508.498 1046.18 508.498H1045.08C1044.76 508.498 1044.65 508.736 1044.76 508.974L1050.9 523.74C1050.98 523.979 1051.07 524 1051.31 524H1052C1052.21 524 1052.32 524 1052.43 523.74L1058.57 508.974ZM1061.02 524H1071.18C1071.42 524 1071.55 523.87 1071.55 523.632V522.571C1071.55 522.333 1071.38 522.203 1071.16 522.203H1062.49V519.215H1069.43C1069.62 519.215 1069.75 519.021 1069.75 518.847V517.743C1069.75 517.548 1069.62 517.397 1069.43 517.397H1062.49V514.712H1069.43C1069.62 514.712 1069.75 514.539 1069.75 514.344V513.261C1069.75 513.066 1069.62 512.893 1069.43 512.893H1062.49V510.295H1071.22C1071.46 510.295 1071.57 510.165 1071.57 509.905V508.823C1071.57 508.606 1071.46 508.498 1071.25 508.498H1061.02C1060.8 508.498 1060.67 508.585 1060.67 508.801V523.654C1060.67 523.892 1060.78 524 1061.02 524ZM1076.47 510.88C1077.01 510.273 1077.7 509.819 1078.52 509.71C1078.72 509.689 1078.87 509.602 1078.87 509.386V508.39C1078.87 508.173 1078.76 508 1078.52 508C1075.89 508.13 1073.85 510.447 1073.85 512.915C1073.85 513.564 1074 514.236 1074.33 514.885C1075.02 516.292 1076.84 517.288 1076.84 519.042C1076.84 520.558 1075.5 522.203 1073.96 522.398C1073.77 522.42 1073.62 522.55 1073.62 522.745V523.697C1073.62 523.914 1073.72 524.087 1073.96 524.087C1076.58 523.935 1078.52 521.705 1078.52 519.194C1078.52 517.094 1077.25 516.076 1076.19 514.669C1075.8 514.149 1075.6 513.564 1075.6 513.001C1075.6 512.157 1076.34 511.01 1076.47 510.88ZM1089.69 508.498H1083.7C1083.51 508.498 1083.35 508.628 1083.35 508.823V523.654C1083.35 523.849 1083.51 524 1083.7 524H1084.78C1085 524 1085.15 523.827 1085.15 523.654V510.295H1089.69C1089.93 510.295 1090.08 510.143 1090.08 509.884V508.823C1090.03 508.628 1089.88 508.498 1089.69 508.498ZM1092.46 508.498C1092.28 508.498 1092.13 508.628 1092.13 508.823V523.676C1092.13 523.892 1092.24 524 1092.46 524H1093.58C1093.8 524 1093.95 523.892 1093.95 523.676V508.844C1093.95 508.65 1093.86 508.498 1093.58 508.498H1092.46ZM1110.21 508.476H1109.26C1109.08 508.476 1108.93 508.628 1108.93 508.801L1108.84 520.991L1099.66 508.585C1099.57 508.476 1099.46 508.411 1099.31 508.411H1097.82C1097.6 508.411 1097.45 508.563 1097.45 508.758V520.601C1097.45 520.774 1097.56 520.883 1097.78 520.883L1103.01 520.904C1103.22 520.904 1103.35 520.731 1103.35 520.536V519.432C1103.35 519.237 1103.22 519.085 1103.03 519.085L1099.25 519.064V511.01L1108.84 524H1110.23C1110.49 524 1110.62 523.892 1110.62 523.676L1110.73 508.823C1110.73 508.628 1110.64 508.476 1110.31 508.476H1110.21ZM1104.91 522.182H1097.8C1097.56 522.182 1097.45 522.355 1097.45 522.571V523.676C1097.45 523.892 1097.58 524 1097.78 524H1104.89C1105.08 524 1105.23 523.827 1105.23 523.632V522.528C1105.23 522.333 1105.1 522.182 1104.91 522.182ZM1123.91 510.685C1124.71 511.183 1124.82 511.226 1124.93 511.226C1125.25 511.226 1125.84 510.706 1125.84 510.23C1125.84 510.079 1125.79 509.949 1125.69 509.84C1124.43 508.585 1122.42 508.022 1120.76 508.022C1116.35 508.022 1112.78 511.681 1112.78 516.011C1112.78 517.505 1113.19 518.956 1113.95 520.211C1113.95 520.233 1113.75 519.887 1113.75 519.865C1115.16 522.376 1117.82 524 1120.71 524C1122.46 524 1124.09 523.459 1125.51 522.463C1125.75 522.29 1125.86 522.203 1125.86 521.943V517.418C1125.86 517.115 1125.64 516.899 1125.34 516.899H1124.58C1124.28 516.899 1124.09 517.115 1124.09 517.418V521.207C1123 521.749 1121.84 522.225 1120.63 522.225C1117.3 522.225 1114.55 519.367 1114.55 516.033C1114.55 512.655 1117.51 509.884 1120.91 509.884C1121.95 509.884 1122.98 510.143 1123.91 510.685ZM1137.52 517.159H1143.58C1143.77 517.159 1143.9 516.964 1143.9 516.769V515.686C1143.9 515.491 1143.77 515.34 1143.58 515.34H1137.52V510.295H1146.06C1146.28 510.295 1146.43 510.122 1146.43 509.905V508.866C1146.43 508.628 1146.3 508.498 1146.06 508.498H1136.05C1135.81 508.498 1135.71 508.606 1135.71 508.844V523.697C1135.71 523.914 1135.84 524 1136.05 524H1137.16C1137.37 524 1137.52 523.914 1137.52 523.697V517.159ZM1155.92 508.758C1155.81 508.541 1155.77 508.476 1155.48 508.476H1155.42C1155.18 508.476 1155.07 508.541 1154.97 508.758L1148.52 523.481C1148.48 523.546 1148.48 523.611 1148.48 523.676C1148.48 523.87 1148.65 524 1148.89 524H1161.97C1162.21 524 1162.34 523.914 1162.34 523.74C1162.34 523.676 1162.34 523.632 1162.27 523.481C1162.27 523.459 1155.92 508.758 1155.92 508.758ZM1155.44 511.854L1159.81 522.16H1151.05L1155.44 511.854ZM1164.72 508.498C1164.55 508.498 1164.4 508.628 1164.4 508.823V523.676C1164.4 523.892 1164.51 524 1164.72 524H1165.85C1166.06 524 1166.21 523.892 1166.21 523.676V508.844C1166.21 508.65 1166.13 508.498 1165.85 508.498H1164.72ZM1179.08 524C1179.27 523.979 1179.38 523.87 1179.4 523.676V522.571C1179.4 522.398 1179.3 522.203 1179.08 522.203H1171.49V508.823C1171.49 508.628 1171.38 508.498 1171.17 508.498H1170.06C1169.87 508.498 1169.72 508.585 1169.72 508.823V523.676C1169.72 523.892 1169.83 524 1170.04 524H1179.08ZM1184.31 510.88C1184.85 510.273 1185.54 509.819 1186.36 509.71C1186.56 509.689 1186.71 509.602 1186.71 509.386V508.39C1186.71 508.173 1186.6 508 1186.36 508C1183.73 508.13 1181.7 510.447 1181.7 512.915C1181.7 513.564 1181.85 514.236 1182.17 514.885C1182.86 516.292 1184.68 517.288 1184.68 519.042C1184.68 520.558 1183.34 522.203 1181.8 522.398C1181.61 522.42 1181.46 522.55 1181.46 522.745V523.697C1181.46 523.914 1181.57 524.087 1181.8 524.087C1184.42 523.935 1186.36 521.705 1186.36 519.194C1186.36 517.094 1185.09 516.076 1184.03 514.669C1183.64 514.149 1183.45 513.564 1183.45 513.001C1183.45 512.157 1184.18 511.01 1184.31 510.88ZM1190.74 522.182H1189.49C1189.27 522.182 1189.14 522.376 1189.14 522.571V525.841C1189.14 526.035 1189.27 526.165 1189.47 526.165H1190.74C1190.94 526.165 1191.07 525.992 1191.07 525.797L1191.09 522.528C1191.09 522.333 1190.96 522.182 1190.74 522.182ZM724.342 530.344C724.234 530.128 724.19 530.063 723.909 530.063H723.845C723.607 530.063 723.499 530.128 723.391 530.344L716.948 545.067C716.905 545.132 716.905 545.197 716.905 545.262C716.905 545.457 717.078 545.587 717.316 545.587H730.395C730.633 545.587 730.763 545.5 730.763 545.327C730.763 545.262 730.763 545.218 730.698 545.067C730.698 545.045 724.342 530.344 724.342 530.344ZM723.866 533.44L728.233 543.746H719.478L723.866 533.44ZM745.579 530.063H744.628C744.455 530.063 744.303 530.214 744.303 530.387L744.217 542.577L735.029 530.171C734.942 530.063 734.834 529.998 734.683 529.998H733.191C732.975 529.998 732.824 530.149 732.824 530.344V542.187C732.824 542.361 732.932 542.469 733.148 542.469L738.38 542.49C738.596 542.49 738.726 542.317 738.726 542.122V541.018C738.726 540.823 738.596 540.672 738.401 540.672L734.618 540.65V532.596L744.217 545.587H745.601C745.86 545.587 745.99 545.478 745.99 545.262L746.098 530.409C746.098 530.214 746.011 530.063 745.687 530.063H745.579ZM740.282 543.768H733.17C732.932 543.768 732.824 543.941 732.824 544.158V545.262C732.824 545.478 732.953 545.587 733.148 545.587H740.261C740.455 545.587 740.607 545.413 740.607 545.218V544.114C740.607 543.919 740.477 543.768 740.282 543.768ZM763.379 530.344C763.271 530.128 763.227 530.063 762.946 530.063H762.881C762.644 530.063 762.535 530.128 762.427 530.344L755.985 545.067C755.942 545.132 755.942 545.197 755.942 545.262C755.942 545.457 756.115 545.587 756.352 545.587H769.432C769.67 545.587 769.799 545.5 769.799 545.327C769.799 545.262 769.8 545.218 769.735 545.067C769.735 545.045 763.379 530.344 763.379 530.344ZM762.903 533.44L767.27 543.746H758.514L762.903 533.44ZM773.244 530.084C773.05 530.084 772.898 530.236 772.898 530.452V531.535C772.898 531.708 773.028 531.86 773.244 531.86H778.346C779.989 531.86 781.33 533.375 781.33 534.977C781.33 536.515 780.011 537.965 778.454 538.074L772.206 538.052C772.012 538.052 771.861 538.204 771.861 538.42V545.262C771.861 545.478 771.969 545.587 772.206 545.587H773.309C773.547 545.587 773.655 545.478 773.655 545.262V539.827H778.389C781.243 539.827 783.081 537.381 783.081 534.891C783.081 532.228 781.286 530.084 778.476 530.084H773.244ZM785.486 545.587H795.647C795.885 545.587 796.014 545.457 796.014 545.218V544.158C796.014 543.919 795.841 543.789 795.625 543.789H786.956V540.802H793.896C794.09 540.802 794.22 540.607 794.22 540.434V539.329C794.22 539.135 794.09 538.983 793.896 538.983H786.956V536.298H793.896C794.09 536.298 794.22 536.125 794.22 535.93V534.848C794.22 534.653 794.09 534.479 793.896 534.479H786.956V531.881H795.69C795.928 531.881 796.036 531.751 796.036 531.492V530.409C796.036 530.193 795.928 530.084 795.712 530.084H785.486C785.27 530.084 785.14 530.171 785.14 530.387V545.24C785.14 545.478 785.248 545.587 785.486 545.587ZM806.954 541.646C808.056 543.551 809.937 544.915 812.099 545.392C814.304 545.89 816.661 545.435 818.477 544.093C818.65 543.963 818.801 543.811 818.693 543.616C818.671 543.573 818.087 542.599 818.087 542.599C817.914 542.317 817.806 542.339 817.568 542.49C814.866 544.201 811.883 544.071 809.829 542.339C807.754 540.628 807.083 537.662 808.164 535.216C809.202 532.877 811.58 531.448 814.088 531.448C815.342 531.535 816.574 531.86 817.568 532.639C817.785 532.834 818.001 532.769 818.174 532.509L818.714 531.622C818.822 531.427 818.779 531.318 818.541 531.145C816.293 529.5 813.31 529.175 810.737 530.257C808.251 531.318 806.435 533.592 805.981 536.233C805.678 538.095 806.002 540.022 806.954 541.646C807.3 542.231 806.608 541.04 806.954 541.646ZM828.281 530.344C828.173 530.128 828.128 530.063 827.848 530.063H827.785C827.542 530.063 827.434 530.128 827.326 530.344L820.884 545.067C820.841 545.132 820.841 545.197 820.841 545.262C820.841 545.457 821.014 545.587 821.252 545.587H834.334C834.568 545.587 834.703 545.5 834.703 545.327C834.703 545.262 834.703 545.218 834.631 545.067C834.631 545.045 828.281 530.344 828.281 530.344ZM827.803 533.44L832.172 543.746H823.414L827.803 533.44ZM849.512 530.063H848.567C848.395 530.063 848.242 530.214 848.242 530.387L848.152 542.577L838.964 530.171C838.883 530.063 838.775 529.998 838.622 529.998H837.127C836.91 529.998 836.757 530.149 836.757 530.344V542.187C836.757 542.361 836.865 542.469 837.081 542.469L842.315 542.49C842.531 542.49 842.666 542.317 842.666 542.122V541.018C842.666 540.823 842.531 540.672 842.342 540.672L838.559 540.65V532.596L848.152 545.587H849.539C849.801 545.587 849.927 545.478 849.927 545.262L850.035 530.409C850.035 530.214 849.945 530.063 849.621 530.063H849.512ZM844.216 543.768H837.109C836.865 543.768 836.757 543.941 836.757 544.158V545.262C836.757 545.478 836.892 545.587 837.081 545.587H844.198C844.396 545.587 844.54 545.413 844.54 545.218V544.114C844.54 543.919 844.414 543.768 844.216 543.768ZM867.853 529.608C863.448 529.608 859.881 533.202 859.881 537.597C859.881 541.992 863.448 545.587 867.853 545.587C872.248 545.587 875.834 541.992 875.834 537.597C875.834 533.202 872.248 529.608 867.853 529.608ZM867.853 543.833C864.421 543.833 861.628 541.018 861.628 537.597C861.628 534.155 864.421 531.362 867.853 531.362C871.276 531.362 874.059 534.155 874.059 537.597C874.059 541.018 871.276 543.833 867.853 543.833ZM890.562 530.063H889.607C889.436 530.063 889.282 530.214 889.282 530.387L889.192 542.577L880.004 530.171C879.923 530.063 879.815 529.998 879.662 529.998H878.167C877.951 529.998 877.806 530.149 877.806 530.344V542.187C877.806 542.361 877.914 542.469 878.131 542.469L883.355 542.49C883.571 542.49 883.706 542.317 883.706 542.122V541.018C883.706 540.823 883.571 540.672 883.382 540.672L879.599 540.65V532.596L889.192 545.587H890.58C890.841 545.587 890.967 545.478 890.967 545.262L891.075 530.409C891.075 530.214 890.994 530.063 890.67 530.063H890.562ZM885.265 543.768H878.149C877.914 543.768 877.806 543.941 877.806 544.158V545.262C877.806 545.478 877.932 545.587 878.131 545.587H885.238C885.436 545.587 885.589 545.413 885.589 545.218V544.114C885.589 543.919 885.454 543.768 885.265 543.768ZM902.488 545.587C902.686 545.565 902.794 545.457 902.812 545.262V544.158C902.812 543.984 902.704 543.789 902.488 543.789H894.903V530.409C894.903 530.214 894.795 530.084 894.579 530.084H893.48C893.282 530.084 893.129 530.171 893.129 530.409V545.262C893.129 545.478 893.237 545.587 893.453 545.587H902.488ZM905.001 530.084C904.893 530.084 904.866 530.128 904.866 530.171C904.866 530.236 904.911 530.322 904.956 530.387L910.19 538.766V545.218C910.19 545.435 910.253 545.587 910.487 545.587H911.613C911.874 545.587 911.982 545.457 911.982 545.218V538.658L907.983 531.903H911.595C911.784 531.903 911.919 531.708 911.919 531.513V530.409C911.919 530.214 911.784 530.084 911.595 530.084H905.001ZM934.947 545.652C935.142 545.63 935.25 545.522 935.271 545.327V544.223C935.271 544.049 935.163 543.854 934.947 543.854H927.359V530.474C927.359 530.279 927.251 530.149 927.035 530.149H925.932C925.738 530.149 925.586 530.236 925.586 530.474V545.327C925.586 545.543 925.694 545.652 925.91 545.652H934.947ZM945.303 529.673C940.892 529.673 937.325 533.267 937.325 537.662C937.325 542.057 940.892 545.652 945.303 545.652C949.691 545.652 953.28 542.057 953.28 537.662C953.28 533.267 949.691 529.673 945.303 529.673ZM945.303 543.898C941.865 543.898 939.076 541.083 939.076 537.662C939.076 534.22 941.865 531.427 945.303 531.427C948.719 531.427 951.507 534.22 951.507 537.662C951.507 541.083 948.719 543.898 945.303 543.898ZM963.227 529.673C958.816 529.673 955.249 533.267 955.249 537.662C955.249 542.057 958.816 545.652 963.227 545.652C967.615 545.652 971.204 542.057 971.204 537.662C971.204 533.267 967.615 529.673 963.227 529.673ZM963.227 543.898C959.789 543.898 957 541.083 957 537.662C957 534.22 959.789 531.427 963.227 531.427C966.642 531.427 969.431 534.22 969.431 537.662C969.431 541.083 966.642 543.898 963.227 543.898ZM983.313 545.24L978.146 539.762L983.075 534.566C983.334 534.306 982.945 534.155 982.686 534.155H981.216C980.999 534.155 980.826 534.35 980.675 534.501L974.946 540.563V539.373L981.734 532.163C981.799 532.098 981.821 532.055 981.821 531.99C981.821 531.838 981.691 531.751 981.367 531.751H979.897C979.659 531.751 979.486 531.946 979.356 532.098L974.946 536.796V530.647C974.946 530.366 974.73 530.128 974.427 530.128H973.67C973.368 530.128 973.173 530.344 973.173 530.647V545.132C973.173 545.478 973.346 545.652 973.67 545.652H974.427C974.773 545.652 974.946 545.478 974.946 545.132V543.14L976.935 541.061L980.934 545.305C981.064 545.457 981.237 545.652 981.453 545.652H982.923C983.183 545.652 983.421 545.587 983.421 545.435C983.421 545.392 983.377 545.327 983.313 545.24ZM1001.66 530.149H995.672C995.478 530.149 995.326 530.279 995.326 530.474V545.305C995.326 545.5 995.478 545.652 995.672 545.652H996.753C996.969 545.652 997.121 545.478 997.121 545.305V531.946H1001.66C1001.9 531.946 1002.05 531.795 1002.05 531.535V530.474C1002.01 530.279 1001.86 530.149 1001.66 530.149ZM1012.08 529.673C1007.67 529.673 1004.1 533.267 1004.1 537.662C1004.1 542.057 1007.67 545.652 1012.08 545.652C1016.47 545.652 1020.06 542.057 1020.06 537.662C1020.06 533.267 1016.47 529.673 1012.08 529.673ZM1012.08 543.898C1008.64 543.898 1005.85 541.083 1005.85 537.662C1005.85 534.22 1008.64 531.427 1012.08 531.427C1015.5 531.427 1018.28 534.22 1018.28 537.662C1018.28 541.083 1015.5 543.898 1012.08 543.898ZM1038.21 530.149H1032.22C1032.02 530.149 1031.87 530.279 1031.87 530.474V545.305C1031.87 545.5 1032.02 545.652 1032.22 545.652H1033.3C1033.51 545.652 1033.67 545.478 1033.67 545.305V531.946H1038.21C1038.44 531.946 1038.6 531.795 1038.6 531.535V530.474C1038.55 530.279 1038.4 530.149 1038.21 530.149ZM1051.7 530.236C1051.63 530.301 1051.61 530.387 1051.61 530.474V534.566H1042.44V530.474C1042.44 530.279 1042.27 530.149 1042.1 530.149H1040.97C1040.8 530.149 1040.65 530.258 1040.65 530.474V545.327C1040.65 545.543 1040.76 545.652 1040.97 545.652H1042.08C1042.31 545.652 1042.44 545.543 1042.44 545.327V540.867H1051.61V545.327C1051.61 545.543 1051.72 545.652 1051.96 545.652H1053.04C1053.25 545.652 1053.4 545.565 1053.4 545.327V530.474C1053.4 530.279 1053.23 530.149 1053.04 530.149H1051.96C1051.85 530.149 1051.76 530.171 1051.7 530.236ZM1051.61 539.048H1042.44V536.363H1051.61V539.048ZM1055.79 545.652H1065.95C1066.19 545.652 1066.32 545.522 1066.32 545.283V544.223C1066.32 543.984 1066.15 543.854 1065.93 543.854H1057.26V540.867H1064.2C1064.4 540.867 1064.53 540.672 1064.53 540.499V539.394C1064.53 539.2 1064.4 539.048 1064.2 539.048H1057.26V536.363H1064.2C1064.4 536.363 1064.53 536.19 1064.53 535.995V534.913C1064.53 534.718 1064.4 534.544 1064.2 534.544H1057.26V531.946H1066C1066.24 531.946 1066.34 531.816 1066.34 531.557V530.474C1066.34 530.258 1066.24 530.149 1066.02 530.149H1055.79C1055.58 530.149 1055.45 530.236 1055.45 530.452V545.305C1055.45 545.543 1055.56 545.652 1055.79 545.652ZM1079.03 532.531C1079.57 531.925 1080.27 531.47 1081.09 531.362C1081.28 531.34 1081.43 531.253 1081.43 531.037V530.041C1081.43 529.824 1081.33 529.651 1081.09 529.651C1078.45 529.781 1076.42 532.098 1076.42 534.566C1076.42 535.216 1076.57 535.887 1076.89 536.536C1077.59 537.944 1079.4 538.94 1079.4 540.693C1079.4 542.209 1078.06 543.854 1076.53 544.049C1076.33 544.071 1076.18 544.201 1076.18 544.396V545.348C1076.18 545.565 1076.29 545.738 1076.53 545.738C1079.14 545.587 1081.09 543.357 1081.09 540.845C1081.09 538.745 1079.81 537.727 1078.75 536.32C1078.36 535.8 1078.17 535.216 1078.17 534.653C1078.17 533.808 1078.9 532.661 1079.03 532.531ZM1092.25 530.149H1086.27C1086.07 530.149 1085.92 530.279 1085.92 530.474V545.305C1085.92 545.5 1086.07 545.652 1086.27 545.652H1087.35C1087.56 545.652 1087.71 545.478 1087.71 545.305V531.946H1092.25C1092.49 531.946 1092.64 531.795 1092.64 531.535V530.474C1092.6 530.279 1092.45 530.149 1092.25 530.149ZM1102.13 530.409C1102.03 530.193 1101.98 530.128 1101.7 530.128H1101.64C1101.4 530.128 1101.29 530.193 1101.18 530.409L1094.74 545.132C1094.7 545.197 1094.7 545.262 1094.7 545.327C1094.7 545.522 1094.87 545.652 1095.11 545.652H1108.19C1108.42 545.652 1108.55 545.565 1108.55 545.392C1108.55 545.327 1108.55 545.283 1108.49 545.132C1108.49 545.11 1102.13 530.409 1102.13 530.409ZM1101.66 533.505L1106.02 543.811H1097.27L1101.66 533.505ZM1110.96 538.117C1110.77 538.117 1110.62 538.269 1110.62 538.485V545.327C1110.62 545.543 1110.72 545.652 1110.96 545.652H1112.09C1112.3 545.652 1112.41 545.543 1112.41 545.327V539.892H1116.11L1119.37 545.327C1119.48 545.5 1119.63 545.652 1119.85 545.652H1121.47C1121.6 545.652 1121.66 545.63 1121.66 545.587C1121.66 545.543 1121.64 545.5 1121.6 545.413L1118.23 539.784C1120.34 539.178 1121.9 537.186 1121.9 534.999C1121.9 532.379 1119.7 530.149 1117.12 530.149H1111.89C1111.67 530.149 1111.54 530.258 1111.54 530.474V531.557C1111.54 531.773 1111.65 531.925 1111.89 531.925H1117.1C1118.74 531.925 1120.08 533.44 1120.08 535.021C1120.08 536.558 1118.79 538.009 1117.25 538.117H1110.96ZM1126.81 532.531C1127.35 531.925 1128.04 531.47 1128.87 531.362C1129.06 531.34 1129.21 531.253 1129.21 531.037V530.041C1129.21 529.824 1129.1 529.651 1128.87 529.651C1126.23 529.781 1124.2 532.098 1124.2 534.566C1124.2 535.216 1124.35 535.887 1124.67 536.536C1125.36 537.944 1127.18 538.94 1127.18 540.693C1127.18 542.209 1125.84 543.854 1124.3 544.049C1124.11 544.071 1123.96 544.201 1123.96 544.396V545.348C1123.96 545.565 1124.07 545.738 1124.3 545.738C1126.92 545.587 1128.87 543.357 1128.87 540.845C1128.87 538.745 1127.59 537.727 1126.53 536.32C1126.14 535.8 1125.95 535.216 1125.95 534.653C1125.95 533.808 1126.68 532.661 1126.81 532.531ZM1139.14 530.431C1138.96 531.196 1138.68 532.04 1138.32 532.964C1137.98 533.888 1137.63 534.732 1137.29 535.497H1135.86C1136 534.949 1136.14 534.364 1136.27 533.743C1136.41 533.108 1136.54 532.488 1136.66 531.881C1136.79 531.261 1136.89 530.698 1136.96 530.193H1138.99L1139.14 530.431ZM1135.14 530.431C1134.96 531.196 1134.68 532.04 1134.32 532.964C1133.98 533.888 1133.63 534.732 1133.29 535.497H1131.9C1132.05 534.949 1132.18 534.364 1132.31 533.743C1132.44 533.108 1132.56 532.488 1132.68 531.881C1132.8 531.261 1132.89 530.698 1132.96 530.193H1134.99L1135.14 530.431ZM708.965 575.877V574.188H714.197V575.877H708.965ZM730.295 565.592C730.187 565.376 730.144 565.311 729.863 565.311H729.798C729.56 565.311 729.452 565.376 729.344 565.592L722.901 580.315C722.858 580.38 722.858 580.445 722.858 580.51C722.858 580.705 723.031 580.835 723.269 580.835H736.348C736.586 580.835 736.716 580.748 736.716 580.575C736.716 580.51 736.716 580.467 736.651 580.315C736.651 580.294 730.295 565.592 730.295 565.592ZM729.819 568.688L734.186 578.994H725.431L729.819 568.688ZM751.532 565.311H750.581C750.408 565.311 750.257 565.462 750.257 565.636L750.17 577.825L740.982 565.419C740.896 565.311 740.787 565.246 740.636 565.246H739.144C738.928 565.246 738.777 565.397 738.777 565.592V577.436C738.777 577.609 738.885 577.717 739.101 577.717L744.333 577.739C744.549 577.739 744.679 577.565 744.679 577.371V576.266C744.679 576.072 744.549 575.92 744.355 575.92L740.571 575.898V567.844L750.17 580.835H751.554C751.813 580.835 751.943 580.727 751.943 580.51L752.051 565.657C752.051 565.462 751.965 565.311 751.64 565.311H751.532ZM746.235 579.016H739.123C738.885 579.016 738.777 579.189 738.777 579.406V580.51C738.777 580.727 738.907 580.835 739.101 580.835H746.214C746.408 580.835 746.56 580.662 746.56 580.467V579.363C746.56 579.168 746.43 579.016 746.235 579.016ZM762.081 564.856C757.671 564.856 754.104 568.45 754.104 572.845C754.104 577.241 757.671 580.835 762.081 580.835C766.47 580.835 770.059 577.241 770.059 572.845C770.059 568.45 766.47 564.856 762.081 564.856ZM762.081 579.081C758.644 579.081 755.855 576.266 755.855 572.845C755.855 569.403 758.644 566.61 762.081 566.61C765.497 566.61 768.286 569.403 768.286 572.845C768.286 576.266 765.497 579.081 762.081 579.081ZM784.784 565.311H783.833C783.66 565.311 783.508 565.462 783.508 565.636L783.422 577.825L774.234 565.419C774.147 565.311 774.039 565.246 773.888 565.246H772.396C772.18 565.246 772.029 565.397 772.029 565.592V577.436C772.029 577.609 772.137 577.717 772.353 577.717L777.585 577.739C777.801 577.739 777.931 577.565 777.931 577.371V576.266C777.931 576.072 777.801 575.92 777.606 575.92L773.823 575.898V567.844L783.422 580.835H784.806C785.065 580.835 785.195 580.727 785.195 580.51L785.303 565.657C785.303 565.462 785.216 565.311 784.892 565.311H784.784ZM779.487 579.016H772.375C772.137 579.016 772.029 579.189 772.029 579.406V580.51C772.029 580.727 772.159 580.835 772.353 580.835H779.466C779.66 580.835 779.812 580.662 779.812 580.467V579.363C779.812 579.168 779.682 579.016 779.487 579.016ZM788.956 579.016H787.702C787.485 579.016 787.356 579.211 787.356 579.406V580.51C787.356 580.705 787.485 580.835 787.68 580.835H788.956C789.15 580.835 789.28 580.662 789.28 580.467L789.301 579.363C789.301 579.168 789.172 579.016 788.956 579.016ZM806.574 565.592C806.466 565.376 806.423 565.311 806.142 565.311H806.077C805.839 565.311 805.731 565.376 805.623 565.592L799.181 580.315C799.136 580.38 799.136 580.445 799.136 580.51C799.136 580.705 799.31 580.835 799.548 580.835H812.628C812.865 580.835 812.995 580.748 812.995 580.575C812.995 580.51 812.995 580.467 812.93 580.315C812.93 580.294 806.574 565.592 806.574 565.592ZM806.099 568.688L810.466 578.994H801.71L806.099 568.688ZM816.439 565.333C816.244 565.333 816.093 565.484 816.093 565.701V566.783C816.093 566.956 816.223 567.108 816.439 567.108H821.541C823.184 567.108 824.524 568.624 824.524 570.226C824.524 571.763 823.206 573.214 821.649 573.322L815.401 573.3C815.206 573.3 815.055 573.452 815.055 573.668V580.51C815.055 580.727 815.163 580.835 815.401 580.835H816.504C816.741 580.835 816.85 580.727 816.85 580.51V575.076H821.584C824.438 575.076 826.275 572.629 826.275 570.139C826.275 567.476 824.481 565.333 821.671 565.333H816.439ZM828.681 580.835H838.842C839.08 580.835 839.21 580.705 839.21 580.467V579.406C839.21 579.168 839.037 579.038 838.821 579.038H830.152V576.05H837.091C837.286 576.05 837.416 575.855 837.416 575.682V574.578C837.416 574.383 837.286 574.231 837.091 574.231H830.152V571.546H837.091C837.286 571.546 837.416 571.373 837.416 571.178V570.096C837.416 569.901 837.286 569.728 837.091 569.728H830.152V567.13H838.886C839.123 567.13 839.232 567 839.232 566.74V565.657C839.232 565.441 839.123 565.333 838.907 565.333H828.681C828.465 565.333 828.336 565.419 828.336 565.636V580.488C828.336 580.727 828.444 580.835 828.681 580.835ZM842.877 579.016H841.623C841.407 579.016 841.277 579.211 841.277 579.406V582.675C841.277 582.87 841.407 583 841.602 583H842.877C843.072 583 843.201 582.827 843.201 582.632L843.223 579.363C843.223 579.168 843.093 579.016 842.877 579.016ZM854.874 573.993H860.927C861.122 573.993 861.251 573.798 861.251 573.603V572.521C861.251 572.326 861.122 572.174 860.927 572.174H854.874V567.13H863.413C863.63 567.13 863.781 566.956 863.781 566.74V565.701C863.781 565.462 863.651 565.333 863.413 565.333H853.404C853.166 565.333 853.058 565.441 853.058 565.679V580.532C853.058 580.748 853.188 580.835 853.404 580.835H854.506C854.722 580.835 854.874 580.748 854.874 580.532V573.993ZM873.268 565.592C873.16 565.376 873.117 565.311 872.836 565.311H872.771C872.533 565.311 872.425 565.376 872.317 565.592L865.874 580.315C865.831 580.38 865.831 580.445 865.831 580.51C865.831 580.705 866.004 580.835 866.242 580.835H879.321C879.559 580.835 879.689 580.748 879.689 580.575C879.689 580.51 879.689 580.467 879.624 580.315C879.624 580.294 873.268 565.592 873.268 565.592ZM872.792 568.688L877.159 578.994H868.404L872.792 568.688ZM890.137 565.333H884.149C883.954 565.333 883.803 565.462 883.803 565.657V580.488C883.803 580.683 883.954 580.835 884.149 580.835H885.23C885.446 580.835 885.597 580.662 885.597 580.488V567.13H890.137C890.375 567.13 890.526 566.978 890.526 566.718V565.657C890.483 565.462 890.332 565.333 890.137 565.333ZM903.627 565.419C903.563 565.484 903.541 565.571 903.541 565.657V569.749H894.374V565.657C894.374 565.462 894.202 565.333 894.029 565.333H892.904C892.731 565.333 892.58 565.441 892.58 565.657V580.51C892.58 580.727 892.688 580.835 892.904 580.835H894.007C894.245 580.835 894.374 580.727 894.374 580.51V576.05H903.541V580.51C903.541 580.727 903.649 580.835 903.887 580.835H904.968C905.184 580.835 905.335 580.748 905.335 580.51V565.657C905.335 565.462 905.162 565.333 904.968 565.333H903.887C903.779 565.333 903.692 565.354 903.627 565.419ZM903.541 574.231H894.374V571.546H903.541V574.231ZM907.726 580.835H917.887C918.125 580.835 918.254 580.705 918.254 580.467V579.406C918.254 579.168 918.082 579.038 917.865 579.038H909.196V576.05H916.136C916.33 576.05 916.46 575.855 916.46 575.682V574.578C916.46 574.383 916.33 574.231 916.136 574.231H909.196V571.546H916.136C916.33 571.546 916.46 571.373 916.46 571.178V570.096C916.46 569.901 916.33 569.728 916.136 569.728H909.196V567.13H917.93C918.168 567.13 918.276 567 918.276 566.74V565.657C918.276 565.441 918.168 565.333 917.952 565.333H907.726C907.51 565.333 907.38 565.419 907.38 565.636V580.488C907.38 580.727 907.488 580.835 907.726 580.835ZM920.668 573.3C920.473 573.3 920.322 573.452 920.322 573.668V580.51C920.322 580.727 920.43 580.835 920.668 580.835H921.792C922.008 580.835 922.116 580.727 922.116 580.51V575.076H925.813L929.078 580.51C929.186 580.683 929.337 580.835 929.553 580.835H931.175C931.304 580.835 931.369 580.813 931.369 580.77C931.369 580.727 931.348 580.683 931.304 580.597L927.932 574.967C930.05 574.361 931.607 572.369 931.607 570.182C931.607 567.563 929.402 565.333 926.829 565.333H921.597C921.381 565.333 921.251 565.441 921.251 565.657V566.74C921.251 566.956 921.36 567.108 921.597 567.108H926.807C928.451 567.108 929.791 568.624 929.791 570.204C929.791 571.741 928.494 573.192 926.959 573.3H920.668ZM942.839 565.333C942.644 565.333 942.493 565.484 942.493 565.701V566.783C942.493 566.956 942.623 567.108 942.839 567.108H947.941C949.584 567.108 950.924 568.624 950.924 570.226C950.924 571.763 949.606 573.214 948.049 573.322L941.801 573.3C941.607 573.3 941.455 573.452 941.455 573.668V580.51C941.455 580.727 941.563 580.835 941.801 580.835H942.904C943.142 580.835 943.25 580.727 943.25 580.51V575.076H947.984C950.838 575.076 952.676 572.629 952.676 570.139C952.676 567.476 950.881 565.333 948.071 565.333H942.839ZM964.096 580.835C964.29 580.813 964.398 580.705 964.42 580.51V579.406C964.42 579.233 964.312 579.038 964.096 579.038H956.508V565.657C956.508 565.462 956.399 565.333 956.183 565.333H955.081C954.886 565.333 954.735 565.419 954.735 565.657V580.51C954.735 580.727 954.843 580.835 955.059 580.835H964.096ZM973.91 565.592C973.802 565.376 973.759 565.311 973.478 565.311H973.413C973.175 565.311 973.067 565.376 972.959 565.592L966.516 580.315C966.473 580.38 966.473 580.445 966.473 580.51C966.473 580.705 966.646 580.835 966.884 580.835H979.963C980.201 580.835 980.331 580.748 980.331 580.575C980.331 580.51 980.331 580.467 980.266 580.315C980.266 580.294 973.91 565.592 973.91 565.592ZM973.434 568.688L977.801 578.994H969.046L973.434 568.688ZM995.147 565.311H994.196C994.023 565.311 993.872 565.462 993.872 565.636L993.785 577.825L984.597 565.419C984.51 565.311 984.402 565.246 984.251 565.246H982.759C982.543 565.246 982.392 565.397 982.392 565.592V577.436C982.392 577.609 982.5 577.717 982.716 577.717L987.948 577.739C988.164 577.739 988.294 577.565 988.294 577.371V576.266C988.294 576.072 988.164 575.92 987.97 575.92L984.186 575.898V567.844L993.785 580.835H995.169C995.428 580.835 995.558 580.727 995.558 580.51L995.666 565.657C995.666 565.462 995.579 565.311 995.255 565.311H995.147ZM989.85 579.016H982.738C982.5 579.016 982.392 579.189 982.392 579.406V580.51C982.392 580.727 982.522 580.835 982.716 580.835H989.829C990.023 580.835 990.175 580.662 990.175 580.467V579.363C990.175 579.168 990.045 579.016 989.85 579.016ZM998.066 580.835H1008.23C1008.46 580.835 1008.59 580.705 1008.59 580.467V579.406C1008.59 579.168 1008.42 579.038 1008.2 579.038H999.536V576.05H1006.48C1006.67 576.05 1006.8 575.855 1006.8 575.682V574.578C1006.8 574.383 1006.67 574.231 1006.48 574.231H999.536V571.546H1006.48C1006.67 571.546 1006.8 571.373 1006.8 571.178V570.096C1006.8 569.901 1006.67 569.728 1006.48 569.728H999.536V567.13H1008.27C1008.51 567.13 1008.62 567 1008.62 566.74V565.657C1008.62 565.441 1008.51 565.333 1008.29 565.333H998.066C997.849 565.333 997.72 565.419 997.72 565.636V580.488C997.72 580.727 997.828 580.835 998.066 580.835ZM1019.05 565.333H1013.06C1012.87 565.333 1012.72 565.462 1012.72 565.657V580.488C1012.72 580.683 1012.87 580.835 1013.06 580.835H1014.14C1014.36 580.835 1014.51 580.662 1014.51 580.488V567.13H1019.05C1019.29 567.13 1019.44 566.978 1019.44 566.718V565.657C1019.4 565.462 1019.24 565.333 1019.05 565.333ZM1028.93 565.592C1028.82 565.376 1028.78 565.311 1028.5 565.311H1028.43C1028.19 565.311 1028.09 565.376 1027.98 565.592L1021.53 580.315C1021.49 580.38 1021.49 580.445 1021.49 580.51C1021.49 580.705 1021.66 580.835 1021.9 580.835H1034.98C1035.22 580.835 1035.35 580.748 1035.35 580.575C1035.35 580.51 1035.35 580.467 1035.28 580.315C1035.28 580.294 1028.93 565.592 1028.93 565.592ZM1028.45 568.688L1032.82 578.994H1024.06L1028.45 568.688ZM1037.76 573.3C1037.56 573.3 1037.41 573.452 1037.41 573.668V580.51C1037.41 580.727 1037.52 580.835 1037.76 580.835H1038.88C1039.1 580.835 1039.2 580.727 1039.2 580.51V575.076H1042.9L1046.17 580.51C1046.27 580.683 1046.43 580.835 1046.64 580.835H1048.26C1048.39 580.835 1048.46 580.813 1048.46 580.77C1048.46 580.727 1048.44 580.683 1048.39 580.597L1045.02 574.967C1047.14 574.361 1048.7 572.369 1048.7 570.182C1048.7 567.563 1046.49 565.333 1043.92 565.333H1038.69C1038.47 565.333 1038.34 565.441 1038.34 565.657V566.74C1038.34 566.956 1038.45 567.108 1038.69 567.108H1043.9C1045.54 567.108 1046.88 568.624 1046.88 570.204C1046.88 571.741 1045.58 573.192 1044.05 573.3H1037.76ZM1050.88 565.333C1050.78 565.333 1050.75 565.376 1050.75 565.419C1050.75 565.484 1050.8 565.571 1050.84 565.636L1056.07 574.015V580.467C1056.07 580.683 1056.14 580.835 1056.37 580.835H1057.5C1057.76 580.835 1057.87 580.705 1057.87 580.467V573.906L1053.87 567.151H1057.48C1057.67 567.151 1057.8 566.956 1057.8 566.762V565.657C1057.8 565.462 1057.67 565.333 1057.48 565.333H1050.88ZM1068.03 565.333C1067.86 565.333 1067.71 565.462 1067.71 565.657V580.51C1067.71 580.727 1067.81 580.835 1068.03 580.835H1069.16C1069.37 580.835 1069.52 580.727 1069.52 580.51V565.679C1069.52 565.484 1069.44 565.333 1069.16 565.333H1068.03ZM1085.78 565.311H1084.83C1084.66 565.311 1084.51 565.462 1084.51 565.636L1084.42 577.825L1075.23 565.419C1075.15 565.311 1075.04 565.246 1074.89 565.246H1073.39C1073.18 565.246 1073.03 565.397 1073.03 565.592V577.436C1073.03 577.609 1073.13 577.717 1073.35 577.717L1078.58 577.739C1078.8 577.739 1078.93 577.565 1078.93 577.371V576.266C1078.93 576.072 1078.8 575.92 1078.6 575.92L1074.82 575.898V567.844L1084.42 580.835H1085.8C1086.06 580.835 1086.19 580.727 1086.19 580.51L1086.3 565.657C1086.3 565.462 1086.21 565.311 1085.89 565.311H1085.78ZM1080.49 579.016H1073.37C1073.13 579.016 1073.03 579.189 1073.03 579.406V580.51C1073.03 580.727 1073.16 580.835 1073.35 580.835H1080.46C1080.66 580.835 1080.81 580.662 1080.81 580.467V579.363C1080.81 579.168 1080.68 579.016 1080.49 579.016ZM1102.21 565.809C1102.23 565.744 1102.26 565.679 1102.26 565.614C1102.26 565.441 1102.1 565.333 1101.89 565.333H1100.79C1100.35 565.333 1100.33 565.636 1099.9 566.697L1095.29 578.042L1090.71 566.697C1090.28 565.636 1090.24 565.333 1089.82 565.333H1088.72C1088.4 565.333 1088.29 565.571 1088.4 565.809L1094.54 580.575C1094.62 580.813 1094.71 580.835 1094.95 580.835H1095.64C1095.86 580.835 1095.96 580.835 1096.07 580.575L1102.21 565.809ZM1104.66 580.835H1114.82C1115.06 580.835 1115.19 580.705 1115.19 580.467V579.406C1115.19 579.168 1115.02 579.038 1114.8 579.038H1106.13V576.05H1113.07C1113.27 576.05 1113.4 575.855 1113.4 575.682V574.578C1113.4 574.383 1113.27 574.231 1113.07 574.231H1106.13V571.546H1113.07C1113.27 571.546 1113.4 571.373 1113.4 571.178V570.096C1113.4 569.901 1113.27 569.728 1113.07 569.728H1106.13V567.13H1114.87C1115.1 567.13 1115.21 567 1115.21 566.74V565.657C1115.21 565.441 1115.1 565.333 1114.89 565.333H1104.66C1104.45 565.333 1104.32 565.419 1104.32 565.636V580.488C1104.32 580.727 1104.42 580.835 1104.66 580.835ZM1120.11 567.714C1120.65 567.108 1121.34 566.653 1122.17 566.545C1122.36 566.523 1122.51 566.437 1122.51 566.22V565.224C1122.51 565.008 1122.4 564.835 1122.17 564.835C1119.53 564.964 1117.5 567.281 1117.5 569.749C1117.5 570.399 1117.65 571.07 1117.97 571.72C1118.66 573.127 1120.48 574.123 1120.48 575.877C1120.48 577.392 1119.14 579.038 1117.6 579.233C1117.41 579.254 1117.26 579.384 1117.26 579.579V580.532C1117.26 580.748 1117.37 580.921 1117.6 580.921C1120.22 580.77 1122.17 578.54 1122.17 576.028C1122.17 573.928 1120.89 572.91 1119.83 571.503C1119.44 570.984 1119.25 570.399 1119.25 569.836C1119.25 568.992 1119.98 567.844 1120.11 567.714ZM1133.33 565.333H1127.34C1127.15 565.333 1127 565.462 1127 565.657V580.488C1127 580.683 1127.15 580.835 1127.34 580.835H1128.42C1128.64 580.835 1128.79 580.662 1128.79 580.488V567.13H1133.33C1133.57 567.13 1133.72 566.978 1133.72 566.718V565.657C1133.68 565.462 1133.53 565.333 1133.33 565.333ZM1136.1 565.333C1135.92 565.333 1135.77 565.462 1135.77 565.657V580.51C1135.77 580.727 1135.88 580.835 1136.1 580.835H1137.22C1137.44 580.835 1137.59 580.727 1137.59 580.51V565.679C1137.59 565.484 1137.5 565.333 1137.22 565.333H1136.1ZM1153.85 565.311H1152.9C1152.72 565.311 1152.57 565.462 1152.57 565.636L1152.49 577.825L1143.3 565.419C1143.21 565.311 1143.1 565.246 1142.95 565.246H1141.46C1141.24 565.246 1141.09 565.397 1141.09 565.592V577.436C1141.09 577.609 1141.2 577.717 1141.42 577.717L1146.65 577.739C1146.87 577.739 1147 577.565 1147 577.371V576.266C1147 576.072 1146.87 575.92 1146.67 575.92L1142.89 575.898V567.844L1152.49 580.835H1153.87C1154.13 580.835 1154.26 580.727 1154.26 580.51L1154.37 565.657C1154.37 565.462 1154.28 565.311 1153.96 565.311H1153.85ZM1148.55 579.016H1141.44C1141.2 579.016 1141.09 579.189 1141.09 579.406V580.51C1141.09 580.727 1141.22 580.835 1141.42 580.835H1148.53C1148.72 580.835 1148.88 580.662 1148.88 580.467V579.363C1148.88 579.168 1148.75 579.016 1148.55 579.016ZM1167.55 567.519C1168.35 568.017 1168.46 568.061 1168.57 568.061C1168.89 568.061 1169.48 567.541 1169.48 567.065C1169.48 566.913 1169.44 566.783 1169.33 566.675C1168.07 565.419 1166.06 564.856 1164.4 564.856C1159.99 564.856 1156.42 568.515 1156.42 572.845C1156.42 574.339 1156.83 575.79 1157.59 577.046C1157.59 577.067 1157.39 576.721 1157.39 576.699C1158.8 579.211 1161.46 580.835 1164.35 580.835C1166.11 580.835 1167.73 580.294 1169.15 579.298C1169.39 579.124 1169.5 579.038 1169.5 578.778V574.253C1169.5 573.95 1169.28 573.733 1168.98 573.733H1168.22C1167.92 573.733 1167.73 573.95 1167.73 574.253V578.042C1166.65 578.583 1165.48 579.059 1164.27 579.059C1160.94 579.059 1158.19 576.201 1158.19 572.867C1158.19 569.49 1161.16 566.718 1164.55 566.718C1165.59 566.718 1166.62 566.978 1167.55 567.519Z" fill="white" fill-opacity="0.75" shape-rendering="crispEdges"/>
</g>
<defs>
<filter id="filter0_d" x="1209.82" y="490.265" width="63.6283" height="28.6665" filterUnits="userSpaceOnUse" color-interpolation-filters="sRGB">
<feFlood flood-opacity="0" result="BackgroundImageFix"/>
<feColorMatrix in="SourceAlpha" type="matrix" values="0 0 0 0 0 0 0 0 0 0 0 0 0 0 0 0 0 0 127 0" result="hardAlpha"/>
<feOffset dy="4"/>
<feGaussianBlur stdDeviation="2"/>
<feColorMatrix type="matrix" values="0 0 0 0 0 0 0 0 0 0 0 0 0 0 0 0 0 0 0.25 0"/>
<feBlend mode="normal" in2="BackgroundImageFix" result="effect1_dropShadow"/>
<feBlend mode="normal" in="SourceGraphic" in2="effect1_dropShadow" result="shape"/>
</filter>
<filter id="filter1_d" x="602.649" y="498.265" width="63.6283" height="28.6665" filterUnits="userSpaceOnUse" color-interpolation-filters="sRGB">
<feFlood flood-opacity="0" result="BackgroundImageFix"/>
<feColorMatrix in="SourceAlpha" type="matrix" values="0 0 0 0 0 0 0 0 0 0 0 0 0 0 0 0 0 0 127 0" result="hardAlpha"/>
<feOffset dy="4"/>
<feGaussianBlur stdDeviation="2"/>
<feColorMatrix type="matrix" values="0 0 0 0 0 0 0 0 0 0 0 0 0 0 0 0 0 0 0.25 0"/>
<feBlend mode="normal" in2="BackgroundImageFix" result="effect1_dropShadow"/>
<feBlend mode="normal" in="SourceGraphic" in2="effect1_dropShadow" result="shape"/>
</filter>
<filter id="filter2_di" x="675" y="508" width="516.088" height="76" filterUnits="userSpaceOnUse" color-interpolation-filters="sRGB">
<feFlood flood-opacity="0" result="BackgroundImageFix"/>
<feColorMatrix in="SourceAlpha" type="matrix" values="0 0 0 0 0 0 0 0 0 0 0 0 0 0 0 0 0 0 127 0" result="hardAlpha"/>
<feOffset dy="1"/>
<feComposite in2="hardAlpha" operator="out"/>
<feColorMatrix type="matrix" values="0 0 0 0 1 0 0 0 0 1 0 0 0 0 1 0 0 0 0.75 0"/>
<feBlend mode="normal" in2="BackgroundImageFix" result="effect1_dropShadow"/>
<feBlend mode="normal" in="SourceGraphic" in2="effect1_dropShadow" result="shape"/>
<feColorMatrix in="SourceAlpha" type="matrix" values="0 0 0 0 0 0 0 0 0 0 0 0 0 0 0 0 0 0 127 0" result="hardAlpha"/>
<feOffset dy="1"/>
<feComposite in2="hardAlpha" operator="arithmetic" k2="-1" k3="1"/>
<feColorMatrix type="matrix" values="0 0 0 0 0.258823 0 0 0 0 0.14902 0 0 0 0 0.501961 0 0 0 0.75 0"/>
<feBlend mode="normal" in2="shape" result="effect2_innerShadow"/>
</filter>
<linearGradient id="paint0_linear" x1="922.619" y1="223.263" x2="1102.42" y2="1248.77" gradientUnits="userSpaceOnUse">
<stop stop-color="#550747"/>
<stop offset="0.494792"/>
</linearGradient>
<linearGradient id="paint1_linear" x1="1129.32" y1="267.094" x2="933.482" y2="1370.63" gradientUnits="userSpaceOnUse">
<stop stop-color="#550747"/>
<stop offset="0.43811"/>
</linearGradient>
<linearGradient id="paint2_linear" x1="1378.56" y1="304.151" x2="1028.59" y2="1288.34" gradientUnits="userSpaceOnUse">
<stop offset="0.0347007" stop-color="#550747"/>
<stop offset="0.494792"/>
</linearGradient>
<linearGradient id="paint3_linear" x1="1591.91" y1="597.549" x2="1109.64" y2="1490.47" gradientUnits="userSpaceOnUse">
<stop offset="0.0347007" stop-color="#550747"/>
<stop offset="0.494792"/>
</linearGradient>
<linearGradient id="paint4_linear" x1="1486.99" y1="836.251" x2="1004.72" y2="1729.17" gradientUnits="userSpaceOnUse">
<stop offset="0.0347007" stop-color="#550747"/>
<stop offset="0.494792"/>
</linearGradient>
<linearGradient id="paint5_linear" x1="-9.03082" y1="5.57936e-07" x2="579.199" y2="482.167" gradientUnits="userSpaceOnUse">
<stop stop-color="#550747"/>
<stop offset="0.415152"/>
<stop offset="0.687206"/>
</linearGradient>
<linearGradient id="paint6_linear" x1="584.03" y1="170.322" x2="1269.5" y2="1173.13" gradientUnits="userSpaceOnUse">
<stop stop-color="#550747"/>
<stop offset="0.265625"/>
<stop offset="0.494792"/>
</linearGradient>
<linearGradient id="paint7_linear" x1="467.587" y1="149.657" x2="246.227" y2="1396.98" gradientUnits="userSpaceOnUse">
<stop stop-color="#550747"/>
<stop offset="0.322917"/>
<stop offset="0.494792"/>
</linearGradient>
<linearGradient id="paint8_linear" x1="689.052" y1="190.747" x2="467.693" y2="1438.07" gradientUnits="userSpaceOnUse">
<stop stop-color="#550747"/>
<stop offset="0.346055"/>
<stop offset="0.494792"/>
</linearGradient>
<radialGradient id="paint9_radial" cx="0" cy="0" r="1" gradientUnits="userSpaceOnUse" gradientTransform="translate(930.5 660) rotate(90) scale(130 301.5)">
<stop stop-color="#F54952"/>
<stop offset="1" stop-color="#F54952" stop-opacity="0.15"/>
</radialGradient>
<radialGradient id="paint10_radial" cx="0" cy="0" r="1" gradientUnits="userSpaceOnUse" gradientTransform="translate(941.5 739.5) rotate(90) scale(90.5 256.5)">
<stop stop-color="#550747"/>
<stop offset="1" stop-color="#F54952" stop-opacity="0.15"/>
</radialGradient>
<radialGradient id="paint11_radial" cx="0" cy="0" r="1" gradientUnits="userSpaceOnUse" gradientTransform="translate(940 810.5) rotate(90) scale(69.5 197)">
<stop stop-color="#F54952"/>
<stop offset="1" stop-color="#F54952" stop-opacity="0.15"/>
</radialGradient>
<linearGradient id="paint12_linear" x1="272.727" y1="127.585" x2="51.3674" y2="1374.91" gradientUnits="userSpaceOnUse">
<stop stop-color="#550747"/>
<stop offset="0.210572"/>
<stop offset="0.494792"/>
</linearGradient>
<linearGradient id="paint13_linear" x1="1173.06" y1="826.239" x2="611.078" y2="1370.75" gradientUnits="userSpaceOnUse">
<stop stop-color="#550747"/>
<stop offset="0.494792"/>
</linearGradient>
<linearGradient id="paint14_linear" x1="287.614" y1="528.63" x2="362.719" y2="969.951" gradientUnits="userSpaceOnUse">
<stop stop-color="#550747"/>
<stop offset="0.494792"/>
</linearGradient>
<linearGradient id="paint15_linear" x1="350.194" y1="727.387" x2="583.522" y2="1109.47" gradientUnits="userSpaceOnUse">
<stop stop-color="#550747"/>
<stop offset="0.494792"/>
</linearGradient>
<linearGradient id="paint16_linear" x1="289.09" y1="640.471" x2="298.227" y2="1088.04" gradientUnits="userSpaceOnUse">
<stop stop-color="#550747"/>
<stop offset="0.494792"/>
</linearGradient>
<linearGradient id="paint17_linear" x1="572.715" y1="863.373" x2="1245.72" y2="1965.46" gradientUnits="userSpaceOnUse">
<stop stop-color="#550747"/>
<stop offset="0.494792"/>
</linearGradient>
<linearGradient id="paint18_linear" x1="1045.83" y1="884.833" x2="722.091" y2="1101.77" gradientUnits="userSpaceOnUse">
<stop stop-color="#550747"/>
<stop offset="0.875"/>
</linearGradient>
<radialGradient id="paint19_radial" cx="0" cy="0" r="1" gradientUnits="userSpaceOnUse" gradientTransform="translate(940.15 532.069) rotate(90) scale(179.569 407.361)">
<stop stop-color="#F54952"/>
<stop offset="1" stop-color="#F54952" stop-opacity="0.15"/>
</radialGradient>
<radialGradient id="paint20_radial" cx="0" cy="0" r="1" gradientUnits="userSpaceOnUse" gradientTransform="translate(939.5 574.5) rotate(90) scale(175.5 359.5)">
<stop stop-color="#F54952"/>
<stop offset="1" stop-color="#F54952" stop-opacity="0.15"/>
</radialGradient>
<radialGradient id="paint21_radial" cx="0" cy="0" r="1" gradientUnits="userSpaceOnUse" gradientTransform="translate(932 483.118) rotate(90) scale(158.118 445)">
<stop offset="0.487847" stop-color="#F54952"/>
<stop offset="1" stop-color="#802525" stop-opacity="0"/>
</radialGradient>
<radialGradient id="paint22_radial" cx="0" cy="0" r="1" gradientUnits="userSpaceOnUse" gradientTransform="translate(843 558) rotate(88.6163) scale(103.53 281.082)">
<stop stop-color="#F54952"/>
<stop offset="1" stop-color="#F54952" stop-opacity="0"/>
</radialGradient>
<radialGradient id="paint23_radial" cx="0" cy="0" r="1" gradientUnits="userSpaceOnUse" gradientTransform="translate(1069.5 552) rotate(90) scale(91 246.861)">
<stop stop-color="#F54952"/>
<stop offset="0.640625" stop-color="#F54952" stop-opacity="0.776042"/>
<stop offset="1" stop-color="#F54952" stop-opacity="0"/>
</radialGradient>
<linearGradient id="paint24_linear" x1="1255.72" y1="435.936" x2="1228.1" y2="435.816" gradientUnits="userSpaceOnUse">
<stop offset="0.404514" stop-color="#CACACA"/>
<stop offset="1"/>
</linearGradient>
<linearGradient id="paint25_linear" x1="1267.7" y1="375.814" x2="1250.03" y2="377.533" gradientUnits="userSpaceOnUse">
<stop offset="0.0763887" stop-color="#A2A2A2"/>
<stop offset="0.774305" stop-color="#434343"/>
</linearGradient>
<linearGradient id="paint26_linear" x1="1203.66" y1="374.327" x2="1233.81" y2="378.422" gradientUnits="userSpaceOnUse">
<stop stop-color="#A2A2A2"/>
<stop offset="0.711805" stop-color="#434343"/>
</linearGradient>
<radialGradient id="paint27_radial" cx="0" cy="0" r="1" gradientUnits="userSpaceOnUse" gradientTransform="translate(1241.95 367.058) rotate(-88.5321) scale(48.9975 14.5463)">
<stop offset="0.328125" stop-color="#00AAFF"/>
<stop offset="0.552083" stop-color="#E54F5D" stop-opacity="0.617247"/>
<stop offset="1" stop-color="#F54952" stop-opacity="0.59"/>
</radialGradient>
<radialGradient id="paint28_radial" cx="0" cy="0" r="1" gradientUnits="userSpaceOnUse" gradientTransform="translate(1241.83 367.057) rotate(-89.8394) scale(36.0225 10.6942)">
<stop offset="0.149305" stop-color="#660F56" stop-opacity="0.11"/>
<stop offset="0.519097" stop-color="#660F56"/>
<stop offset="0.88368" stop-color="#660F56" stop-opacity="0"/>
</radialGradient>
<linearGradient id="paint29_linear" x1="648.544" y1="443.936" x2="620.923" y2="443.816" gradientUnits="userSpaceOnUse">
<stop offset="0.404514" stop-color="#CACACA"/>
<stop offset="1"/>
</linearGradient>
<linearGradient id="paint30_linear" x1="660.531" y1="383.814" x2="642.854" y2="385.533" gradientUnits="userSpaceOnUse">
<stop offset="0.0763887" stop-color="#A2A2A2"/>
<stop offset="0.774305" stop-color="#434343"/>
</linearGradient>
<linearGradient id="paint31_linear" x1="596.49" y1="382.327" x2="626.636" y2="386.422" gradientUnits="userSpaceOnUse">
<stop stop-color="#A2A2A2"/>
<stop offset="0.711805" stop-color="#434343"/>
</linearGradient>
<radialGradient id="paint32_radial" cx="0" cy="0" r="1" gradientUnits="userSpaceOnUse" gradientTransform="translate(634.773 375.058) rotate(-88.5321) scale(48.9975 14.5463)">
<stop offset="0.328125" stop-color="#00AAFF"/>
<stop offset="0.552083" stop-color="#E54F5D" stop-opacity="0.617247"/>
<stop offset="1" stop-color="#F54952" stop-opacity="0.59"/>
</radialGradient>
<radialGradient id="paint33_radial" cx="0" cy="0" r="1" gradientUnits="userSpaceOnUse" gradientTransform="translate(634.653 375.057) rotate(-89.8394) scale(36.0225 10.6942)">
<stop offset="0.149305" stop-color="#660F56" stop-opacity="0.11"/>
<stop offset="0.519097" stop-color="#660F56"/>
<stop offset="0.88368" stop-color="#660F56" stop-opacity="0"/>
</radialGradient>
<radialGradient id="paint34_radial" cx="0" cy="0" r="1" gradientUnits="userSpaceOnUse" gradientTransform="translate(937 352) rotate(90.0194) scale(309.95 307.087)">
<stop offset="0.567708" stop-color="#F54952"/>
<stop offset="0.951389" stop-color="#F54952" stop-opacity="0"/>
</radialGradient>
<radialGradient id="paint35_radial" cx="0" cy="0" r="1" gradientUnits="userSpaceOnUse" gradientTransform="translate(1187.5 422) rotate(-178.854) scale(100.02 89.6271)">
<stop stop-color="#F54952"/>
<stop offset="1" stop-color="white" stop-opacity="0"/>
</radialGradient>
<radialGradient id="paint36_radial" cx="0" cy="0" r="1" gradientUnits="userSpaceOnUse" gradientTransform="translate(689 424) rotate(-0.475465) scale(120.504 125.205)">
<stop stop-color="#F54952"/>
<stop offset="0.469672" stop-color="white" stop-opacity="0"/>
</radialGradient>
<radialGradient id="paint37_radial" cx="0" cy="0" r="1" gradientUnits="userSpaceOnUse" gradientTransform="translate(938 389) rotate(90) scale(170.5 370.209)">
<stop offset="0.310764" stop-color="#F54952"/>
<stop offset="0.690972" stop-color="white" stop-opacity="0.618721"/>
<stop offset="0.9999" stop-color="#240B0C" stop-opacity="0.14757"/>
<stop offset="1" stop-color="white" stop-opacity="0"/>
</radialGradient>
</defs>
</svg>
