<svg width="4945" height="3795" viewBox="0 0 4945 3795" fill="none" xmlns="http://www.w3.org/2000/svg">
<path d="M2014.79 1715.51C2042.81 1692 2045.42 1695.12 2046.47 1696.37C2047.52 1697.61 2050.13 1700.73 2022.12 1724.24C1999.2 1743.47 1580.67 2087.13 1428.98 2211.67C1428.47 2212.09 1427.81 2211.36 1428.32 2210.93C1579.3 2083.36 1997.95 1729.64 2014.79 1715.51Z" fill="url(#paint0_linear)"/>
<path d="M3462.91 629.916C3490.93 606.406 3493.55 609.525 3494.6 610.772C3495.64 612.02 3498.26 615.139 3470.24 638.649C3447.33 657.877 3028.8 1001.54 2877.11 1126.08C2876.6 1126.5 2875.94 1125.76 2876.44 1125.34C3027.43 997.764 3446.08 644.045 3462.91 629.916Z" fill="url(#paint1_linear)"/>
<path d="M1956.25 2016.51C1984.27 1993 1986.89 1996.12 1987.93 1997.37C1988.98 1998.61 1991.6 2001.73 1963.58 2025.24C1940.66 2044.47 1522.13 2388.13 1370.45 2512.67C1369.93 2513.09 1369.28 2512.36 1369.78 2511.93C1520.77 2384.36 1939.41 2030.64 1956.25 2016.51Z" fill="url(#paint2_linear)"/>
<path d="M2700.91 2231.51C2728.93 2208 2731.55 2211.12 2732.6 2212.37C2733.64 2213.61 2736.26 2216.73 2708.24 2240.24C2685.33 2259.47 2266.8 2603.13 2115.11 2727.67C2114.6 2728.09 2113.94 2727.36 2114.44 2726.93C2265.43 2599.36 2684.08 2245.64 2700.91 2231.51Z" fill="url(#paint3_linear)"/>
<path d="M1748.86 2067.48C1764.1 2054.69 1782.89 2051.41 1787.94 2056.68C1792.99 2061.95 1781.89 2080.07 1768.8 2091.25C1757.1 2101.24 1360.22 2409.65 1276.06 2475.04C1275.55 2475.44 1274.95 2474.71 1275.44 2474.28C1356.03 2404.99 1735.24 2078.91 1748.86 2067.48Z" fill="url(#paint4_linear)"/>
<path d="M1447.72 2436.65C1496.07 2396.82 1504.39 2401.17 1506.01 2402.78C1507.64 2404.4 1511.29 2412.38 1460.99 2455.13C1416.89 2492.61 1027 2801.54 931.374 2877.27C930.861 2877.68 930.23 2876.95 930.728 2876.52C1023.89 2797.01 1405.31 2471.57 1447.72 2436.65Z" fill="url(#paint5_linear)"/>
<path d="M1419.48 1989.59C1425.69 1985.15 1436.5 1984.46 1441.5 1990.3C1446.51 1996.14 1443.33 2005.38 1437.22 2011.1C1431.77 2016.2 1363.51 2050.39 1348.66 2057.8C1348.15 2058.06 1347.69 2057.41 1348.1 2057.01C1359.94 2045.59 1413.95 1993.53 1419.48 1989.59Z" fill="url(#paint6_linear)"/>
<path d="M2593.54 2399.58C2599.75 2395.15 2610.56 2394.45 2615.56 2400.29C2620.57 2406.13 2617.39 2415.37 2611.27 2421.1C2605.83 2426.2 2537.57 2460.38 2522.72 2467.8C2522.21 2468.05 2521.75 2467.4 2522.16 2467.01C2534 2455.58 2588.01 2403.52 2593.54 2399.58Z" fill="url(#paint7_linear)"/>
<path d="M2802.98 1955.81C2827.04 1935.62 2854.61 1925.2 2861.37 1934.82C2868.14 1944.45 2849.07 1968.46 2828.38 1986.08C2809.64 2002.03 2170.55 2506.12 2049.99 2601.2C2049.48 2601.6 2048.85 2600.86 2049.35 2600.43C2165.67 2500.88 2781.2 1974.09 2802.98 1955.81Z" fill="url(#paint8_linear)"/>
<path d="M618.113 2418.02C639.082 2400.42 642.243 2404.19 643.792 2406.04C645.342 2407.88 644.826 2414.74 627.534 2429.25C612.995 2441.45 238.416 2745.52 119.557 2842C119.044 2842.42 118.418 2841.66 118.921 2841.23C235.679 2742.21 603.66 2430.14 618.113 2418.02Z" fill="url(#paint9_linear)"/>
<path d="M1781.96 2424.46C1786.64 2418.45 1794.78 2410.31 1787.46 2403.79C1780.13 2397.28 1772.8 2401.35 1767.31 2406.99C1762.51 2411.93 1696.01 2484.25 1679.35 2502.37C1678.94 2502.82 1679.53 2503.47 1680.02 2503.11C1699.86 2488.05 1779.65 2427.43 1781.96 2424.46Z" fill="url(#paint10_linear)"/>
<path d="M1585.43 2921.46C1590.11 2915.45 1598.25 2907.31 1590.92 2900.79C1583.59 2894.28 1576.26 2898.35 1570.77 2903.99C1565.97 2908.93 1499.47 2981.25 1482.81 2999.37C1482.4 2999.82 1483 3000.47 1483.48 3000.11C1503.33 2985.05 1583.12 2924.43 1585.43 2921.46Z" fill="url(#paint11_linear)"/>
<path d="M2830.58 2481.92C2835.26 2475.91 2843.4 2467.77 2836.07 2461.26C2828.74 2454.74 2821.41 2458.81 2815.92 2464.46C2811.12 2469.39 2744.62 2541.71 2727.96 2559.84C2727.55 2560.29 2728.15 2560.94 2728.63 2560.57C2748.48 2545.51 2828.27 2484.89 2830.58 2481.92Z" fill="url(#paint12_linear)"/>
<path d="M2156.58 1870.92C2161.26 1864.91 2169.4 1856.77 2162.07 1850.26C2154.74 1843.74 2147.41 1847.81 2141.92 1853.46C2137.12 1858.39 2070.62 1930.71 2053.96 1948.84C2053.55 1949.29 2054.15 1949.94 2054.63 1949.57C2074.48 1934.51 2154.27 1873.89 2156.58 1870.92Z" fill="url(#paint13_linear)"/>
<path d="M2334.54 2637.1C2355.56 2619.47 2350.64 2613.61 2348.23 2610.73C2345.82 2607.86 2337.22 2605.09 2319.89 2619.63C2304.74 2632.34 1913.77 2977.6 1815.39 3064.48C1814.9 3064.92 1815.53 3065.66 1816.03 3065.24C1917.26 2981.7 2319.49 2649.73 2334.54 2637.1Z" fill="url(#paint14_linear)"/>
<path d="M1367.28 2216.36C1378.26 2207.15 1374.5 2200.32 1372.09 2197.44C1369.68 2194.57 1363.61 2189.68 1352.63 2198.9C1343.03 2206.95 1144.08 2391.08 1094.02 2437.41C1093.55 2437.85 1094.18 2438.57 1094.68 2438.16C1147.81 2394.98 1359.41 2222.96 1367.28 2216.36Z" fill="url(#paint15_linear)"/>
<path d="M2032.14 2771.49C2054.26 2752.26 2048.81 2745.53 2046.4 2742.55C2043.98 2739.57 2035.7 2737.51 2017.45 2753.37C2002.48 2766.38 1638.32 3098.58 1508.01 3217.47C1507.04 3218.35 1508.28 3219.85 1509.28 3219C1643.16 3104.47 2017.25 2784.43 2032.14 2771.49Z" fill="url(#paint16_linear)"/>
<path d="M2820.16 1764.24C2844 1743.53 2838.13 1736.28 2835.53 1733.07C2832.92 1729.85 2824 1727.63 2804.34 1744.72C2788.08 1758.85 2389.06 2122.85 2251.97 2247.94C2251 2248.83 2252.23 2250.33 2253.23 2249.47C2394.09 2128.97 2803.99 1778.29 2820.16 1764.24Z" fill="url(#paint17_linear)"/>
<path d="M3092.16 2063.24C3116 2042.53 3110.13 2035.28 3107.53 2032.07C3104.92 2028.85 3096 2026.63 3076.34 2043.72C3060.08 2057.85 2661.06 2421.85 2523.97 2546.94C2523 2547.83 2524.23 2549.33 2525.23 2548.47C2666.09 2427.97 3075.99 2077.29 3092.16 2063.24Z" fill="url(#paint18_linear)"/>
<path d="M4539.91 976.105C4563.75 955.389 4557.88 948.14 4555.28 944.929C4552.68 941.718 4543.75 939.496 4524.1 956.579C4507.83 970.716 4108.81 1334.72 3971.72 1459.81C3970.75 1460.69 3971.98 1462.19 3972.98 1461.34C4113.84 1340.83 4523.74 990.158 4539.91 976.105Z" fill="url(#paint19_linear)"/>
<path d="M2355.22 1760.54C2372 1745.95 2366.55 1739.23 2364.13 1736.24C2361.72 1733.26 2354.37 1730.39 2340.53 1742.41C2329.18 1752.28 2054.81 2006.45 1956.65 2097.4C1955.69 2098.29 1956.92 2099.78 1957.91 2098.93C2059.65 2012.34 2343.93 1770.35 2355.22 1760.54Z" fill="url(#paint20_linear)"/>
<path d="M2446.21 1530.71C2462.99 1516.13 2457.54 1509.4 2455.12 1506.42C2452.7 1503.43 2445.36 1500.56 2431.52 1512.58C2420.17 1522.45 2145.8 1776.62 2047.63 1867.58C2046.67 1868.46 2047.91 1869.95 2048.9 1869.11C2150.64 1782.51 2434.92 1540.52 2446.21 1530.71Z" fill="url(#paint21_linear)"/>
<path d="M1099.3 2381.71C1116.05 2367.66 1138.18 2338.77 1123.89 2324.86C1109.6 2310.96 1080.83 2331.65 1067.02 2343.24C1054.86 2353.44 750.663 2647.14 678.198 2717.13C677.283 2718.02 678.515 2719.41 679.508 2718.61C758.03 2655.69 1087.21 2391.85 1099.3 2381.71Z" fill="url(#paint22_linear)"/>
<path d="M2630.91 2560.11C2647.65 2546.06 2669.78 2517.18 2655.49 2503.27C2641.2 2489.36 2612.44 2510.06 2598.63 2521.64C2586.47 2531.85 2282.27 2825.55 2209.8 2895.54C2208.89 2896.42 2210.12 2897.81 2211.11 2897.02C2289.64 2834.09 2618.82 2570.26 2630.91 2560.11Z" fill="url(#paint23_linear)"/>
<path d="M934.265 2393.76C972.456 2360.38 993.909 2334.56 980.361 2322.97C966.812 2311.38 925.804 2342.74 905.65 2359.65C888.053 2374.42 440.775 2783.24 327.589 2886.71C326.632 2887.59 327.883 2889.04 328.888 2888.22C447.716 2791.38 917.072 2408.78 934.265 2393.76Z" fill="url(#paint24_linear)"/>
<path d="M1789.12 1770.71C1803.35 1758.77 1808.27 1764.63 1810.68 1767.5C1813.09 1770.38 1815.51 1778.33 1803.78 1788.17C1793.53 1796.78 1514.64 2013.6 1444.47 2068.15C1443.95 2068.55 1443.34 2067.8 1443.83 2067.38C1511.21 2009.44 1778.93 1779.26 1789.12 1770.71Z" fill="url(#paint25_linear)"/>
<path d="M1320.13 1911.94C1334.36 1900 1339.28 1905.86 1341.69 1908.73C1344.1 1911.61 1346.52 1919.56 1334.79 1929.4C1324.54 1938.01 1045.65 2154.83 975.479 2209.37C974.965 2209.77 974.354 2209.03 974.847 2208.6C1042.22 2150.67 1309.94 1920.49 1320.13 1911.94Z" fill="url(#paint26_linear)"/>
<path d="M1592.59 2267.71C1606.81 2255.77 1611.73 2261.63 1614.14 2264.5C1616.55 2267.38 1618.97 2275.33 1607.24 2285.17C1596.99 2293.78 1318.11 2510.6 1247.93 2565.15C1247.42 2565.55 1246.81 2564.8 1247.3 2564.38C1314.67 2506.44 1582.39 2276.26 1592.59 2267.71Z" fill="url(#paint27_linear)"/>
<path d="M1880.24 2191.65C1901.21 2174.05 1904.37 2177.82 1905.92 2179.67C1907.47 2181.51 1906.96 2188.37 1889.67 2202.88C1875.13 2215.08 1500.55 2519.15 1381.69 2615.63C1381.18 2616.05 1380.55 2615.29 1381.05 2614.87C1497.81 2515.84 1865.79 2203.78 1880.24 2191.65Z" fill="url(#paint28_linear)"/>
<path d="M1925.68 1515.59C1946.65 1498 1949.81 1501.77 1951.36 1503.61C1952.91 1505.46 1952.4 1512.31 1935.11 1526.82C1920.57 1539.02 1545.99 1843.1 1427.13 1939.58C1426.62 1939.99 1425.99 1939.24 1426.49 1938.81C1543.25 1839.79 1911.23 1527.72 1925.68 1515.59Z" fill="url(#paint29_linear)"/>
<path d="M2950.08 1593.03C2968.65 1577.44 2967.28 1568.61 2964.87 1565.73C2962.46 1562.86 2950.74 1562.71 2935.42 1575.56C2922.04 1586.79 2577.45 1893.13 2490.74 1970.22C2490.25 1970.65 2490.88 1971.39 2491.39 1970.98C2580.94 1897.23 2936.77 1604.19 2950.08 1593.03Z" fill="url(#paint30_linear)"/>
<path d="M4397.64 506.027C4416.21 490.441 4414.84 481.605 4412.43 478.733C4410.02 475.86 4398.3 475.709 4382.98 488.561C4369.6 499.793 4025.01 806.128 3938.3 883.22C3937.81 883.655 3938.45 884.393 3938.95 883.977C4028.5 810.232 4384.33 517.192 4397.64 506.027Z" fill="url(#paint31_linear)"/>
<path d="M1840.08 2515.03C1858.65 2499.44 1857.28 2490.61 1854.87 2487.73C1852.46 2484.86 1840.74 2484.71 1825.42 2497.56C1812.04 2508.79 1467.45 2815.13 1380.74 2892.22C1380.25 2892.65 1380.88 2893.39 1381.39 2892.98C1470.94 2819.23 1826.77 2526.19 1840.08 2515.03Z" fill="url(#paint32_linear)"/>
<path d="M1054.08 2511.65C1072.65 2496.07 1071.28 2487.23 1068.87 2484.36C1066.46 2481.49 1054.74 2481.33 1039.42 2494.19C1026.04 2505.42 681.447 2811.75 594.74 2888.85C594.252 2889.28 594.883 2890.02 595.388 2889.6C684.94 2815.86 1040.77 2522.82 1054.08 2511.65Z" fill="url(#paint33_linear)"/>
<path d="M2495.13 1836.46C2527.47 1809.32 2530.5 1800.39 2528.96 1798.56C2527.42 1796.72 2512.42 1802.91 2485.75 1825.29C2463.33 1844.1 1898.85 2327.93 1719.27 2481.86C1718.77 2482.29 1719.41 2483.04 1719.92 2482.62C1901.63 2331.19 2472.84 1855.16 2495.13 1836.46Z" fill="url(#paint34_linear)"/>
<path d="M2298.59 2333.46C2330.93 2306.32 2333.96 2297.39 2332.42 2295.56C2330.88 2293.72 2315.89 2299.91 2289.22 2322.29C2266.8 2341.1 1702.31 2824.93 1522.74 2978.86C1522.23 2979.29 1522.87 2980.04 1523.38 2979.62C1705.09 2828.19 2276.3 2352.16 2298.59 2333.46Z" fill="url(#paint35_linear)"/>
<path d="M2483.78 2086.66C2528.29 2047.76 2525.67 2036.74 2522.52 2032.99C2519.37 2029.23 2502.48 2032.1 2464.64 2063.85C2430.87 2092.19 1791.48 2652.11 1654.19 2772.34C1653.7 2772.78 1654.32 2773.51 1654.83 2773.09C1796.49 2655.99 2459.88 2107.54 2483.78 2086.66Z" fill="url(#paint36_linear)"/>
<path d="M1305.57 2525.07C1327.7 2505.84 1322.25 2499.11 1319.83 2496.13C1317.42 2493.15 1309.13 2491.09 1290.88 2506.95C1275.91 2519.96 911.752 2852.16 781.45 2971.05C780.48 2971.93 781.716 2973.43 782.713 2972.58C916.592 2858.05 1290.69 2538.01 1305.57 2525.07Z" fill="url(#paint37_linear)"/>
<path d="M3404.25 929.51C3432.27 906 3434.89 909.119 3435.93 910.366C3436.98 911.614 3439.6 914.733 3411.58 938.243C3388.66 957.472 2970.13 1301.13 2818.45 1425.67C2817.93 1426.09 2817.28 1425.36 2817.78 1424.93C2968.77 1297.36 3387.41 943.639 3404.25 929.51Z" fill="url(#paint38_linear)"/>
<path d="M4148.91 1144.51C4176.93 1121 4179.55 1124.12 4180.6 1125.37C4181.64 1126.61 4184.26 1129.73 4156.24 1153.24C4133.33 1172.47 3714.8 1516.13 3563.11 1640.67C3562.6 1641.09 3561.94 1640.36 3562.44 1639.93C3713.43 1512.36 4132.08 1158.64 4148.91 1144.51Z" fill="url(#paint39_linear)"/>
<path d="M3196.86 980.479C3212.1 967.691 3230.89 964.407 3235.94 969.681C3240.99 974.955 3229.89 993.068 3216.8 1004.25C3205.1 1014.24 2808.22 1322.65 2724.06 1388.04C2723.55 1388.44 2722.95 1387.71 2723.44 1387.28C2804.03 1317.99 3183.24 991.907 3196.86 980.479Z" fill="url(#paint40_linear)"/>
<path d="M2917.38 1331.56C2945.31 1308.87 2952.46 1314.2 2954.02 1315.87C2955.58 1317.54 2959.99 1324.88 2931.21 1349.57C2905.99 1371.21 2678.25 1544.08 2622.41 1586.43C2621.89 1586.82 2621.29 1586.09 2621.78 1585.67C2675 1539.68 2892.89 1351.45 2917.38 1331.56Z" fill="url(#paint41_linear)"/>
<path d="M4364.95 244.556C4392.87 221.872 4400.02 227.197 4401.58 228.871C4403.14 230.545 4407.55 237.882 4378.78 262.572C4353.56 284.213 4125.82 457.082 4069.97 499.434C4069.46 499.824 4068.85 499.094 4069.34 498.672C4122.56 452.676 4340.45 264.45 4364.95 244.556Z" fill="url(#paint42_linear)"/>
<path d="M2867.48 902.586C2873.69 898.152 2884.5 897.462 2889.5 903.299C2894.51 909.137 2891.33 918.38 2885.22 924.104C2879.77 929.203 2811.51 963.391 2796.66 970.804C2796.15 971.059 2795.69 970.41 2796.1 970.014C2807.94 958.589 2861.95 906.531 2867.48 902.586Z" fill="url(#paint43_linear)"/>
<path d="M4041.54 1312.58C4047.75 1308.15 4058.56 1307.45 4063.56 1313.29C4068.57 1319.13 4065.39 1328.37 4059.27 1334.1C4053.83 1339.2 3985.57 1373.38 3970.72 1380.8C3970.21 1381.05 3969.75 1380.4 3970.16 1380.01C3982 1368.58 4036.01 1316.52 4041.54 1312.58Z" fill="url(#paint44_linear)"/>
<path d="M4250.98 868.811C4275.04 848.621 4302.61 838.2 4309.37 847.823C4316.14 857.446 4297.07 881.464 4276.38 899.079C4257.64 915.03 3618.55 1419.12 3497.99 1514.2C3497.48 1514.6 3496.85 1513.86 3497.35 1513.43C3613.67 1413.88 4229.2 887.09 4250.98 868.811Z" fill="url(#paint45_linear)"/>
<path d="M2066.11 1331.02C2087.08 1313.42 2090.24 1317.19 2091.79 1319.04C2093.34 1320.88 2092.83 1327.74 2075.53 1342.25C2060.99 1354.45 1686.42 1658.52 1567.56 1755C1567.04 1755.42 1566.42 1754.66 1566.92 1754.23C1683.68 1655.21 2051.66 1343.14 2066.11 1331.02Z" fill="url(#paint46_linear)"/>
<path d="M3229.96 1337.46C3234.64 1331.45 3242.78 1323.31 3235.46 1316.79C3228.13 1310.28 3220.8 1314.35 3215.31 1319.99C3210.51 1324.93 3144.01 1397.25 3127.35 1415.37C3126.94 1415.82 3127.53 1416.47 3128.02 1416.11C3147.86 1401.05 3227.65 1340.43 3229.96 1337.46Z" fill="url(#paint47_linear)"/>
<path d="M3033.43 1834.46C3038.11 1828.45 3046.25 1820.31 3038.92 1813.79C3031.59 1807.28 3024.26 1811.35 3018.77 1816.99C3013.97 1821.93 2947.47 1894.25 2930.81 1912.37C2930.4 1912.82 2931 1913.47 2931.48 1913.11C2951.33 1898.05 3031.12 1837.43 3033.43 1834.46Z" fill="url(#paint48_linear)"/>
<path d="M4480.99 747.459C4485.67 741.451 4493.81 733.307 4486.48 726.793C4479.15 720.279 4471.82 724.35 4466.33 729.993C4461.54 734.926 4395.04 807.25 4378.37 825.375C4377.96 825.823 4378.56 826.475 4379.04 826.106C4398.89 811.048 4478.68 750.428 4480.99 747.459Z" fill="url(#paint49_linear)"/>
<path d="M4278.58 1394.92C4283.26 1388.91 4291.4 1380.77 4284.07 1374.26C4276.74 1367.74 4269.41 1371.81 4263.92 1377.46C4259.12 1382.39 4192.62 1454.71 4175.96 1472.84C4175.55 1473.29 4176.15 1473.94 4176.63 1473.57C4196.48 1458.51 4276.27 1397.89 4278.58 1394.92Z" fill="url(#paint50_linear)"/>
<path d="M3604.58 783.922C3609.26 777.915 3617.4 769.771 3610.07 763.257C3602.74 756.742 3595.41 760.814 3589.92 766.457C3585.12 771.389 3518.62 843.713 3501.96 861.838C3501.55 862.287 3502.15 862.938 3502.63 862.57C3522.48 847.511 3602.27 786.891 3604.58 783.922Z" fill="url(#paint51_linear)"/>
<path d="M3782.54 1550.1C3803.56 1532.47 3798.64 1526.61 3796.23 1523.73C3793.82 1520.86 3785.22 1518.09 3767.89 1532.63C3752.74 1545.34 3361.77 1890.6 3263.39 1977.48C3262.9 1977.92 3263.53 1978.66 3264.03 1978.24C3365.26 1894.7 3767.49 1562.73 3782.54 1550.1Z" fill="url(#paint52_linear)"/>
<path d="M2815.28 1129.36C2826.26 1120.15 2822.5 1113.32 2820.09 1110.44C2817.68 1107.57 2811.61 1102.68 2800.63 1111.9C2791.03 1119.95 2592.08 1304.08 2542.02 1350.41C2541.55 1350.85 2542.18 1351.57 2542.68 1351.16C2595.81 1307.98 2807.41 1135.96 2815.28 1129.36Z" fill="url(#paint53_linear)"/>
<path d="M3480.14 1684.49C3502.26 1665.26 3496.81 1658.53 3494.4 1655.55C3491.98 1652.57 3483.7 1650.51 3465.45 1666.37C3450.48 1679.38 3086.32 2011.58 2956.01 2130.47C2955.04 2131.35 2956.28 2132.85 2957.28 2132C3091.16 2017.47 3465.25 1697.43 3480.14 1684.49Z" fill="url(#paint54_linear)"/>
<path d="M4927.89 597.358C4950.02 578.127 4944.56 571.397 4942.15 568.416C4939.73 565.435 4931.45 563.373 4913.2 579.231C4898.23 592.242 4534.07 924.443 4403.77 1043.33C4402.8 1044.22 4404.03 1045.72 4405.03 1044.86C4538.91 930.335 4913 610.291 4927.89 597.358Z" fill="url(#paint55_linear)"/>
<path d="M4268.16 677.242C4292 656.526 4286.13 649.277 4283.53 646.066C4280.92 642.854 4272 640.633 4252.34 657.716C4236.08 671.853 3837.06 1035.85 3699.97 1160.94C3699 1161.83 3700.23 1163.33 3701.23 1162.47C3842.09 1041.97 4251.99 691.295 4268.16 677.242Z" fill="url(#paint56_linear)"/>
<path d="M3803.22 673.539C3820 658.955 3814.55 652.225 3812.13 649.244C3809.72 646.263 3802.37 643.386 3788.53 655.412C3777.18 665.279 3502.81 919.448 3404.65 1010.4C3403.69 1011.29 3404.92 1012.78 3405.91 1011.93C3507.65 925.336 3791.93 683.347 3803.22 673.539Z" fill="url(#paint57_linear)"/>
<path d="M3894.21 443.711C3910.99 429.127 3905.54 422.397 3903.12 419.416C3900.7 416.435 3893.36 413.558 3879.52 425.584C3868.17 435.451 3593.8 689.62 3495.63 780.576C3494.67 781.464 3495.91 782.951 3496.9 782.105C3598.64 695.508 3882.92 453.519 3894.21 443.711Z" fill="url(#paint58_linear)"/>
<path d="M2547.3 1294.71C2564.05 1280.66 2586.18 1251.77 2571.89 1237.86C2557.6 1223.96 2528.83 1244.65 2515.02 1256.24C2502.86 1266.44 2198.66 1560.14 2126.2 1630.13C2125.28 1631.02 2126.52 1632.41 2127.51 1631.61C2206.03 1568.69 2535.21 1304.85 2547.3 1294.71Z" fill="url(#paint59_linear)"/>
<path d="M3995.43 209.116C4012.17 195.063 4034.3 166.178 4020.01 152.271C4005.72 138.364 3976.96 159.058 3963.15 170.646C3950.99 180.85 3646.79 474.551 3574.32 544.537C3573.41 545.422 3574.64 546.816 3575.63 546.02C3654.16 483.092 3983.34 219.258 3995.43 209.116Z" fill="url(#paint60_linear)"/>
<path d="M4078.91 1473.11C4095.65 1459.06 4117.78 1430.18 4103.49 1416.27C4089.2 1402.36 4060.44 1423.06 4046.63 1434.64C4034.47 1444.85 3730.27 1738.55 3657.8 1808.54C3656.89 1809.42 3658.12 1810.81 3659.11 1810.02C3737.64 1747.09 4066.82 1483.26 4078.91 1473.11Z" fill="url(#paint61_linear)"/>
<path d="M2393.65 1297.2C2424.71 1269.81 2441.52 1247.89 2428.39 1235.95C2415.25 1224.02 2381.49 1249.29 2365.04 1263.1C2350.67 1275.16 1988.48 1612.58 1896.84 1697.97C1895.9 1698.85 1897.14 1700.29 1898.14 1699.48C1995.43 1620.71 2379.67 1309.54 2393.65 1297.2Z" fill="url(#paint62_linear)"/>
<path d="M3841.78 211.608C3872.84 184.214 3889.65 162.292 3876.51 150.357C3863.38 138.423 3829.62 163.698 3813.16 177.506C3798.79 189.563 3436.6 526.987 3344.97 612.379C3344.02 613.257 3345.27 614.693 3346.27 613.883C3443.55 535.115 3827.79 223.941 3841.78 211.608Z" fill="url(#paint63_linear)"/>
<path d="M3237.12 683.709C3251.35 671.771 3256.27 677.632 3258.68 680.504C3261.09 683.377 3263.51 691.331 3251.78 701.175C3241.53 709.778 2962.64 926.598 2892.47 981.146C2891.95 981.545 2891.34 980.799 2891.83 980.375C2959.21 922.443 3226.93 692.261 3237.12 683.709Z" fill="url(#paint64_linear)"/>
<path d="M2768.13 824.938C2782.36 813 2787.28 818.86 2789.69 821.733C2792.1 824.605 2794.52 832.559 2782.79 842.403C2772.54 851.006 2493.65 1067.83 2423.48 1122.37C2422.97 1122.77 2422.35 1122.03 2422.85 1121.6C2490.22 1063.67 2757.94 833.489 2768.13 824.938Z" fill="url(#paint65_linear)"/>
<path d="M3040.59 1180.71C3054.81 1168.77 3059.73 1174.63 3062.14 1177.5C3064.55 1180.38 3066.97 1188.33 3055.24 1198.17C3044.99 1206.78 2766.11 1423.6 2695.93 1478.15C2695.42 1478.55 2694.81 1477.8 2695.3 1477.38C2762.67 1419.44 3030.39 1189.26 3040.59 1180.71Z" fill="url(#paint66_linear)"/>
<path d="M3328.24 1104.65C3349.21 1087.05 3352.37 1090.82 3353.92 1092.67C3355.47 1094.51 3354.96 1101.37 3337.67 1115.88C3323.13 1128.08 2948.55 1432.15 2829.69 1528.63C2829.18 1529.05 2828.55 1528.29 2829.05 1527.87C2945.81 1428.84 3313.79 1116.78 3328.24 1104.65Z" fill="url(#paint67_linear)"/>
<path d="M3373.68 428.595C3394.65 411 3397.81 414.767 3399.36 416.614C3400.91 418.461 3400.4 425.314 3383.11 439.823C3368.57 452.023 2993.99 756.1 2875.13 852.579C2874.62 852.994 2873.99 852.239 2874.49 851.812C2991.25 752.792 3359.23 440.722 3373.68 428.595Z" fill="url(#paint68_linear)"/>
<path d="M3288.08 1428.03C3306.65 1412.44 3305.28 1403.61 3302.87 1400.73C3300.46 1397.86 3288.74 1397.71 3273.42 1410.56C3260.04 1421.79 2915.45 1728.13 2828.74 1805.22C2828.25 1805.65 2828.88 1806.39 2829.39 1805.98C2918.94 1732.23 3274.77 1439.19 3288.08 1428.03Z" fill="url(#paint69_linear)"/>
<path d="M4735.64 341.027C4754.21 325.441 4752.84 316.606 4750.43 313.733C4748.02 310.861 4736.3 310.709 4720.98 323.562C4707.6 334.793 4363.01 641.128 4276.3 718.22C4275.81 718.655 4276.45 719.393 4276.95 718.978C4366.5 645.232 4722.33 352.192 4735.64 341.027Z" fill="url(#paint70_linear)"/>
<path d="M2514.55 1414.19C2522.65 1407.39 2519.28 1400.23 2516.87 1397.36C2514.46 1394.49 2506.57 1391.12 2499.89 1396.73C2494.05 1401.63 2348.43 1541.01 2311.82 1576.07C2311.35 1576.51 2311.97 1577.22 2312.47 1576.82C2351.94 1545.1 2508.74 1419.06 2514.55 1414.19Z" fill="url(#paint71_linear)"/>
<path d="M3962.11 327.192C3970.21 320.39 3966.84 313.232 3964.43 310.359C3962.02 307.487 3954.14 304.117 3947.45 309.726C3941.61 314.627 3795.99 454.009 3759.38 489.067C3758.92 489.508 3759.54 490.216 3760.03 489.816C3799.5 458.097 3956.3 332.063 3962.11 327.192Z" fill="url(#paint72_linear)"/>
<path d="M3943.13 749.463C3975.47 722.322 3978.5 713.393 3976.96 711.556C3975.42 709.719 3960.42 715.911 3933.75 738.292C3911.33 757.102 3346.85 1240.93 3167.27 1394.86C3166.77 1395.29 3167.41 1396.04 3167.92 1395.62C3349.63 1244.19 3920.84 768.162 3943.13 749.463Z" fill="url(#paint73_linear)"/>
<path d="M3746.59 1246.46C3778.93 1219.32 3781.96 1210.39 3780.42 1208.56C3778.88 1206.72 3763.89 1212.91 3737.22 1235.29C3714.8 1254.1 3150.31 1737.93 2970.74 1891.86C2970.23 1892.29 2970.87 1893.04 2971.38 1892.62C3153.09 1741.19 3724.3 1265.16 3746.59 1246.46Z" fill="url(#paint74_linear)"/>
<path d="M3931.78 999.66C3976.29 960.755 3973.67 949.737 3970.52 945.986C3967.37 942.235 3950.48 945.098 3912.64 976.852C3878.87 1005.19 3239.48 1565.11 3102.19 1685.34C3101.7 1685.78 3102.32 1686.51 3102.83 1686.09C3244.49 1568.99 3907.88 1020.54 3931.78 999.66Z" fill="url(#paint75_linear)"/>
<path d="M4210.58 342.865C4223.26 331.844 4217.81 325.114 4215.39 322.133C4212.98 319.152 4206.35 315.65 4195.89 324.738C4187.31 332.195 3981.78 526.54 3908.26 596.079C3907.32 596.971 3908.55 598.439 3909.54 597.602C3986.63 532.42 4202.05 350.277 4210.58 342.865Z" fill="url(#paint76_linear)"/>
<path d="M2763.02 1429.86C2775.7 1418.84 2770.25 1412.11 2767.83 1409.13C2765.42 1406.15 2758.79 1402.65 2748.33 1411.74C2739.75 1419.19 2534.22 1613.54 2460.7 1683.08C2459.76 1683.97 2460.98 1685.44 2461.97 1684.6C2539.07 1619.42 2754.49 1437.28 2763.02 1429.86Z" fill="url(#paint77_linear)"/>
<path d="M3514.11 243.595C3535.08 226 3538.24 229.767 3539.79 231.614C3541.34 233.461 3540.83 240.314 3523.53 254.823C3508.99 267.023 3134.42 571.1 3015.56 667.579C3015.04 667.994 3014.42 667.239 3014.92 666.812C3131.68 567.792 3499.66 255.722 3514.11 243.595Z" fill="url(#paint78_linear)"/>
<path d="M4776.32 17.5949C4797.29 4.86652e-05 4800.45 3.7674 4802 5.61401C4803.55 7.46063 4803.03 14.3137 4785.74 28.8228C4771.2 41.0227 4396.62 345.1 4277.76 441.579C4277.25 441.994 4276.63 441.239 4277.13 440.812C4393.89 341.792 4761.87 29.7224 4776.32 17.5949Z" fill="url(#paint79_linear)"/>
<defs>
<linearGradient id="paint0_linear" x1="1707.84" y1="1973.07" x2="1716.34" y2="1983.31" gradientUnits="userSpaceOnUse">
<stop stop-color="#F54952"/>
<stop offset="1" stop-color="#F54952" stop-opacity="0"/>
</linearGradient>
<linearGradient id="paint1_linear" x1="3155.97" y1="887.476" x2="3164.46" y2="897.72" gradientUnits="userSpaceOnUse">
<stop stop-color="#F54952"/>
<stop offset="1" stop-color="#F54952" stop-opacity="0"/>
</linearGradient>
<linearGradient id="paint2_linear" x1="1649.3" y1="2274.07" x2="1657.8" y2="2284.31" gradientUnits="userSpaceOnUse">
<stop stop-color="#F54952"/>
<stop offset="1" stop-color="#F54952" stop-opacity="0"/>
</linearGradient>
<linearGradient id="paint3_linear" x1="2393.97" y1="2489.07" x2="2402.46" y2="2499.31" gradientUnits="userSpaceOnUse">
<stop stop-color="#F54952"/>
<stop offset="1" stop-color="#F54952" stop-opacity="0"/>
</linearGradient>
<linearGradient id="paint4_linear" x1="1516.37" y1="2262.56" x2="1542.89" y2="2295.32" gradientUnits="userSpaceOnUse">
<stop stop-color="#AE2D68"/>
<stop offset="1" stop-color="#AE2D68" stop-opacity="0"/>
</linearGradient>
<linearGradient id="paint5_linear" x1="1202.84" y1="2642.06" x2="1222.43" y2="2665.95" gradientUnits="userSpaceOnUse">
<stop stop-color="#AE2D68"/>
<stop offset="1" stop-color="#AE2D68" stop-opacity="0"/>
</linearGradient>
<linearGradient id="paint6_linear" x1="1386.98" y1="2016.8" x2="1407.14" y2="2047.52" gradientUnits="userSpaceOnUse">
<stop stop-color="#660F56"/>
<stop offset="1" stop-color="#660F56" stop-opacity="0"/>
</linearGradient>
<linearGradient id="paint7_linear" x1="2561.04" y1="2426.8" x2="2581.2" y2="2457.51" gradientUnits="userSpaceOnUse">
<stop stop-color="#660F56"/>
<stop offset="1" stop-color="#660F56" stop-opacity="0"/>
</linearGradient>
<linearGradient id="paint8_linear" x1="2435.95" y1="2263.79" x2="2469.86" y2="2305.38" gradientUnits="userSpaceOnUse">
<stop stop-color="#AE2D68"/>
<stop offset="1" stop-color="#AE2D68" stop-opacity="0"/>
</linearGradient>
<linearGradient id="paint9_linear" x1="360.255" y1="2634.39" x2="372.934" y2="2649.74" gradientUnits="userSpaceOnUse">
<stop stop-color="#AE2D68"/>
<stop offset="1" stop-color="#AE2D68" stop-opacity="0"/>
</linearGradient>
<linearGradient id="paint10_linear" x1="1737.36" y1="2462" x2="1718.74" y2="2442.63" gradientUnits="userSpaceOnUse">
<stop stop-color="#F54952"/>
<stop offset="1" stop-color="#F54952" stop-opacity="0"/>
</linearGradient>
<linearGradient id="paint11_linear" x1="1540.82" y1="2959" x2="1522.21" y2="2939.63" gradientUnits="userSpaceOnUse">
<stop stop-color="#F54952"/>
<stop offset="1" stop-color="#F54952" stop-opacity="0"/>
</linearGradient>
<linearGradient id="paint12_linear" x1="2785.98" y1="2519.46" x2="2767.36" y2="2500.1" gradientUnits="userSpaceOnUse">
<stop stop-color="#F54952"/>
<stop offset="1" stop-color="#F54952" stop-opacity="0"/>
</linearGradient>
<linearGradient id="paint13_linear" x1="2111.98" y1="1908.46" x2="2093.36" y2="1889.1" gradientUnits="userSpaceOnUse">
<stop stop-color="#F54952"/>
<stop offset="1" stop-color="#F54952" stop-opacity="0"/>
</linearGradient>
<linearGradient id="paint14_linear" x1="2076.11" y1="2853.95" x2="2056.34" y2="2831.12" gradientUnits="userSpaceOnUse">
<stop stop-color="#660F56"/>
<stop offset="1" stop-color="#660F56" stop-opacity="0"/>
</linearGradient>
<linearGradient id="paint15_linear" x1="1232.83" y1="2329.18" x2="1212.75" y2="2306.64" gradientUnits="userSpaceOnUse">
<stop stop-color="#660F56"/>
<stop offset="1" stop-color="#660F56" stop-opacity="0"/>
</linearGradient>
<linearGradient id="paint16_linear" x1="1760.01" y1="3007.99" x2="1742.79" y2="2988.64" gradientUnits="userSpaceOnUse">
<stop stop-color="#422680"/>
<stop offset="1" stop-color="#422680" stop-opacity="0"/>
</linearGradient>
<linearGradient id="paint17_linear" x1="2527.03" y1="2018.99" x2="2508.49" y2="1998.15" gradientUnits="userSpaceOnUse">
<stop stop-color="#422680"/>
<stop offset="1" stop-color="#422680" stop-opacity="0"/>
</linearGradient>
<linearGradient id="paint18_linear" x1="2799.03" y1="2317.99" x2="2780.49" y2="2297.15" gradientUnits="userSpaceOnUse">
<stop stop-color="#422680"/>
<stop offset="1" stop-color="#422680" stop-opacity="0"/>
</linearGradient>
<linearGradient id="paint19_linear" x1="4246.79" y1="1230.85" x2="4228.24" y2="1210.01" gradientUnits="userSpaceOnUse">
<stop stop-color="#422680"/>
<stop offset="1" stop-color="#422680" stop-opacity="0"/>
</linearGradient>
<linearGradient id="paint20_linear" x1="2148.85" y1="1939.89" x2="2131.56" y2="1920.61" gradientUnits="userSpaceOnUse">
<stop stop-color="#422680"/>
<stop offset="1" stop-color="#422680" stop-opacity="0"/>
</linearGradient>
<linearGradient id="paint21_linear" x1="2239.84" y1="1710.06" x2="2222.55" y2="1690.78" gradientUnits="userSpaceOnUse">
<stop stop-color="#422680"/>
<stop offset="1" stop-color="#422680" stop-opacity="0"/>
</linearGradient>
<linearGradient id="paint22_linear" x1="906.228" y1="2543.72" x2="869.017" y2="2502.17" gradientUnits="userSpaceOnUse">
<stop stop-color="#422680"/>
<stop offset="1" stop-color="#422680" stop-opacity="0"/>
</linearGradient>
<linearGradient id="paint23_linear" x1="2437.83" y1="2722.12" x2="2400.62" y2="2680.57" gradientUnits="userSpaceOnUse">
<stop stop-color="#422680"/>
<stop offset="1" stop-color="#422680" stop-opacity="0"/>
</linearGradient>
<linearGradient id="paint24_linear" x1="652.528" y1="2630.18" x2="619.987" y2="2592.91" gradientUnits="userSpaceOnUse">
<stop stop-color="#422680"/>
<stop offset="1" stop-color="#422680" stop-opacity="0"/>
</linearGradient>
<linearGradient id="paint25_linear" x1="1614.17" y1="1917.51" x2="1630.85" y2="1938.24" gradientUnits="userSpaceOnUse">
<stop stop-color="#F54952"/>
<stop offset="1" stop-color="#F54952" stop-opacity="0"/>
</linearGradient>
<linearGradient id="paint26_linear" x1="1145.18" y1="2058.74" x2="1161.86" y2="2079.47" gradientUnits="userSpaceOnUse">
<stop stop-color="#F54952"/>
<stop offset="1" stop-color="#F54952" stop-opacity="0"/>
</linearGradient>
<linearGradient id="paint27_linear" x1="1417.63" y1="2414.51" x2="1434.31" y2="2435.24" gradientUnits="userSpaceOnUse">
<stop stop-color="#F54952"/>
<stop offset="1" stop-color="#F54952" stop-opacity="0"/>
</linearGradient>
<linearGradient id="paint28_linear" x1="1622.39" y1="2408.02" x2="1635.07" y2="2423.37" gradientUnits="userSpaceOnUse">
<stop stop-color="#AE2D68"/>
<stop offset="1" stop-color="#AE2D68" stop-opacity="0"/>
</linearGradient>
<linearGradient id="paint29_linear" x1="1667.83" y1="1731.96" x2="1680.51" y2="1747.31" gradientUnits="userSpaceOnUse">
<stop stop-color="#AE2D68"/>
<stop offset="1" stop-color="#AE2D68" stop-opacity="0"/>
</linearGradient>
<linearGradient id="paint30_linear" x1="2723.43" y1="1783.21" x2="2706" y2="1763.09" gradientUnits="userSpaceOnUse">
<stop stop-color="#F54952"/>
<stop offset="1" stop-color="#F54952" stop-opacity="0"/>
</linearGradient>
<linearGradient id="paint31_linear" x1="4170.99" y1="696.21" x2="4153.57" y2="676.093" gradientUnits="userSpaceOnUse">
<stop stop-color="#F54952"/>
<stop offset="1" stop-color="#F54952" stop-opacity="0"/>
</linearGradient>
<linearGradient id="paint32_linear" x1="1613.43" y1="2705.21" x2="1596" y2="2685.09" gradientUnits="userSpaceOnUse">
<stop stop-color="#F54952"/>
<stop offset="1" stop-color="#F54952" stop-opacity="0"/>
</linearGradient>
<linearGradient id="paint33_linear" x1="827.427" y1="2701.84" x2="810.004" y2="2681.72" gradientUnits="userSpaceOnUse">
<stop stop-color="#F54952"/>
<stop offset="1" stop-color="#F54952" stop-opacity="0"/>
</linearGradient>
<linearGradient id="paint34_linear" x1="2100.44" y1="2167.64" x2="2089.43" y2="2154.66" gradientUnits="userSpaceOnUse">
<stop stop-color="#F54952"/>
<stop offset="1" stop-color="#F54952" stop-opacity="0"/>
</linearGradient>
<linearGradient id="paint35_linear" x1="1903.91" y1="2664.64" x2="1892.89" y2="2651.66" gradientUnits="userSpaceOnUse">
<stop stop-color="#F54952"/>
<stop offset="1" stop-color="#F54952" stop-opacity="0"/>
</linearGradient>
<linearGradient id="paint36_linear" x1="2083.02" y1="2422.99" x2="2057.25" y2="2393.06" gradientUnits="userSpaceOnUse">
<stop stop-color="#660F56"/>
<stop offset="1" stop-color="#660F56" stop-opacity="0"/>
</linearGradient>
<linearGradient id="paint37_linear" x1="1033.45" y1="2761.57" x2="1016.23" y2="2742.22" gradientUnits="userSpaceOnUse">
<stop stop-color="#422680"/>
<stop offset="1" stop-color="#422680" stop-opacity="0"/>
</linearGradient>
<linearGradient id="paint38_linear" x1="3097.3" y1="1187.07" x2="3105.8" y2="1197.31" gradientUnits="userSpaceOnUse">
<stop stop-color="#F54952"/>
<stop offset="1" stop-color="#F54952" stop-opacity="0"/>
</linearGradient>
<linearGradient id="paint39_linear" x1="3841.97" y1="1402.07" x2="3850.46" y2="1412.31" gradientUnits="userSpaceOnUse">
<stop stop-color="#F54952"/>
<stop offset="1" stop-color="#F54952" stop-opacity="0"/>
</linearGradient>
<linearGradient id="paint40_linear" x1="2964.37" y1="1175.56" x2="2990.89" y2="1208.32" gradientUnits="userSpaceOnUse">
<stop stop-color="#AE2D68"/>
<stop offset="1" stop-color="#AE2D68" stop-opacity="0"/>
</linearGradient>
<linearGradient id="paint41_linear" x1="2776.75" y1="1449.5" x2="2796.14" y2="1473.55" gradientUnits="userSpaceOnUse">
<stop stop-color="#AE2D68"/>
<stop offset="1" stop-color="#AE2D68" stop-opacity="0"/>
</linearGradient>
<linearGradient id="paint42_linear" x1="4224.32" y1="362.503" x2="4243.7" y2="386.548" gradientUnits="userSpaceOnUse">
<stop stop-color="#AE2D68"/>
<stop offset="1" stop-color="#AE2D68" stop-opacity="0"/>
</linearGradient>
<linearGradient id="paint43_linear" x1="2834.98" y1="929.803" x2="2855.14" y2="960.519" gradientUnits="userSpaceOnUse">
<stop stop-color="#660F56"/>
<stop offset="1" stop-color="#660F56" stop-opacity="0"/>
</linearGradient>
<linearGradient id="paint44_linear" x1="4009.04" y1="1339.8" x2="4029.2" y2="1370.51" gradientUnits="userSpaceOnUse">
<stop stop-color="#660F56"/>
<stop offset="1" stop-color="#660F56" stop-opacity="0"/>
</linearGradient>
<linearGradient id="paint45_linear" x1="3883.95" y1="1176.79" x2="3917.86" y2="1218.38" gradientUnits="userSpaceOnUse">
<stop stop-color="#AE2D68"/>
<stop offset="1" stop-color="#AE2D68" stop-opacity="0"/>
</linearGradient>
<linearGradient id="paint46_linear" x1="1808.25" y1="1547.39" x2="1820.93" y2="1562.74" gradientUnits="userSpaceOnUse">
<stop stop-color="#AE2D68"/>
<stop offset="1" stop-color="#AE2D68" stop-opacity="0"/>
</linearGradient>
<linearGradient id="paint47_linear" x1="3185.36" y1="1375" x2="3166.74" y2="1355.63" gradientUnits="userSpaceOnUse">
<stop stop-color="#F54952"/>
<stop offset="1" stop-color="#F54952" stop-opacity="0"/>
</linearGradient>
<linearGradient id="paint48_linear" x1="2988.82" y1="1872" x2="2970.21" y2="1852.63" gradientUnits="userSpaceOnUse">
<stop stop-color="#F54952"/>
<stop offset="1" stop-color="#F54952" stop-opacity="0"/>
</linearGradient>
<linearGradient id="paint49_linear" x1="4436.39" y1="784.998" x2="4417.77" y2="765.633" gradientUnits="userSpaceOnUse">
<stop stop-color="#F54952"/>
<stop offset="1" stop-color="#F54952" stop-opacity="0"/>
</linearGradient>
<linearGradient id="paint50_linear" x1="4233.98" y1="1432.46" x2="4215.36" y2="1413.1" gradientUnits="userSpaceOnUse">
<stop stop-color="#F54952"/>
<stop offset="1" stop-color="#F54952" stop-opacity="0"/>
</linearGradient>
<linearGradient id="paint51_linear" x1="3559.98" y1="821.462" x2="3541.36" y2="802.097" gradientUnits="userSpaceOnUse">
<stop stop-color="#F54952"/>
<stop offset="1" stop-color="#F54952" stop-opacity="0"/>
</linearGradient>
<linearGradient id="paint52_linear" x1="3524.11" y1="1766.95" x2="3504.34" y2="1744.12" gradientUnits="userSpaceOnUse">
<stop stop-color="#660F56"/>
<stop offset="1" stop-color="#660F56" stop-opacity="0"/>
</linearGradient>
<linearGradient id="paint53_linear" x1="2680.83" y1="1242.18" x2="2660.75" y2="1219.64" gradientUnits="userSpaceOnUse">
<stop stop-color="#660F56"/>
<stop offset="1" stop-color="#660F56" stop-opacity="0"/>
</linearGradient>
<linearGradient id="paint54_linear" x1="3208.01" y1="1920.99" x2="3190.79" y2="1901.64" gradientUnits="userSpaceOnUse">
<stop stop-color="#422680"/>
<stop offset="1" stop-color="#422680" stop-opacity="0"/>
</linearGradient>
<linearGradient id="paint55_linear" x1="4655.76" y1="833.85" x2="4638.54" y2="814.505" gradientUnits="userSpaceOnUse">
<stop stop-color="#422680"/>
<stop offset="1" stop-color="#422680" stop-opacity="0"/>
</linearGradient>
<linearGradient id="paint56_linear" x1="3975.03" y1="931.987" x2="3956.49" y2="911.149" gradientUnits="userSpaceOnUse">
<stop stop-color="#422680"/>
<stop offset="1" stop-color="#422680" stop-opacity="0"/>
</linearGradient>
<linearGradient id="paint57_linear" x1="3596.85" y1="852.885" x2="3579.56" y2="833.609" gradientUnits="userSpaceOnUse">
<stop stop-color="#422680"/>
<stop offset="1" stop-color="#422680" stop-opacity="0"/>
</linearGradient>
<linearGradient id="paint58_linear" x1="3687.84" y1="623.057" x2="3670.55" y2="603.781" gradientUnits="userSpaceOnUse">
<stop stop-color="#422680"/>
<stop offset="1" stop-color="#422680" stop-opacity="0"/>
</linearGradient>
<linearGradient id="paint59_linear" x1="2354.23" y1="1456.72" x2="2317.02" y2="1415.17" gradientUnits="userSpaceOnUse">
<stop stop-color="#422680"/>
<stop offset="1" stop-color="#422680" stop-opacity="0"/>
</linearGradient>
<linearGradient id="paint60_linear" x1="3802.35" y1="371.124" x2="3765.14" y2="329.576" gradientUnits="userSpaceOnUse">
<stop stop-color="#422680"/>
<stop offset="1" stop-color="#422680" stop-opacity="0"/>
</linearGradient>
<linearGradient id="paint61_linear" x1="3885.83" y1="1635.12" x2="3848.62" y2="1593.57" gradientUnits="userSpaceOnUse">
<stop stop-color="#422680"/>
<stop offset="1" stop-color="#422680" stop-opacity="0"/>
</linearGradient>
<linearGradient id="paint62_linear" x1="2163.62" y1="1490.25" x2="2130.91" y2="1453.12" gradientUnits="userSpaceOnUse">
<stop stop-color="#422680"/>
<stop offset="1" stop-color="#422680" stop-opacity="0"/>
</linearGradient>
<linearGradient id="paint63_linear" x1="3611.74" y1="404.654" x2="3579.04" y2="367.529" gradientUnits="userSpaceOnUse">
<stop stop-color="#422680"/>
<stop offset="1" stop-color="#422680" stop-opacity="0"/>
</linearGradient>
<linearGradient id="paint64_linear" x1="3062.17" y1="830.513" x2="3078.85" y2="851.245" gradientUnits="userSpaceOnUse">
<stop stop-color="#F54952"/>
<stop offset="1" stop-color="#F54952" stop-opacity="0"/>
</linearGradient>
<linearGradient id="paint65_linear" x1="2593.18" y1="971.741" x2="2609.86" y2="992.473" gradientUnits="userSpaceOnUse">
<stop stop-color="#F54952"/>
<stop offset="1" stop-color="#F54952" stop-opacity="0"/>
</linearGradient>
<linearGradient id="paint66_linear" x1="2865.63" y1="1327.51" x2="2882.31" y2="1348.24" gradientUnits="userSpaceOnUse">
<stop stop-color="#F54952"/>
<stop offset="1" stop-color="#F54952" stop-opacity="0"/>
</linearGradient>
<linearGradient id="paint67_linear" x1="3070.39" y1="1321.02" x2="3083.07" y2="1336.37" gradientUnits="userSpaceOnUse">
<stop stop-color="#AE2D68"/>
<stop offset="1" stop-color="#AE2D68" stop-opacity="0"/>
</linearGradient>
<linearGradient id="paint68_linear" x1="3115.83" y1="644.964" x2="3128.51" y2="660.314" gradientUnits="userSpaceOnUse">
<stop stop-color="#AE2D68"/>
<stop offset="1" stop-color="#AE2D68" stop-opacity="0"/>
</linearGradient>
<linearGradient id="paint69_linear" x1="3061.43" y1="1618.21" x2="3044" y2="1598.09" gradientUnits="userSpaceOnUse">
<stop stop-color="#F54952"/>
<stop offset="1" stop-color="#F54952" stop-opacity="0"/>
</linearGradient>
<linearGradient id="paint70_linear" x1="4508.99" y1="531.21" x2="4491.57" y2="511.093" gradientUnits="userSpaceOnUse">
<stop stop-color="#F54952"/>
<stop offset="1" stop-color="#F54952" stop-opacity="0"/>
</linearGradient>
<linearGradient id="paint71_linear" x1="2415.65" y1="1497.18" x2="2397.83" y2="1477.43" gradientUnits="userSpaceOnUse">
<stop stop-color="#F54952"/>
<stop offset="1" stop-color="#F54952" stop-opacity="0"/>
</linearGradient>
<linearGradient id="paint72_linear" x1="3863.21" y1="410.179" x2="3845.39" y2="390.428" gradientUnits="userSpaceOnUse">
<stop stop-color="#F54952"/>
<stop offset="1" stop-color="#F54952" stop-opacity="0"/>
</linearGradient>
<linearGradient id="paint73_linear" x1="3548.44" y1="1080.64" x2="3537.43" y2="1067.66" gradientUnits="userSpaceOnUse">
<stop stop-color="#F54952"/>
<stop offset="1" stop-color="#F54952" stop-opacity="0"/>
</linearGradient>
<linearGradient id="paint74_linear" x1="3351.91" y1="1577.64" x2="3340.89" y2="1564.66" gradientUnits="userSpaceOnUse">
<stop stop-color="#F54952"/>
<stop offset="1" stop-color="#F54952" stop-opacity="0"/>
</linearGradient>
<linearGradient id="paint75_linear" x1="3531.02" y1="1335.99" x2="3505.25" y2="1306.06" gradientUnits="userSpaceOnUse">
<stop stop-color="#660F56"/>
<stop offset="1" stop-color="#660F56" stop-opacity="0"/>
</linearGradient>
<linearGradient id="paint76_linear" x1="4054.63" y1="478.398" x2="4037.25" y2="459.214" gradientUnits="userSpaceOnUse">
<stop stop-color="#422680"/>
<stop offset="1" stop-color="#422680" stop-opacity="0"/>
</linearGradient>
<linearGradient id="paint77_linear" x1="2607.06" y1="1565.4" x2="2589.68" y2="1546.21" gradientUnits="userSpaceOnUse">
<stop stop-color="#422680"/>
<stop offset="1" stop-color="#422680" stop-opacity="0"/>
</linearGradient>
<linearGradient id="paint78_linear" x1="3256.25" y1="459.964" x2="3268.93" y2="475.314" gradientUnits="userSpaceOnUse">
<stop stop-color="#AE2D68"/>
<stop offset="1" stop-color="#AE2D68" stop-opacity="0"/>
</linearGradient>
<linearGradient id="paint79_linear" x1="4518.46" y1="233.964" x2="4531.14" y2="249.314" gradientUnits="userSpaceOnUse">
<stop stop-color="#AE2D68"/>
<stop offset="1" stop-color="#AE2D68" stop-opacity="0"/>
</linearGradient>
</defs>
</svg>
