<svg width="479" height="479" viewBox="0 0 479 479" fill="none" xmlns="http://www.w3.org/2000/svg">
<path d="M265.057 399.453C255.529 403.232 245.537 406.295 235.298 405.814C204.337 404.361 179.983 397.175 133.574 369.892C79.6726 338.204 102.399 318.062 76.5561 261.104C56.6952 217.33 89.2081 160.383 105.324 136.365C110.515 128.628 117.94 122.831 126.382 118.89L206.515 81.4804C226.14 72.3186 249.106 74.5417 267.489 85.9948C293.177 102 328.975 121.609 345.493 118.246C372.784 112.691 405.034 166.395 412.656 211.677C421.102 261.852 389.387 282.19 370.922 338.942C354.288 390.067 308.275 382.312 265.057 399.453Z" fill="#660F56"/>
<path d="M265.057 399.453C255.529 403.232 245.537 406.295 235.298 405.814C204.337 404.361 179.983 397.175 133.574 369.892C79.6726 338.204 102.399 318.062 76.5561 261.104C56.6952 217.33 89.2081 160.383 105.324 136.365C110.515 128.628 117.94 122.831 126.382 118.89L206.515 81.4804C226.14 72.3186 249.106 74.5417 267.489 85.9948C293.177 102 328.975 121.609 345.493 118.246C372.784 112.691 405.034 166.395 412.656 211.677C421.102 261.852 389.387 282.19 370.922 338.942C354.288 390.067 308.275 382.312 265.057 399.453Z" fill="url(#paint0_radial)"/>
<path d="M265.057 399.453C255.529 403.232 245.537 406.295 235.298 405.814C204.337 404.361 179.983 397.175 133.574 369.892C79.6726 338.204 102.399 318.062 76.5561 261.104C56.6952 217.33 89.2081 160.383 105.324 136.365C110.515 128.628 117.94 122.831 126.382 118.89L206.515 81.4804C226.14 72.3186 249.106 74.5417 267.489 85.9948C293.177 102 328.975 121.609 345.493 118.246C372.784 112.691 405.034 166.395 412.656 211.677C421.102 261.852 389.387 282.19 370.922 338.942C354.288 390.067 308.275 382.312 265.057 399.453Z" fill="url(#paint1_radial)"/>
<path d="M265.057 399.453C255.529 403.232 245.537 406.295 235.298 405.814C204.337 404.361 179.983 397.175 133.574 369.892C79.6726 338.204 102.399 318.062 76.5561 261.104C56.6952 217.33 89.2081 160.383 105.324 136.365C110.515 128.628 117.94 122.831 126.382 118.89L206.515 81.4804C226.14 72.3186 249.106 74.5417 267.489 85.9948C293.177 102 328.975 121.609 345.493 118.246C372.784 112.691 405.034 166.395 412.656 211.677C421.102 261.852 389.387 282.19 370.922 338.942C354.288 390.067 308.275 382.312 265.057 399.453Z" fill="url(#paint2_radial)"/>
<path d="M265.057 399.453C255.529 403.232 245.537 406.295 235.298 405.814C204.337 404.361 179.983 397.175 133.574 369.892C79.6726 338.204 102.399 318.062 76.5561 261.104C56.6952 217.33 89.2081 160.383 105.324 136.365C110.515 128.628 117.94 122.831 126.382 118.89L206.515 81.4804C226.14 72.3186 249.106 74.5417 267.489 85.9948C293.177 102 328.975 121.609 345.493 118.246C372.784 112.691 405.034 166.395 412.656 211.677C421.102 261.852 389.387 282.19 370.922 338.942C354.288 390.067 308.275 382.312 265.057 399.453Z" fill="url(#paint3_radial)"/>
<path d="M265.057 399.453C255.529 403.232 245.537 406.295 235.298 405.814C204.337 404.361 179.983 397.175 133.574 369.892C79.6726 338.204 102.399 318.062 76.5561 261.104C56.6952 217.33 89.2081 160.383 105.324 136.365C110.515 128.628 117.94 122.831 126.382 118.89L206.515 81.4804C226.14 72.3186 249.106 74.5417 267.489 85.9948C293.177 102 328.975 121.609 345.493 118.246C372.784 112.691 405.034 166.395 412.656 211.677C421.102 261.852 389.387 282.19 370.922 338.942C354.288 390.067 308.275 382.312 265.057 399.453Z" fill="url(#paint4_radial)"/>
<path d="M265.057 399.453C255.529 403.232 245.537 406.295 235.298 405.814C204.337 404.361 179.983 397.175 133.574 369.892C79.6726 338.204 102.399 318.062 76.5561 261.104C56.6952 217.33 89.2081 160.383 105.324 136.365C110.515 128.628 117.94 122.831 126.382 118.89L206.515 81.4804C226.14 72.3186 249.106 74.5417 267.489 85.9948C293.177 102 328.975 121.609 345.493 118.246C372.784 112.691 405.034 166.395 412.656 211.677C421.102 261.852 389.387 282.19 370.922 338.942C354.288 390.067 308.275 382.312 265.057 399.453Z" fill="url(#paint5_radial)"/>
<path d="M265.057 399.453C255.529 403.232 245.537 406.295 235.298 405.814C204.337 404.361 179.983 397.175 133.574 369.892C79.6726 338.204 102.399 318.062 76.5561 261.104C56.6952 217.33 89.2081 160.383 105.324 136.365C110.515 128.628 117.94 122.831 126.382 118.89L206.515 81.4804C226.14 72.3186 249.106 74.5417 267.489 85.9948C293.177 102 328.975 121.609 345.493 118.246C372.784 112.691 405.034 166.395 412.656 211.677C421.102 261.852 389.387 282.19 370.922 338.942C354.288 390.067 308.275 382.312 265.057 399.453Z" fill="black" fill-opacity="0.2"/>
<defs>
<radialGradient id="paint0_radial" cx="0" cy="0" r="1" gradientUnits="userSpaceOnUse" gradientTransform="translate(233 111) rotate(89.5265) scale(60.5021 82.5379)">
<stop offset="0.171875" stop-opacity="0.66"/>
<stop offset="0.598958" stop-opacity="0"/>
</radialGradient>
<radialGradient id="paint1_radial" cx="0" cy="0" r="1" gradientUnits="userSpaceOnUse" gradientTransform="translate(115.5 292) rotate(-21.4855) scale(50.5099 67.2574)">
<stop offset="0.307292" stop-opacity="0.58"/>
<stop offset="0.869792" stop-opacity="0"/>
</radialGradient>
<radialGradient id="paint2_radial" cx="0" cy="0" r="1" gradientUnits="userSpaceOnUse" gradientTransform="translate(239 233.5) rotate(1.28601) scale(245.062 342.902)">
<stop stop-opacity="0"/>
<stop offset="0.619792" stop-opacity="0.66"/>
</radialGradient>
<radialGradient id="paint3_radial" cx="0" cy="0" r="1" gradientUnits="userSpaceOnUse" gradientTransform="translate(307.5 325) rotate(-88.7409) scale(45.511 45.5268)">
<stop offset="0.0989583"/>
<stop offset="1" stop-opacity="0"/>
</radialGradient>
<radialGradient id="paint4_radial" cx="0" cy="0" r="1" gradientUnits="userSpaceOnUse" gradientTransform="translate(322 208) rotate(159.444) scale(38.448 47.2674)">
<stop offset="0.105427"/>
<stop offset="1" stop-opacity="0"/>
</radialGradient>
<radialGradient id="paint5_radial" cx="0" cy="0" r="1" gradientUnits="userSpaceOnUse" gradientTransform="translate(184.5 196) rotate(10.4207) scale(44.2295 44.2448)">
<stop/>
<stop offset="1" stop-opacity="0"/>
</radialGradient>
</defs>
</svg>
