<svg width="439" height="443" viewBox="0 0 439 443" fill="none" xmlns="http://www.w3.org/2000/svg">
<path d="M237.637 368.148C234.527 368.77 231.423 368.997 228.254 368.867C211.211 368.168 151.644 363.828 105.931 336.955C52.0296 305.267 42.3575 259.962 42.9999 212C43.1533 200.548 48.6078 192.057 56.0422 185.794C76.8693 168.248 100.477 149.571 112.49 125.131C121.828 106.132 136.855 87.0559 160.429 81.9551C217.994 69.4994 262.651 75.4551 299.151 81.9549C335.651 88.4548 347.308 139.673 354.93 184.955C363.375 235.131 361.959 241.248 343.494 298C327.526 347.076 256.545 364.369 237.637 368.148Z" fill="#660F56"/>
<path d="M237.637 368.148C234.527 368.77 231.423 368.997 228.254 368.867C211.211 368.168 151.644 363.828 105.931 336.955C52.0296 305.267 42.3575 259.962 42.9999 212C43.1533 200.548 48.6078 192.057 56.0422 185.794C76.8693 168.248 100.477 149.571 112.49 125.131C121.828 106.132 136.855 87.0559 160.429 81.9551C217.994 69.4994 262.651 75.4551 299.151 81.9549C335.651 88.4548 347.308 139.673 354.93 184.955C363.375 235.131 361.959 241.248 343.494 298C327.526 347.076 256.545 364.369 237.637 368.148Z" fill="url(#paint0_radial)"/>
<path d="M237.637 368.148C234.527 368.77 231.423 368.997 228.254 368.867C211.211 368.168 151.644 363.828 105.931 336.955C52.0296 305.267 42.3575 259.962 42.9999 212C43.1533 200.548 48.6078 192.057 56.0422 185.794C76.8693 168.248 100.477 149.571 112.49 125.131C121.828 106.132 136.855 87.0559 160.429 81.9551C217.994 69.4994 262.651 75.4551 299.151 81.9549C335.651 88.4548 347.308 139.673 354.93 184.955C363.375 235.131 361.959 241.248 343.494 298C327.526 347.076 256.545 364.369 237.637 368.148Z" fill="url(#paint1_radial)"/>
<path d="M237.637 368.148C234.527 368.77 231.423 368.997 228.254 368.867C211.211 368.168 151.644 363.828 105.931 336.955C52.0296 305.267 42.3575 259.962 42.9999 212C43.1533 200.548 48.6078 192.057 56.0422 185.794C76.8693 168.248 100.477 149.571 112.49 125.131C121.828 106.132 136.855 87.0559 160.429 81.9551C217.994 69.4994 262.651 75.4551 299.151 81.9549C335.651 88.4548 347.308 139.673 354.93 184.955C363.375 235.131 361.959 241.248 343.494 298C327.526 347.076 256.545 364.369 237.637 368.148Z" fill="url(#paint2_radial)"/>
<path d="M237.637 368.148C234.527 368.77 231.423 368.997 228.254 368.867C211.211 368.168 151.644 363.828 105.931 336.955C52.0296 305.267 42.3575 259.962 42.9999 212C43.1533 200.548 48.6078 192.057 56.0422 185.794C76.8693 168.248 100.477 149.571 112.49 125.131C121.828 106.132 136.855 87.0559 160.429 81.9551C217.994 69.4994 262.651 75.4551 299.151 81.9549C335.651 88.4548 347.308 139.673 354.93 184.955C363.375 235.131 361.959 241.248 343.494 298C327.526 347.076 256.545 364.369 237.637 368.148Z" fill="url(#paint3_radial)"/>
<path d="M237.637 368.148C234.527 368.77 231.423 368.997 228.254 368.867C211.211 368.168 151.644 363.828 105.931 336.955C52.0296 305.267 42.3575 259.962 42.9999 212C43.1533 200.548 48.6078 192.057 56.0422 185.794C76.8693 168.248 100.477 149.571 112.49 125.131C121.828 106.132 136.855 87.0559 160.429 81.9551C217.994 69.4994 262.651 75.4551 299.151 81.9549C335.651 88.4548 347.308 139.673 354.93 184.955C363.375 235.131 361.959 241.248 343.494 298C327.526 347.076 256.545 364.369 237.637 368.148Z" fill="url(#paint4_radial)"/>
<path d="M237.637 368.148C234.527 368.77 231.423 368.997 228.254 368.867C211.211 368.168 151.644 363.828 105.931 336.955C52.0296 305.267 42.3575 259.962 42.9999 212C43.1533 200.548 48.6078 192.057 56.0422 185.794C76.8693 168.248 100.477 149.571 112.49 125.131C121.828 106.132 136.855 87.0559 160.429 81.9551C217.994 69.4994 262.651 75.4551 299.151 81.9549C335.651 88.4548 347.308 139.673 354.93 184.955C363.375 235.131 361.959 241.248 343.494 298C327.526 347.076 256.545 364.369 237.637 368.148Z" fill="url(#paint5_radial)"/>
<path d="M237.637 368.148C234.527 368.77 231.423 368.997 228.254 368.867C211.211 368.168 151.644 363.828 105.931 336.955C52.0296 305.267 42.3575 259.962 42.9999 212C43.1533 200.548 48.6078 192.057 56.0422 185.794C76.8693 168.248 100.477 149.571 112.49 125.131C121.828 106.132 136.855 87.0559 160.429 81.9551C217.994 69.4994 262.651 75.4551 299.151 81.9549C335.651 88.4548 347.308 139.673 354.93 184.955C363.375 235.131 361.959 241.248 343.494 298C327.526 347.076 256.545 364.369 237.637 368.148Z" fill="black" fill-opacity="0.2"/>
<defs>
<radialGradient id="paint0_radial" cx="0" cy="0" r="1" gradientUnits="userSpaceOnUse" gradientTransform="translate(141.161 110.954) rotate(77.0424) scale(57.9763 79.0922)">
<stop offset="0.171875" stop-opacity="0.66"/>
<stop offset="0.598958" stop-opacity="0"/>
</radialGradient>
<radialGradient id="paint1_radial" cx="0" cy="0" r="1" gradientUnits="userSpaceOnUse" gradientTransform="translate(86.5 285) rotate(-30.9638) scale(37.9012 78.7564)">
<stop offset="0.421875" stop-opacity="0.58"/>
<stop offset="0.869792" stop-opacity="0"/>
</radialGradient>
<radialGradient id="paint2_radial" cx="0" cy="0" r="1" gradientUnits="userSpaceOnUse" gradientTransform="translate(219 221) rotate(51.3858) scale(198.952 231.123)">
<stop stop-opacity="0"/>
<stop offset="0.619792" stop-opacity="0.66"/>
</radialGradient>
<radialGradient id="paint3_radial" cx="0" cy="0" r="1" gradientUnits="userSpaceOnUse" gradientTransform="translate(229.661 346.955) rotate(-101.482) scale(32.6535 62.3384)">
<stop offset="0.166667"/>
<stop offset="0.713542" stop-opacity="0"/>
</radialGradient>
<radialGradient id="paint4_radial" cx="0" cy="0" r="1" gradientUnits="userSpaceOnUse" gradientTransform="translate(293.5 121) rotate(120.256) scale(48.6235 59.777)">
<stop offset="0.151042"/>
<stop offset="0.817708" stop-opacity="0"/>
</radialGradient>
<radialGradient id="paint5_radial" cx="0" cy="0" r="1" gradientUnits="userSpaceOnUse" gradientTransform="translate(259.5 244) rotate(-133.345) scale(61.1903 75.0358)">
<stop offset="0.0364583"/>
<stop offset="0.828125" stop-opacity="0"/>
<stop offset="0.980217" stop-opacity="0"/>
</radialGradient>
</defs>
</svg>
