<svg width="345" height="331" viewBox="0 0 345 331" fill="none" xmlns="http://www.w3.org/2000/svg">
<path d="M195.057 324.453C185.529 328.232 175.537 331.295 165.298 330.814C134.337 329.361 109.983 322.174 63.574 294.892C9.67264 263.204 32.3992 243.062 6.55614 186.104C-13.3048 142.33 19.2081 85.3829 35.3243 61.3645C40.5154 53.6281 47.9402 47.8313 56.3822 43.8902L136.515 6.4803C156.14 -2.68156 179.106 -0.458428 197.489 10.9946C223.177 26.9997 258.975 46.6086 275.493 43.2462C302.784 37.6909 335.034 91.3946 342.656 136.677C351.102 186.852 319.387 207.189 300.922 263.942C284.288 315.067 238.275 307.312 195.057 324.453Z" fill="#660F56"/>
<path d="M195.057 324.453C185.529 328.232 175.537 331.295 165.298 330.814C134.337 329.361 109.983 322.174 63.574 294.892C9.67264 263.204 32.3992 243.062 6.55614 186.104C-13.3048 142.33 19.2081 85.3829 35.3243 61.3645C40.5154 53.6281 47.9402 47.8313 56.3822 43.8902L136.515 6.4803C156.14 -2.68156 179.106 -0.458428 197.489 10.9946C223.177 26.9997 258.975 46.6086 275.493 43.2462C302.784 37.6909 335.034 91.3946 342.656 136.677C351.102 186.852 319.387 207.189 300.922 263.942C284.288 315.067 238.275 307.312 195.057 324.453Z" fill="url(#paint0_radial)"/>
<path d="M195.057 324.453C185.529 328.232 175.537 331.295 165.298 330.814C134.337 329.361 109.983 322.174 63.574 294.892C9.67264 263.204 32.3992 243.062 6.55614 186.104C-13.3048 142.33 19.2081 85.3829 35.3243 61.3645C40.5154 53.6281 47.9402 47.8313 56.3822 43.8902L136.515 6.4803C156.14 -2.68156 179.106 -0.458428 197.489 10.9946C223.177 26.9997 258.975 46.6086 275.493 43.2462C302.784 37.6909 335.034 91.3946 342.656 136.677C351.102 186.852 319.387 207.189 300.922 263.942C284.288 315.067 238.275 307.312 195.057 324.453Z" fill="url(#paint1_radial)"/>
<path d="M195.057 324.453C185.529 328.232 175.537 331.295 165.298 330.814C134.337 329.361 109.983 322.174 63.574 294.892C9.67264 263.204 32.3992 243.062 6.55614 186.104C-13.3048 142.33 19.2081 85.3829 35.3243 61.3645C40.5154 53.6281 47.9402 47.8313 56.3822 43.8902L136.515 6.4803C156.14 -2.68156 179.106 -0.458428 197.489 10.9946C223.177 26.9997 258.975 46.6086 275.493 43.2462C302.784 37.6909 335.034 91.3946 342.656 136.677C351.102 186.852 319.387 207.189 300.922 263.942C284.288 315.067 238.275 307.312 195.057 324.453Z" fill="url(#paint2_radial)"/>
<path d="M195.057 324.453C185.529 328.232 175.537 331.295 165.298 330.814C134.337 329.361 109.983 322.174 63.574 294.892C9.67264 263.204 32.3992 243.062 6.55614 186.104C-13.3048 142.33 19.2081 85.3829 35.3243 61.3645C40.5154 53.6281 47.9402 47.8313 56.3822 43.8902L136.515 6.4803C156.14 -2.68156 179.106 -0.458428 197.489 10.9946C223.177 26.9997 258.975 46.6086 275.493 43.2462C302.784 37.6909 335.034 91.3946 342.656 136.677C351.102 186.852 319.387 207.189 300.922 263.942C284.288 315.067 238.275 307.312 195.057 324.453Z" fill="url(#paint3_radial)"/>
<path d="M195.057 324.453C185.529 328.232 175.537 331.295 165.298 330.814C134.337 329.361 109.983 322.174 63.574 294.892C9.67264 263.204 32.3992 243.062 6.55614 186.104C-13.3048 142.33 19.2081 85.3829 35.3243 61.3645C40.5154 53.6281 47.9402 47.8313 56.3822 43.8902L136.515 6.4803C156.14 -2.68156 179.106 -0.458428 197.489 10.9946C223.177 26.9997 258.975 46.6086 275.493 43.2462C302.784 37.6909 335.034 91.3946 342.656 136.677C351.102 186.852 319.387 207.189 300.922 263.942C284.288 315.067 238.275 307.312 195.057 324.453Z" fill="url(#paint4_radial)"/>
<path d="M195.057 324.453C185.529 328.232 175.537 331.295 165.298 330.814C134.337 329.361 109.983 322.174 63.574 294.892C9.67264 263.204 32.3992 243.062 6.55614 186.104C-13.3048 142.33 19.2081 85.3829 35.3243 61.3645C40.5154 53.6281 47.9402 47.8313 56.3822 43.8902L136.515 6.4803C156.14 -2.68156 179.106 -0.458428 197.489 10.9946C223.177 26.9997 258.975 46.6086 275.493 43.2462C302.784 37.6909 335.034 91.3946 342.656 136.677C351.102 186.852 319.387 207.189 300.922 263.942C284.288 315.067 238.275 307.312 195.057 324.453Z" fill="url(#paint5_radial)"/>
<path d="M195.057 324.453C185.529 328.232 175.537 331.295 165.298 330.814C134.337 329.361 109.983 322.174 63.574 294.892C9.67264 263.204 32.3992 243.062 6.55614 186.104C-13.3048 142.33 19.2081 85.3829 35.3243 61.3645C40.5154 53.6281 47.9402 47.8313 56.3822 43.8902L136.515 6.4803C156.14 -2.68156 179.106 -0.458428 197.489 10.9946C223.177 26.9997 258.975 46.6086 275.493 43.2462C302.784 37.6909 335.034 91.3946 342.656 136.677C351.102 186.852 319.387 207.189 300.922 263.942C284.288 315.067 238.275 307.312 195.057 324.453Z" fill="black" fill-opacity="0.2"/>
<defs>
<radialGradient id="paint0_radial" cx="0" cy="0" r="1" gradientUnits="userSpaceOnUse" gradientTransform="translate(163 35.9999) rotate(89.5265) scale(60.5021 82.5379)">
<stop offset="0.171875" stop-opacity="0.66"/>
<stop offset="0.598958" stop-opacity="0"/>
</radialGradient>
<radialGradient id="paint1_radial" cx="0" cy="0" r="1" gradientUnits="userSpaceOnUse" gradientTransform="translate(45.5 217) rotate(-21.4855) scale(50.5099 67.2574)">
<stop offset="0.307292" stop-opacity="0.58"/>
<stop offset="0.869792" stop-opacity="0"/>
</radialGradient>
<radialGradient id="paint2_radial" cx="0" cy="0" r="1" gradientUnits="userSpaceOnUse" gradientTransform="translate(169 158.5) rotate(1.28601) scale(245.062 342.902)">
<stop stop-opacity="0"/>
<stop offset="0.619792" stop-opacity="0.66"/>
</radialGradient>
<radialGradient id="paint3_radial" cx="0" cy="0" r="1" gradientUnits="userSpaceOnUse" gradientTransform="translate(237.5 250) rotate(-88.7409) scale(45.511 45.5268)">
<stop offset="0.0989583"/>
<stop offset="1" stop-opacity="0"/>
</radialGradient>
<radialGradient id="paint4_radial" cx="0" cy="0" r="1" gradientUnits="userSpaceOnUse" gradientTransform="translate(252 133) rotate(159.444) scale(38.448 47.2674)">
<stop offset="0.105427"/>
<stop offset="1" stop-opacity="0"/>
</radialGradient>
<radialGradient id="paint5_radial" cx="0" cy="0" r="1" gradientUnits="userSpaceOnUse" gradientTransform="translate(114.5 121) rotate(10.4207) scale(44.2295 44.2448)">
<stop/>
<stop offset="1" stop-opacity="0"/>
</radialGradient>
</defs>
</svg>
