<svg width="433" height="411" viewBox="0 0 433 411" fill="none" xmlns="http://www.w3.org/2000/svg">
<g filter="url(#filter0_d)">
<path d="M204.286 349.679C200.755 349.312 197.216 349 193.72 348.388C184.207 346.723 161.449 340.53 122.276 317.501C68.3743 285.813 60.1325 273.463 60.7749 225.501C61.1629 196.539 79.5993 162.566 87.3735 149.501C89.5786 145.795 91.5425 141.973 93.2852 138.029C102.115 118.045 133.553 55.1749 176.774 62.5011C216.491 69.2333 278.996 56.0012 315.496 62.5011C351.996 69.001 363.652 120.219 371.274 165.501C379.72 215.677 316.465 249.248 298 306C282.401 353.945 222.501 351.57 204.286 349.679Z" fill="#660F56"/>
<path d="M204.286 349.679C200.755 349.312 197.216 349 193.72 348.388C184.207 346.723 161.449 340.53 122.276 317.501C68.3743 285.813 60.1325 273.463 60.7749 225.501C61.1629 196.539 79.5993 162.566 87.3735 149.501C89.5786 145.795 91.5425 141.973 93.2852 138.029C102.115 118.045 133.553 55.1749 176.774 62.5011C216.491 69.2333 278.996 56.0012 315.496 62.5011C351.996 69.001 363.652 120.219 371.274 165.501C379.72 215.677 316.465 249.248 298 306C282.401 353.945 222.501 351.57 204.286 349.679Z" fill="url(#paint0_radial)"/>
</g>
<defs>
<filter id="filter0_d" x="0.741211" y="0.649048" width="431.305" height="409.816" filterUnits="userSpaceOnUse" color-interpolation-filters="sRGB">
<feFlood flood-opacity="0" result="BackgroundImageFix"/>
<feColorMatrix in="SourceAlpha" type="matrix" values="0 0 0 0 0 0 0 0 0 0 0 0 0 0 0 0 0 0 127 0" result="hardAlpha"/>
<feOffset/>
<feGaussianBlur stdDeviation="30"/>
<feComposite in2="hardAlpha" operator="out"/>
<feColorMatrix type="matrix" values="0 0 0 0 0 0 0 0 0 0.666667 0 0 0 0 1 0 0 0 1 0"/>
<feBlend mode="normal" in2="BackgroundImageFix" result="effect1_dropShadow"/>
<feBlend mode="normal" in="SourceGraphic" in2="effect1_dropShadow" result="shape"/>
</filter>
<radialGradient id="paint0_radial" cx="0" cy="0" r="1" gradientUnits="userSpaceOnUse" gradientTransform="translate(219 197) rotate(48.7128) scale(212.932 297.946)">
<stop stop-opacity="0"/>
<stop offset="0.69618" stop-opacity="0.66"/>
</radialGradient>
</defs>
</svg>
