<svg width="425" height="432" viewBox="0 0 425 432" fill="none" xmlns="http://www.w3.org/2000/svg">
<path d="M197.286 375.679C193.755 375.312 190.216 375 186.72 374.388C177.207 372.723 154.449 366.53 115.276 343.501C61.3743 311.813 53.1325 299.463 53.7749 251.501C54.1629 222.539 72.5993 188.566 80.3735 175.501C82.5786 171.796 84.5425 167.973 86.2852 164.029C95.1152 144.045 126.553 81.175 169.774 88.5012C209.491 95.2334 271.996 82.0013 308.496 88.5012C344.996 95.0011 356.652 146.219 364.274 191.501C372.72 241.677 309.465 275.248 291 332C275.401 379.945 215.501 377.57 197.286 375.679Z" fill="#660F56"/>
<path d="M197.286 375.679C193.755 375.312 190.216 375 186.72 374.388C177.207 372.723 154.449 366.53 115.276 343.501C61.3743 311.813 53.1325 299.463 53.7749 251.501C54.1629 222.539 72.5993 188.566 80.3735 175.501C82.5786 171.796 84.5425 167.973 86.2852 164.029C95.1152 144.045 126.553 81.175 169.774 88.5012C209.491 95.2334 271.996 82.0013 308.496 88.5012C344.996 95.0011 356.652 146.219 364.274 191.501C372.72 241.677 309.465 275.248 291 332C275.401 379.945 215.501 377.57 197.286 375.679Z" fill="url(#paint0_radial)"/>
<path d="M197.286 375.679C193.755 375.312 190.216 375 186.72 374.388C177.207 372.723 154.449 366.53 115.276 343.501C61.3743 311.813 53.1325 299.463 53.7749 251.501C54.1629 222.539 72.5993 188.566 80.3735 175.501C82.5786 171.796 84.5425 167.973 86.2852 164.029C95.1152 144.045 126.553 81.175 169.774 88.5012C209.491 95.2334 271.996 82.0013 308.496 88.5012C344.996 95.0011 356.652 146.219 364.274 191.501C372.72 241.677 309.465 275.248 291 332C275.401 379.945 215.501 377.57 197.286 375.679Z" fill="url(#paint1_radial)"/>
<path d="M197.286 375.679C193.755 375.312 190.216 375 186.72 374.388C177.207 372.723 154.449 366.53 115.276 343.501C61.3743 311.813 53.1325 299.463 53.7749 251.501C54.1629 222.539 72.5993 188.566 80.3735 175.501C82.5786 171.796 84.5425 167.973 86.2852 164.029C95.1152 144.045 126.553 81.175 169.774 88.5012C209.491 95.2334 271.996 82.0013 308.496 88.5012C344.996 95.0011 356.652 146.219 364.274 191.501C372.72 241.677 309.465 275.248 291 332C275.401 379.945 215.501 377.57 197.286 375.679Z" fill="url(#paint2_radial)"/>
<path d="M197.286 375.679C193.755 375.312 190.216 375 186.72 374.388C177.207 372.723 154.449 366.53 115.276 343.501C61.3743 311.813 53.1325 299.463 53.7749 251.501C54.1629 222.539 72.5993 188.566 80.3735 175.501C82.5786 171.796 84.5425 167.973 86.2852 164.029C95.1152 144.045 126.553 81.175 169.774 88.5012C209.491 95.2334 271.996 82.0013 308.496 88.5012C344.996 95.0011 356.652 146.219 364.274 191.501C372.72 241.677 309.465 275.248 291 332C275.401 379.945 215.501 377.57 197.286 375.679Z" fill="url(#paint3_radial)"/>
<path d="M197.286 375.679C193.755 375.312 190.216 375 186.72 374.388C177.207 372.723 154.449 366.53 115.276 343.501C61.3743 311.813 53.1325 299.463 53.7749 251.501C54.1629 222.539 72.5993 188.566 80.3735 175.501C82.5786 171.796 84.5425 167.973 86.2852 164.029C95.1152 144.045 126.553 81.175 169.774 88.5012C209.491 95.2334 271.996 82.0013 308.496 88.5012C344.996 95.0011 356.652 146.219 364.274 191.501C372.72 241.677 309.465 275.248 291 332C275.401 379.945 215.501 377.57 197.286 375.679Z" fill="url(#paint4_radial)"/>
<path d="M197.286 375.679C193.755 375.312 190.216 375 186.72 374.388C177.207 372.723 154.449 366.53 115.276 343.501C61.3743 311.813 53.1325 299.463 53.7749 251.501C54.1629 222.539 72.5993 188.566 80.3735 175.501C82.5786 171.796 84.5425 167.973 86.2852 164.029C95.1152 144.045 126.553 81.175 169.774 88.5012C209.491 95.2334 271.996 82.0013 308.496 88.5012C344.996 95.0011 356.652 146.219 364.274 191.501C372.72 241.677 309.465 275.248 291 332C275.401 379.945 215.501 377.57 197.286 375.679Z" fill="url(#paint5_radial)"/>
<path d="M197.286 375.679C193.755 375.312 190.216 375 186.72 374.388C177.207 372.723 154.449 366.53 115.276 343.501C61.3743 311.813 53.1325 299.463 53.7749 251.501C54.1629 222.539 72.5993 188.566 80.3735 175.501C82.5786 171.796 84.5425 167.973 86.2852 164.029C95.1152 144.045 126.553 81.175 169.774 88.5012C209.491 95.2334 271.996 82.0013 308.496 88.5012C344.996 95.0011 356.652 146.219 364.274 191.501C372.72 241.677 309.465 275.248 291 332C275.401 379.945 215.501 377.57 197.286 375.679Z" fill="black" fill-opacity="0.2"/>
<defs>
<radialGradient id="paint0_radial" cx="0" cy="0" r="1" gradientUnits="userSpaceOnUse" gradientTransform="translate(150.5 117.5) rotate(77.0424) scale(57.9763 79.0921)">
<stop offset="0.171875" stop-opacity="0.66"/>
<stop offset="0.598958" stop-opacity="0"/>
</radialGradient>
<radialGradient id="paint1_radial" cx="0" cy="0" r="1" gradientUnits="userSpaceOnUse" gradientTransform="translate(130.5 285) rotate(-21.4855) scale(50.5099 67.2574)">
<stop offset="0.307292" stop-opacity="0.58"/>
<stop offset="0.869792" stop-opacity="0"/>
</radialGradient>
<radialGradient id="paint2_radial" cx="0" cy="0" r="1" gradientUnits="userSpaceOnUse" gradientTransform="translate(212 223) rotate(48.7128) scale(212.932 297.946)">
<stop stop-opacity="0"/>
<stop offset="0.619792" stop-opacity="0.66"/>
</radialGradient>
<radialGradient id="paint3_radial" cx="0" cy="0" r="1" gradientUnits="userSpaceOnUse" gradientTransform="translate(239 353.5) rotate(-101.482) scale(32.6535 62.3384)">
<stop offset="0.166667"/>
<stop offset="0.713542" stop-opacity="0"/>
</radialGradient>
<radialGradient id="paint4_radial" cx="0" cy="0" r="1" gradientUnits="userSpaceOnUse" gradientTransform="translate(309.5 120) rotate(98.6371) scale(39.9531 49.1177)">
<stop/>
<stop offset="0.817708" stop-opacity="0"/>
</radialGradient>
<radialGradient id="paint5_radial" cx="0" cy="0" r="1" gradientUnits="userSpaceOnUse" gradientTransform="translate(233 198) rotate(-40.2364) scale(59.6029 65.4659)">
<stop offset="0.0364583"/>
<stop offset="0.828125" stop-opacity="0"/>
</radialGradient>
</defs>
</svg>
