<svg width="438" height="415" viewBox="0 0 438 415" fill="none" xmlns="http://www.w3.org/2000/svg">
<g filter="url(#filter0_d)">
<path d="M255.637 354.148C252.527 354.77 249.423 354.997 246.254 354.867C229.211 354.168 169.644 349.828 123.931 322.954C70.0296 291.267 60.3575 245.962 60.9999 198C61.1533 186.548 66.6078 178.057 74.0422 171.794C94.8693 154.248 118.477 135.571 130.49 111.131C139.828 92.132 154.855 73.0558 178.429 67.9549C235.994 55.4993 280.651 61.4549 317.151 67.9548C353.651 74.4547 365.308 125.673 372.93 170.955C381.375 221.13 379.959 227.248 361.494 284C345.526 333.076 274.545 350.368 255.637 354.148Z" fill="#660F56"/>
<path d="M255.637 354.148C252.527 354.77 249.423 354.997 246.254 354.867C229.211 354.168 169.644 349.828 123.931 322.954C70.0296 291.267 60.3575 245.962 60.9999 198C61.1533 186.548 66.6078 178.057 74.0422 171.794C94.8693 154.248 118.477 135.571 130.49 111.131C139.828 92.132 154.855 73.0558 178.429 67.9549C235.994 55.4993 280.651 61.4549 317.151 67.9548C353.651 74.4547 365.308 125.673 372.93 170.955C381.375 221.13 379.959 227.248 361.494 284C345.526 333.076 274.545 350.368 255.637 354.148Z" fill="url(#paint0_radial)"/>
</g>
<defs>
<filter id="filter0_d" x="0.970703" y="0.678955" width="436.921" height="414.223" filterUnits="userSpaceOnUse" color-interpolation-filters="sRGB">
<feFlood flood-opacity="0" result="BackgroundImageFix"/>
<feColorMatrix in="SourceAlpha" type="matrix" values="0 0 0 0 0 0 0 0 0 0 0 0 0 0 0 0 0 0 127 0" result="hardAlpha"/>
<feOffset/>
<feGaussianBlur stdDeviation="30"/>
<feComposite in2="hardAlpha" operator="out"/>
<feColorMatrix type="matrix" values="0 0 0 0 0 0 0 0 0 0.666667 0 0 0 0 1 0 0 0 1 0"/>
<feBlend mode="normal" in2="BackgroundImageFix" result="effect1_dropShadow"/>
<feBlend mode="normal" in="SourceGraphic" in2="effect1_dropShadow" result="shape"/>
</filter>
<radialGradient id="paint0_radial" cx="0" cy="0" r="1" gradientUnits="userSpaceOnUse" gradientTransform="translate(237 207) rotate(51.3858) scale(198.952 231.123)">
<stop stop-opacity="0"/>
<stop offset="0.763889" stop-opacity="0.66"/>
</radialGradient>
</defs>
</svg>
