<svg width="1440" height="805" viewBox="0 0 1440 805" fill="none" xmlns="http://www.w3.org/2000/svg">
<g clip-path="url(#clip0)">
<path d="M-6 280.655V0H735.5H1442.55V291.607V457.604L1444 628.637C1444 629.778 1443.56 630.882 1442.55 631.807C1436.26 637.557 1407.37 659.91 1316.5 685.088C1265.82 699.13 1128.21 719.73 1090.5 746.113C1082.52 751.693 1077.36 759.471 1074.83 763.963C1073.59 766.167 1070.88 767.913 1067.43 768.496C985.101 789.597 899.928 800.841 814.95 801.974C809.869 802.471 805.013 800.339 802.891 797.253C799.671 792.569 793.722 786.258 784 783.718C771.827 780.538 748.857 783.539 743.097 784.283C744.026 783.909 742.029 784.421 743.097 784.283C732.492 788.552 715.943 795.214 715.943 795.214C715.316 795.466 714.674 795.667 713.977 795.818C706.821 797.363 670.179 805.508 640 804C607.232 802.362 574.185 804.621 539 785.368C525.752 778.118 522.382 765.504 507.5 762.937C432.5 750 353.13 746.113 302 727.641C235.865 703.747 206.228 702.101 193.349 704.155C187.553 705.08 179.579 706.041 174.536 703.941C156.447 696.412 118 680.5 90.5 663.5C60.6143 648.243 8.98374 606.063 -3.29268 597.501C-5.03685 596.285 -6 594.674 -6 593L-6 280.655Z" fill="#AE2D68"/>
<path d="M-6 280.655V0H735.5H1442.55V291.607V457.604L1444 628.637C1444 629.778 1443.56 630.882 1442.55 631.807C1436.26 637.557 1407.37 659.91 1316.5 685.088C1265.82 699.13 1128.21 719.73 1090.5 746.113C1082.52 751.693 1077.36 759.471 1074.83 763.963C1073.59 766.167 1070.88 767.913 1067.43 768.496C985.101 789.597 899.928 800.841 814.95 801.974C809.869 802.471 805.013 800.339 802.891 797.253C799.671 792.569 793.722 786.258 784 783.718C771.827 780.538 748.857 783.539 743.097 784.283C744.026 783.909 742.029 784.421 743.097 784.283C732.492 788.552 715.943 795.214 715.943 795.214C715.316 795.466 714.674 795.667 713.977 795.818C706.821 797.363 670.179 805.508 640 804C607.232 802.362 574.185 804.621 539 785.368C525.752 778.118 522.382 765.504 507.5 762.937C432.5 750 353.13 746.113 302 727.641C235.865 703.747 206.228 702.101 193.349 704.155C187.553 705.08 179.579 706.041 174.536 703.941C156.447 696.412 118 680.5 90.5 663.5C60.6143 648.243 8.98374 606.063 -3.29268 597.501C-5.03685 596.285 -6 594.674 -6 593L-6 280.655Z" fill="url(#paint0_linear)"/>
<path d="M-6 280.655V0H735.5H1442.55V291.607V457.604L1444 628.637C1444 629.778 1443.56 630.882 1442.55 631.807C1436.26 637.557 1407.37 659.91 1316.5 685.088C1265.82 699.13 1128.21 719.73 1090.5 746.113C1082.52 751.693 1077.36 759.471 1074.83 763.963C1073.59 766.167 1070.88 767.913 1067.43 768.496C985.101 789.597 899.928 800.841 814.95 801.974C809.869 802.471 805.013 800.339 802.891 797.253C799.671 792.569 793.722 786.258 784 783.718C771.827 780.538 748.857 783.539 743.097 784.283C744.026 783.909 742.029 784.421 743.097 784.283C732.492 788.552 715.943 795.214 715.943 795.214C715.316 795.466 714.674 795.667 713.977 795.818C706.821 797.363 670.179 805.508 640 804C607.232 802.362 574.185 804.621 539 785.368C525.752 778.118 522.382 765.504 507.5 762.937C432.5 750 353.13 746.113 302 727.641C235.865 703.747 206.228 702.101 193.349 704.155C187.553 705.08 179.579 706.041 174.536 703.941C156.447 696.412 118 680.5 90.5 663.5C60.6143 648.243 8.98374 606.063 -3.29268 597.501C-5.03685 596.285 -6 594.674 -6 593L-6 280.655Z" fill="url(#paint1_radial)" fill-opacity="0.35"/>
<path d="M1086.27 442.682C1172.46 408.858 1239.43 418.771 1235.85 464.822C1232.27 510.874 1159.5 575.625 1073.31 609.449C987.117 643.273 920.146 633.36 923.725 587.309C927.303 541.258 1000.08 476.506 1086.27 442.682Z" fill="url(#paint2_radial)" fill-opacity="0.25"/>
<path d="M1085.32 481.506C1141.26 459.552 1184.73 465.986 1182.41 495.877C1180.09 525.768 1132.85 567.797 1076.91 589.752C1020.96 611.706 977.491 605.272 979.813 575.381C982.136 545.49 1029.37 503.461 1085.32 481.506Z" fill="url(#paint3_radial)"/>
<path d="M716.429 377.34C791.028 272.203 760.612 183.621 648.493 179.488C536.374 175.354 385.01 257.234 310.411 362.371C235.813 467.508 266.229 556.09 378.348 560.223C490.467 564.357 641.831 482.477 716.429 377.34Z" fill="url(#paint4_radial)"/>
<path d="M813.729 362.403C917.394 216.301 868.018 92.9435 703.445 86.8761C538.872 80.8087 321.422 194.329 217.758 340.431C114.094 486.533 163.47 609.891 328.043 615.958C492.615 622.025 710.065 508.505 813.729 362.403Z" fill="url(#paint5_radial)" fill-opacity="0.5"/>
<path d="M1257.51 118.531C1316.33 72.9844 1385.94 76.932 1412.98 127.348C1440.03 177.764 1414.27 255.557 1355.45 301.104C1296.63 346.65 1227.02 342.702 1199.97 292.286C1172.93 241.87 1198.68 164.077 1257.51 118.531Z" fill="url(#paint6_radial)" fill-opacity="0.25"/>
<path d="M1292.92 171.437C1326.88 145.14 1365.75 144.963 1379.74 171.041C1393.73 197.119 1377.54 239.578 1343.58 265.875C1309.62 292.172 1270.75 292.349 1256.76 266.271C1242.77 240.193 1258.96 197.735 1292.92 171.437Z" fill="url(#paint7_radial)"/>
<path d="M750.66 596.799C750.657 596.857 750.683 596.942 750.73 597.031C750.784 597.13 750.935 597.302 751.025 597.366C751.207 597.494 751.35 597.488 751.35 597.351C751.351 597.296 751.331 597.234 751.286 597.145C751.237 597.048 751.064 596.849 750.977 596.791C750.855 596.709 750.741 596.68 750.692 596.722C750.663 596.745 750.663 596.746 750.66 596.799Z" fill="black" fill-opacity="0.2"/>
<path d="M750.998 596.205C750.994 596.283 751.047 596.426 751.13 596.556C751.204 596.672 751.363 596.836 751.446 596.881C751.568 596.947 751.638 596.942 751.661 596.863C751.696 596.745 751.592 596.514 751.418 596.318C751.285 596.17 751.165 596.094 751.078 596.104C751.035 596.109 751.001 596.153 750.998 596.205Z" fill="black" fill-opacity="0.2"/>
<path d="M747.174 603.932C747.167 603.961 747.168 604.012 747.176 604.064C747.187 604.144 747.191 604.154 747.261 604.294C747.328 604.426 747.341 604.446 747.401 604.508C747.607 604.722 747.793 604.667 747.754 604.402C747.71 604.101 747.426 603.766 747.261 603.82C747.218 603.834 747.187 603.874 747.174 603.932Z" fill="black" fill-opacity="0.3"/>
<path d="M752.372 607.495C752.258 607.928 752.386 608.674 752.674 609.256C753.049 610.016 753.454 610.09 753.501 609.41C753.549 608.714 753.173 607.653 752.771 607.355C752.591 607.221 752.427 607.277 752.372 607.495Z" fill="black" fill-opacity="0.3"/>
<path d="M747.91 604.178C747.837 604.318 747.791 604.612 747.817 604.784C747.835 604.911 747.913 605.014 748.033 605.072C748.069 605.091 748.18 605.121 748.279 605.142C748.605 605.21 748.678 605.262 748.791 605.513C748.889 605.726 748.932 605.918 748.957 606.247C748.975 606.49 748.995 606.622 749.026 606.716C749.056 606.808 749.24 607.15 749.323 607.27C749.399 607.382 749.444 607.431 749.497 607.46C749.537 607.481 749.549 607.478 749.644 607.438C749.841 607.354 749.996 607.243 750.093 607.118C750.146 607.049 750.228 606.884 750.254 606.798C750.294 606.656 750.285 606.45 750.223 606.19C750.178 605.999 750.128 605.848 749.987 605.486C749.92 605.313 749.849 605.126 749.83 605.069C749.773 604.907 749.672 604.644 749.608 604.49C749.527 604.296 749.3 603.864 749.225 603.762C749.038 603.509 748.883 603.424 748.724 603.486C748.568 603.549 748.311 603.719 748.163 603.86C748.081 603.936 747.948 604.103 747.91 604.178Z" fill="black" fill-opacity="0.3"/>
<path d="M743.646 603.041C743.574 603.081 743.498 603.154 743.437 603.242C743.369 603.339 743.306 603.536 743.314 603.627C743.33 603.809 743.468 603.876 743.629 603.779C743.695 603.74 743.75 603.687 743.814 603.6C743.882 603.507 743.957 603.279 743.946 603.194C743.931 603.075 743.86 602.997 743.766 603.003C743.712 603.005 743.71 603.005 743.646 603.041Z" fill="black" fill-opacity="0.3"/>
<path d="M744.853 602.73C744.758 602.783 744.639 602.911 744.562 603.045C744.493 603.165 744.446 603.361 744.469 603.434C744.503 603.542 744.574 603.574 744.688 603.529C744.859 603.463 745.036 603.246 745.106 603.02C745.159 602.849 745.138 602.735 745.046 602.698C745 602.68 744.918 602.694 744.853 602.73Z" fill="black" fill-opacity="0.3"/>
<path d="M742.535 603.565C742.5 603.588 742.455 603.629 742.417 603.674C742.356 603.743 742.351 603.753 742.308 603.888C742.268 604.016 742.266 604.036 742.28 604.105C742.334 604.341 742.61 604.35 742.807 604.121C743.03 603.861 742.994 603.503 742.744 603.499C742.678 603.498 742.605 603.521 742.535 603.565Z" fill="black" fill-opacity="0.3"/>
<path d="M743.853 603.814C743.636 603.907 743.31 604.135 743.184 604.284C743.089 604.394 743.088 604.501 743.181 604.584C743.208 604.61 743.314 604.667 743.414 604.713C743.748 604.864 743.788 604.928 743.696 605.167C743.617 605.371 743.493 605.541 743.221 605.819C743.021 606.024 742.923 606.138 742.874 606.224C742.827 606.309 742.735 606.643 742.725 606.766C742.714 606.88 742.724 606.933 742.762 606.973C742.791 607.002 742.808 607.003 742.961 606.998C743.277 606.986 743.567 606.941 743.798 606.866C743.926 606.825 744.178 606.714 744.288 606.651C744.468 606.546 744.645 606.374 744.809 606.143C744.93 605.973 745.008 605.834 745.169 605.495C745.247 605.334 745.333 605.159 745.362 605.107C745.442 604.958 745.561 604.712 745.625 604.567C745.706 604.384 745.826 603.963 745.829 603.857C745.835 603.595 745.726 603.479 745.476 603.484C745.229 603.49 744.761 603.554 744.452 603.626C744.283 603.665 743.968 603.763 743.853 603.814Z" fill="black" fill-opacity="0.3"/>
<path d="M746.117 607.816C746.06 607.849 746.01 607.902 745.98 607.962C745.948 608.029 745.955 608.155 745.995 608.208C746.076 608.314 746.236 608.336 746.362 608.257C746.413 608.225 746.449 608.185 746.482 608.126C746.517 608.061 746.51 607.916 746.469 607.867C746.412 607.798 746.314 607.761 746.223 607.777C746.17 607.785 746.168 607.786 746.117 607.816Z" fill="black" fill-opacity="0.3"/>
<path d="M747.037 607.525C746.962 607.569 746.889 607.661 746.859 607.751C746.834 607.831 746.857 607.954 746.905 607.994C746.977 608.054 747.059 608.063 747.157 608.022C747.302 607.96 747.401 607.808 747.39 607.664C747.382 607.555 747.321 607.49 747.217 607.48C747.165 607.475 747.088 607.495 747.037 607.525Z" fill="black" fill-opacity="0.3"/>
<path d="M741.406 609.621C741.316 609.669 741.214 609.744 741.14 609.816C741.018 609.93 741.014 609.943 741.026 610.106C741.038 610.261 741.053 610.281 741.179 610.337C741.622 610.524 742.535 610.323 742.923 609.951C743.363 609.529 742.841 609.21 742.015 609.397C741.799 609.447 741.585 609.525 741.406 609.621Z" fill="black" fill-opacity="0.3"/>
<path d="M747.872 607.393C747.724 607.488 747.62 607.653 747.627 607.783C747.635 607.953 747.808 607.973 747.98 607.823C748.155 607.671 748.212 607.434 748.09 607.366C748.035 607.335 747.946 607.346 747.872 607.393Z" fill="black" fill-opacity="0.3"/>
<path d="M746.257 608.421C746.077 608.504 745.838 608.681 745.767 608.785C745.713 608.863 745.751 608.926 745.871 608.963C745.907 608.975 746.032 608.995 746.147 609.009C746.53 609.055 746.592 609.088 746.587 609.241C746.582 609.372 746.521 609.488 746.353 609.688C746.229 609.835 746.173 609.915 746.157 609.972C746.14 610.028 746.169 610.238 746.204 610.312C746.234 610.381 746.263 610.411 746.314 610.429C746.353 610.443 746.37 610.441 746.519 610.418C746.825 610.371 747.094 610.306 747.296 610.232C747.407 610.191 747.615 610.092 747.7 610.041C747.84 609.955 747.953 609.831 748.032 609.673C748.09 609.556 748.116 609.464 748.154 609.243C748.173 609.138 748.195 609.023 748.205 608.989C748.23 608.89 748.26 608.729 748.271 608.635C748.284 608.517 748.252 608.252 748.217 608.189C748.129 608.033 747.981 607.979 747.736 608.015C747.495 608.05 747.058 608.149 746.779 608.232C746.627 608.277 746.352 608.376 746.257 608.421Z" fill="black" fill-opacity="0.3"/>
<path d="M739.413 601.365C739.477 601.349 739.544 601.363 739.596 601.402C739.653 601.447 739.702 601.593 739.691 601.689C739.668 601.884 739.539 602.057 739.395 602.087C739.336 602.099 739.288 602.088 739.233 602.052C739.175 602.013 739.117 601.844 739.131 601.751C739.15 601.62 739.219 601.488 739.304 601.421C739.354 601.38 739.356 601.38 739.413 601.365Z" fill="black" fill-opacity="0.3"/>
<path d="M738.505 601.889C738.589 601.868 738.693 601.903 738.758 601.976C738.815 602.042 738.849 602.2 738.825 602.291C738.789 602.425 738.722 602.512 738.619 602.556C738.466 602.622 738.314 602.545 738.26 602.374C738.219 602.245 738.244 602.115 738.329 602.007C738.372 601.954 738.447 601.903 738.505 601.889Z" fill="black" fill-opacity="0.3"/>
<path d="M740.286 601.104C740.317 601.099 740.356 601.106 740.388 601.121C740.44 601.143 740.444 601.149 740.476 601.25C740.506 601.346 740.507 601.364 740.49 601.444C740.43 601.72 740.179 601.942 740.012 601.866C739.822 601.78 739.873 601.396 740.101 601.199C740.16 601.148 740.225 601.114 740.286 601.104Z" fill="black" fill-opacity="0.3"/>
<path d="M737.738 602.512C737.908 602.48 738.07 602.567 738.121 602.719C738.189 602.917 738.048 603.101 737.834 603.094C737.615 603.086 737.462 602.876 737.538 602.684C737.572 602.599 737.654 602.528 737.738 602.512Z" fill="black" fill-opacity="0.3"/>
<path d="M739.593 602.156C739.786 602.081 740.069 602.057 740.177 602.107C740.258 602.143 740.252 602.249 740.164 602.403C740.139 602.449 740.039 602.589 739.946 602.711C739.635 603.119 739.596 603.214 739.668 603.38C739.729 603.522 739.832 603.595 740.066 603.661C740.237 603.71 740.32 603.748 740.36 603.797C740.399 603.844 740.465 604.106 740.468 604.22C740.472 604.325 740.46 604.385 740.424 604.454C740.397 604.505 740.381 604.52 740.242 604.632C739.956 604.864 739.696 605.042 739.489 605.148C739.375 605.205 739.152 605.289 739.056 605.311C738.898 605.345 738.745 605.311 738.608 605.208C738.507 605.133 738.443 605.054 738.314 604.843C738.251 604.742 738.182 604.635 738.159 604.606C738.094 604.519 737.998 604.367 737.947 604.272C737.883 604.152 737.795 603.827 737.798 603.723C737.805 603.468 737.91 603.269 738.137 603.081C738.36 602.896 738.782 602.599 739.059 602.432C739.21 602.34 739.491 602.195 739.593 602.156Z" fill="black" fill-opacity="0.3"/>
<path d="M738.142 607.852C738.186 607.84 738.241 607.846 738.292 607.869C738.348 607.894 738.428 607.984 738.447 608.045C738.485 608.167 738.436 608.28 738.335 608.303C738.294 608.313 738.254 608.308 738.202 608.287C738.146 608.265 738.054 608.161 738.037 608.103C738.015 608.02 738.029 607.935 738.075 607.89C738.102 607.864 738.102 607.863 738.142 607.852Z" fill="black" fill-opacity="0.3"/>
<path d="M737.493 608.281C737.551 608.265 737.64 608.283 737.711 608.326C737.773 608.365 737.845 608.463 737.852 608.52C737.863 608.605 737.837 608.662 737.771 608.693C737.673 608.74 737.535 608.697 737.445 608.592C737.377 608.513 737.358 608.431 737.393 608.361C737.41 608.326 737.453 608.292 737.493 608.281Z" fill="black" fill-opacity="0.3"/>
<path d="M738.8 607.606C738.823 607.602 738.855 607.604 738.884 607.612C738.931 607.624 738.935 607.628 738.989 607.69C739.041 607.748 739.047 607.76 739.057 607.81C739.09 607.985 738.961 608.133 738.81 608.092C738.638 608.046 738.566 607.804 738.684 607.672C738.715 607.638 738.756 607.615 738.8 607.606Z" fill="black" fill-opacity="0.3"/>
<path d="M736.982 608.76C737.103 608.733 737.253 608.782 737.336 608.875C737.445 608.996 737.389 609.115 737.223 609.119C737.053 609.123 736.875 608.997 736.878 608.874C736.879 608.82 736.922 608.773 736.982 608.76Z" fill="black" fill-opacity="0.3"/>
<path d="M738.246 608.438C738.373 608.384 738.585 608.358 738.682 608.385C738.755 608.404 738.782 608.471 738.759 608.57C738.752 608.6 738.716 608.691 738.68 608.771C738.559 609.038 738.556 609.099 738.66 609.2C738.748 609.286 738.85 609.328 739.049 609.36C739.196 609.383 739.271 609.404 739.315 609.433C739.359 609.461 739.487 609.621 739.522 609.693C739.556 609.758 739.564 609.796 739.556 609.841C739.55 609.873 739.542 609.883 739.468 609.959C739.315 610.115 739.165 610.237 739.036 610.31C738.965 610.351 738.817 610.412 738.749 610.429C738.637 610.457 738.509 610.442 738.373 610.383C738.273 610.34 738.201 610.293 738.039 610.166C737.962 610.106 737.877 610.042 737.85 610.024C737.775 609.972 737.657 609.881 737.59 609.824C737.506 609.752 737.343 609.552 737.315 609.487C737.246 609.327 737.269 609.199 737.39 609.073C737.509 608.949 737.748 608.747 737.914 608.632C738.004 608.568 738.178 608.467 738.246 608.438Z" fill="black" fill-opacity="0.3"/>
<path d="M170.968 159.26C130.116 121.788 109.235 66.2468 124.327 35.2054C139.419 4.164 184.771 9.37695 225.622 46.8489C266.473 84.3208 287.355 139.862 272.263 170.903C257.17 201.945 211.819 196.732 170.968 159.26Z" fill="url(#paint8_radial)" fill-opacity="0.25"/>
<path d="M170.016 149.512C142.393 124.174 129.103 84.9117 140.331 61.8169C151.56 38.7221 183.055 40.5404 210.678 65.8782C238.301 91.2161 251.591 130.478 240.363 153.573C229.134 176.668 197.639 174.85 170.016 149.512Z" fill="url(#paint9_radial)"/>
<path d="M127.157 328.979C174.212 288.787 268.201 313.074 337.087 383.226C405.973 453.378 423.67 542.83 376.614 583.023C329.559 623.216 235.57 598.929 166.684 528.777C97.7985 458.625 80.1014 369.172 127.157 328.979Z" fill="url(#paint10_radial)" fill-opacity="0.2"/>
<path d="M168.933 397.403C145.525 420.168 160.414 468.924 202.188 506.304C243.962 543.683 296.802 555.531 320.21 532.766C343.617 510.002 328.728 461.245 286.954 423.866C245.18 386.486 192.34 374.639 168.933 397.403Z" fill="url(#paint11_radial)"/>
<path d="M812.816 796.984C812.269 792.747 872.339 774.997 942.745 765.907C1013.15 756.818 1067.23 759.832 1067.78 764.068C1068.33 768.305 1011.69 779.107 941.288 788.197C870.882 797.286 813.363 801.22 812.816 796.984Z" fill="url(#paint12_radial)"/>
<path d="M176.888 697.306C173.995 701.99 131.314 680.881 81.5557 650.156C31.7979 619.431 -6.19386 590.726 -3.30116 586.041C-0.408469 581.356 42.2732 602.466 92.0311 633.191C141.789 663.916 179.781 692.621 176.888 697.306Z" fill="black"/>
<g filter="url(#filter0_d)">
<path d="M722.856 774.58C722.705 789.353 682.605 800.92 633.291 800.414C583.977 799.909 544.123 787.523 544.274 772.75C544.425 757.976 584.525 746.41 633.839 746.915C683.153 747.42 723.007 759.806 722.856 774.58Z" fill="url(#paint13_radial)" shape-rendering="crispEdges"/>
</g>
<path d="M713.039 620.062L729.382 615.482L730.475 625.445L713.039 620.062Z" fill="#464646"/>
<path d="M723.5 690L723.78 618.564C723.799 613.833 727.647 610.013 732.377 610.028C737.099 610.044 740.918 613.876 740.918 618.597L740.918 690L723.5 690Z" fill="url(#paint14_linear)"/>
<path d="M723.5 690L723.78 618.564C723.799 613.833 727.647 610.013 732.377 610.028C737.099 610.044 740.918 613.876 740.918 618.597L740.918 690L723.5 690Z" fill="black" fill-opacity="0.2"/>
<path d="M730.995 682.82C730.456 682.819 730 682.566 729.626 682.061C729.27 681.574 729.092 680.993 729.094 680.319L729.096 679.423C729.097 678.878 729.224 678.351 729.477 677.842C729.589 677.631 729.706 677.461 729.83 677.333L730.732 678.513C730.462 678.705 730.307 678.969 730.265 679.302C730.259 679.343 730.256 679.385 730.256 679.426L730.254 680.322C730.253 680.761 730.375 681.093 730.621 681.316C730.743 681.416 730.869 681.466 730.998 681.466C731.227 681.467 731.424 681.224 731.589 680.738C731.642 680.586 731.716 680.328 731.81 679.965C732.041 679.087 732.265 678.472 732.482 678.121C732.835 677.547 733.299 677.258 733.873 677.254C734.406 677.255 734.86 677.514 735.233 678.03C735.596 678.541 735.776 679.145 735.774 679.842L735.772 680.739C735.771 681.307 735.644 681.857 735.391 682.39C735.279 682.613 735.161 682.788 735.038 682.917L734.144 681.755C734.402 681.55 734.555 681.263 734.603 680.894C734.609 680.836 734.612 680.783 734.612 680.736L734.614 679.84C734.615 679.365 734.49 679.007 734.239 678.766C734.122 678.661 733.999 678.608 733.87 678.607C733.612 678.607 733.398 678.85 733.227 679.335C733.197 679.406 733.076 679.83 732.863 680.609C732.621 681.505 732.33 682.114 731.989 682.435C731.707 682.692 731.376 682.821 730.995 682.82Z" fill="#F54952"/>
<path d="M730.266 674.846L735.785 674.859L735.782 676.203L730.281 676.191C729.882 676.19 729.566 676.02 729.332 675.679C729.181 675.45 729.105 675.198 729.106 674.923L729.11 673.104C729.112 672.289 729.356 671.636 729.844 671.145C730.261 670.73 730.774 670.523 731.383 670.525L731.638 670.525C732.394 670.527 732.985 670.83 733.411 671.435C733.738 671.904 733.901 672.464 733.9 673.114L733.896 674.767L732.737 674.043L732.74 673.112C732.741 672.561 732.551 672.188 732.171 671.994C732.013 671.918 731.834 671.879 731.635 671.879L731.38 671.878C730.853 671.877 730.509 672.114 730.35 672.588C730.297 672.746 730.27 672.919 730.27 673.106L730.266 674.846Z" fill="#F54952"/>
<path d="M734.918 665.646L734.912 668.573L733.753 667.849L733.757 666.048L730.476 667.183L735.798 669.058L735.795 670.499L730.21 668.527C729.431 668.238 729.04 667.789 729.035 667.18C729.042 666.57 729.436 666.126 730.216 665.846L735.81 663.89L735.807 665.331L734.918 665.646Z" fill="#F54952"/>
<path d="M731.674 662.079L733.274 662.083C733.731 662.084 734.098 661.92 734.374 661.593C734.562 661.365 734.656 661.116 734.657 660.846L734.659 659.95C734.659 659.587 734.537 659.279 734.292 659.026C734.256 658.991 734.224 658.962 734.195 658.938L735.094 657.771C735.404 658.1 735.623 658.607 735.75 659.293C735.796 659.534 735.819 659.753 735.819 659.953L735.817 660.849C735.815 661.576 735.556 662.193 735.039 662.702C734.546 663.187 733.957 663.429 733.271 663.427L731.671 663.424C730.957 663.422 730.351 663.163 729.854 662.646C729.374 662.135 729.136 661.531 729.137 660.834L729.139 659.938C729.14 659.369 729.268 658.819 729.521 658.286C729.633 658.064 729.75 657.888 729.873 657.76L730.776 658.931C730.512 659.135 730.356 659.419 730.308 659.782C730.302 659.841 730.299 659.893 730.299 659.94L730.297 660.837C730.296 661.241 730.474 661.567 730.831 661.813C731.083 661.99 731.364 662.078 731.674 662.079Z" fill="#F54952"/>
<path d="M733.104 655.508L734.669 655.511L734.676 652.066L735.838 651.436L735.828 655.593C735.828 656.021 735.666 656.363 735.343 656.62C735.132 656.784 734.9 656.866 734.648 656.865L730.324 656.855C729.931 656.854 729.618 656.684 729.384 656.343C729.227 656.115 729.148 655.86 729.149 655.578L729.158 651.421L730.317 652.056L730.309 655.502L731.944 655.505L731.951 652.333L733.111 652.335L733.104 655.508Z" fill="#F54952"/>
<path d="M734.968 643.489L734.961 646.415L733.803 645.692L733.807 643.89L730.526 645.026L735.848 646.901L735.845 648.342L730.259 646.37C729.481 646.081 729.089 645.632 729.084 645.022C729.092 644.413 729.485 643.969 730.265 643.689L735.859 641.733L735.856 643.174L734.968 643.489Z" fill="#F54952"/>
<path d="M730.345 639.629L735.864 639.641L735.861 640.986L730.359 640.974C729.961 640.973 729.645 640.802 729.411 640.462C729.259 640.233 729.184 639.981 729.184 639.705L729.188 637.886C729.19 637.071 729.435 636.419 729.922 635.928C730.339 635.513 730.852 635.306 731.462 635.307L731.717 635.308C732.472 635.309 733.064 635.612 733.49 636.217C733.817 636.686 733.98 637.246 733.978 637.897L733.975 639.549L732.816 638.826L732.818 637.894C732.819 637.343 732.63 636.971 732.249 636.777C732.091 636.7 731.913 636.662 731.714 636.661L731.459 636.661C730.931 636.659 730.588 636.896 730.429 637.37C730.376 637.528 730.349 637.701 730.348 637.889L730.345 639.629Z" fill="#F54952"/>
<path d="M733.154 633.087L734.719 633.091L734.726 629.645L735.888 629.015L735.879 633.172C735.878 633.6 735.716 633.942 735.393 634.2C735.182 634.363 734.95 634.445 734.698 634.444L730.374 634.434C729.981 634.434 729.668 634.263 729.434 633.923C729.277 633.694 729.198 633.439 729.199 633.157L729.208 629L730.367 629.636L730.359 633.081L731.994 633.085L732.001 629.912L733.161 629.914L733.154 633.087Z" fill="#F54952"/>
<g filter="url(#filter1_d)">
<path d="M733.314 703.805C732.938 704.474 731.979 704.487 731.585 703.828L723.223 689.86C723.129 689.702 723.158 689.499 723.294 689.375L723.533 689.157C728.536 684.589 736.228 684.697 741.1 689.405C741.223 689.524 741.25 689.712 741.166 689.861L733.314 703.805Z" fill="url(#paint15_linear)"/>
</g>
<path d="M718.157 610.537L727.042 614.117L727.01 623.968L718.157 610.537Z" fill="#4A4A4A"/>
<path d="M752.284 612.711L737.808 614.191L738.387 624.005L752.284 612.711Z" fill="#5B5B5B"/>
<path d="M754.924 611.108C754.951 611.121 754.995 611.11 755.044 611.079C755.098 611.043 755.2 610.927 755.242 610.851C755.327 610.697 755.344 610.56 755.279 610.537C755.252 610.527 755.22 610.536 755.172 610.564C755.119 610.596 755.002 610.729 754.962 610.803C754.907 610.907 754.878 611.012 754.892 611.065C754.899 611.096 754.899 611.097 754.924 611.108Z" fill="black" fill-opacity="0.3"/>
<path d="M754.696 610.719C754.732 610.735 754.808 610.707 754.88 610.649C754.945 610.597 755.045 610.471 755.077 610.4C755.125 610.293 755.131 610.225 755.097 610.19C755.046 610.137 754.922 610.199 754.806 610.335C754.718 610.437 754.666 610.54 754.659 610.625C754.655 610.667 754.672 610.707 754.696 610.719Z" fill="black" fill-opacity="0.3"/>
<path d="M755.27 611.298C755.285 611.302 755.31 611.296 755.335 611.284C755.375 611.267 755.38 611.262 755.449 611.181C755.514 611.105 755.524 611.091 755.555 611.028C755.661 610.809 755.635 610.635 755.504 610.696C755.356 610.764 755.19 611.068 755.216 611.223C755.222 611.264 755.242 611.29 755.27 611.298Z" fill="black" fill-opacity="0.3"/>
<path d="M754.6 610.25C754.677 610.275 754.811 610.205 754.916 610.085C755.054 609.928 755.068 609.783 754.946 609.789C754.822 609.795 754.63 609.963 754.576 610.114C754.551 610.182 754.561 610.237 754.6 610.25Z" fill="black" fill-opacity="0.3"/>
<path d="M755.467 610.535C755.535 610.593 755.68 610.611 755.764 610.571C755.827 610.543 755.878 610.458 755.907 610.337C755.916 610.301 755.932 610.191 755.942 610.094C755.977 609.772 756.003 609.697 756.127 609.565C756.232 609.453 756.327 609.394 756.489 609.341C756.608 609.302 756.673 609.271 756.72 609.233C756.765 609.196 756.934 608.988 756.993 608.897C757.049 608.814 757.073 608.766 757.087 608.712C757.098 608.672 757.097 608.66 757.077 608.572C757.037 608.389 756.983 608.249 756.922 608.166C756.888 608.121 756.807 608.055 756.765 608.039C756.695 608.012 756.594 608.039 756.466 608.121C756.372 608.182 756.297 608.244 756.119 608.412C756.033 608.492 755.941 608.577 755.913 608.6C755.833 608.669 755.703 608.79 755.628 608.865C755.532 608.96 755.318 609.218 755.268 609.3C755.143 609.502 755.1 609.659 755.13 609.808C755.16 609.953 755.243 610.187 755.311 610.318C755.348 610.39 755.43 610.504 755.467 610.535Z" fill="black" fill-opacity="0.3"/>
<path d="M768.053 578.236C768.037 578.132 768.136 577.948 768.299 577.786C768.445 577.641 768.767 577.446 768.937 577.398C769.19 577.328 769.34 577.346 769.397 577.456C769.482 577.619 769.284 577.914 768.932 578.149C768.666 578.328 768.418 578.411 768.232 578.384C768.141 578.371 768.064 578.307 768.053 578.236Z" fill="black" fill-opacity="0.2"/>
<path d="M769.003 578.739C768.99 578.522 769.211 578.204 769.525 577.989C769.934 577.709 770.251 577.747 770.173 578.066C770.093 578.392 769.634 578.809 769.281 578.874C769.123 578.903 769.009 578.848 769.003 578.739Z" fill="black" fill-opacity="0.2"/>
<path d="M768.856 576.296C768.767 576.085 768.805 575.693 768.935 575.49C769.031 575.34 769.237 575.249 769.512 575.237C769.596 575.232 769.839 575.249 770.052 575.272C770.759 575.35 770.933 575.32 771.28 575.063C771.577 574.843 771.753 574.624 771.952 574.224C772.1 573.929 772.2 573.772 772.307 573.67C772.411 573.57 772.945 573.233 773.17 573.124C773.378 573.021 773.492 572.983 773.616 572.973C773.707 572.966 773.732 572.976 773.911 573.074C774.281 573.277 774.552 573.494 774.696 573.699C774.775 573.811 774.872 574.06 774.885 574.18C774.906 574.379 774.793 574.632 774.549 574.927C774.37 575.144 774.197 575.309 773.743 575.692C773.527 575.876 773.296 576.075 773.231 576.136C773.041 576.311 772.713 576.591 772.513 576.752C772.257 576.955 771.592 577.383 771.391 577.474C770.891 577.698 770.532 577.728 770.231 577.57C769.936 577.414 769.481 577.072 769.236 576.821C769.102 576.685 768.901 576.409 768.856 576.296Z" fill="black" fill-opacity="0.2"/>
<path d="M779.448 567.935C779.455 567.86 779.522 567.769 779.632 567.686C779.756 567.595 780.081 567.472 780.267 567.448C780.644 567.399 780.915 567.494 780.888 567.666C780.877 567.736 780.827 567.802 780.721 567.887C780.606 567.978 780.232 568.12 780.054 568.14C779.802 568.169 779.577 568.134 779.494 568.052C779.443 568.005 779.442 568.003 779.448 567.935Z" fill="black" fill-opacity="0.2"/>
<path d="M779.923 568.837C779.931 568.737 780.064 568.59 780.25 568.478C780.416 568.378 780.756 568.27 780.924 568.264C781.171 568.256 781.305 568.307 781.333 568.42C781.374 568.589 781.126 568.816 780.751 568.954C780.466 569.058 780.22 569.08 780.055 569.013C779.973 568.981 779.917 568.905 779.923 568.837Z" fill="black" fill-opacity="0.2"/>
<path d="M779.473 566.952C779.481 566.915 779.518 566.863 779.568 566.816C779.643 566.741 779.657 566.734 779.88 566.652C780.092 566.574 780.128 566.566 780.278 566.555C780.797 566.52 781.091 566.749 780.838 566.992C780.551 567.269 779.81 567.36 779.551 567.151C779.484 567.096 779.456 567.026 779.473 566.952Z" fill="black" fill-opacity="0.2"/>
<path d="M781.095 567.233C781.061 567.019 781.183 566.668 781.348 566.511C781.47 566.393 781.68 566.357 781.935 566.406C782.013 566.42 782.233 566.49 782.424 566.559C783.056 566.789 783.222 566.8 783.6 566.641C783.922 566.506 784.132 566.344 784.405 566.021C784.606 565.782 784.734 565.661 784.855 565.591C784.973 565.522 785.539 565.331 785.771 565.282C785.984 565.234 786.098 565.224 786.214 565.242C786.3 565.257 786.321 565.271 786.463 565.401C786.757 565.671 786.958 565.931 787.045 566.151C787.092 566.272 787.126 566.522 787.111 566.636C787.086 566.823 786.925 567.031 786.635 567.248C786.422 567.407 786.226 567.52 785.723 567.771C785.483 567.891 785.227 568.023 785.154 568.065C784.939 568.182 784.576 568.367 784.355 568.47C784.075 568.6 783.368 568.844 783.162 568.883C782.653 568.977 782.316 568.924 782.075 568.712C781.838 568.502 781.496 568.086 781.327 567.801C781.234 567.646 781.111 567.348 781.095 567.233Z" fill="black" fill-opacity="0.2"/>
<path d="M782.895 560.258C783.001 560.294 783.166 560.269 783.349 560.189C783.552 560.098 783.926 559.792 784.078 559.589C784.385 559.18 784.43 558.809 784.179 558.74C784.078 558.712 783.957 558.732 783.775 558.806C783.578 558.886 783.146 559.238 783.005 559.434C782.806 559.71 782.708 559.991 782.766 560.137C782.798 560.223 782.799 560.225 782.895 560.258Z" fill="black" fill-opacity="0.2"/>
<path d="M781.975 559.178C782.115 559.226 782.399 559.157 782.67 559.006C782.912 558.871 783.275 558.539 783.39 558.348C783.56 558.064 783.577 557.879 783.441 557.781C783.239 557.634 782.774 557.79 782.347 558.147C782.024 558.417 781.837 558.691 781.821 558.921C781.813 559.035 781.88 559.145 781.975 559.178Z" fill="black" fill-opacity="0.2"/>
<path d="M784.241 560.804C784.296 560.816 784.391 560.804 784.486 560.773C784.636 560.73 784.655 560.717 784.908 560.505C785.148 560.305 785.183 560.267 785.294 560.099C785.674 559.516 785.552 559.041 785.061 559.193C784.503 559.366 783.905 560.175 784.023 560.598C784.054 560.708 784.131 560.781 784.241 560.804Z" fill="black" fill-opacity="0.2"/>
<path d="M784.885 558.757C785.152 558.922 785.706 558.984 786.024 558.884C786.26 558.811 786.444 558.588 786.54 558.261C786.571 558.163 786.617 557.867 786.646 557.605C786.741 556.735 786.831 556.535 787.288 556.189C787.677 555.893 788.03 555.743 788.642 555.614C789.094 555.519 789.339 555.441 789.511 555.341C789.679 555.244 790.3 554.697 790.516 554.456C790.717 554.236 790.803 554.109 790.853 553.963C790.888 553.856 790.882 553.823 790.797 553.581C790.621 553.082 790.398 552.697 790.155 552.468C790.022 552.342 789.705 552.157 789.542 552.108C789.273 552.029 788.889 552.094 788.411 552.305C788.058 552.46 787.781 552.622 787.12 553.061C786.803 553.27 786.461 553.492 786.358 553.552C786.061 553.733 785.579 554.048 785.299 554.245C784.944 554.495 784.161 555.175 783.977 555.391C783.524 555.929 783.38 556.351 783.513 556.756C783.644 557.153 783.988 557.793 784.265 558.155C784.415 558.355 784.741 558.671 784.885 558.757Z" fill="black" fill-opacity="0.2"/>
<path d="M799.939 548.219C800.074 548.249 800.275 548.196 800.488 548.073C800.725 547.934 801.143 547.508 801.304 547.239C801.626 546.694 801.632 546.233 801.314 546.182C801.186 546.161 801.04 546.202 800.826 546.317C800.595 546.441 800.111 546.932 799.964 547.192C799.756 547.558 799.674 547.916 799.765 548.087C799.815 548.19 799.818 548.191 799.939 548.219Z" fill="black" fill-opacity="0.2"/>
<path d="M798.665 547.015C798.843 547.055 799.182 546.932 799.495 546.711C799.774 546.512 800.177 546.055 800.292 545.805C800.462 545.434 800.459 545.204 800.279 545.101C800.011 544.948 799.461 545.202 798.983 545.698C798.622 546.073 798.43 546.435 798.441 546.72C798.446 546.861 798.543 546.987 798.665 547.015Z" fill="black" fill-opacity="0.2"/>
<path d="M797.967 545.498C798.343 545.551 798.938 545.266 799.371 544.824C799.937 544.248 799.932 543.763 799.362 543.832C798.779 543.902 797.965 544.533 797.785 545.057C797.704 545.291 797.778 545.472 797.967 545.498Z" fill="black" fill-opacity="0.2"/>
<path d="M802.183 546.108C802.534 546.275 803.223 546.277 803.6 546.111C803.881 545.99 804.077 545.691 804.151 545.277C804.176 545.152 804.193 544.782 804.194 544.456C804.193 543.375 804.278 543.116 804.792 542.63C805.23 542.215 805.645 541.982 806.38 541.742C806.921 541.564 807.213 541.436 807.411 541.29C807.604 541.149 808.294 540.393 808.527 540.068C808.745 539.77 808.834 539.603 808.875 539.418C808.904 539.28 808.892 539.241 808.755 538.955C808.472 538.366 808.146 537.922 807.817 537.673C807.636 537.536 807.222 537.352 807.016 537.313C806.674 537.252 806.211 537.383 805.652 537.706C805.239 537.944 804.92 538.181 804.167 538.808C803.806 539.108 803.415 539.426 803.296 539.514C802.956 539.776 802.406 540.229 802.088 540.507C801.685 540.862 800.813 541.803 800.617 542.094C800.132 542.815 800.011 543.353 800.229 543.833C800.444 544.303 800.952 545.043 801.341 545.452C801.553 545.676 801.995 546.022 802.183 546.108Z" fill="black" fill-opacity="0.2"/>
<path d="M760.631 584.126C760.535 583.971 760.466 583.649 760.489 583.462C760.505 583.324 760.595 583.215 760.739 583.156C760.782 583.137 760.916 583.108 761.035 583.088C761.43 583.026 761.516 582.972 761.643 582.703C761.751 582.473 761.794 582.266 761.809 581.907C761.82 581.643 761.838 581.499 761.871 581.398C761.904 581.299 762.111 580.932 762.207 580.804C762.294 580.685 762.346 580.634 762.41 580.604C762.457 580.582 762.473 580.586 762.591 580.633C762.835 580.732 763.029 580.859 763.153 580.998C763.221 581.075 763.33 581.259 763.365 581.353C763.421 581.51 763.419 581.734 763.357 582.015C763.311 582.222 763.256 582.385 763.102 582.775C763.028 582.961 762.951 583.163 762.93 583.224C762.868 583.398 762.758 583.682 762.688 583.847C762.598 584.057 762.341 584.519 762.254 584.628C762.039 584.897 761.854 584.985 761.657 584.911C761.464 584.837 761.143 584.642 760.955 584.483C760.852 584.397 760.681 584.21 760.631 584.126Z" fill="black" fill-opacity="0.2"/>
<path d="M756.386 591.473C756.29 591.319 756.221 590.996 756.244 590.809C756.26 590.671 756.35 590.562 756.494 590.503C756.537 590.484 756.67 590.455 756.789 590.435C757.185 590.373 757.271 590.319 757.397 590.05C757.505 589.82 757.549 589.613 757.564 589.254C757.575 588.99 757.592 588.846 757.626 588.745C757.659 588.646 757.866 588.279 757.962 588.151C758.049 588.032 758.101 587.981 758.165 587.951C758.212 587.929 758.228 587.933 758.346 587.98C758.589 588.079 758.784 588.206 758.908 588.345C758.976 588.422 759.084 588.606 759.119 588.7C759.176 588.857 759.174 589.081 759.111 589.362C759.065 589.569 759.011 589.732 758.856 590.122C758.783 590.308 758.705 590.51 758.685 590.571C758.623 590.745 758.513 591.029 758.443 591.194C758.353 591.404 758.096 591.866 758.009 591.975C757.794 592.244 757.609 592.332 757.412 592.258C757.219 592.184 756.898 591.989 756.709 591.83C756.606 591.744 756.436 591.557 756.386 591.473Z" fill="black" fill-opacity="0.2"/>
<path d="M750.906 596.113C750.824 595.986 750.782 595.721 750.82 595.568C750.847 595.454 750.945 595.363 751.091 595.315C751.136 595.299 751.27 595.274 751.389 595.258C751.784 595.205 751.873 595.16 752.02 594.938C752.146 594.749 752.206 594.578 752.249 594.283C752.281 594.066 752.311 593.948 752.352 593.865C752.392 593.783 752.627 593.481 752.732 593.375C752.827 593.277 752.883 593.234 752.948 593.209C752.997 593.191 753.012 593.194 753.124 593.233C753.357 593.313 753.539 593.416 753.649 593.53C753.71 593.593 753.803 593.744 753.829 593.821C753.872 593.95 753.852 594.134 753.768 594.365C753.706 594.536 753.638 594.67 753.454 594.991C753.367 595.144 753.274 595.31 753.249 595.36C753.174 595.504 753.041 595.738 752.959 595.874C752.853 596.047 752.562 596.428 752.467 596.518C752.233 596.74 752.044 596.813 751.855 596.753C751.671 596.693 751.369 596.534 751.197 596.404C751.102 596.334 750.949 596.181 750.906 596.113Z" fill="black" fill-opacity="0.2"/>
<path d="M763.806 576.328C763.687 576.189 763.57 575.881 763.564 575.693C763.559 575.554 763.632 575.432 763.765 575.352C763.805 575.327 763.933 575.278 764.047 575.241C764.429 575.12 764.505 575.053 764.59 574.767C764.662 574.524 764.673 574.312 764.634 573.956C764.605 573.693 764.6 573.548 764.618 573.443C764.635 573.34 764.785 572.946 764.86 572.806C764.928 572.674 764.972 572.616 765.03 572.577C765.074 572.548 765.09 572.549 765.214 572.578C765.47 572.639 765.681 572.735 765.825 572.854C765.904 572.92 766.039 573.085 766.087 573.173C766.167 573.319 766.199 573.541 766.18 573.828C766.166 574.04 766.137 574.209 766.043 574.618C765.999 574.813 765.952 575.024 765.942 575.087C765.907 575.269 765.841 575.567 765.796 575.74C765.739 575.961 765.555 576.457 765.486 576.578C765.314 576.876 765.145 576.991 764.939 576.948C764.737 576.904 764.389 576.76 764.179 576.631C764.064 576.562 763.868 576.402 763.806 576.328Z" fill="black" fill-opacity="0.2"/>
<path d="M746.804 611.754C746.804 611.818 746.864 611.92 746.928 611.963C746.975 611.995 747.048 612.001 747.131 611.98C747.156 611.974 747.226 611.948 747.286 611.923C747.486 611.84 747.541 611.832 747.676 611.871C747.791 611.903 747.871 611.947 747.98 612.037C748.06 612.103 748.11 612.136 748.154 612.154C748.197 612.172 748.398 612.215 748.478 612.225C748.552 612.234 748.591 612.234 748.629 612.226C748.657 612.219 748.663 612.215 748.704 612.172C748.788 612.085 748.841 612.003 748.858 611.935C748.867 611.898 748.864 611.822 748.853 611.789C748.835 611.734 748.77 611.675 748.66 611.618C748.58 611.575 748.508 611.546 748.326 611.484C748.239 611.453 748.146 611.42 748.119 611.409C748.041 611.379 747.909 611.333 747.829 611.308C747.728 611.275 747.478 611.219 747.406 611.213C747.231 611.197 747.121 611.22 747.051 611.29C746.984 611.358 746.892 611.49 746.851 611.579C746.828 611.627 746.803 611.719 746.804 611.754Z" fill="black" fill-opacity="0.3"/>
<path d="M750.262 610.638C750.334 610.578 750.505 610.535 750.613 610.55C750.694 610.561 750.77 610.618 750.826 610.71C750.844 610.737 750.881 610.822 750.911 610.898C751.009 611.149 751.054 611.204 751.225 611.286C751.372 611.355 751.496 611.383 751.7 611.394C751.85 611.401 751.934 611.413 751.997 611.435C752.057 611.456 752.297 611.589 752.384 611.65C752.465 611.705 752.503 611.739 752.53 611.779C752.549 611.81 752.55 611.819 752.542 611.894C752.525 612.049 752.485 612.172 752.426 612.251C752.394 612.294 752.308 612.362 752.26 612.384C752.181 612.42 752.054 612.418 751.886 612.377C751.762 612.348 751.662 612.312 751.418 612.213C751.301 612.166 751.175 612.116 751.138 612.103C751.029 612.063 750.852 611.992 750.748 611.947C750.616 611.889 750.314 611.725 750.239 611.669C750.053 611.531 749.974 611.414 749.985 611.289C749.995 611.166 750.054 610.962 750.113 610.843C750.145 610.778 750.223 610.67 750.262 610.638Z" fill="black" fill-opacity="0.3"/>
<path d="M770.373 566.893C770.417 566.955 770.521 566.999 770.658 567.015C770.812 567.031 771.155 566.973 771.328 566.9C771.678 566.752 771.864 566.534 771.752 566.399C771.708 566.344 771.631 566.313 771.496 566.294C771.351 566.273 770.956 566.339 770.791 566.411C770.56 566.514 770.383 566.656 770.353 566.77C770.333 566.836 770.333 566.838 770.373 566.893Z" fill="black" fill-opacity="0.2"/>
<path d="M770.327 565.874C770.385 565.955 770.574 566.015 770.792 566.018C770.987 566.02 771.335 565.942 771.482 565.863C771.7 565.745 771.79 565.634 771.756 565.522C771.706 565.356 771.377 565.286 770.982 565.356C770.683 565.41 770.46 565.515 770.351 565.656C770.298 565.725 770.287 565.818 770.327 565.874Z" fill="black" fill-opacity="0.2"/>
<path d="M770.89 567.728C770.916 567.755 770.974 567.782 771.041 567.797C771.144 567.824 771.16 567.823 771.395 567.781C771.617 567.742 771.652 567.73 771.787 567.664C772.253 567.433 772.39 567.088 772.048 567.006C771.659 566.912 770.973 567.207 770.856 567.518C770.826 567.599 770.838 567.672 770.89 567.728Z" fill="black" fill-opacity="0.2"/>
<path d="M772.142 566.636C772.221 566.838 772.506 567.079 772.729 567.131C772.893 567.171 773.094 567.097 773.289 566.925C773.349 566.874 773.503 566.703 773.632 566.548C774.061 566.032 774.199 565.938 774.606 565.885C774.952 565.839 775.217 565.873 775.617 566.014C775.913 566.118 776.085 566.158 776.225 566.158C776.361 566.158 776.948 566.037 777.173 565.963C777.382 565.897 777.485 565.848 777.576 565.774C777.642 565.719 777.653 565.696 777.709 565.512C777.826 565.132 777.867 564.807 777.829 564.574C777.808 564.445 777.71 564.213 777.639 564.122C777.522 563.974 777.278 563.876 776.917 563.835C776.651 563.805 776.425 563.807 775.863 563.844C775.594 563.861 775.306 563.877 775.221 563.878C774.976 563.884 774.568 563.908 774.325 563.931C774.017 563.96 773.282 564.105 773.085 564.175C772.597 564.351 772.334 564.565 772.234 564.87C772.136 565.169 772.053 565.7 772.053 566.03C772.051 566.211 772.098 566.529 772.142 566.636Z" fill="black" fill-opacity="0.2"/>
<path d="M758.574 604.368C758.551 604.356 758.533 604.326 758.525 604.285C758.517 604.239 758.533 604.134 758.557 604.079C758.605 603.969 758.682 603.906 758.733 603.936C758.754 603.948 758.767 603.97 758.776 604.01C758.786 604.053 758.768 604.175 758.744 604.227C758.71 604.3 758.661 604.357 758.62 604.37C758.596 604.378 758.595 604.378 758.574 604.368Z" fill="black" fill-opacity="0.3"/>
<path d="M755.316 605.937C755.205 605.881 755.107 605.651 755.079 605.37C755.055 605.119 755.117 604.651 755.204 604.443C755.332 604.133 755.466 603.991 755.613 604.01C755.834 604.036 755.961 604.445 755.913 604.971C755.877 605.369 755.765 605.682 755.596 605.855C755.512 605.94 755.392 605.975 755.316 605.937Z" fill="black" fill-opacity="0.3"/>
<path d="M758.266 604.235C758.255 604.228 758.244 604.211 758.238 604.191C758.226 604.161 758.227 604.156 758.238 604.084C758.249 604.016 758.253 604.005 758.275 603.962C758.352 603.814 758.476 603.763 758.512 603.864C758.552 603.978 758.455 604.194 758.343 604.239C758.314 604.25 758.287 604.249 758.266 604.235Z" fill="black" fill-opacity="0.3"/>
<path d="M744.384 609.457C744.187 609.332 744.084 608.962 744.142 608.583C744.216 608.089 744.492 607.864 744.706 608.123C744.924 608.388 744.929 609.007 744.713 609.323C744.617 609.465 744.482 609.52 744.384 609.457Z" fill="black" fill-opacity="0.3"/>
<path d="M815.817 548.079C815.742 547.96 815.75 547.759 815.841 547.528C815.945 547.272 816.351 546.774 816.638 546.558C817.218 546.121 817.785 546.001 817.938 546.286C818.001 546.401 817.992 546.549 817.911 546.777C817.823 547.025 817.356 547.6 817.078 547.802C816.685 548.087 816.267 548.253 816.03 548.21C815.889 548.188 815.886 548.186 815.817 548.079Z" fill="black" fill-opacity="0.2"/>
<path d="M817.667 548.967C817.566 548.81 817.62 548.462 817.805 548.114C817.97 547.803 818.419 547.313 818.695 547.143C819.104 546.891 819.389 546.838 819.566 546.982C819.832 547.195 819.675 547.774 819.2 548.344C818.84 548.775 818.448 549.045 818.093 549.105C817.918 549.134 817.736 549.075 817.667 548.967Z" fill="black" fill-opacity="0.2"/>
<path d="M814.723 546.588C814.694 546.525 814.695 546.411 814.725 546.292C814.766 546.107 814.782 546.082 815.064 545.744C815.331 545.424 815.383 545.376 815.623 545.215C816.459 544.661 817.22 544.721 817.074 545.33C816.908 546.022 815.763 546.874 815.083 546.81C814.906 546.793 814.78 546.715 814.723 546.588Z" fill="black" fill-opacity="0.2"/>
<path d="M817.82 545.466C817.515 545.179 817.316 544.533 817.413 544.138C817.482 543.845 817.795 543.587 818.284 543.415C818.431 543.361 818.883 543.253 819.284 543.172C820.617 542.906 820.912 542.763 821.365 542.16C821.752 541.647 821.921 541.2 822.007 540.452C822.072 539.9 822.147 539.595 822.271 539.373C822.391 539.157 823.126 538.323 823.46 538.025C823.765 537.747 823.946 537.622 824.163 537.538C824.324 537.477 824.376 537.478 824.767 537.536C825.575 537.656 826.214 537.851 826.614 538.098C826.835 538.234 827.18 538.577 827.287 538.761C827.46 539.067 827.43 539.533 827.19 540.138C827.015 540.583 826.814 540.941 826.255 541.803C825.988 542.215 825.707 542.66 825.632 542.794C825.406 543.178 825.005 543.805 824.752 544.172C824.43 544.638 823.518 545.687 823.215 545.944C822.464 546.576 821.835 546.823 821.182 546.737C820.541 546.651 819.483 546.358 818.869 546.094C818.532 545.951 817.98 545.622 817.82 545.466Z" fill="black" fill-opacity="0.2"/>
<path d="M795.023 562.589C794.954 562.48 794.962 562.295 795.045 562.083C795.141 561.847 795.515 561.389 795.778 561.19C796.312 560.788 796.834 560.678 796.975 560.94C797.032 561.046 797.024 561.182 796.95 561.392C796.869 561.62 796.439 562.149 796.183 562.335C795.822 562.597 795.437 562.749 795.219 562.71C795.089 562.69 795.087 562.688 795.023 562.589Z" fill="black" fill-opacity="0.2"/>
<path d="M796.724 563.407C796.632 563.262 796.682 562.942 796.851 562.621C797.003 562.336 797.417 561.885 797.67 561.729C798.047 561.497 798.309 561.448 798.472 561.58C798.716 561.776 798.572 562.309 798.135 562.833C797.804 563.23 797.444 563.478 797.117 563.533C796.956 563.56 796.788 563.506 796.724 563.407Z" fill="black" fill-opacity="0.2"/>
<path d="M794.016 561.218C793.99 561.16 793.991 561.055 794.019 560.946C794.056 560.775 794.071 560.753 794.33 560.442C794.576 560.147 794.624 560.103 794.845 559.955C795.614 559.445 796.313 559.5 796.179 560.061C796.027 560.697 794.973 561.481 794.348 561.423C794.185 561.407 794.069 561.335 794.016 561.218Z" fill="black" fill-opacity="0.2"/>
<path d="M798.631 563.661C798.472 563.349 798.639 562.771 799.027 562.297C799.532 561.677 800.084 561.572 800.155 562.079C800.228 562.598 799.725 563.444 799.179 563.718C798.934 563.841 798.709 563.819 798.631 563.661Z" fill="black" fill-opacity="0.2"/>
<path d="M796.866 560.186C796.585 559.921 796.402 559.327 796.491 558.964C796.555 558.694 796.842 558.457 797.292 558.299C797.428 558.249 797.843 558.15 798.212 558.076C799.439 557.831 799.71 557.699 800.127 557.145C800.483 556.672 800.638 556.262 800.718 555.573C800.777 555.066 800.846 554.785 800.96 554.581C801.07 554.382 801.747 553.615 802.054 553.341C802.334 553.085 802.501 552.97 802.701 552.893C802.849 552.836 802.896 552.838 803.256 552.891C803.999 553.001 804.587 553.181 804.956 553.408C805.159 553.533 805.476 553.849 805.575 554.018C805.734 554.299 805.706 554.728 805.486 555.284C805.324 555.694 805.14 556.023 804.625 556.816C804.38 557.195 804.121 557.605 804.052 557.728C803.844 558.081 803.476 558.658 803.243 558.996C802.946 559.424 802.107 560.389 801.829 560.625C801.137 561.207 800.559 561.434 799.958 561.355C799.369 561.276 798.395 561.006 797.83 560.763C797.52 560.632 797.012 560.329 796.866 560.186Z" fill="black" fill-opacity="0.2"/>
<path d="M755.272 586.582C755.386 586.711 755.615 586.791 755.744 586.748C755.839 586.716 755.909 586.581 755.941 586.371C755.952 586.308 755.964 586.115 755.97 585.943C755.988 585.372 756.021 585.246 756.2 585.049C756.353 584.88 756.495 584.806 756.743 584.764C756.926 584.733 757.026 584.699 757.094 584.645C757.161 584.593 757.403 584.274 757.486 584.129C757.564 583.997 757.596 583.919 757.613 583.826C757.625 583.757 757.622 583.735 757.581 583.568C757.497 583.224 757.397 582.953 757.291 582.783C757.234 582.69 757.099 582.545 757.031 582.5C756.918 582.428 756.762 582.444 756.571 582.55C756.43 582.628 756.319 582.716 756.058 582.96C755.933 583.076 755.797 583.199 755.756 583.231C755.639 583.33 755.448 583.505 755.337 583.615C755.197 583.756 754.891 584.152 754.821 584.282C754.647 584.607 754.598 584.877 754.662 585.155C754.725 585.428 754.881 585.878 755.004 586.138C755.07 586.281 755.211 586.515 755.272 586.582Z" fill="black" fill-opacity="0.2"/>
<path d="M747.027 601.71C747.141 601.839 747.37 601.92 747.498 601.876C747.594 601.845 747.664 601.71 747.696 601.5C747.707 601.437 747.719 601.243 747.724 601.071C747.743 600.501 747.775 600.374 747.955 600.177C748.108 600.009 748.25 599.934 748.498 599.892C748.681 599.861 748.78 599.827 748.849 599.773C748.915 599.721 749.158 599.402 749.241 599.258C749.318 599.126 749.351 599.048 749.368 598.955C749.38 598.885 749.376 598.863 749.336 598.697C749.252 598.353 749.151 598.081 749.046 597.912C748.988 597.818 748.854 597.673 748.786 597.629C748.673 597.557 748.517 597.573 748.326 597.678C748.184 597.756 748.074 597.844 747.813 598.088C747.688 598.204 747.552 598.327 747.511 598.36C747.393 598.459 747.203 598.634 747.092 598.744C746.952 598.884 746.646 599.28 746.576 599.411C746.402 599.735 746.353 600.005 746.417 600.283C746.48 600.556 746.636 601.006 746.759 601.267C746.825 601.41 746.966 601.643 747.027 601.71Z" fill="black" fill-opacity="0.3"/>
<path d="M751.027 593.929C751.141 594.058 751.37 594.138 751.498 594.095C751.594 594.063 751.664 593.928 751.696 593.718C751.707 593.655 751.719 593.462 751.724 593.29C751.743 592.719 751.775 592.593 751.955 592.396C752.108 592.227 752.25 592.153 752.498 592.111C752.681 592.08 752.78 592.046 752.849 591.992C752.915 591.94 753.158 591.621 753.241 591.476C753.318 591.344 753.351 591.266 753.368 591.173C753.38 591.104 753.376 591.082 753.336 590.915C753.252 590.571 753.151 590.3 753.046 590.13C752.988 590.037 752.854 589.892 752.786 589.847C752.673 589.775 752.517 589.791 752.326 589.897C752.184 589.975 752.074 590.063 751.813 590.307C751.688 590.423 751.552 590.546 751.511 590.578C751.393 590.677 751.203 590.852 751.092 590.962C750.952 591.103 750.646 591.498 750.576 591.629C750.402 591.954 750.353 592.224 750.417 592.502C750.48 592.775 750.636 593.225 750.759 593.485C750.825 593.628 750.966 593.862 751.027 593.929Z" fill="black" fill-opacity="0.2"/>
<path d="M758.88 579.566C759.012 579.676 759.251 579.722 759.371 579.659C759.461 579.613 759.51 579.469 759.51 579.257C759.511 579.193 759.493 579 759.473 578.829C759.405 578.262 759.418 578.132 759.565 577.91C759.691 577.721 759.82 577.626 760.059 577.547C760.235 577.488 760.328 577.44 760.388 577.376C760.446 577.314 760.637 576.962 760.697 576.807C760.754 576.665 760.774 576.582 760.777 576.488C760.778 576.418 760.771 576.397 760.706 576.238C760.571 575.911 760.431 575.658 760.301 575.506C760.23 575.422 760.075 575.299 760.001 575.266C759.879 575.211 759.727 575.251 759.553 575.384C759.425 575.483 759.33 575.586 759.108 575.867C759.002 576.001 758.887 576.143 758.851 576.181C758.75 576.297 758.588 576.499 758.495 576.624C758.378 576.785 758.136 577.222 758.086 577.362C757.963 577.709 757.955 577.983 758.061 578.248C758.165 578.509 758.387 578.93 758.548 579.169C758.635 579.3 758.81 579.509 758.88 579.566Z" fill="black" fill-opacity="0.2"/>
<path d="M749.007 608.188C749.022 608.125 749.104 608.046 749.175 608.025C749.228 608.009 749.298 608.026 749.373 608.073C749.396 608.087 749.456 608.135 749.508 608.179C749.679 608.324 749.73 608.349 749.869 608.355C749.987 608.36 750.073 608.344 750.199 608.291C750.291 608.253 750.347 608.237 750.393 608.234C750.439 608.23 750.641 608.253 750.72 608.269C750.793 608.284 750.83 608.297 750.865 608.317C750.89 608.332 750.895 608.338 750.924 608.392C750.983 608.504 751.015 608.601 751.015 608.672C751.015 608.711 750.995 608.783 750.977 608.812C750.946 608.86 750.87 608.895 750.752 608.916C750.665 608.932 750.59 608.937 750.4 608.939C750.31 608.94 750.213 608.942 750.185 608.944C750.103 608.948 749.965 608.951 749.883 608.95C749.779 608.949 749.526 608.923 749.456 608.906C749.284 608.865 749.185 608.807 749.135 608.718C749.086 608.63 749.029 608.472 749.01 608.373C749 608.318 748.998 608.221 749.007 608.188Z" fill="black" fill-opacity="0.3"/>
</g>
<defs>
<filter id="filter0_d" x="491.274" y="686.899" width="288.583" height="163.531" filterUnits="userSpaceOnUse" color-interpolation-filters="sRGB">
<feFlood flood-opacity="0" result="BackgroundImageFix"/>
<feColorMatrix in="SourceAlpha" type="matrix" values="0 0 0 0 0 0 0 0 0 0 0 0 0 0 0 0 0 0 127 0" result="hardAlpha"/>
<feOffset dx="2" dy="-5"/>
<feGaussianBlur stdDeviation="27.5"/>
<feComposite in2="hardAlpha" operator="out"/>
<feColorMatrix type="matrix" values="0 0 0 0 0 0 0 0 0 0 0 0 0 0 0 0 0 0 0.5 0"/>
<feBlend mode="normal" in2="BackgroundImageFix" result="effect1_dropShadow"/>
<feBlend mode="normal" in="SourceGraphic" in2="effect1_dropShadow" result="shape"/>
</filter>
<filter id="filter1_d" x="719.168" y="685.801" width="26.0465" height="26.5132" filterUnits="userSpaceOnUse" color-interpolation-filters="sRGB">
<feFlood flood-opacity="0" result="BackgroundImageFix"/>
<feColorMatrix in="SourceAlpha" type="matrix" values="0 0 0 0 0 0 0 0 0 0 0 0 0 0 0 0 0 0 127 0" result="hardAlpha"/>
<feOffset dy="4"/>
<feGaussianBlur stdDeviation="2"/>
<feColorMatrix type="matrix" values="0 0 0 0 0 0 0 0 0 0 0 0 0 0 0 0 0 0 0.25 0"/>
<feBlend mode="normal" in2="BackgroundImageFix" result="effect1_dropShadow"/>
<feBlend mode="normal" in="SourceGraphic" in2="effect1_dropShadow" result="shape"/>
</filter>
<linearGradient id="paint0_linear" x1="734.5" y1="5.34459e-07" x2="699.436" y2="1648.58" gradientUnits="userSpaceOnUse">
<stop stop-color="#AE2D68"/>
<stop offset="1" stop-opacity="0"/>
</linearGradient>
<radialGradient id="paint1_radial" cx="0" cy="0" r="1" gradientUnits="userSpaceOnUse" gradientTransform="translate(741.5) rotate(90) scale(804 1449.67)">
<stop offset="0.503903" stop-opacity="0"/>
<stop offset="0.930555"/>
</radialGradient>
<radialGradient id="paint2_radial" cx="0" cy="0" r="1" gradientUnits="userSpaceOnUse" gradientTransform="translate(1079.79 526.066) rotate(-20.484) scale(150.211 67.4259)">
<stop offset="0.765338"/>
<stop offset="1" stop-opacity="0"/>
</radialGradient>
<radialGradient id="paint3_radial" cx="0" cy="0" r="1" gradientUnits="userSpaceOnUse" gradientTransform="translate(1081.11 535.629) rotate(-21.5339) scale(84.8084 38.0684)">
<stop offset="0.628472"/>
<stop offset="1" stop-opacity="0"/>
</radialGradient>
<radialGradient id="paint4_radial" cx="0" cy="0" r="1" gradientUnits="userSpaceOnUse" gradientTransform="translate(534.069 363.972) rotate(-68.904) scale(87.3248 100.751)">
<stop offset="0.618055"/>
<stop offset="1" stop-opacity="0"/>
</radialGradient>
<radialGradient id="paint5_radial" cx="0" cy="0" r="1" gradientUnits="userSpaceOnUse" gradientTransform="translate(545.693 343.288) rotate(-69.807) scale(120.71 152.837)">
<stop offset="0.373264"/>
<stop offset="0.69618" stop-opacity="0.617729"/>
<stop offset="1" stop-opacity="0"/>
</radialGradient>
<radialGradient id="paint6_radial" cx="0" cy="0" r="1" gradientUnits="userSpaceOnUse" gradientTransform="translate(1306.48 209.817) rotate(-33.6777) scale(119.594 90.7024)">
<stop offset="0.75868"/>
<stop offset="1" stop-opacity="0"/>
</radialGradient>
<radialGradient id="paint7_radial" cx="0" cy="0" r="1" gradientUnits="userSpaceOnUse" gradientTransform="translate(1318.25 218.656) rotate(-36.8843) scale(69.9503 47.5135)">
<stop offset="0.75868"/>
<stop offset="1" stop-opacity="0"/>
</radialGradient>
<radialGradient id="paint8_radial" cx="0" cy="0" r="1" gradientUnits="userSpaceOnUse" gradientTransform="translate(198.295 103.054) rotate(-136.594) scale(92.21 55.021)">
<stop offset="0.75868"/>
<stop offset="1" stop-opacity="0"/>
</radialGradient>
<radialGradient id="paint9_radial" cx="0" cy="0" r="1" gradientUnits="userSpaceOnUse" gradientTransform="translate(190.347 107.695) rotate(-136.668) scale(50.7187 33.2987)">
<stop offset="0.63368"/>
<stop offset="1" stop-opacity="0"/>
</radialGradient>
<radialGradient id="paint10_radial" cx="0" cy="0" r="1" gradientUnits="userSpaceOnUse" gradientTransform="translate(251.886 456.001) rotate(-40.5026) scale(112.051 177.594)">
<stop offset="0.75868"/>
<stop offset="1" stop-opacity="0"/>
</radialGradient>
<radialGradient id="paint11_radial" cx="0" cy="0" r="1" gradientUnits="userSpaceOnUse" gradientTransform="translate(244.571 465.085) rotate(135.798) scale(59.1213 101.254)">
<stop offset="0.675347"/>
<stop offset="1" stop-opacity="0"/>
</radialGradient>
<radialGradient id="paint12_radial" cx="0" cy="0" r="1" gradientUnits="userSpaceOnUse" gradientTransform="translate(936.749 776.97) rotate(-97.2652) scale(10.198 169.485)">
<stop offset="0.644097"/>
<stop offset="1" stop-opacity="0"/>
</radialGradient>
<radialGradient id="paint13_radial" cx="0" cy="0" r="1" gradientUnits="userSpaceOnUse" gradientTransform="translate(635.67 756.75) rotate(90.0634) scale(80.1585 267.558)">
<stop offset="0.211111"/>
<stop offset="0.513889" stop-opacity="0.13"/>
<stop offset="0.82118" stop-opacity="0.13"/>
</radialGradient>
<linearGradient id="paint14_linear" x1="765" y1="685" x2="710" y2="673.5" gradientUnits="userSpaceOnUse">
<stop offset="0.404514" stop-color="#CACACA"/>
<stop offset="1" stop-color="#464646"/>
</linearGradient>
<linearGradient id="paint15_linear" x1="726.195" y1="693.876" x2="736.884" y2="690.84" gradientUnits="userSpaceOnUse">
<stop offset="0.336805" stop-color="#510C44"/>
<stop offset="0.675347" stop-color="#97255F"/>
<stop offset="1" stop-color="#AE2D68"/>
</linearGradient>
<clipPath id="clip0">
<rect width="1440" height="805" fill="white"/>
</clipPath>
</defs>
</svg>
