<svg width="265" height="105" viewBox="0 0 265 105" fill="none" xmlns="http://www.w3.org/2000/svg">
<path d="M171.785 81.517C177.902 82.0232 177.902 90.9768 171.785 91.483L12.4124 104.672C9.49827 104.913 7 102.613 7 99.6887L7 73.3113C7 70.3873 9.49826 68.0872 12.4124 68.3283L171.785 81.517Z" fill="#AE2D68"/>
<path d="M110.9 82.5177C117.007 83.0325 117.007 91.9675 110.9 92.4823L5.92003 101.332C3.00326 101.578 0.5 99.2773 0.5 96.3502V78.6498C0.5 75.7227 3.00326 73.4216 5.92003 73.6675L110.9 82.5177Z" fill="#660F56" fill-opacity="0.5"/>
<path d="M146.321 35.0179C152.424 35.5361 152.424 44.4639 146.321 44.9821L6.423 56.8601C3.50519 57.1078 1 54.8063 1 51.878L1 28.122C1 25.1937 3.5052 22.8922 6.423 23.1399L146.321 35.0179Z" fill="#AE2D68"/>
<path d="M211.484 62.0144C217.645 62.4832 217.645 71.5168 211.484 71.9856L20.6294 86.5092C17.7269 86.7301 15.25 84.4346 15.25 81.5236V52.4764C15.25 49.5654 17.7269 47.2699 20.6294 47.4908L211.484 62.0144Z" fill="#660F56"/>
<path d="M179.681 15.0129C185.869 15.4581 185.869 24.5419 179.681 24.9871L13.6088 36.935C10.7136 37.1433 8.25 34.8506 8.25 31.9479L8.25 8.05214C8.25 5.14941 10.7135 2.85673 13.6088 3.06502L179.681 15.0129Z" fill="#660F56"/>
<path d="M114.082 63.0142C120.246 63.4804 120.246 72.5196 114.082 72.9858L13.6271 80.5837C10.7254 80.8032 8.25 78.5079 8.25 75.5979V60.4021C8.25 57.4921 10.7254 55.1968 13.6271 55.4163L114.082 63.0142Z" fill="#510C44"/>
<path d="M114.082 63.0142C120.246 63.4804 120.246 72.5196 114.082 72.9858L13.6271 80.5837C10.7254 80.8032 8.25 78.5079 8.25 75.5979V60.4021C8.25 57.4921 10.7254 55.1968 13.6271 55.4163L114.082 63.0142Z" fill="#510C44"/>
<path d="M114.082 63.0142C120.246 63.4804 120.246 72.5196 114.082 72.9858L13.6271 80.5837C10.7254 80.8032 8.25 78.5079 8.25 75.5979V60.4021C8.25 57.4921 10.7254 55.1968 13.6271 55.4163L114.082 63.0142Z" fill="#510C44"/>
<path d="M117.082 15.0142C123.246 15.4804 123.246 24.5196 117.082 24.9858L16.6271 32.5837C13.7254 32.8032 11.25 30.5079 11.25 27.5979V12.4021C11.25 9.49206 13.7254 7.19684 16.6271 7.41632L117.082 15.0142Z" fill="#510C44"/>
<path d="M117.082 15.0142C123.246 15.4804 123.246 24.5196 117.082 24.9858L16.6271 32.5837C13.7254 32.8032 11.25 30.5079 11.25 27.5979V12.4021C11.25 9.49206 13.7254 7.19684 16.6271 7.41632L117.082 15.0142Z" fill="#510C44"/>
<path d="M117.082 15.0142C123.246 15.4804 123.246 24.5196 117.082 24.9858L16.6271 32.5837C13.7254 32.8032 11.25 30.5079 11.25 27.5979V12.4021C11.25 9.49206 13.7254 7.19684 16.6271 7.41632L117.082 15.0142Z" fill="#510C44"/>
</svg>
