<svg width="872" height="357" viewBox="0 0 872 357" fill="none" xmlns="http://www.w3.org/2000/svg">
<path d="M301.729 173.53C307.668 174.182 307.668 182.818 301.729 183.47L17.2957 214.697C14.336 215.022 11.75 212.705 11.75 209.727L11.75 147.273C11.75 144.295 14.336 141.978 17.2957 142.303L301.729 173.53Z" fill="#AE2D68"/>
<path d="M155.932 211.017C162.056 211.516 162.056 220.484 155.932 220.983L10.1567 232.879C7.24456 233.117 4.75 230.818 4.75 227.896L4.75 204.104C4.75 201.182 7.24456 198.883 10.1567 199.121L155.932 211.017Z" fill="#AE2D68"/>
<path d="M178.332 129.013C184.516 129.462 184.516 138.538 178.332 138.987L13.8622 150.931C10.9657 151.141 8.5 148.848 8.5 145.944L8.5 122.056C8.5 119.152 10.9657 116.859 13.8622 117.069L178.332 129.013Z" fill="#AE2D68"/>
<path d="M296 176.5L39.5719 193.044C36.6898 193.23 34.25 190.943 34.25 188.055V164.945C34.25 162.057 36.6898 159.77 39.5719 159.956L296 176.5Z" fill="#660F56" fill-opacity="0.5"/>
<path d="M64.7472 60.6525C295.654 59.5716 448.362 -30.9576 612.587 12.3756C776.813 55.7088 869.828 115.088 871.172 177.452C872.515 239.815 782.077 300.054 619.751 344.916C457.426 389.778 304.348 293.503 73.441 294.584L0.535576 181.528L64.7472 60.6525Z" fill="url(#paint0_radial)"/>
<defs>
<radialGradient id="paint0_radial" cx="0" cy="0" r="1" gradientUnits="userSpaceOnUse" gradientTransform="translate(28.0513 166.45) rotate(-0.0398125) scale(719.547 58.4718)">
<stop offset="0.0243053" stop-color="#FF0000" stop-opacity="0.69"/>
<stop offset="1" stop-color="#C4C4C4" stop-opacity="0"/>
</radialGradient>
</defs>
</svg>
