<svg width="342" height="1336" viewBox="0 0 342 1336" fill="none" xmlns="http://www.w3.org/2000/svg">
<g opacity="0.6">
<path d="M103.43 559.386C104.613 558.526 105.422 556.637 105.648 554.209C105.872 551.497 104.519 545.576 102.977 542.645C99.8484 536.729 95.4285 533.79 92.8404 535.939C91.7868 536.802 91.2153 538.195 90.9127 540.576C90.5919 543.151 92.1304 549.983 93.6668 552.757C95.8298 556.663 98.7501 559.547 101.003 559.914C102.324 560.165 102.354 560.159 103.43 559.386Z" fill="black" fill-opacity="0.35"/>
<path d="M83.4167 561.732C84.9872 560.597 86.0473 557.195 85.9729 553.374C85.9001 549.965 84.1426 543.973 82.4867 541.511C80.029 537.859 77.7837 536.445 75.6062 537.204C72.3517 538.324 71.1714 544.194 72.8022 551.007C74.0361 556.161 76.2624 559.926 79.093 561.626C80.4893 562.464 82.3413 562.505 83.4167 561.732Z" fill="black" fill-opacity="0.35"/>
<path d="M119.596 549.038C120.125 548.542 120.615 547.484 120.878 546.285C121.341 544.439 121.307 544.161 120.339 540.121C119.422 536.292 119.178 535.678 117.794 533.41C112.943 525.583 106.051 523.687 104.637 529.799C103.034 536.746 109.271 548.333 115.477 549.934C117.095 550.343 118.54 550.029 119.596 549.038Z" fill="black" fill-opacity="0.35"/>
<path d="M64.1517 557.647C67.1531 555.06 68.334 548.65 66.9301 542.517C65.1093 534.508 60.382 531.508 57.2786 536.37C54.1046 541.342 54.8201 551.621 58.6882 556.298C60.419 558.396 62.6547 558.956 64.1517 557.647Z" fill="black" fill-opacity="0.35"/>
<path d="M97.917 528.625C101.849 526.945 106.424 521.604 107.317 517.635C108.004 514.694 106.414 511.297 102.905 508.126C101.862 507.148 98.3957 504.697 95.2534 502.652C84.8015 495.884 82.8655 493.609 81.5659 486.564C80.4505 480.557 80.9477 475.881 83.4892 468.666C85.352 463.344 86.0403 460.276 85.9381 457.824C85.8503 455.432 83.1088 445.338 81.5097 441.499C80.0751 437.94 79.0431 436.198 77.5246 434.72C76.3911 433.634 75.9336 433.48 72.2665 432.755C64.6952 431.26 58.2628 431.01 53.6818 432.006C51.1606 432.554 46.6407 434.615 44.8969 435.978C42.0443 438.248 40.256 442.665 39.6804 449.04C39.252 453.733 39.4242 457.692 40.5075 467.481C41.014 472.161 41.5077 477.193 41.5705 478.67C41.8529 482.954 42.5845 490.06 43.1744 494.277C43.9392 499.631 47.264 512.295 48.7782 515.645C52.5422 523.931 56.9387 528.241 63.0108 529.553C68.9763 530.826 79.4937 531.521 86.0132 531.055C89.5794 530.818 95.8424 529.552 97.917 528.625Z" fill="black" fill-opacity="0.35"/>
<path d="M163.062 705.896C164.22 705.39 165.262 703.969 165.922 702C166.634 699.795 166.646 694.661 165.922 691.969C164.446 686.532 161.312 683.332 158.728 684.66C157.679 685.192 156.93 686.245 156.216 688.162C155.449 690.236 155.416 696.155 156.166 698.717C157.222 702.323 159.111 705.217 160.927 705.911C161.984 706.349 162.011 706.349 163.062 705.896Z" fill="black" fill-opacity="0.35"/>
<path d="M146.013 704.318C147.548 703.652 149.095 701.022 149.772 697.848C150.37 695.015 150.058 689.753 149.147 687.429C147.795 683.981 146.188 682.421 144.217 682.671C141.274 683.032 139.15 687.683 139.198 693.602C139.234 698.08 140.37 701.582 142.412 703.479C143.42 704.415 144.963 704.77 146.013 704.318Z" fill="black" fill-opacity="0.35"/>
<path d="M178.43 700.154C178.968 699.836 179.584 699.046 180.035 698.1C180.78 696.654 180.806 696.418 180.777 692.909C180.75 689.583 180.665 689.033 179.945 686.917C177.399 679.602 171.999 676.838 169.632 681.648C166.946 687.114 169.925 697.779 174.809 700.18C176.084 700.799 177.354 700.79 178.43 700.154Z" fill="black" fill-opacity="0.35"/>
<path d="M130.789 697.541C133.803 695.922 136.032 690.825 136.043 685.509C136.068 678.568 132.69 675.266 129.151 678.748C125.531 682.31 124.141 690.936 126.475 695.477C127.519 697.512 129.282 698.364 130.789 697.541Z" fill="black" fill-opacity="0.35"/>
<path d="M164.239 679.257C167.855 678.551 172.717 674.929 174.232 671.802C175.375 669.489 174.7 666.403 172.376 663.172C171.693 662.181 169.265 659.553 167.031 657.316C159.591 649.904 158.41 647.686 158.685 641.634C158.912 636.473 160.232 632.692 163.754 627.168C166.342 623.09 167.511 620.672 167.9 618.627C168.289 616.634 167.945 607.81 167.349 604.357C166.836 601.165 166.309 599.545 165.324 598.059C164.585 596.964 164.232 596.757 161.303 595.521C155.255 592.97 149.919 591.645 145.893 591.673C143.676 591.688 139.495 592.608 137.772 593.432C134.946 594.813 132.595 598.156 130.881 603.327C129.615 607.134 128.994 610.438 128.008 618.721C127.527 622.679 126.968 626.926 126.735 628.158C126.143 631.751 125.382 637.753 125.06 641.344C124.666 645.904 125 656.954 125.62 659.987C127.169 667.493 130.015 671.821 134.844 673.961C139.591 676.05 148.259 678.451 153.806 679.198C156.837 679.623 162.324 679.663 164.239 679.257Z" fill="black" fill-opacity="0.35"/>
<path d="M135.201 816.9C136.023 816.929 137.059 816.392 138.041 815.427C139.126 814.339 140.705 811.347 141.112 809.572C141.925 805.985 141.099 803.241 139.205 803.292C138.437 803.308 137.684 803.713 136.686 804.632C135.609 805.628 133.778 809.074 133.427 810.779C132.931 813.18 133.133 815.397 133.967 816.311C134.442 816.863 134.458 816.87 135.201 816.9Z" fill="black" fill-opacity="0.35"/>
<path d="M125.764 811.142C126.852 811.183 128.548 810.081 129.909 808.418C131.121 806.933 132.552 803.774 132.739 802.162C133.015 799.771 132.567 798.41 131.355 798.004C129.549 797.391 126.902 799.511 125.118 802.979C123.768 805.603 123.351 807.965 123.946 809.644C124.24 810.472 125.021 811.112 125.764 811.142Z" fill="black" fill-opacity="0.35"/>
<path d="M145.871 817.921C146.278 817.886 146.875 817.597 147.425 817.172C148.298 816.536 148.384 816.405 149.443 814.348C150.446 812.399 150.565 812.054 150.798 810.617C151.571 805.632 149.305 802.505 146.468 804.651C143.246 807.09 141.696 814.152 143.776 816.922C144.321 817.641 145.056 817.991 145.871 817.921Z" fill="black" fill-opacity="0.35"/>
<path d="M118.969 802.879C121.202 802.778 124.046 800.427 125.68 797.327C127.82 793.282 126.885 790.408 123.779 791.45C120.603 792.515 117.161 797.162 117.116 800.466C117.094 801.946 117.849 802.938 118.969 802.879Z" fill="black" fill-opacity="0.35"/>
<path d="M143.775 801.764C146.075 802.364 149.988 801.611 151.819 800.21C153.186 799.18 153.743 797.189 153.394 794.652C153.303 793.882 152.709 791.668 152.106 789.736C150.089 783.325 150.088 781.699 152.1 778.243C153.813 775.293 155.732 773.456 159.455 771.216C162.196 769.561 163.611 768.477 164.461 767.391C165.296 766.336 167.802 761.089 168.516 758.906C169.198 756.899 169.391 755.805 169.279 754.662C169.188 753.816 169.048 753.596 167.739 752.053C165.034 748.87 162.364 746.603 160.035 745.491C158.752 744.88 156.06 744.245 154.815 744.244C152.762 744.259 150.383 745.552 147.811 748.091C145.915 749.959 144.544 751.714 141.438 756.274C139.948 758.45 138.325 760.773 137.813 761.427C136.371 763.359 134.093 766.65 132.807 768.657C131.183 771.208 127.99 777.753 127.418 779.698C126.011 784.514 126.325 787.838 128.453 790.44C130.549 792.988 134.81 796.818 137.779 798.808C139.396 799.904 142.546 801.465 143.775 801.764Z" fill="black" fill-opacity="0.35"/>
<path d="M179.056 1069.9C179.345 1069.59 179.465 1069 179.386 1068.29C179.289 1067.5 178.55 1065.87 177.933 1065.11C176.684 1063.58 175.241 1062.98 174.625 1063.74C174.374 1064.05 174.292 1064.48 174.347 1065.18C174.407 1065.94 175.254 1067.82 175.86 1068.54C176.713 1069.54 177.722 1070.21 178.391 1070.19C178.785 1070.19 178.793 1070.18 179.056 1069.9Z" fill="black" fill-opacity="0.35"/>
<path d="M173.446 1071.69C173.829 1071.28 173.932 1070.24 173.684 1069.14C173.46 1068.17 172.6 1066.54 171.979 1065.92C171.057 1065.01 170.328 1064.73 169.748 1065.07C168.88 1065.57 168.89 1067.33 169.762 1069.2C170.422 1070.61 171.285 1071.57 172.198 1071.9C172.649 1072.07 173.183 1071.97 173.446 1071.69Z" fill="black" fill-opacity="0.35"/>
<path d="M183.086 1066.03C183.209 1065.86 183.287 1065.52 183.291 1065.16C183.314 1064.61 183.288 1064.53 182.77 1063.42C182.28 1062.37 182.173 1062.21 181.641 1061.63C179.784 1059.65 177.694 1059.48 177.65 1061.32C177.603 1063.41 180.081 1066.4 181.957 1066.52C182.446 1066.54 182.842 1066.37 183.086 1066.03Z" fill="black" fill-opacity="0.35"/>
<path d="M167.668 1071.59C168.376 1070.68 168.334 1068.77 167.568 1067.08C166.57 1064.88 165.034 1064.28 164.432 1065.85C163.816 1067.46 164.631 1070.38 166.019 1071.51C166.641 1072.02 167.316 1072.05 167.668 1071.59Z" fill="black" fill-opacity="0.35"/>
<path d="M175.633 1061.39C176.662 1060.69 177.659 1058.9 177.679 1057.71C177.702 1056.82 177.044 1055.93 175.848 1055.22C175.491 1054.99 174.351 1054.48 173.327 1054.07C169.925 1052.7 169.235 1052.15 168.443 1050.19C167.767 1048.53 167.632 1047.15 167.933 1044.93C168.152 1043.3 168.168 1042.38 167.993 1041.68C167.826 1040.99 166.439 1038.24 165.753 1037.22C165.13 1036.28 164.73 1035.83 164.206 1035.49C163.817 1035.24 163.676 1035.22 162.58 1035.22C160.318 1035.21 158.457 1035.5 157.201 1036.04C156.51 1036.34 155.335 1037.18 154.915 1037.67C154.231 1038.48 153.98 1039.85 154.193 1041.72C154.349 1043.1 154.633 1044.23 155.525 1046.99C155.948 1048.3 156.389 1049.73 156.494 1050.15C156.83 1051.37 157.461 1053.37 157.881 1054.55C158.418 1056.05 160.124 1059.51 160.758 1060.39C162.33 1062.57 163.848 1063.56 165.669 1063.6C167.457 1063.64 170.517 1063.25 172.361 1062.76C173.37 1062.49 175.093 1061.78 175.633 1061.39Z" fill="black" fill-opacity="0.35"/>
<path d="M294.713 1157.43C294.465 1157.58 294.057 1157.58 293.594 1157.45C293.08 1157.29 292.099 1156.63 291.68 1156.15C290.835 1155.18 290.636 1154.2 291.228 1153.9C291.467 1153.78 291.766 1153.78 292.226 1153.9C292.722 1154.03 293.856 1154.79 294.247 1155.26C294.797 1155.92 295.102 1156.63 294.996 1157.05C294.941 1157.3 294.937 1157.3 294.713 1157.43Z" fill="black" fill-opacity="0.35"/>
<path d="M296.628 1154.17C296.299 1154.36 295.595 1154.3 294.9 1154.01C294.281 1153.75 293.317 1153.02 292.993 1152.55C292.512 1151.86 292.425 1151.37 292.731 1151.04C293.186 1150.56 294.352 1150.78 295.476 1151.55C296.326 1152.14 296.846 1152.8 296.94 1153.41C296.986 1153.71 296.852 1154.04 296.628 1154.17Z" fill="black" fill-opacity="0.35"/>
<path d="M291.616 1159.45C291.484 1159.5 291.253 1159.51 291.013 1159.47C290.64 1159.42 290.591 1159.39 289.925 1158.94C289.294 1158.5 289.201 1158.41 288.891 1158.01C287.829 1156.61 288.009 1155.27 289.237 1155.47C290.632 1155.69 292.277 1157.61 292.095 1158.8C292.046 1159.11 291.878 1159.34 291.616 1159.45Z" fill="black" fill-opacity="0.35"/>
<path d="M297.311 1150.56C296.606 1150.89 295.341 1150.63 294.325 1149.95C292.997 1149.06 292.81 1148.02 293.938 1147.83C295.093 1147.64 296.921 1148.5 297.482 1149.51C297.734 1149.96 297.665 1150.39 297.311 1150.56Z" fill="black" fill-opacity="0.35"/>
<path d="M289.43 1154.17C288.821 1154.74 287.493 1155.15 286.697 1155.02C286.106 1154.92 285.605 1154.4 285.293 1153.56C285.194 1153.31 285.011 1152.54 284.877 1151.84C284.437 1149.54 284.169 1149.04 282.978 1148.31C281.963 1147.68 281.068 1147.43 279.552 1147.35C278.435 1147.29 277.82 1147.19 277.379 1147C276.947 1146.81 275.308 1145.61 274.727 1145.06C274.185 1144.55 273.945 1144.25 273.791 1143.88C273.679 1143.6 273.685 1143.51 273.833 1142.82C274.139 1141.4 274.586 1140.27 275.119 1139.54C275.413 1139.14 276.137 1138.51 276.52 1138.3C277.154 1137.97 278.1 1137.98 279.312 1138.34C280.204 1138.6 280.916 1138.92 282.626 1139.81C283.445 1140.23 284.329 1140.68 284.595 1140.8C285.358 1141.16 286.603 1141.79 287.331 1142.2C288.253 1142.72 290.318 1144.21 290.816 1144.71C292.045 1145.96 292.498 1147.03 292.273 1148.18C292.05 1149.31 291.372 1151.19 290.787 1152.28C290.471 1152.89 289.759 1153.88 289.43 1154.17Z" fill="black" fill-opacity="0.35"/>
<path d="M331.469 1244.53C331.241 1244.47 331.003 1244.24 330.816 1243.9C330.611 1243.51 330.433 1242.57 330.472 1242.05C330.555 1241.01 331.016 1240.32 331.532 1240.49C331.741 1240.55 331.913 1240.72 332.109 1241.05C332.32 1241.41 332.528 1242.5 332.479 1242.99C332.41 1243.69 332.165 1244.28 331.859 1244.46C331.681 1244.58 331.676 1244.58 331.469 1244.53Z" fill="black" fill-opacity="0.35"/>
<path d="M334.547 1243.7C334.245 1243.63 333.873 1243.19 333.642 1242.63C333.436 1242.13 333.313 1241.15 333.399 1240.69C333.527 1240.02 333.766 1239.68 334.134 1239.67C334.682 1239.64 335.228 1240.44 335.421 1241.53C335.568 1242.35 335.481 1243.03 335.174 1243.44C335.023 1243.64 334.754 1243.76 334.547 1243.7Z" fill="black" fill-opacity="0.35"/>
<path d="M328.458 1243.95C328.349 1243.91 328.21 1243.78 328.095 1243.62C327.91 1243.38 327.897 1243.34 327.782 1242.69C327.673 1242.08 327.67 1241.97 327.728 1241.56C327.942 1240.14 328.831 1239.46 329.427 1240.28C330.103 1241.2 329.926 1243.25 329.118 1243.85C328.907 1244 328.675 1244.04 328.458 1243.95Z" fill="black" fill-opacity="0.35"/>
<path d="M337.114 1241.99C336.509 1241.78 335.929 1240.91 335.745 1239.93C335.503 1238.66 336.005 1237.95 336.769 1238.48C337.55 1239.02 338.098 1240.57 337.829 1241.47C337.708 1241.88 337.416 1242.09 337.114 1241.99Z" fill="black" fill-opacity="0.35"/>
<path d="M330.415 1239.67C329.732 1239.65 328.723 1239.14 328.339 1238.61C328.052 1238.22 328.069 1237.63 328.382 1236.96C328.472 1236.76 328.824 1236.2 329.155 1235.72C330.256 1234.13 330.395 1233.69 330.138 1232.58C329.92 1231.64 329.549 1230.98 328.718 1230.08C328.107 1229.4 327.811 1228.99 327.671 1228.63C327.531 1228.28 327.291 1226.64 327.282 1225.99C327.266 1225.39 327.306 1225.07 327.435 1224.77C327.532 1224.54 327.589 1224.49 328.08 1224.18C329.095 1223.52 330.021 1223.12 330.756 1223C331.16 1222.93 331.954 1222.98 332.296 1223.07C332.858 1223.24 333.401 1223.79 333.89 1224.69C334.251 1225.35 334.478 1225.94 334.941 1227.43C335.164 1228.14 335.412 1228.91 335.497 1229.13C335.728 1229.77 336.072 1230.85 336.254 1231.5C336.482 1232.33 336.8 1234.37 336.791 1234.95C336.766 1236.38 336.395 1237.26 335.589 1237.8C334.796 1238.33 333.299 1239.04 332.314 1239.34C331.776 1239.52 330.778 1239.69 330.415 1239.67Z" fill="black" fill-opacity="0.35"/>
<path d="M311.87 1312.74C311.767 1312.68 311.691 1312.52 311.662 1312.32C311.631 1312.1 311.718 1311.6 311.834 1311.35C312.07 1310.84 312.426 1310.58 312.651 1310.75C312.743 1310.81 312.797 1310.93 312.832 1311.13C312.87 1311.34 312.772 1311.91 312.656 1312.15C312.492 1312.49 312.261 1312.74 312.074 1312.78C311.965 1312.8 311.963 1312.8 311.87 1312.74Z" fill="black" fill-opacity="0.35"/>
<path d="M313.548 1312.86C313.412 1312.77 313.309 1312.49 313.299 1312.17C313.29 1311.89 313.41 1311.38 313.538 1311.17C313.727 1310.86 313.908 1310.73 314.093 1310.78C314.37 1310.86 314.494 1311.35 314.388 1311.92C314.307 1312.36 314.138 1312.68 313.909 1312.83C313.796 1312.91 313.642 1312.92 313.548 1312.86Z" fill="black" fill-opacity="0.35"/>
<path d="M310.476 1311.95C310.43 1311.91 310.384 1311.82 310.357 1311.72C310.31 1311.57 310.312 1311.55 310.375 1311.21C310.435 1310.88 310.453 1310.83 310.558 1310.64C310.929 1309.96 311.496 1309.78 311.641 1310.28C311.805 1310.86 311.335 1311.85 310.824 1312C310.691 1312.04 310.569 1312.02 310.476 1311.95Z" fill="black" fill-opacity="0.35"/>
<path d="M315.136 1312.44C314.874 1312.24 314.748 1311.71 314.838 1311.19C314.955 1310.52 315.337 1310.25 315.617 1310.64C315.904 1311.04 315.889 1311.9 315.586 1312.3C315.451 1312.49 315.267 1312.54 315.136 1312.44Z" fill="black" fill-opacity="0.35"/>
<path d="M312.196 1310.15C311.861 1310.03 311.455 1309.6 311.363 1309.27C311.293 1309.03 311.411 1308.74 311.69 1308.46C311.773 1308.38 312.052 1308.16 312.305 1307.98C313.148 1307.37 313.3 1307.17 313.377 1306.58C313.444 1306.08 313.382 1305.69 313.138 1305.1C312.96 1304.66 312.889 1304.41 312.887 1304.21C312.884 1304.01 313.068 1303.15 313.185 1302.83C313.289 1302.52 313.368 1302.38 313.488 1302.25C313.578 1302.15 313.615 1302.14 313.918 1302.06C314.544 1301.91 315.08 1301.86 315.466 1301.93C315.679 1301.96 316.065 1302.11 316.217 1302.22C316.465 1302.4 316.634 1302.76 316.71 1303.29C316.766 1303.68 316.769 1304.01 316.721 1304.83C316.699 1305.22 316.68 1305.64 316.681 1305.76C316.676 1306.12 316.646 1306.72 316.616 1307.07C316.575 1307.52 316.353 1308.59 316.241 1308.87C315.963 1309.58 315.615 1309.96 315.114 1310.09C314.622 1310.22 313.747 1310.32 313.2 1310.31C312.902 1310.3 312.373 1310.22 312.196 1310.15Z" fill="black" fill-opacity="0.35"/>
<path d="M126.079 981.351C126.402 980.975 126.517 980.285 126.396 979.461C126.25 978.542 125.323 976.677 124.574 975.82C123.058 974.092 121.355 973.452 120.671 974.364C120.391 974.731 120.314 975.238 120.407 976.052C120.509 976.933 121.572 979.087 122.306 979.892C123.339 981.025 124.541 981.761 125.318 981.711C125.776 981.694 125.786 981.69 126.079 981.351Z" fill="black" fill-opacity="0.35"/>
<path d="M119.633 983.655C120.062 983.158 120.138 981.946 119.804 980.681C119.504 979.554 118.436 977.696 117.688 977.003C116.578 975.977 115.719 975.678 115.058 976.096C114.07 976.717 114.154 978.758 115.246 980.899C116.073 982.518 117.115 983.6 118.191 983.949C118.722 984.121 119.34 983.994 119.633 983.655Z" fill="black" fill-opacity="0.35"/>
<path d="M130.602 976.686C130.737 976.481 130.814 976.092 130.804 975.673C130.808 975.024 130.775 974.935 130.126 973.665C129.512 972.462 129.382 972.277 128.739 971.628C126.497 969.396 124.06 969.29 124.086 971.43C124.117 973.862 127.123 977.239 129.309 977.298C129.879 977.311 130.333 977.096 130.602 976.686Z" fill="black" fill-opacity="0.35"/>
<path d="M112.912 983.767C113.697 982.678 113.57 980.457 112.608 978.525C111.355 976.002 109.546 975.365 108.91 977.217C108.261 979.112 109.33 982.475 110.991 983.735C111.735 984.301 112.521 984.316 112.912 983.767Z" fill="black" fill-opacity="0.35"/>
<path d="M121.736 971.597C122.903 970.739 123.987 968.615 123.962 967.227C123.951 966.197 123.149 965.189 121.729 964.402C121.304 964.156 119.957 963.606 118.75 963.165C114.737 961.712 113.911 961.103 112.91 958.859C112.054 956.948 111.84 955.355 112.098 952.763C112.285 950.852 112.264 949.779 112.032 948.972C111.809 948.183 110.083 945.036 109.242 943.882C108.478 942.808 107.995 942.308 107.372 941.932C106.908 941.657 106.744 941.641 105.47 941.679C102.839 941.759 100.687 942.166 99.2494 942.846C98.4582 943.22 97.127 944.25 96.6593 944.836C95.8976 945.808 95.6627 947.413 95.9881 949.576C96.2262 951.169 96.6039 952.472 97.7558 955.644C98.3026 957.161 98.8738 958.796 99.0142 959.282C99.4548 960.685 100.273 962.992 100.81 964.349C101.497 966.07 103.624 970.027 104.398 971.026C106.316 973.494 108.123 974.591 110.242 974.565C112.322 974.534 115.864 973.963 117.987 973.312C119.15 972.961 121.123 972.063 121.736 971.597Z" fill="black" fill-opacity="0.35"/>
<path d="M245.308 1128.95C245.261 1128.7 245.014 1128.41 244.63 1128.18C244.199 1127.93 243.109 1127.67 242.499 1127.68C241.267 1127.71 240.424 1128.18 240.571 1128.77C240.629 1129 240.813 1129.21 241.183 1129.45C241.584 1129.71 242.839 1130.01 243.423 1129.99C244.244 1129.95 244.958 1129.72 245.2 1129.39C245.348 1129.19 245.35 1129.19 245.308 1128.95Z" fill="black" fill-opacity="0.35"/>
<path d="M244.106 1132.28C244.045 1131.94 243.567 1131.5 242.928 1131.2C242.358 1130.94 241.224 1130.74 240.682 1130.81C239.879 1130.91 239.464 1131.15 239.414 1131.56C239.337 1132.17 240.214 1132.83 241.473 1133.12C242.427 1133.34 243.23 1133.28 243.74 1132.97C243.991 1132.81 244.147 1132.52 244.106 1132.28Z" fill="black" fill-opacity="0.35"/>
<path d="M244.858 1125.57C244.819 1125.44 244.683 1125.28 244.506 1125.14C244.238 1124.92 244.189 1124.91 243.442 1124.74C242.734 1124.58 242.613 1124.57 242.125 1124.61C240.437 1124.76 239.564 1125.71 240.461 1126.43C241.48 1127.24 243.903 1127.16 244.672 1126.3C244.871 1126.07 244.936 1125.82 244.858 1125.57Z" fill="black" fill-opacity="0.35"/>
<path d="M241.885 1134.99C241.698 1134.3 240.732 1133.59 239.604 1133.32C238.131 1132.97 237.253 1133.49 237.808 1134.37C238.375 1135.28 240.134 1135.99 241.221 1135.75C241.707 1135.64 241.98 1135.33 241.885 1134.99Z" fill="black" fill-opacity="0.35"/>
<path d="M239.678 1127.32C239.717 1126.56 239.202 1125.4 238.617 1124.93C238.185 1124.59 237.495 1124.57 236.688 1124.88C236.442 1124.96 235.757 1125.32 235.165 1125.66C233.203 1126.79 232.67 1126.91 231.4 1126.56C230.316 1126.25 229.582 1125.8 228.593 1124.81C227.862 1124.08 227.41 1123.73 226.996 1123.55C226.593 1123.37 224.702 1123 223.937 1122.94C223.233 1122.89 222.861 1122.91 222.494 1123.03C222.223 1123.13 222.161 1123.19 221.745 1123.72C220.888 1124.81 220.328 1125.82 220.124 1126.63C220.011 1127.08 219.988 1127.97 220.073 1128.36C220.219 1128.99 220.806 1129.64 221.814 1130.24C222.556 1130.69 223.225 1130.98 224.933 1131.59C225.748 1131.89 226.62 1132.21 226.87 1132.32C227.602 1132.62 228.836 1133.07 229.582 1133.32C230.529 1133.63 232.893 1134.11 233.57 1134.14C235.244 1134.2 236.312 1133.85 237.018 1132.98C237.71 1132.13 238.672 1130.5 239.121 1129.42C239.369 1128.83 239.664 1127.73 239.678 1127.32Z" fill="black" fill-opacity="0.35"/>
<path d="M325.411 1206.33C325.247 1206.27 325.093 1206.07 324.988 1205.8C324.875 1205.5 324.84 1204.78 324.923 1204.41C325.093 1203.64 325.508 1203.18 325.876 1203.35C326.025 1203.41 326.136 1203.56 326.248 1203.82C326.368 1204.1 326.411 1204.93 326.323 1205.29C326.2 1205.8 325.956 1206.21 325.708 1206.32C325.564 1206.39 325.56 1206.39 325.411 1206.33Z" fill="black" fill-opacity="0.35"/>
<path d="M327.778 1206.01C327.56 1205.93 327.328 1205.57 327.214 1205.13C327.112 1204.74 327.121 1204 327.233 1203.67C327.398 1203.19 327.612 1202.96 327.887 1202.98C328.299 1203.02 328.624 1203.65 328.656 1204.48C328.68 1205.1 328.545 1205.6 328.273 1205.87C328.139 1206.01 327.927 1206.07 327.778 1206.01Z" fill="black" fill-opacity="0.35"/>
<path d="M323.235 1205.62C323.158 1205.58 323.067 1205.47 322.998 1205.34C322.885 1205.15 322.88 1205.11 322.862 1204.62C322.844 1204.16 322.852 1204.08 322.938 1203.78C323.245 1202.75 323.978 1202.33 324.338 1202.99C324.747 1203.74 324.402 1205.24 323.739 1205.6C323.565 1205.7 323.389 1205.7 323.235 1205.62Z" fill="black" fill-opacity="0.35"/>
<path d="M329.856 1204.98C329.427 1204.77 329.084 1204.07 329.048 1203.33C328.999 1202.36 329.448 1201.88 329.962 1202.35C330.489 1202.82 330.738 1204.02 330.443 1204.66C330.311 1204.95 330.071 1205.08 329.856 1204.98Z" fill="black" fill-opacity="0.35"/>
<path d="M325.105 1202.62C324.597 1202.54 323.897 1202.06 323.666 1201.64C323.491 1201.32 323.565 1200.89 323.866 1200.42C323.955 1200.28 324.275 1199.9 324.571 1199.58C325.556 1198.5 325.706 1198.19 325.628 1197.35C325.562 1196.63 325.353 1196.11 324.827 1195.36C324.44 1194.8 324.261 1194.47 324.194 1194.19C324.126 1193.91 324.115 1192.68 324.175 1192.2C324.226 1191.75 324.288 1191.52 324.415 1191.31C324.511 1191.15 324.559 1191.12 324.958 1190.93C325.782 1190.54 326.515 1190.33 327.075 1190.31C327.383 1190.3 327.971 1190.4 328.216 1190.51C328.618 1190.69 328.967 1191.14 329.24 1191.85C329.441 1192.37 329.55 1192.83 329.741 1193.98C329.835 1194.53 329.941 1195.12 329.981 1195.29C330.087 1195.79 330.233 1196.62 330.301 1197.12C330.387 1197.75 330.413 1199.29 330.347 1199.72C330.182 1200.77 329.815 1201.39 329.157 1201.72C328.511 1202.04 327.321 1202.42 326.555 1202.55C326.136 1202.63 325.374 1202.67 325.105 1202.62Z" fill="black" fill-opacity="0.35"/>
<path d="M319.922 1290.32C319.865 1290.19 319.891 1289.99 319.993 1289.77C320.11 1289.53 320.52 1289.09 320.798 1288.92C321.358 1288.57 321.88 1288.53 321.992 1288.84C322.038 1288.96 322.017 1289.11 321.924 1289.33C321.822 1289.56 321.35 1290.06 321.082 1290.23C320.703 1290.45 320.311 1290.56 320.102 1290.48C319.977 1290.44 319.975 1290.43 319.922 1290.32Z" fill="black" fill-opacity="0.35"/>
<path d="M321.493 1291.46C321.416 1291.29 321.496 1290.95 321.694 1290.63C321.87 1290.35 322.319 1289.93 322.582 1289.8C322.973 1289.61 323.234 1289.59 323.381 1289.76C323.601 1290.02 323.408 1290.57 322.929 1291.07C322.567 1291.44 322.19 1291.66 321.865 1291.66C321.704 1291.67 321.545 1291.58 321.493 1291.46Z" fill="black" fill-opacity="0.35"/>
<path d="M319.082 1288.67C319.062 1288.61 319.074 1288.49 319.111 1288.38C319.164 1288.2 319.181 1288.18 319.465 1287.88C319.734 1287.6 319.785 1287.56 320.016 1287.44C320.818 1287.01 321.497 1287.18 321.311 1287.77C321.1 1288.43 319.992 1289.11 319.387 1288.95C319.229 1288.9 319.122 1288.81 319.082 1288.67Z" fill="black" fill-opacity="0.35"/>
<path d="M323.326 1292.03C323.201 1291.67 323.421 1291.07 323.847 1290.62C324.401 1290.03 324.952 1290 324.972 1290.56C324.993 1291.14 324.418 1291.97 323.857 1292.18C323.605 1292.28 323.388 1292.22 323.326 1292.03Z" fill="black" fill-opacity="0.35"/>
<path d="M321.959 1287.97C321.709 1287.64 321.589 1286.97 321.711 1286.59C321.8 1286.31 322.105 1286.09 322.56 1285.99C322.698 1285.96 323.114 1285.92 323.482 1285.9C324.706 1285.83 324.984 1285.73 325.446 1285.2C325.84 1284.74 326.032 1284.32 326.177 1283.59C326.285 1283.05 326.38 1282.76 326.511 1282.55C326.638 1282.36 327.375 1281.63 327.702 1281.39C328.002 1281.15 328.176 1281.06 328.379 1281C328.529 1280.97 328.575 1280.98 328.922 1281.09C329.639 1281.33 330.196 1281.62 330.535 1281.92C330.721 1282.09 331.001 1282.48 331.08 1282.68C331.209 1283.01 331.139 1283.47 330.87 1284.04C330.671 1284.46 330.459 1284.78 329.878 1285.56C329.601 1285.93 329.308 1286.33 329.229 1286.46C328.991 1286.81 328.574 1287.37 328.313 1287.7C327.981 1288.12 327.066 1289.03 326.771 1289.24C326.038 1289.76 325.45 1289.91 324.87 1289.73C324.301 1289.55 323.375 1289.1 322.846 1288.75C322.555 1288.56 322.088 1288.15 321.959 1287.97Z" fill="black" fill-opacity="0.35"/>
<path d="M297.841 1333.53C297.836 1333.46 297.883 1333.36 297.972 1333.27C298.072 1333.17 298.351 1333.03 298.519 1332.99C298.858 1332.92 299.122 1332.99 299.123 1333.16C299.124 1333.23 299.088 1333.3 299.004 1333.39C298.913 1333.48 298.591 1333.65 298.43 1333.69C298.203 1333.73 297.991 1333.71 297.901 1333.64C297.847 1333.6 297.847 1333.6 297.841 1333.53Z" fill="black" fill-opacity="0.35"/>
<path d="M298.414 1334.37C298.406 1334.27 298.505 1334.12 298.659 1333.99C298.796 1333.88 299.092 1333.75 299.245 1333.73C299.471 1333.71 299.603 1333.74 299.645 1333.85C299.71 1334.02 299.517 1334.26 299.193 1334.42C298.948 1334.54 298.724 1334.58 298.562 1334.53C298.482 1334.5 298.419 1334.43 298.414 1334.37Z" fill="black" fill-opacity="0.35"/>
<path d="M297.72 1332.57C297.722 1332.53 297.748 1332.48 297.786 1332.43C297.844 1332.35 297.856 1332.34 298.048 1332.25C298.23 1332.15 298.262 1332.14 298.398 1332.12C298.87 1332.05 299.174 1332.25 298.98 1332.51C298.759 1332.8 298.093 1332.94 297.822 1332.76C297.752 1332.71 297.716 1332.64 297.72 1332.57Z" fill="black" fill-opacity="0.35"/>
<path d="M299.221 1334.96C299.223 1334.76 299.437 1334.5 299.726 1334.35C300.104 1334.16 300.381 1334.24 300.292 1334.52C300.201 1334.81 299.771 1335.12 299.457 1335.13C299.316 1335.13 299.219 1335.06 299.221 1334.96Z" fill="black" fill-opacity="0.35"/>
<path d="M299.252 1332.69C299.187 1332.48 299.245 1332.13 299.373 1331.96C299.467 1331.83 299.656 1331.78 299.901 1331.81C299.976 1331.82 300.191 1331.87 300.378 1331.93C301.001 1332.11 301.158 1332.11 301.483 1331.92C301.76 1331.76 301.93 1331.59 302.131 1331.25C302.281 1331 302.38 1330.87 302.481 1330.79C302.579 1330.72 303.075 1330.49 303.282 1330.42C303.472 1330.36 303.577 1330.34 303.687 1330.35C303.768 1330.36 303.79 1330.37 303.943 1330.49C304.258 1330.73 304.486 1330.97 304.601 1331.18C304.664 1331.3 304.735 1331.54 304.739 1331.66C304.745 1331.84 304.629 1332.06 304.395 1332.29C304.222 1332.47 304.058 1332.59 303.631 1332.88C303.427 1333.01 303.21 1333.16 303.149 1333.21C302.969 1333.34 302.661 1333.55 302.472 1333.67C302.233 1333.82 301.616 1334.11 301.431 1334.16C300.973 1334.3 300.653 1334.27 300.395 1334.08C300.143 1333.89 299.76 1333.5 299.558 1333.23C299.447 1333.09 299.286 1332.8 299.252 1332.69Z" fill="black" fill-opacity="0.35"/>
<path d="M113.543 895.376C114.081 895.112 114.545 894.414 114.815 893.463C115.104 892.399 114.997 889.952 114.594 888.683C113.773 886.121 112.215 884.658 111.017 885.341C110.531 885.614 110.199 886.131 109.902 887.058C109.584 888.062 109.698 890.883 110.111 892.089C110.692 893.787 111.652 895.129 112.53 895.425C113.041 895.613 113.054 895.612 113.543 895.376Z" fill="black" fill-opacity="0.35"/>
<path d="M105.39 894.964C106.104 894.617 106.78 893.333 107.032 891.808C107.253 890.446 106.989 887.945 106.505 886.855C105.787 885.239 104.99 884.527 104.06 884.684C102.671 884.914 101.765 887.171 101.918 889.991C102.034 892.124 102.65 893.77 103.662 894.635C104.161 895.061 104.901 895.2 105.39 894.964Z" fill="black" fill-opacity="0.35"/>
<path d="M120.739 892.335C120.987 892.173 121.262 891.785 121.455 891.325C121.777 890.622 121.784 890.509 121.693 888.837C121.607 887.253 121.554 886.992 121.166 885.998C119.796 882.562 117.17 881.35 116.152 883.688C114.997 886.345 116.647 891.369 119.019 892.418C119.639 892.689 120.242 892.66 120.739 892.335Z" fill="black" fill-opacity="0.35"/>
<path d="M97.9966 892.039C99.3919 891.208 100.338 888.736 100.226 886.202C100.085 882.895 98.4082 881.387 96.8044 883.115C95.1642 884.883 94.6945 889.021 95.9028 891.139C96.4431 892.089 97.2992 892.46 97.9966 892.039Z" fill="black" fill-opacity="0.35"/>
<path d="M113.546 882.68C115.247 882.273 117.477 880.452 118.127 878.932C118.619 877.807 118.231 876.35 117.057 874.855C116.71 874.397 115.5 873.192 114.389 872.169C110.693 868.783 110.084 867.749 110.081 864.859C110.076 862.395 110.62 860.568 112.171 857.866C113.311 855.872 113.813 854.697 113.953 853.715C114.093 852.757 113.737 848.559 113.378 846.925C113.064 845.414 112.778 844.652 112.278 843.963C111.903 843.456 111.731 843.364 110.312 842.832C107.384 841.735 104.821 841.208 102.909 841.3C101.857 841.351 99.8914 841.871 99.0913 842.297C97.7793 843.011 96.7363 844.65 96.0359 847.148C95.5183 848.987 95.2958 850.574 95.0097 854.54C94.8683 856.436 94.6958 858.471 94.6122 859.063C94.41 860.786 94.1803 863.662 94.1064 865.379C94.0191 867.56 94.4207 872.819 94.7816 874.253C95.6819 877.8 97.1288 879.807 99.469 880.732C101.769 881.634 105.939 882.609 108.589 882.857C110.038 883 112.645 882.911 113.546 882.68Z" fill="black" fill-opacity="0.35"/>
<path d="M204.827 1104.93C204.9 1104.63 204.764 1104.21 204.457 1103.78C204.109 1103.3 203.045 1102.52 202.376 1102.25C201.021 1101.72 199.877 1101.85 199.757 1102.56C199.706 1102.85 199.81 1103.15 200.098 1103.58C200.411 1104.05 201.634 1104.95 202.28 1105.19C203.191 1105.53 204.08 1105.6 204.503 1105.35C204.756 1105.21 204.76 1105.2 204.827 1104.93Z" fill="black" fill-opacity="0.35"/>
<path d="M201.903 1108.02C202 1107.61 201.692 1106.91 201.137 1106.3C200.641 1105.75 199.501 1105.01 198.879 1104.84C197.957 1104.58 197.387 1104.66 197.136 1105.09C196.76 1105.72 197.4 1106.84 198.635 1107.73C199.57 1108.4 200.47 1108.71 201.177 1108.6C201.526 1108.54 201.836 1108.29 201.903 1108.02Z" fill="black" fill-opacity="0.35"/>
<path d="M205.972 1101.05C205.988 1100.9 205.919 1100.66 205.792 1100.43C205.606 1100.06 205.561 1100.02 204.828 1099.5C204.134 1099 204.007 1098.93 203.458 1098.75C201.551 1098.14 200.15 1098.78 200.785 1099.97C201.507 1101.33 204.176 1102.36 205.422 1101.77C205.746 1101.61 205.939 1101.36 205.972 1101.05Z" fill="black" fill-opacity="0.35"/>
<path d="M198.174 1109.96C198.3 1109.12 197.584 1107.91 196.483 1107.1C195.047 1106.04 193.844 1106.21 194.024 1107.43C194.208 1108.68 195.785 1110.26 197.084 1110.49C197.667 1110.6 198.114 1110.38 198.174 1109.96Z" fill="black" fill-opacity="0.35"/>
<path d="M199.454 1100.61C199.862 1099.8 199.855 1098.29 199.439 1097.52C199.134 1096.95 198.391 1096.61 197.365 1096.58C197.055 1096.56 196.138 1096.64 195.331 1096.74C192.654 1097.07 192.013 1096.97 190.8 1096C189.765 1095.17 189.183 1094.34 188.577 1092.81C188.127 1091.68 187.805 1091.08 187.44 1090.7C187.087 1090.32 185.204 1089.05 184.396 1088.64C183.656 1088.26 183.239 1088.12 182.78 1088.08C182.44 1088.06 182.343 1088.1 181.637 1088.49C180.182 1089.29 179.09 1090.13 178.478 1090.93C178.142 1091.37 177.692 1092.33 177.599 1092.79C177.453 1093.55 177.786 1094.52 178.596 1095.64C179.191 1096.47 179.781 1097.09 181.348 1098.54C182.095 1099.24 182.89 1099.99 183.11 1100.23C183.765 1100.89 184.893 1101.95 185.588 1102.55C186.474 1103.32 188.817 1104.93 189.541 1105.27C191.335 1106.11 192.668 1106.21 193.852 1105.58C195.013 1104.97 196.839 1103.63 197.844 1102.65C198.396 1102.12 199.245 1101.05 199.454 1100.61Z" fill="black" fill-opacity="0.35"/>
<path d="M314.682 1178.02C314.473 1178.03 314.213 1177.88 313.967 1177.63C313.697 1177.35 313.31 1176.59 313.215 1176.13C313.025 1175.22 313.247 1174.52 313.729 1174.55C313.924 1174.55 314.113 1174.66 314.362 1174.9C314.631 1175.16 315.081 1176.04 315.162 1176.47C315.277 1177.09 315.215 1177.65 314.999 1177.88C314.876 1178.02 314.872 1178.02 314.682 1178.02Z" fill="black" fill-opacity="0.35"/>
<path d="M317.11 1176.6C316.834 1176.61 316.408 1176.32 316.069 1175.89C315.768 1175.51 315.42 1174.7 315.38 1174.29C315.321 1173.68 315.441 1173.33 315.751 1173.24C316.213 1173.09 316.875 1173.64 317.313 1174.53C317.643 1175.2 317.738 1175.8 317.579 1176.23C317.501 1176.44 317.299 1176.6 317.11 1176.6Z" fill="black" fill-opacity="0.35"/>
<path d="M311.966 1178.23C311.862 1178.22 311.712 1178.15 311.574 1178.04C311.356 1177.87 311.334 1177.84 311.075 1177.31C310.829 1176.81 310.8 1176.72 310.748 1176.35C310.574 1175.09 311.165 1174.3 311.876 1174.86C312.684 1175.49 313.045 1177.29 312.503 1177.99C312.361 1178.17 312.173 1178.25 311.966 1178.23Z" fill="black" fill-opacity="0.35"/>
<path d="M318.876 1174.53C318.309 1174.49 317.597 1173.88 317.196 1173.09C316.671 1172.05 316.923 1171.32 317.707 1171.6C318.509 1171.89 319.362 1173.08 319.358 1173.92C319.357 1174.3 319.16 1174.55 318.876 1174.53Z" fill="black" fill-opacity="0.35"/>
<path d="M312.579 1174.14C311.991 1174.28 311 1174.07 310.541 1173.7C310.199 1173.44 310.066 1172.93 310.167 1172.28C310.194 1172.09 310.355 1171.53 310.517 1171.04C311.06 1169.42 311.068 1169.01 310.573 1168.12C310.151 1167.36 309.672 1166.89 308.736 1166.3C308.047 1165.87 307.693 1165.59 307.482 1165.31C307.274 1165.03 306.662 1163.69 306.491 1163.13C306.327 1162.62 306.283 1162.34 306.317 1162.05C306.344 1161.83 306.38 1161.78 306.72 1161.39C307.423 1160.6 308.112 1160.03 308.709 1159.76C309.038 1159.61 309.725 1159.46 310.042 1159.47C310.563 1159.48 311.162 1159.82 311.804 1160.48C312.277 1160.96 312.617 1161.41 313.385 1162.58C313.754 1163.14 314.156 1163.74 314.283 1163.91C314.64 1164.41 315.204 1165.25 315.521 1165.77C315.922 1166.43 316.703 1168.1 316.839 1168.6C317.174 1169.83 317.079 1170.67 316.526 1171.33C315.981 1171.96 314.88 1172.92 314.116 1173.41C313.7 1173.68 312.892 1174.06 312.579 1174.14Z" fill="black" fill-opacity="0.35"/>
<path d="M330.692 1267.77C330.568 1267.66 330.503 1267.43 330.512 1267.14C330.525 1266.83 330.766 1266.17 330.985 1265.85C331.43 1265.21 331.98 1264.93 332.247 1265.21C332.355 1265.33 332.401 1265.49 332.401 1265.77C332.401 1266.07 332.126 1266.84 331.909 1267.14C331.604 1267.56 331.227 1267.85 330.963 1267.86C330.808 1267.88 330.804 1267.87 330.692 1267.77Z" fill="black" fill-opacity="0.35"/>
<path d="M332.962 1268.31C332.798 1268.16 332.725 1267.75 332.789 1267.32C332.846 1266.92 333.135 1266.26 333.36 1266C333.696 1265.61 333.974 1265.48 334.213 1265.59C334.571 1265.76 334.622 1266.46 334.336 1267.22C334.12 1267.8 333.81 1268.2 333.46 1268.36C333.288 1268.44 333.074 1268.42 332.962 1268.31Z" fill="black" fill-opacity="0.35"/>
<path d="M328.982 1266.36C328.929 1266.3 328.888 1266.17 328.875 1266.03C328.848 1265.81 328.856 1265.78 329.026 1265.33C329.186 1264.9 329.223 1264.83 329.415 1264.59C330.085 1263.75 330.904 1263.62 330.979 1264.35C331.063 1265.17 330.179 1266.42 329.443 1266.52C329.251 1266.55 329.09 1266.49 328.982 1266.36Z" fill="black" fill-opacity="0.35"/>
<path d="M335.236 1268.1C334.928 1267.76 334.885 1267.01 335.135 1266.32C335.459 1265.42 336.046 1265.14 336.332 1265.74C336.625 1266.36 336.395 1267.53 335.883 1268.02C335.654 1268.24 335.389 1268.27 335.236 1268.1Z" fill="black" fill-opacity="0.35"/>
<path d="M331.772 1264.31C331.344 1264.07 330.896 1263.39 330.85 1262.92C330.814 1262.57 331.046 1262.2 331.495 1261.89C331.628 1261.79 332.062 1261.55 332.453 1261.36C333.751 1260.72 334.006 1260.48 334.257 1259.69C334.472 1259.01 334.482 1258.47 334.294 1257.6C334.157 1256.96 334.122 1256.6 334.169 1256.32C334.214 1256.05 334.675 1254.92 334.914 1254.5C335.13 1254.11 335.274 1253.92 335.469 1253.77C335.615 1253.66 335.67 1253.65 336.102 1253.62C336.993 1253.55 337.736 1253.6 338.248 1253.78C338.53 1253.88 339.019 1254.18 339.2 1254.36C339.495 1254.66 339.637 1255.19 339.611 1255.93C339.592 1256.48 339.515 1256.93 339.25 1258.04C339.124 1258.57 338.995 1259.15 338.966 1259.32C338.872 1259.81 338.685 1260.62 338.557 1261.09C338.392 1261.7 337.827 1263.11 337.605 1263.48C337.053 1264.38 336.485 1264.82 335.769 1264.89C335.065 1264.96 333.847 1264.9 333.104 1264.75C332.698 1264.68 331.997 1264.45 331.772 1264.31Z" fill="black" fill-opacity="0.35"/>
<path d="M307.288 1324.15C307.247 1324.07 307.255 1323.95 307.309 1323.81C307.371 1323.66 307.607 1323.37 307.77 1323.25C308.102 1323.01 308.422 1322.97 308.504 1323.16C308.538 1323.23 308.53 1323.32 308.482 1323.46C308.429 1323.61 308.158 1323.94 307.999 1324.05C307.774 1324.2 307.537 1324.28 307.405 1324.24C307.326 1324.22 307.325 1324.22 307.288 1324.15Z" fill="black" fill-opacity="0.35"/>
<path d="M308.317 1324.81C308.263 1324.7 308.298 1324.49 308.407 1324.29C308.504 1324.1 308.764 1323.82 308.922 1323.73C309.155 1323.6 309.316 1323.58 309.413 1323.68C309.559 1323.83 309.463 1324.18 309.187 1324.5C308.979 1324.75 308.755 1324.9 308.555 1324.91C308.456 1324.92 308.354 1324.88 308.317 1324.81Z" fill="black" fill-opacity="0.35"/>
<path d="M306.693 1323.16C306.678 1323.12 306.68 1323.05 306.699 1322.98C306.724 1322.86 306.733 1322.85 306.896 1322.66C307.051 1322.47 307.081 1322.45 307.218 1322.36C307.696 1322.06 308.121 1322.14 308.031 1322.51C307.927 1322.93 307.272 1323.39 306.892 1323.32C306.793 1323.3 306.723 1323.24 306.693 1323.16Z" fill="black" fill-opacity="0.35"/>
<path d="M309.485 1325.09C309.393 1324.87 309.504 1324.49 309.748 1324.19C310.066 1323.81 310.405 1323.77 310.44 1324.11C310.476 1324.47 310.156 1325.01 309.818 1325.16C309.667 1325.23 309.53 1325.2 309.485 1325.09Z" fill="black" fill-opacity="0.35"/>
<path d="M308.453 1322.62C308.283 1322.43 308.18 1322.01 308.241 1321.77C308.285 1321.59 308.467 1321.45 308.747 1321.37C308.831 1321.34 309.09 1321.3 309.319 1321.27C310.08 1321.18 310.25 1321.1 310.516 1320.75C310.744 1320.45 310.846 1320.18 310.907 1319.72C310.952 1319.37 310.999 1319.19 311.073 1319.06C311.144 1318.93 311.574 1318.45 311.768 1318.28C311.946 1318.12 312.051 1318.05 312.175 1318.01C312.267 1317.98 312.297 1317.98 312.518 1318.04C312.975 1318.16 313.335 1318.32 313.559 1318.5C313.683 1318.59 313.874 1318.83 313.932 1318.95C314.025 1319.15 314.001 1319.44 313.856 1319.8C313.749 1320.07 313.63 1320.28 313.299 1320.79C313.142 1321.04 312.975 1321.3 312.931 1321.38C312.797 1321.61 312.559 1321.98 312.41 1322.19C312.22 1322.47 311.686 1323.07 311.51 1323.22C311.074 1323.57 310.713 1323.69 310.343 1323.6C309.981 1323.51 309.384 1323.27 309.039 1323.07C308.85 1322.97 308.541 1322.73 308.453 1322.62Z" fill="black" fill-opacity="0.35"/>
<path d="M218.058 617.936C216.572 617.927 214.744 616.879 213.044 615.065C211.169 613.021 208.551 607.502 207.953 604.268C206.761 597.732 208.464 592.839 211.881 593.072C213.265 593.158 214.594 593.946 216.325 595.678C218.192 597.556 221.231 603.913 221.735 607.017C222.444 611.388 221.908 615.376 220.332 616.964C219.432 617.925 219.403 617.937 218.058 617.936Z" fill="black" fill-opacity="0.4"/>
<path d="M235.551 608.231C233.583 608.225 230.607 606.109 228.277 603.006C226.204 600.234 223.865 594.425 223.652 591.502C223.338 587.165 224.252 584.742 226.471 584.099C229.779 583.126 234.395 587.149 237.348 593.542C239.583 598.379 240.154 602.674 238.948 605.662C238.354 607.135 236.896 608.232 235.551 608.231Z" fill="black" fill-opacity="0.4"/>
<path d="M198.709 618.994C197.976 618.9 196.921 618.335 195.96 617.525C194.434 616.313 194.288 616.071 192.535 612.279C190.875 608.685 190.686 608.054 190.376 605.441C189.365 596.386 193.698 590.909 198.655 594.993C204.285 599.636 206.538 612.498 202.569 617.345C201.529 618.603 200.175 619.181 198.709 618.994Z" fill="black" fill-opacity="0.4"/>
<path d="M248.466 593.811C244.443 593.463 239.489 589.008 236.777 583.289C233.227 575.829 235.138 570.71 240.664 572.821C246.316 574.979 252.172 583.623 251.999 589.592C251.924 592.266 250.484 593.999 248.466 593.811Z" fill="black" fill-opacity="0.4"/>
<path d="M203.789 589.958C199.589 590.871 192.583 589.221 189.385 586.555C186.995 584.594 186.143 580.96 186.97 576.405C187.194 575.022 188.437 571.068 189.674 567.626C193.812 556.202 193.939 553.267 190.572 546.878C187.708 541.426 184.384 537.966 177.835 533.648C173.014 530.455 170.543 528.393 169.091 526.37C167.665 524.404 163.546 514.745 162.425 510.751C161.348 507.077 161.084 505.089 161.376 503.033C161.605 501.512 161.874 501.126 164.358 498.438C169.487 492.893 174.482 488.997 178.775 487.164C181.137 486.155 186.047 485.21 188.296 485.3C192.001 485.479 196.197 487.99 200.646 492.765C203.925 496.278 206.264 499.548 211.52 508.011C214.042 512.05 216.794 516.363 217.668 517.583C220.122 521.177 223.981 527.288 226.147 531.005C228.884 535.732 234.143 547.784 235.027 551.338C237.195 560.136 236.37 566.113 232.328 570.652C228.346 575.098 220.357 581.696 214.843 585.067C211.839 586.926 206.031 589.509 203.789 589.958Z" fill="black" fill-opacity="0.4"/>
<path d="M214.229 753.617C213.187 753.04 212.296 751.607 211.784 749.689C211.235 747.544 211.472 742.69 212.269 740.207C213.89 735.193 216.93 732.437 219.244 733.913C220.185 734.505 220.823 735.564 221.388 737.437C221.994 739.464 221.738 745.062 220.924 747.419C219.777 750.739 217.899 753.313 216.194 753.814C215.199 754.137 215.174 754.135 214.229 753.617Z" fill="black" fill-opacity="0.4"/>
<path d="M230.241 753.508C228.86 752.748 227.564 750.129 227.094 747.071C226.679 744.342 227.221 739.394 228.172 737.275C229.583 734.131 231.138 732.794 232.941 733.198C235.633 733.791 237.364 738.37 237.034 743.961C236.784 748.191 235.569 751.404 233.597 753.023C232.624 753.822 231.186 754.026 230.241 753.508Z" fill="black" fill-opacity="0.4"/>
<path d="M200.21 746.973C199.729 746.626 199.2 745.826 198.829 744.893C198.212 743.462 198.201 743.236 198.395 739.92C198.58 736.777 198.685 736.264 199.451 734.324C202.148 727.624 207.259 725.473 209.208 730.225C211.42 735.625 208.163 745.456 203.546 747.308C202.341 747.785 201.171 747.667 200.21 746.973Z" fill="black" fill-opacity="0.4"/>
<path d="M244.822 748.364C242.124 746.575 240.317 741.565 240.563 736.537C240.875 729.973 244.145 727.14 247.237 730.735C250.4 734.412 251.264 742.688 248.895 746.781C247.836 748.616 246.171 749.27 244.822 748.364Z" fill="black" fill-opacity="0.4"/>
<path d="M215.055 728.582C211.756 727.604 207.449 723.761 206.203 720.673C205.26 718.388 206.03 715.527 208.326 712.671C209.004 711.793 211.367 709.516 213.534 707.592C220.745 701.22 221.939 699.224 221.977 693.477C222.014 688.576 220.979 684.887 217.998 679.36C215.808 675.282 214.847 672.895 214.587 670.927C214.324 669.008 215.063 660.692 215.778 657.478C216.403 654.503 216.967 653.016 217.946 651.696C218.679 650.724 219.014 650.558 221.773 649.64C227.469 647.747 232.45 646.952 236.159 647.325C238.201 647.53 242.011 648.758 243.559 649.686C246.098 651.235 248.104 654.598 249.436 659.636C250.42 663.345 250.834 666.523 251.345 674.442C251.599 678.226 251.911 682.291 252.066 683.477C252.44 686.925 252.854 692.667 252.978 696.091C253.123 700.437 252.285 710.859 251.569 713.675C249.782 720.641 246.951 724.489 242.399 726.099C237.924 727.666 229.82 729.193 224.672 729.423C221.859 729.564 216.801 729.131 215.055 728.582Z" fill="black" fill-opacity="0.4"/>
<path d="M163.279 880.789C162.646 880.287 162.245 879.225 162.179 877.877C162.121 876.372 163.012 873.128 163.934 871.541C165.805 868.339 168.318 866.813 169.696 868.059C170.257 868.56 170.539 869.343 170.649 870.666C170.764 872.098 169.749 875.842 168.833 877.341C167.544 879.453 165.861 880.983 164.607 881.135C163.872 881.245 163.855 881.241 163.279 880.789Z" fill="black" fill-opacity="0.4"/>
<path d="M174.286 882.536C173.446 881.874 172.943 879.969 173.076 877.857C173.199 875.974 174.315 872.699 175.289 871.375C176.735 869.41 178.009 868.678 179.194 869.147C180.965 869.839 181.475 873.111 180.409 876.842C179.603 879.665 178.282 881.698 176.677 882.574C175.886 883.006 174.862 882.988 174.286 882.536Z" fill="black" fill-opacity="0.4"/>
<path d="M154.593 874.705C154.313 874.419 154.068 873.823 153.952 873.154C153.74 872.123 153.766 871.97 154.398 869.757C154.997 867.66 155.147 867.326 155.967 866.103C158.836 861.882 162.689 860.987 163.322 864.4C164.04 868.277 160.314 874.546 156.847 875.292C155.943 875.483 155.152 875.277 154.593 874.705Z" fill="black" fill-opacity="0.4"/>
<path d="M185.033 880.712C183.437 879.214 182.94 875.642 183.864 872.282C185.063 867.893 187.747 866.34 189.344 869.098C190.977 871.918 190.333 877.587 188.083 880.088C187.076 881.209 185.828 881.469 185.033 880.712Z" fill="black" fill-opacity="0.4"/>
<path d="M167.067 863.924C164.936 862.907 162.537 859.851 162.14 857.636C161.832 855.995 162.793 854.151 164.808 852.476C165.408 851.958 167.382 850.68 169.167 849.62C175.105 846.11 176.229 844.895 177.117 841.027C177.879 837.73 177.717 835.133 176.488 831.086C175.588 828.101 175.282 826.389 175.397 825.035C175.504 823.715 177.262 818.193 178.239 816.105C179.117 814.169 179.729 813.229 180.604 812.445C181.256 811.87 181.513 811.795 183.556 811.476C187.775 810.818 191.334 810.823 193.841 811.476C195.22 811.836 197.667 813.077 198.598 813.869C200.119 815.188 201 817.671 201.163 821.21C201.287 823.815 201.096 826.001 200.26 831.39C199.867 833.967 199.473 836.739 199.402 837.554C199.143 839.918 198.567 843.831 198.139 846.15C197.587 849.094 195.444 856.023 194.526 857.842C192.247 862.341 189.714 864.626 186.328 865.217C183.001 865.787 177.175 865.937 173.584 865.534C171.62 865.323 168.191 864.483 167.067 863.924Z" fill="black" fill-opacity="0.4"/>
<path d="M215.462 1080.33C215.034 1080.41 214.446 1080.22 213.851 1079.79C213.192 1079.31 212.117 1077.87 211.757 1076.97C211.033 1075.16 211.238 1073.65 212.235 1073.53C212.639 1073.47 213.067 1073.62 213.666 1074.02C214.313 1074.46 215.559 1076.11 215.884 1076.98C216.343 1078.2 216.421 1079.38 216.06 1079.92C215.857 1080.25 215.849 1080.26 215.462 1080.33Z" fill="black" fill-opacity="0.4"/>
<path d="M219.912 1076.57C219.345 1076.68 218.365 1076.24 217.513 1075.48C216.755 1074.8 215.743 1073.26 215.511 1072.43C215.168 1071.2 215.29 1070.45 215.892 1070.14C216.787 1069.67 218.351 1070.56 219.573 1072.24C220.498 1073.5 220.913 1074.71 220.74 1075.63C220.655 1076.09 220.299 1076.49 219.912 1076.57Z" fill="black" fill-opacity="0.4"/>
<path d="M209.963 1081.72C209.747 1081.73 209.41 1081.63 209.087 1081.45C208.577 1081.19 208.521 1081.12 207.795 1080.13C207.108 1079.19 207.017 1079.02 206.776 1078.29C205.957 1075.74 206.885 1073.92 208.55 1074.81C210.44 1075.83 211.838 1079.4 210.978 1081.02C210.752 1081.44 210.396 1081.69 209.963 1081.72Z" fill="black" fill-opacity="0.4"/>
<path d="M222.768 1071.7C221.589 1071.83 219.904 1070.83 218.79 1069.34C217.334 1067.39 217.585 1065.81 219.299 1066.1C221.052 1066.4 223.241 1068.56 223.539 1070.29C223.673 1071.06 223.359 1071.64 222.768 1071.7Z" fill="black" fill-opacity="0.4"/>
<path d="M209.649 1073.1C208.493 1073.6 206.381 1073.53 205.306 1072.94C204.504 1072.51 204.047 1071.51 204.02 1070.16C204.003 1069.75 204.131 1068.54 204.286 1067.48C204.812 1063.95 204.677 1063.1 203.336 1061.45C202.194 1060.05 201.036 1059.24 198.9 1058.37C197.327 1057.73 196.496 1057.27 195.96 1056.77C195.435 1056.29 193.687 1053.74 193.132 1052.66C192.608 1051.66 192.416 1051.1 192.38 1050.49C192.358 1050.04 192.413 1049.92 192.971 1049C194.124 1047.12 195.335 1045.71 196.463 1044.94C197.084 1044.52 198.442 1043.97 199.095 1043.86C200.171 1043.7 201.525 1044.19 203.083 1045.31C204.232 1046.14 205.095 1046.94 207.101 1049.08C208.062 1050.1 209.105 1051.19 209.428 1051.49C210.343 1052.38 211.81 1053.92 212.65 1054.87C213.712 1056.07 215.928 1059.24 216.389 1060.21C217.526 1062.62 217.637 1064.39 216.738 1065.93C215.851 1067.43 213.936 1069.78 212.545 1071.07C211.789 1071.77 210.268 1072.85 209.649 1073.1Z" fill="black" fill-opacity="0.4"/>
<path d="M296.958 1181.46C297.069 1181.2 297.015 1180.81 296.811 1180.39C296.577 1179.91 295.761 1179.06 295.212 1178.72C294.101 1178.04 293.073 1177.98 292.857 1178.59C292.768 1178.83 292.812 1179.12 292.999 1179.54C293.203 1180 294.141 1180.99 294.673 1181.3C295.423 1181.74 296.196 1181.94 296.607 1181.78C296.852 1181.7 296.857 1181.69 296.958 1181.46Z" fill="black" fill-opacity="0.4"/>
<path d="M293.884 1183.74C294.031 1183.41 293.868 1182.74 293.474 1182.11C293.122 1181.55 292.232 1180.73 291.711 1180.48C290.937 1180.11 290.423 1180.09 290.137 1180.43C289.707 1180.93 290.097 1182.01 291.048 1182.99C291.768 1183.72 292.514 1184.13 293.154 1184.14C293.47 1184.15 293.782 1183.98 293.884 1183.74Z" fill="black" fill-opacity="0.4"/>
<path d="M298.589 1178.21C298.627 1178.08 298.603 1177.86 298.527 1177.63C298.42 1177.28 298.387 1177.24 297.823 1176.66C297.288 1176.11 297.187 1176.03 296.73 1175.79C295.143 1174.96 293.809 1175.31 294.184 1176.46C294.611 1177.77 296.803 1179.09 297.994 1178.76C298.304 1178.67 298.512 1178.48 298.589 1178.21Z" fill="black" fill-opacity="0.4"/>
<path d="M290.282 1184.9C290.523 1184.18 290.079 1183 289.234 1182.12C288.132 1180.97 287.047 1180.92 287.016 1182.03C286.985 1183.16 288.129 1184.8 289.239 1185.2C289.736 1185.38 290.164 1185.26 290.282 1184.9Z" fill="black" fill-opacity="0.4"/>
<path d="M292.913 1176.87C293.399 1176.21 293.626 1174.88 293.379 1174.14C293.199 1173.59 292.596 1173.17 291.697 1172.99C291.426 1172.92 290.605 1172.85 289.879 1172.81C287.467 1172.7 286.918 1172.51 285.999 1171.46C285.214 1170.57 284.831 1169.75 284.533 1168.31C284.311 1167.24 284.12 1166.67 283.858 1166.27C283.605 1165.88 282.142 1164.47 281.493 1163.99C280.9 1163.54 280.554 1163.35 280.155 1163.25C279.858 1163.17 279.767 1163.19 279.085 1163.43C277.678 1163.91 276.584 1164.48 275.922 1165.09C275.558 1165.42 275.012 1166.2 274.858 1166.59C274.611 1167.25 274.755 1168.15 275.295 1169.26C275.692 1170.08 276.116 1170.72 277.272 1172.25C277.824 1172.97 278.408 1173.76 278.566 1174C279.04 1174.68 279.871 1175.79 280.389 1176.44C281.051 1177.25 282.867 1179.03 283.453 1179.44C284.905 1180.46 286.066 1180.75 287.205 1180.38C288.324 1180.02 290.141 1179.12 291.178 1178.42C291.747 1178.03 292.661 1177.22 292.913 1176.87Z" fill="black" fill-opacity="0.4"/>
<path d="M318.309 1259.78C318.528 1259.69 318.732 1259.43 318.869 1259.07C319.017 1258.66 319.055 1257.71 318.94 1257.2C318.704 1256.18 318.143 1255.56 317.653 1255.79C317.454 1255.89 317.307 1256.08 317.161 1256.43C317.004 1256.81 316.956 1257.92 317.077 1258.4C317.248 1259.08 317.579 1259.63 317.912 1259.77C318.106 1259.86 318.111 1259.86 318.309 1259.78Z" fill="black" fill-opacity="0.4"/>
<path d="M315.143 1259.38C315.434 1259.26 315.74 1258.78 315.888 1258.19C316.02 1257.67 315.999 1256.69 315.846 1256.25C315.618 1255.6 315.33 1255.3 314.962 1255.33C314.412 1255.38 313.984 1256.23 313.951 1257.34C313.926 1258.17 314.113 1258.83 314.479 1259.2C314.66 1259.38 314.945 1259.45 315.143 1259.38Z" fill="black" fill-opacity="0.4"/>
<path d="M321.212 1258.81C321.315 1258.75 321.435 1258.61 321.525 1258.43C321.674 1258.17 321.681 1258.12 321.7 1257.47C321.719 1256.85 321.707 1256.75 321.588 1256.35C321.166 1254.97 320.18 1254.42 319.706 1255.3C319.168 1256.3 319.646 1258.31 320.538 1258.79C320.771 1258.91 321.007 1258.92 321.212 1258.81Z" fill="black" fill-opacity="0.4"/>
<path d="M312.351 1258.02C312.923 1257.73 313.374 1256.8 313.414 1255.81C313.467 1254.51 312.862 1253.88 312.179 1254.5C311.481 1255.14 311.161 1256.74 311.563 1257.6C311.743 1257.99 312.065 1258.16 312.351 1258.02Z" fill="black" fill-opacity="0.4"/>
<path d="M318.687 1254.82C319.365 1254.71 320.295 1254.06 320.6 1253.49C320.829 1253.07 320.726 1252.49 320.317 1251.87C320.197 1251.68 319.764 1251.18 319.365 1250.75C318.034 1249.32 317.831 1248.9 317.925 1247.77C318.005 1246.81 318.278 1246.11 318.973 1245.11C319.484 1244.36 319.719 1243.92 319.807 1243.54C319.893 1243.17 319.893 1241.52 319.807 1240.88C319.735 1240.28 319.649 1239.97 319.476 1239.69C319.347 1239.48 319.282 1239.44 318.746 1239.19C317.639 1238.68 316.656 1238.4 315.907 1238.38C315.494 1238.37 314.71 1238.52 314.383 1238.66C313.847 1238.9 313.385 1239.51 313.029 1240.46C312.766 1241.16 312.627 1241.78 312.383 1243.31C312.265 1244.05 312.13 1244.84 312.078 1245.07C311.942 1245.73 311.757 1246.85 311.671 1247.51C311.565 1248.36 311.547 1250.42 311.64 1250.99C311.874 1252.4 312.372 1253.22 313.255 1253.65C314.124 1254.07 315.719 1254.57 316.746 1254.74C317.307 1254.84 318.327 1254.88 318.687 1254.82Z" fill="black" fill-opacity="0.4"/>
<path d="M302.56 1318.09C302.684 1318.08 302.832 1317.99 302.966 1317.83C303.114 1317.65 303.309 1317.18 303.345 1316.91C303.416 1316.36 303.253 1315.96 302.969 1315.99C302.854 1316.01 302.747 1316.08 302.61 1316.23C302.462 1316.39 302.236 1316.93 302.207 1317.19C302.167 1317.56 302.228 1317.89 302.367 1318.02C302.446 1318.09 302.448 1318.1 302.56 1318.09Z" fill="black" fill-opacity="0.4"/>
<path d="M301.06 1317.35C301.224 1317.34 301.463 1317.15 301.644 1316.89C301.805 1316.65 301.976 1316.15 301.981 1315.91C301.989 1315.55 301.902 1315.35 301.714 1315.3C301.434 1315.24 301.067 1315.59 300.848 1316.13C300.682 1316.55 300.653 1316.91 300.766 1317.15C300.822 1317.27 300.948 1317.36 301.06 1317.35Z" fill="black" fill-opacity="0.4"/>
<path d="M304.178 1318.1C304.239 1318.09 304.324 1318.04 304.401 1317.97C304.523 1317.86 304.534 1317.84 304.664 1317.51C304.787 1317.21 304.8 1317.15 304.815 1316.94C304.861 1316.18 304.476 1315.74 304.08 1316.1C303.631 1316.51 303.498 1317.59 303.849 1317.98C303.941 1318.08 304.057 1318.12 304.178 1318.1Z" fill="black" fill-opacity="0.4"/>
<path d="M299.919 1316.2C300.253 1316.16 300.647 1315.76 300.849 1315.28C301.113 1314.64 300.932 1314.22 300.481 1314.42C300.018 1314.62 299.567 1315.37 299.607 1315.86C299.625 1316.09 299.752 1316.22 299.919 1316.2Z" fill="black" fill-opacity="0.4"/>
<path d="M303.625 1315.69C303.979 1315.75 304.556 1315.59 304.812 1315.35C305.003 1315.18 305.058 1314.87 304.97 1314.5C304.945 1314.38 304.825 1314.06 304.707 1313.78C304.314 1312.84 304.291 1312.6 304.544 1312.05C304.76 1311.59 305.023 1311.28 305.55 1310.9C305.939 1310.61 306.136 1310.43 306.249 1310.25C306.359 1310.09 306.662 1309.26 306.738 1308.93C306.813 1308.62 306.826 1308.45 306.793 1308.28C306.768 1308.15 306.744 1308.12 306.525 1307.91C306.074 1307.47 305.641 1307.16 305.275 1307.03C305.074 1306.95 304.66 1306.89 304.473 1306.91C304.165 1306.94 303.825 1307.17 303.475 1307.58C303.216 1307.89 303.035 1308.17 302.633 1308.9C302.439 1309.24 302.228 1309.62 302.16 1309.72C301.971 1310.03 301.675 1310.56 301.51 1310.87C301.302 1311.28 300.914 1312.3 300.856 1312.6C300.712 1313.35 300.806 1313.84 301.163 1314.2C301.514 1314.56 302.208 1315.07 302.682 1315.33C302.941 1315.47 303.436 1315.67 303.625 1315.69Z" fill="black" fill-opacity="0.4"/>
<path d="M185.839 1018.37C185.344 1018.48 184.652 1018.28 183.943 1017.81C183.157 1017.27 181.847 1015.64 181.391 1014.61C180.475 1012.53 180.652 1010.78 181.806 1010.59C182.273 1010.51 182.778 1010.67 183.491 1011.11C184.262 1011.59 185.778 1013.46 186.192 1014.46C186.776 1015.85 186.915 1017.22 186.517 1017.87C186.294 1018.26 186.286 1018.27 185.839 1018.37Z" fill="black" fill-opacity="0.4"/>
<path d="M190.854 1013.81C190.199 1013.97 189.041 1013.49 188.02 1012.64C187.11 1011.88 185.87 1010.14 185.567 1009.18C185.117 1007.76 185.228 1006.89 185.915 1006.5C186.938 1005.92 188.792 1006.9 190.283 1008.79C191.411 1010.23 191.942 1011.61 191.779 1012.7C191.699 1013.23 191.301 1013.71 190.854 1013.81Z" fill="black" fill-opacity="0.4"/>
<path d="M179.503 1020.2C179.252 1020.22 178.856 1020.12 178.472 1019.92C177.869 1019.64 177.801 1019.57 176.917 1018.44C176.079 1017.38 175.966 1017.18 175.655 1016.34C174.599 1013.41 175.603 1011.25 177.576 1012.22C179.816 1013.33 181.588 1017.43 180.655 1019.35C180.409 1019.85 180.005 1020.14 179.503 1020.2Z" fill="black" fill-opacity="0.4"/>
<path d="M193.967 1008.04C192.603 1008.24 190.601 1007.15 189.245 1005.46C187.471 1003.25 187.699 1001.4 189.704 1001.68C191.755 1001.95 194.389 1004.37 194.806 1006.37C194.994 1007.26 194.653 1007.95 193.967 1008.04Z" fill="black" fill-opacity="0.4"/>
<path d="M178.763 1010.2C177.44 1010.83 174.98 1010.82 173.705 1010.18C172.755 1009.72 172.183 1008.58 172.096 1007C172.06 1006.52 172.158 1005.11 172.296 1003.87C172.762 999.754 172.571 998.769 170.944 996.908C169.558 995.319 168.178 994.428 165.658 993.502C163.802 992.816 162.817 992.323 162.173 991.763C161.543 991.221 159.406 988.331 158.715 987.091C158.065 985.954 157.819 985.314 157.753 984.608C157.708 984.085 157.767 983.936 158.378 982.85C159.642 980.608 160.992 978.926 162.273 977.983C162.978 977.464 164.534 976.768 165.289 976.623C166.535 976.395 168.129 976.903 169.987 978.144C171.357 979.056 172.394 979.961 174.814 982.365C175.974 983.511 177.232 984.73 177.619 985.067C178.721 986.071 180.489 987.802 181.505 988.868C182.79 990.226 185.497 993.823 186.073 994.935C187.494 997.69 187.695 999.74 186.713 1001.56C185.743 1003.35 183.613 1006.16 182.048 1007.71C181.198 1008.56 179.473 1009.87 178.763 1010.2Z" fill="black" fill-opacity="0.4"/>
<path d="M281.081 1117.81C280.962 1118.05 280.643 1118.25 280.206 1118.38C279.718 1118.51 278.592 1118.48 278.007 1118.31C276.825 1117.97 276.147 1117.3 276.456 1116.78C276.58 1116.57 276.817 1116.42 277.242 1116.28C277.703 1116.14 279.001 1116.17 279.557 1116.34C280.34 1116.58 280.961 1116.99 281.1 1117.37C281.189 1117.59 281.188 1117.6 281.081 1117.81Z" fill="black" fill-opacity="0.4"/>
<path d="M280.852 1114.29C280.695 1114.6 280.107 1114.91 279.406 1115.02C278.781 1115.13 277.629 1115.03 277.126 1114.83C276.38 1114.53 276.05 1114.18 276.119 1113.78C276.219 1113.17 277.254 1112.77 278.552 1112.82C279.533 1112.85 280.293 1113.11 280.694 1113.54C280.892 1113.76 280.959 1114.08 280.852 1114.29Z" fill="black" fill-opacity="0.4"/>
<path d="M279.714 1120.94C279.641 1121.05 279.463 1121.17 279.252 1121.26C278.93 1121.4 278.878 1121.4 278.108 1121.37C277.379 1121.35 277.26 1121.33 276.801 1121.16C275.216 1120.59 274.65 1119.46 275.722 1119C276.94 1118.49 279.257 1119.17 279.747 1120.19C279.873 1120.46 279.862 1120.72 279.714 1120.94Z" fill="black" fill-opacity="0.4"/>
<path d="M279.468 1111.11C279.092 1111.72 277.958 1112.15 276.792 1112.12C275.27 1112.08 274.571 1111.36 275.36 1110.65C276.167 1109.93 278.068 1109.7 279.047 1110.21C279.486 1110.44 279.66 1110.81 279.468 1111.11Z" fill="black" fill-opacity="0.4"/>
<path d="M275.216 1117.87C275.035 1118.61 274.206 1119.59 273.509 1119.88C272.994 1120.1 272.322 1119.94 271.631 1119.44C271.419 1119.3 270.86 1118.78 270.386 1118.3C268.814 1116.72 268.337 1116.46 267.008 1116.48C265.875 1116.49 265.036 1116.74 263.799 1117.43C262.887 1117.94 262.348 1118.16 261.897 1118.23C261.457 1118.3 259.525 1118.17 258.772 1118.02C258.076 1117.89 257.725 1117.78 257.406 1117.56C257.171 1117.4 257.129 1117.33 256.879 1116.72C256.363 1115.45 256.111 1114.34 256.147 1113.51C256.166 1113.06 256.398 1112.2 256.591 1111.85C256.915 1111.28 257.664 1110.81 258.811 1110.49C259.654 1110.26 260.383 1110.15 262.207 1110C263.078 1109.93 264.013 1109.84 264.285 1109.8C265.077 1109.7 266.398 1109.58 267.188 1109.54C268.19 1109.49 270.611 1109.63 271.271 1109.78C272.906 1110.15 273.834 1110.76 274.268 1111.77C274.692 1112.77 275.155 1114.57 275.279 1115.72C275.35 1116.35 275.319 1117.48 275.216 1117.87Z" fill="black" fill-opacity="0.4"/>
<path d="M313.38 1227.17C313.551 1227.13 313.728 1226.95 313.866 1226.7C314.017 1226.41 314.144 1225.7 314.111 1225.32C314.042 1224.53 313.693 1224.02 313.308 1224.15C313.152 1224.2 313.024 1224.33 312.88 1224.58C312.725 1224.85 312.576 1225.66 312.615 1226.03C312.671 1226.55 312.858 1226.99 313.089 1227.13C313.222 1227.21 313.226 1227.21 313.38 1227.17Z" fill="black" fill-opacity="0.4"/>
<path d="M311.073 1226.57C311.299 1226.52 311.574 1226.19 311.744 1225.76C311.894 1225.39 311.98 1224.66 311.913 1224.32C311.813 1223.81 311.632 1223.56 311.357 1223.55C310.947 1223.54 310.543 1224.13 310.405 1224.95C310.301 1225.57 310.37 1226.07 310.602 1226.38C310.717 1226.53 310.919 1226.61 311.073 1226.57Z" fill="black" fill-opacity="0.4"/>
<path d="M315.63 1226.72C315.711 1226.69 315.814 1226.6 315.899 1226.48C316.036 1226.29 316.045 1226.26 316.127 1225.78C316.205 1225.32 316.207 1225.24 316.16 1224.93C315.992 1223.87 315.322 1223.37 314.882 1223.98C314.381 1224.68 314.527 1226.21 315.135 1226.65C315.294 1226.76 315.467 1226.79 315.63 1226.72Z" fill="black" fill-opacity="0.4"/>
<path d="M309.144 1225.3C309.594 1225.15 310.023 1224.49 310.155 1223.76C310.328 1222.8 309.947 1222.28 309.379 1222.68C308.799 1223.09 308.398 1224.25 308.606 1224.93C308.698 1225.23 308.918 1225.38 309.144 1225.3Z" fill="black" fill-opacity="0.4"/>
<path d="M314.128 1223.53C314.639 1223.51 315.392 1223.12 315.676 1222.72C315.889 1222.42 315.873 1221.98 315.635 1221.49C315.566 1221.34 315.299 1220.92 315.049 1220.57C314.216 1219.38 314.11 1219.05 314.296 1218.23C314.454 1217.52 314.728 1217.03 315.344 1216.34C315.798 1215.84 316.017 1215.53 316.12 1215.25C316.223 1214.99 316.393 1213.77 316.397 1213.28C316.405 1212.83 316.373 1212.59 316.275 1212.37C316.201 1212.2 316.158 1212.16 315.789 1211.93C315.026 1211.45 314.33 1211.15 313.78 1211.06C313.477 1211.02 312.884 1211.05 312.628 1211.13C312.208 1211.26 311.805 1211.67 311.444 1212.34C311.177 1212.84 311.011 1213.28 310.673 1214.4C310.51 1214.94 310.329 1215.51 310.267 1215.68C310.097 1216.16 309.846 1216.97 309.713 1217.46C309.547 1218.08 309.321 1219.61 309.331 1220.04C309.357 1221.1 309.639 1221.76 310.246 1222.16C310.842 1222.55 311.967 1223.07 312.705 1223.29C313.109 1223.42 313.857 1223.54 314.128 1223.53Z" fill="black" fill-opacity="0.4"/>
<path d="M300.389 1295.67C300.516 1295.74 300.723 1295.74 300.957 1295.67C301.218 1295.59 301.713 1295.25 301.924 1295.01C302.348 1294.51 302.446 1294.01 302.144 1293.87C302.022 1293.81 301.87 1293.81 301.638 1293.87C301.386 1293.94 300.813 1294.33 300.617 1294.57C300.341 1294.9 300.189 1295.27 300.244 1295.48C300.273 1295.6 300.275 1295.61 300.389 1295.67Z" fill="black" fill-opacity="0.4"/>
<path d="M299.405 1294.02C299.572 1294.12 299.929 1294.08 300.281 1293.93C300.594 1293.8 301.08 1293.42 301.243 1293.19C301.484 1292.83 301.526 1292.58 301.369 1292.42C301.137 1292.18 300.545 1292.29 299.978 1292.69C299.549 1292.99 299.288 1293.33 299.243 1293.64C299.221 1293.79 299.29 1293.96 299.405 1294.02Z" fill="black" fill-opacity="0.4"/>
<path d="M301.971 1296.68C302.038 1296.71 302.156 1296.71 302.277 1296.69C302.467 1296.66 302.491 1296.65 302.827 1296.41C303.146 1296.19 303.193 1296.15 303.348 1295.94C303.882 1295.22 303.785 1294.55 303.162 1294.65C302.455 1294.77 301.628 1295.75 301.725 1296.35C301.751 1296.51 301.838 1296.63 301.971 1296.68Z" fill="black" fill-opacity="0.4"/>
<path d="M299.042 1292.19C299.401 1292.36 300.042 1292.22 300.555 1291.87C301.225 1291.41 301.316 1290.88 300.743 1290.79C300.156 1290.7 299.231 1291.15 298.951 1291.66C298.825 1291.89 298.862 1292.11 299.042 1292.19Z" fill="black" fill-opacity="0.4"/>
<path d="M303.056 1294C303.368 1294.28 304.044 1294.48 304.447 1294.41C304.747 1294.36 304.998 1294.1 305.153 1293.67C305.203 1293.54 305.293 1293.15 305.358 1292.8C305.572 1291.63 305.706 1291.37 306.307 1290.99C306.82 1290.67 307.273 1290.54 308.042 1290.5C308.609 1290.46 308.92 1290.41 309.144 1290.31C309.362 1290.21 310.189 1289.59 310.481 1289.31C310.754 1289.05 310.875 1288.9 310.952 1288.71C311.008 1288.57 311.004 1288.52 310.926 1288.17C310.765 1287.45 310.533 1286.88 310.26 1286.51C310.109 1286.31 309.739 1285.99 309.544 1285.89C309.221 1285.72 308.741 1285.73 308.127 1285.92C307.675 1286.06 307.315 1286.22 306.451 1286.68C306.037 1286.9 305.59 1287.13 305.456 1287.19C305.07 1287.37 304.441 1287.7 304.073 1287.91C303.607 1288.18 302.565 1288.94 302.315 1289.2C301.696 1289.84 301.47 1290.39 301.589 1290.97C301.707 1291.54 302.059 1292.49 302.36 1293.04C302.523 1293.35 302.888 1293.85 303.056 1294Z" fill="black" fill-opacity="0.4"/>
<path d="M287.158 1332.88C287.207 1332.94 287.31 1332.97 287.438 1332.98C287.582 1332.98 287.888 1332.9 288.036 1332.81C288.335 1332.64 288.472 1332.41 288.349 1332.29C288.3 1332.24 288.225 1332.21 288.098 1332.21C287.962 1332.2 287.608 1332.29 287.468 1332.38C287.271 1332.49 287.131 1332.65 287.121 1332.76C287.112 1332.83 287.113 1332.83 287.158 1332.88Z" fill="black" fill-opacity="0.4"/>
<path d="M286.968 1331.89C287.034 1331.97 287.217 1332.01 287.417 1332C287.596 1331.98 287.904 1331.88 288.028 1331.79C288.21 1331.66 288.276 1331.54 288.227 1331.44C288.156 1331.28 287.842 1331.23 287.491 1331.33C287.224 1331.41 287.035 1331.53 286.957 1331.68C286.918 1331.75 286.923 1331.84 286.968 1331.89Z" fill="black" fill-opacity="0.4"/>
<path d="M287.77 1333.65C287.798 1333.67 287.856 1333.7 287.92 1333.71C288.019 1333.72 288.033 1333.72 288.242 1333.66C288.44 1333.61 288.471 1333.59 288.585 1333.52C288.977 1333.26 289.049 1332.91 288.722 1332.86C288.35 1332.79 287.766 1333.13 287.706 1333.45C287.691 1333.53 287.714 1333.6 287.77 1333.65Z" fill="black" fill-opacity="0.4"/>
<path d="M287.119 1330.92C287.267 1331.06 287.608 1331.11 287.925 1331.02C288.339 1330.91 288.479 1330.66 288.211 1330.52C287.937 1330.38 287.4 1330.44 287.169 1330.65C287.066 1330.74 287.045 1330.85 287.119 1330.92Z" fill="black" fill-opacity="0.4"/>
<path d="M288.786 1332.5C288.89 1332.69 289.191 1332.91 289.404 1332.94C289.562 1332.97 289.735 1332.88 289.889 1332.7C289.936 1332.64 290.052 1332.46 290.147 1332.3C290.463 1331.75 290.575 1331.65 290.942 1331.56C291.255 1331.49 291.504 1331.5 291.896 1331.61C292.184 1331.69 292.349 1331.72 292.478 1331.71C292.604 1331.7 293.127 1331.53 293.323 1331.44C293.505 1331.36 293.593 1331.3 293.665 1331.22C293.718 1331.16 293.724 1331.14 293.748 1330.95C293.797 1330.57 293.784 1330.24 293.713 1330.01C293.674 1329.89 293.547 1329.67 293.468 1329.58C293.337 1329.44 293.096 1329.37 292.757 1329.35C292.507 1329.34 292.299 1329.36 291.786 1329.44C291.541 1329.48 291.277 1329.52 291.199 1329.53C290.974 1329.55 290.601 1329.61 290.381 1329.65C290.101 1329.7 289.445 1329.9 289.274 1329.98C288.851 1330.2 288.641 1330.43 288.596 1330.74C288.553 1331.04 288.559 1331.58 288.609 1331.9C288.636 1332.08 288.728 1332.4 288.786 1332.5Z" fill="black" fill-opacity="0.4"/>
<path d="M159.595 952.791C159.003 952.688 158.348 952.148 157.799 951.311C157.197 950.371 156.547 947.997 156.54 946.669C156.531 943.986 157.561 942.152 158.908 942.475C159.454 942.602 159.928 943.005 160.495 943.811C161.106 944.685 161.864 947.42 161.843 948.69C161.814 950.479 161.315 952.031 160.572 952.557C160.144 952.879 160.132 952.882 159.595 952.791Z" fill="black" fill-opacity="0.4"/>
<path d="M167.27 950.098C166.485 949.963 165.449 948.921 164.741 947.528C164.112 946.285 163.594 943.815 163.718 942.636C163.902 940.888 164.441 939.985 165.372 939.878C166.762 939.713 168.316 941.625 169.038 944.37C169.584 946.446 169.504 948.195 168.81 949.303C168.467 949.85 167.807 950.189 167.27 950.098Z" fill="black" fill-opacity="0.4"/>
<path d="M151.803 951.908C151.517 951.822 151.136 951.525 150.811 951.138C150.288 950.553 150.247 950.447 149.819 948.819C149.413 947.277 149.383 947.013 149.446 945.952C149.69 942.278 151.812 940.389 153.498 942.348C155.413 944.575 155.392 949.848 153.461 951.511C152.956 951.942 152.374 952.081 151.803 951.908Z" fill="black" fill-opacity="0.4"/>
<path d="M173.457 945.217C171.876 944.808 170.217 942.701 169.544 940.241C168.661 937.032 169.789 935.122 171.844 936.334C173.945 937.574 175.664 941.409 175.168 943.774C174.947 944.834 174.248 945.427 173.457 945.217Z" fill="black" fill-opacity="0.4"/>
<path d="M155.927 940.644C154.185 940.725 151.506 939.597 150.42 938.321C149.607 937.379 149.527 935.875 150.183 934.117C150.371 933.581 151.15 932.09 151.89 930.803C154.359 926.532 154.62 925.372 153.733 922.602C152.98 920.238 151.901 918.637 149.595 916.478C147.899 914.882 147.061 913.895 146.626 912.992C146.197 912.114 145.244 907.99 145.082 906.325C144.915 904.789 144.952 903.98 145.216 903.181C145.416 902.591 145.551 902.455 146.735 901.552C149.179 899.689 151.451 898.473 153.296 898.032C154.311 897.789 156.339 897.743 157.23 897.93C158.696 898.25 160.191 899.532 161.625 901.732C162.683 903.351 163.382 904.811 164.875 908.534C165.593 910.312 166.383 912.214 166.644 912.758C167.367 914.354 168.47 917.047 169.069 918.673C169.823 920.739 171.06 925.892 171.158 927.366C171.395 931.015 170.638 933.34 168.699 934.875C166.792 936.378 163.131 938.468 160.689 939.439C159.357 939.978 156.853 940.616 155.927 940.644Z" fill="black" fill-opacity="0.4"/>
<path d="M244.552 1106.08C244.307 1106.29 243.858 1106.37 243.323 1106.31C242.727 1106.24 241.518 1105.7 240.963 1105.25C239.845 1104.34 239.434 1103.3 240.029 1102.87C240.268 1102.69 240.597 1102.63 241.126 1102.68C241.698 1102.72 243.094 1103.34 243.615 1103.78C244.348 1104.4 244.823 1105.13 244.788 1105.61C244.776 1105.89 244.773 1105.9 244.552 1106.08Z" fill="black" fill-opacity="0.4"/>
<path d="M246.005 1102.14C245.681 1102.41 244.894 1102.48 244.073 1102.29C243.342 1102.13 242.138 1101.5 241.69 1101.05C241.027 1100.38 240.835 1099.86 241.109 1099.44C241.515 1098.82 242.84 1098.84 244.228 1099.48C245.277 1099.96 245.977 1100.59 246.201 1101.24C246.311 1101.57 246.226 1101.95 246.005 1102.14Z" fill="black" fill-opacity="0.4"/>
<path d="M241.546 1108.88C241.412 1108.96 241.16 1109.02 240.888 1109.02C240.467 1109.03 240.408 1109.01 239.586 1108.63C238.807 1108.28 238.687 1108.2 238.268 1107.81C236.825 1106.47 236.764 1104.97 238.153 1104.95C239.731 1104.93 241.915 1106.72 241.947 1108.07C241.953 1108.42 241.813 1108.7 241.546 1108.88Z" fill="black" fill-opacity="0.4"/>
<path d="M246.036 1098.04C245.327 1098.54 243.885 1098.5 242.633 1097.94C240.998 1097.21 240.589 1096.1 241.794 1095.68C243.027 1095.25 245.207 1095.85 246.021 1096.85C246.386 1097.3 246.394 1097.79 246.036 1098.04Z" fill="black" fill-opacity="0.4"/>
<path d="M238.075 1103.48C237.514 1104.21 236.132 1104.92 235.232 1104.92C234.563 1104.93 233.911 1104.46 233.405 1103.6C233.246 1103.34 232.893 1102.52 232.61 1101.78C231.678 1099.33 231.286 1098.84 229.832 1098.26C228.594 1097.76 227.561 1097.66 225.878 1097.86C224.637 1098.01 223.94 1098.01 223.417 1097.88C222.906 1097.76 220.868 1096.75 220.121 1096.25C219.427 1095.8 219.103 1095.51 218.861 1095.13C218.684 1094.85 218.674 1094.75 218.702 1093.96C218.762 1092.34 219.032 1091.01 219.478 1090.11C219.723 1089.62 220.396 1088.78 220.777 1088.48C221.41 1088 222.453 1087.83 223.856 1087.99C224.889 1088.11 225.734 1088.32 227.789 1088.98C228.772 1089.29 229.832 1089.61 230.147 1089.69C231.057 1089.94 232.551 1090.4 233.431 1090.71C234.546 1091.11 237.108 1092.35 237.754 1092.81C239.35 1093.95 240.058 1095.04 240.035 1096.35C240.008 1097.63 239.628 1099.82 239.198 1101.14C238.968 1101.86 238.379 1103.09 238.075 1103.48Z" fill="black" fill-opacity="0.4"/>
<path d="M310.319 1202.92C310.482 1202.79 310.589 1202.53 310.613 1202.18C310.634 1201.8 310.424 1200.97 310.197 1200.57C309.736 1199.75 309.105 1199.35 308.748 1199.66C308.603 1199.78 308.528 1199.98 308.494 1200.32C308.458 1200.68 308.698 1201.63 308.923 1202.02C309.241 1202.56 309.662 1202.96 309.98 1203C310.166 1203.03 310.17 1203.03 310.319 1202.92Z" fill="black" fill-opacity="0.4"/>
<path d="M307.513 1203.32C307.729 1203.15 307.867 1202.67 307.843 1202.13C307.821 1201.65 307.553 1200.81 307.311 1200.47C306.953 1199.97 306.632 1199.78 306.329 1199.89C305.875 1200.06 305.73 1200.89 305.983 1201.84C306.175 1202.56 306.501 1203.08 306.905 1203.31C307.104 1203.43 307.364 1203.43 307.513 1203.32Z" fill="black" fill-opacity="0.4"/>
<path d="M312.556 1201.41C312.629 1201.34 312.694 1201.19 312.727 1201.02C312.785 1200.76 312.78 1200.72 312.629 1200.15C312.487 1199.62 312.451 1199.53 312.248 1199.22C311.539 1198.13 310.564 1197.89 310.386 1198.75C310.185 1199.74 311.102 1201.35 311.98 1201.55C312.209 1201.6 312.411 1201.55 312.556 1201.41Z" fill="black" fill-opacity="0.4"/>
<path d="M304.79 1202.8C305.202 1202.43 305.346 1201.52 305.127 1200.67C304.843 1199.54 304.168 1199.14 303.749 1199.83C303.32 1200.54 303.457 1201.99 304.017 1202.63C304.268 1202.92 304.584 1202.99 304.79 1202.8Z" fill="black" fill-opacity="0.4"/>
<path d="M309.438 1198.61C309.985 1198.37 310.609 1197.6 310.721 1197.04C310.807 1196.62 310.572 1196.15 310.067 1195.72C309.917 1195.58 309.421 1195.25 308.973 1194.97C307.48 1194.05 307.2 1193.74 306.992 1192.75C306.815 1191.91 306.868 1191.25 307.2 1190.23C307.443 1189.47 307.529 1189.04 307.506 1188.7C307.486 1188.36 307.065 1186.95 306.827 1186.41C306.612 1185.92 306.461 1185.68 306.243 1185.47C306.08 1185.32 306.015 1185.3 305.497 1185.21C304.427 1185.03 303.522 1185.01 302.882 1185.17C302.53 1185.25 301.901 1185.56 301.661 1185.76C301.268 1186.08 301.032 1186.71 300.974 1187.61C300.93 1188.27 300.968 1188.83 301.155 1190.2C301.242 1190.86 301.329 1191.56 301.343 1191.77C301.398 1192.37 301.526 1193.37 301.623 1193.96C301.75 1194.71 302.261 1196.48 302.486 1196.95C303.044 1198.1 303.677 1198.69 304.535 1198.86C305.378 1199.02 306.859 1199.08 307.773 1198.99C308.274 1198.95 309.15 1198.75 309.438 1198.61Z" fill="black" fill-opacity="0.4"/>
<path d="M313.177 1279.81C313.348 1279.83 313.574 1279.74 313.795 1279.55C314.04 1279.34 314.419 1278.74 314.534 1278.38C314.763 1277.64 314.636 1277.05 314.24 1277.03C314.079 1277.02 313.915 1277.1 313.691 1277.27C313.45 1277.46 313.01 1278.15 312.908 1278.5C312.765 1279 312.77 1279.46 312.929 1279.67C313.019 1279.79 313.022 1279.79 313.177 1279.81Z" fill="black" fill-opacity="0.4"/>
<path d="M311.304 1278.46C311.531 1278.48 311.903 1278.28 312.215 1277.96C312.493 1277.67 312.845 1277.03 312.911 1276.69C313.008 1276.2 312.937 1275.91 312.69 1275.8C312.323 1275.65 311.735 1276.05 311.305 1276.74C310.979 1277.27 310.853 1277.76 310.949 1278.12C310.997 1278.29 311.149 1278.44 311.304 1278.46Z" fill="black" fill-opacity="0.4"/>
<path d="M315.388 1280.19C315.474 1280.19 315.603 1280.14 315.725 1280.06C315.918 1279.94 315.938 1279.92 316.194 1279.51C316.436 1279.11 316.466 1279.04 316.539 1278.75C316.783 1277.72 316.362 1277.03 315.733 1277.43C315.02 1277.89 314.579 1279.34 314.967 1279.95C315.069 1280.11 315.217 1280.2 315.388 1280.19Z" fill="black" fill-opacity="0.4"/>
<path d="M310.026 1276.63C310.494 1276.64 311.127 1276.2 311.52 1275.57C312.035 1274.76 311.887 1274.15 311.221 1274.32C310.54 1274.49 309.743 1275.4 309.679 1276.09C309.65 1276.4 309.791 1276.62 310.026 1276.63Z" fill="black" fill-opacity="0.4"/>
<path d="M315.231 1276.79C315.702 1276.95 316.532 1276.86 316.938 1276.59C317.24 1276.4 317.39 1275.99 317.359 1275.46C317.353 1275.3 317.266 1274.82 317.172 1274.41C316.857 1273.04 316.884 1272.7 317.362 1272.01C317.768 1271.42 318.2 1271.07 319.015 1270.66C319.615 1270.36 319.929 1270.16 320.124 1269.94C320.316 1269.74 320.927 1268.68 321.112 1268.24C321.288 1267.83 321.347 1267.6 321.342 1267.36C321.337 1267.18 321.312 1267.14 321.064 1266.79C320.552 1266.08 320.032 1265.57 319.564 1265.3C319.306 1265.15 318.754 1264.97 318.494 1264.95C318.065 1264.92 317.546 1265.15 316.967 1265.64C316.54 1266 316.224 1266.35 315.5 1267.25C315.152 1267.68 314.774 1268.14 314.656 1268.27C314.323 1268.65 313.793 1269.3 313.491 1269.7C313.109 1270.2 312.333 1271.52 312.181 1271.91C311.807 1272.9 311.818 1273.6 312.219 1274.18C312.615 1274.74 313.441 1275.61 314.028 1276.07C314.348 1276.33 314.98 1276.71 315.231 1276.79Z" fill="black" fill-opacity="0.4"/>
<path d="M296.405 1327.16C296.486 1327.2 296.614 1327.2 296.756 1327.14C296.913 1327.08 297.205 1326.85 297.325 1326.69C297.567 1326.37 297.607 1326.06 297.415 1325.98C297.337 1325.95 297.243 1325.95 297.102 1326C296.95 1326.05 296.612 1326.32 296.5 1326.47C296.343 1326.69 296.264 1326.92 296.307 1327.05C296.33 1327.13 296.332 1327.13 296.405 1327.16Z" fill="black" fill-opacity="0.4"/>
<path d="M295.719 1326.17C295.827 1326.23 296.046 1326.19 296.257 1326.08C296.445 1325.99 296.73 1325.74 296.821 1325.58C296.955 1325.35 296.971 1325.2 296.868 1325.1C296.714 1324.96 296.353 1325.06 296.019 1325.33C295.767 1325.53 295.619 1325.75 295.604 1325.94C295.596 1326.04 295.646 1326.14 295.719 1326.17Z" fill="black" fill-opacity="0.4"/>
<path d="M297.435 1327.73C297.477 1327.75 297.55 1327.74 297.624 1327.73C297.74 1327.7 297.754 1327.69 297.952 1327.53C298.14 1327.38 298.167 1327.35 298.255 1327.22C298.555 1326.75 298.468 1326.34 298.087 1326.43C297.655 1326.53 297.184 1327.17 297.269 1327.54C297.292 1327.63 297.35 1327.7 297.435 1327.73Z" fill="black" fill-opacity="0.4"/>
<path d="M295.415 1325.04C295.643 1325.13 296.034 1325.02 296.336 1324.79C296.732 1324.47 296.766 1324.15 296.408 1324.11C296.042 1324.08 295.489 1324.39 295.337 1324.72C295.268 1324.87 295.3 1325 295.415 1325.04Z" fill="black" fill-opacity="0.4"/>
<path d="M297.984 1326.03C298.19 1326.2 298.62 1326.29 298.869 1326.23C299.055 1326.19 299.201 1326.01 299.28 1325.74C299.306 1325.66 299.345 1325.41 299.372 1325.19C299.457 1324.45 299.53 1324.28 299.89 1324.02C300.197 1323.8 300.474 1323.7 300.953 1323.64C301.306 1323.6 301.498 1323.55 301.633 1323.48C301.765 1323.41 302.256 1322.99 302.427 1322.8C302.587 1322.63 302.656 1322.53 302.696 1322.4C302.725 1322.31 302.721 1322.29 302.658 1322.07C302.528 1321.63 302.359 1321.28 302.173 1321.06C302.071 1320.94 301.827 1320.76 301.701 1320.7C301.492 1320.61 301.192 1320.64 300.817 1320.78C300.54 1320.88 300.322 1321 299.801 1321.32C299.552 1321.48 299.283 1321.64 299.201 1321.68C298.968 1321.81 298.588 1322.04 298.367 1322.19C298.087 1322.38 297.468 1322.9 297.322 1323.07C296.962 1323.49 296.844 1323.84 296.942 1324.2C297.039 1324.55 297.298 1325.13 297.51 1325.46C297.624 1325.65 297.873 1325.95 297.984 1326.03Z" fill="black" fill-opacity="0.4"/>
<path d="M168.171 247.283C166.619 246.319 165.392 244.013 164.803 240.962C164.182 237.551 165.066 229.91 166.566 226.036C169.613 218.215 174.615 214.028 178.042 216.476C179.436 217.458 180.311 219.162 180.986 222.145C181.708 225.372 180.715 234.186 179.202 237.86C177.072 243.034 173.888 246.995 171.193 247.696C169.618 248.154 169.579 248.148 168.171 247.283Z" fill="black" fill-opacity="0.35"/>
<path d="M192.481 247.972C190.423 246.701 188.694 242.505 188.293 237.659C187.943 233.334 189.31 225.562 191.009 222.269C193.53 217.386 196.081 215.359 198.83 216.091C202.935 217.166 205.128 224.475 204.02 233.273C203.182 239.93 200.957 244.932 197.73 247.382C196.138 248.591 193.889 248.838 192.481 247.972Z" fill="black" fill-opacity="0.35"/>
<path d="M147.538 235.978C146.832 235.406 146.1 234.119 145.626 232.629C144.825 230.342 144.831 229.986 145.488 224.77C146.11 219.827 146.327 219.025 147.718 216.008C152.608 205.59 160.74 202.465 163.247 210.053C166.089 218.676 159.999 233.998 152.661 236.678C150.747 237.367 148.95 237.121 147.538 235.978Z" fill="black" fill-opacity="0.35"/>
<path d="M215.154 240.594C211.169 237.634 208.908 229.643 209.826 221.731C211.01 211.399 216.375 207.103 220.776 212.931C225.277 218.892 225.73 231.981 221.627 238.31C219.791 241.148 217.144 242.093 215.154 240.594Z" fill="black" fill-opacity="0.35"/>
<path d="M171.35 207.246C166.354 205.534 160.105 199.256 158.508 194.327C157.295 190.677 158.791 186.209 162.648 181.827C163.79 180.478 167.688 177.012 171.245 174.093C183.079 164.426 185.139 161.342 185.812 152.288C186.395 144.568 185.189 138.702 181.171 129.838C178.222 123.298 176.99 119.488 176.799 116.373C176.598 113.337 178.631 100.272 180.081 95.2436C181.367 90.589 182.397 88.275 184.052 86.2444C185.291 84.7506 185.827 84.5071 190.191 83.2029C199.202 80.5143 206.989 79.5193 212.686 80.2976C215.821 80.7259 221.581 82.8589 223.876 84.3998C227.636 86.9723 230.378 92.3752 231.898 100.383C233.023 106.277 233.323 111.307 233.266 123.81C233.253 129.787 233.3 136.208 233.414 138.084C233.622 143.537 233.647 152.607 233.473 158.007C233.232 164.863 230.821 181.242 229.411 185.642C225.902 196.526 221.112 202.444 213.9 204.745C206.812 206.984 194.117 208.971 186.132 209.068C181.767 209.144 173.991 208.201 171.35 207.246Z" fill="url(#paint0_linear)" fill-opacity="0.12"/>
<path d="M102.106 181.283C103.658 180.319 104.885 178.013 105.474 174.962C106.095 171.551 105.21 163.91 103.711 160.036C100.664 152.215 95.6618 148.028 92.2347 150.476C90.8408 151.458 89.9658 153.162 89.2908 156.145C88.5687 159.372 89.5618 168.186 91.075 171.86C93.2051 177.034 96.3887 180.995 99.084 181.696C100.659 182.154 100.697 182.148 102.106 181.283Z" fill="black" fill-opacity="0.12"/>
<path d="M77.796 181.972C79.8538 180.701 81.5823 176.505 81.9837 171.659C82.3341 167.334 80.9664 159.562 79.2678 156.269C76.7464 151.386 74.1954 149.359 71.4472 150.091C67.3414 151.166 65.1489 158.475 66.2567 167.273C67.0949 173.93 69.3201 178.932 72.5468 181.382C74.1386 182.591 76.3875 182.838 77.796 181.972Z" fill="black" fill-opacity="0.12"/>
<path d="M122.739 169.978C123.444 169.406 124.177 168.119 124.65 166.629C125.452 164.342 125.446 163.986 124.789 158.77C124.167 153.827 123.949 153.025 122.558 150.008C117.669 139.59 109.536 136.465 107.03 144.053C104.188 152.676 110.278 167.998 117.615 170.678C119.53 171.367 121.327 171.121 122.739 169.978Z" fill="black" fill-opacity="0.12"/>
<path d="M55.1229 174.594C59.1072 171.634 61.369 163.643 60.4506 155.731C59.2667 145.399 53.902 141.103 49.5007 146.931C44.9993 152.892 44.5465 165.981 48.65 172.31C50.4855 175.148 53.1331 176.093 55.1229 174.594Z" fill="black" fill-opacity="0.12"/>
<path d="M98.9272 141.246C103.923 139.534 110.172 133.256 111.769 128.327C112.981 124.677 111.486 120.209 107.628 115.827C106.486 114.478 102.589 111.012 99.0321 108.093C87.198 98.4256 85.1375 95.3417 84.4645 86.2878C83.8817 78.5677 85.0878 72.7015 89.1058 63.8381C92.0551 57.2984 93.2866 53.4876 93.478 50.3732C93.6791 47.3367 91.6457 34.2718 90.1961 29.2436C88.9101 24.589 87.8799 22.275 86.2242 20.2444C84.9861 18.7506 84.4499 18.5071 80.0855 17.2029C71.0743 14.5143 63.2875 13.5193 57.5907 14.2976C54.4555 14.7259 48.6959 16.8589 46.4008 18.3998C42.641 20.9723 39.8987 26.3752 38.3787 34.3826C37.2539 40.2772 36.9536 45.3069 37.0107 57.8104C37.0241 63.7871 36.9766 70.2076 36.8628 72.084C36.6546 77.5366 36.6296 86.6067 36.8038 92.0071C37.0445 98.8634 39.4562 115.242 40.8657 119.642C44.3746 130.526 49.1642 136.444 56.3765 138.745C63.4643 140.984 76.1596 142.971 84.1445 143.068C88.51 143.144 96.2861 142.201 98.9272 141.246Z" fill="url(#paint1_linear)" fill-opacity="0.12"/>
<path d="M50.2179 370.89C51.9559 370.375 53.7125 368.476 55.0365 365.687C56.481 362.558 57.5183 354.938 57.0286 350.793C56.0208 342.418 52.2247 337.029 48.3073 338.474C46.7174 339.049 45.4502 340.46 44.0595 343.161C42.563 346.085 41.3404 354.867 41.8928 358.823C42.67 364.394 44.7653 369.076 47.1959 370.477C48.6044 371.343 48.6427 371.348 50.2179 370.89Z" fill="black" fill-opacity="0.4"/>
<path d="M26.5581 365.131C28.861 364.456 31.5698 360.866 33.1574 356.291C34.5666 352.207 35.1693 344.33 34.3433 340.693C33.116 335.298 31.1532 332.654 28.3167 332.623C24.0835 332.56 20.1558 339.032 19.048 347.83C18.2098 354.487 19.1213 359.918 21.6323 363.152C22.8712 364.747 24.9829 365.589 26.5581 365.131Z" fill="black" fill-opacity="0.4"/>
<path d="M72.9967 365.428C73.8202 365.065 74.8465 364.017 75.6729 362.705C77.0129 360.711 77.0952 360.365 77.7518 355.15C78.374 350.206 78.3622 349.373 77.7649 346.085C75.6193 334.706 68.535 329.501 64.2356 336.16C59.355 343.728 61.447 360.168 67.8734 364.728C69.5528 365.907 71.3498 366.153 72.9967 365.428Z" fill="black" fill-opacity="0.4"/>
<path d="M6.506 352.006C11.0883 350.216 15.2515 343.103 16.3229 335.211C17.7363 324.911 13.6164 319.32 7.92131 323.769C2.09675 328.319 -1.58077 340.844 0.817247 348.061C1.88826 351.296 4.2124 352.92 6.506 352.006Z" fill="black" fill-opacity="0.4"/>
<path d="M57.4309 331.475C62.6816 331.163 70.2731 326.776 73.0355 322.442C75.1107 319.241 74.7712 314.523 72.1289 309.252C71.3592 307.643 68.4513 303.246 65.7374 299.471C56.696 286.952 55.4684 283.419 57.0589 274.49C58.4064 266.874 61.0237 261.53 67.0994 254.046C71.5675 248.52 73.7005 245.168 74.6561 242.211C75.602 239.331 76.8708 226.162 76.7146 220.914C76.6241 216.071 76.2014 213.559 75.1043 211.152C74.2777 209.376 73.8199 208.997 69.9258 206.565C61.8848 201.546 54.6075 198.493 48.9107 197.715C45.7755 197.287 39.6827 197.801 37.0838 198.673C32.8145 200.148 28.8277 204.632 25.3774 211.96C22.8317 217.354 21.2968 222.133 18.2575 234.229C16.7912 240.007 15.1564 246.198 14.582 247.98C13.0314 253.192 10.7624 261.949 9.59417 267.214C8.12994 273.903 6.40649 290.375 6.6793 295.005C7.37603 306.464 10.539 313.468 16.938 317.629C23.232 321.695 35.0063 327.026 42.6972 329.264C46.8961 330.511 54.6428 331.688 57.4309 331.475Z" fill="black" fill-opacity="0.4"/>
<path d="M184.168 448.295C182.471 447.66 180.843 445.643 179.703 442.766C178.465 439.541 177.919 431.861 178.671 427.756C180.209 419.465 184.333 414.347 188.141 416.062C189.687 416.746 190.858 418.243 192.07 421.036C193.374 424.059 194.03 432.913 193.227 436.825C192.098 442.333 189.713 446.862 187.203 448.093C185.745 448.859 185.707 448.862 184.168 448.295Z" fill="black" fill-opacity="0.54"/>
<path d="M208.148 444.165C205.898 443.331 203.431 439.559 202.142 434.881C201 430.705 200.903 422.798 201.958 419.224C203.524 413.923 205.647 411.419 208.473 411.585C212.692 411.815 216.189 418.551 216.73 427.412C217.14 434.117 215.885 439.476 213.179 442.531C211.843 444.037 209.687 444.732 208.148 444.165Z" fill="black" fill-opacity="0.54"/>
<path d="M161.8 441.289C161.003 440.869 160.048 439.752 159.309 438.384C158.102 436.3 158.042 435.949 157.721 430.696C157.417 425.716 157.482 424.885 158.287 421.643C161.15 410.43 168.537 405.725 172.393 412.672C176.77 420.568 173.637 436.838 166.946 440.945C165.199 442.007 163.394 442.127 161.8 441.289Z" fill="black" fill-opacity="0.54"/>
<path d="M229.004 432.439C224.556 430.334 220.865 422.942 220.302 414.988C219.553 404.606 224.012 399.309 229.399 404.146C234.908 409.093 237.769 421.855 234.921 428.895C233.648 432.05 231.23 433.511 229.004 432.439Z" fill="black" fill-opacity="0.54"/>
<path d="M179.619 408.503C174.411 407.826 167.131 402.919 164.657 398.399C162.795 395.059 163.435 390.371 166.402 385.292C167.272 383.738 170.448 379.55 173.392 375.969C183.195 364.095 184.643 360.653 183.629 351.627C182.774 343.929 180.509 338.411 174.936 330.516C170.84 324.687 168.93 321.193 168.167 318.173C167.409 315.232 166.987 301.994 167.478 296.765C167.877 291.936 168.458 289.456 169.704 287.129C170.641 285.413 171.121 285.066 175.154 282.908C183.482 278.455 190.924 275.912 196.646 275.53C199.796 275.32 205.83 276.256 208.362 277.308C212.519 279.078 216.203 283.831 219.171 291.388C221.361 296.95 222.585 301.829 224.839 314.118C225.93 319.99 227.162 326.285 227.621 328.105C228.832 333.417 230.532 342.318 231.359 347.656C232.39 354.437 233.054 371.005 232.487 375.61C231.061 387.003 227.464 393.777 220.827 397.487C214.299 401.111 202.234 405.616 194.433 407.318C190.172 408.271 182.382 408.909 179.619 408.503Z" fill="black" fill-opacity="0.4"/>
</g>
<defs>
<linearGradient id="paint0_linear" x1="185.12" y1="206.765" x2="213.547" y2="75.2508" gradientUnits="userSpaceOnUse">
<stop/>
<stop offset="1" stop-opacity="0"/>
</linearGradient>
<linearGradient id="paint1_linear" x1="85.1566" y1="140.765" x2="56.7298" y2="9.25075" gradientUnits="userSpaceOnUse">
<stop/>
<stop offset="1" stop-opacity="0"/>
</linearGradient>
</defs>
</svg>
