<svg width="206" height="201" viewBox="0 0 206 201" fill="none" xmlns="http://www.w3.org/2000/svg">
<path fill-rule="evenodd" clip-rule="evenodd" d="M103 0C46.0925 0 0 46.1113 0 103.042C0 148.638 29.4837 187.15 70.4262 200.803C75.5762 201.705 77.5075 198.614 77.5075 195.909C77.5075 193.461 77.3788 185.347 77.3788 176.717C51.5 181.483 44.805 170.406 42.745 164.61C41.5862 161.647 36.565 152.502 32.1875 150.055C28.5825 148.123 23.4325 143.357 32.0588 143.228C40.17 143.1 45.9638 150.699 47.895 153.79C57.165 169.375 71.9713 164.996 77.8938 162.291C78.795 155.593 81.4987 151.085 84.46 148.509C61.5425 145.933 37.595 137.046 37.595 97.6323C37.595 86.4265 41.5863 77.1527 48.1525 69.9398C47.1225 67.3637 43.5175 56.8019 49.1825 42.6336C49.1825 42.6336 57.8088 39.9288 77.5075 53.1954C85.7475 50.877 94.5025 49.7178 103.258 49.7178C112.013 49.7178 120.768 50.877 129.008 53.1954C148.706 39.8 157.333 42.6336 157.333 42.6336C162.998 56.8019 159.393 67.3637 158.363 69.9398C164.929 77.1527 168.92 86.2977 168.92 97.6323C168.92 137.175 144.844 145.933 121.926 148.509C125.66 151.729 128.879 157.912 128.879 167.572C128.879 181.354 128.75 192.431 128.75 195.909C128.75 198.614 130.681 201.834 135.831 200.803C176.516 187.15 206 148.509 206 103.042C206 46.1113 159.908 0 103 0V0Z" fill="white"/>
</svg>
