<svg width="324" height="324" viewBox="0 0 324 324" fill="none" xmlns="http://www.w3.org/2000/svg">
<path fill-rule="evenodd" clip-rule="evenodd" d="M162 312C244.843 312 312 244.843 312 162C312 79.1573 244.843 12 162 12C79.1573 12 12 79.1573 12 162C12 244.843 79.1573 312 162 312ZM162 297C236.558 297 297 236.558 297 162C297 87.4416 236.558 27 162 27C87.4416 27 27 87.4416 27 162C27 236.558 87.4416 297 162 297Z" fill="url(#paint0_radial)"/>
<path d="M176.646 19.5C176.058 22.8065 176.646 24.5 178.453 28C175.133 33.3915 169.072 37 162.146 37C155.22 37 149.159 33.3915 145.839 28C147.647 24.5 147.647 22.9734 147.647 19.5C147.647 17.5848 147.146 15 144 13C146.405 5.46854 153.62 0 162.146 0C170.673 0 177.887 5.46854 180.292 13C177.646 15 177.141 16.7235 176.646 19.5Z" fill="url(#paint1_radial)"/>
<path d="M176.646 19.5C176.058 22.8065 176.646 24.5 178.453 28C175.133 33.3915 169.072 37 162.146 37C155.22 37 149.159 33.3915 145.839 28C147.647 24.5 147.647 22.9734 147.647 19.5C147.647 17.5848 147.146 15 144 13C146.405 5.46854 153.62 0 162.146 0C170.673 0 177.887 5.46854 180.292 13C177.646 15 177.141 16.7235 176.646 19.5Z" fill="url(#paint2_radial)" fill-opacity="0.2"/>
<defs>
<radialGradient id="paint0_radial" cx="0" cy="0" r="1" gradientUnits="userSpaceOnUse" gradientTransform="translate(162 162) rotate(90) scale(150)">
<stop offset="0.810764" stop-color="white"/>
<stop offset="0.956597" stop-color="white" stop-opacity="0"/>
<stop offset="1" stop-color="white"/>
</radialGradient>
<radialGradient id="paint1_radial" cx="0" cy="0" r="1" gradientUnits="userSpaceOnUse" gradientTransform="translate(162.146 18.5) rotate(90) scale(18.5 19)">
<stop stop-color="#CCCCCC"/>
<stop offset="1" stop-color="#F54952"/>
</radialGradient>
<radialGradient id="paint2_radial" cx="0" cy="0" r="1" gradientUnits="userSpaceOnUse" gradientTransform="translate(162.146 18.5) rotate(90) scale(18.5 19)">
<stop/>
<stop offset="1" stop-opacity="0"/>
</radialGradient>
</defs>
</svg>
