<svg width="1440" height="1058" viewBox="0 0 1440 1058" fill="none" xmlns="http://www.w3.org/2000/svg">
<path d="M573.16 293.266L551.499 260.454C550.875 259.508 550.563 259.036 550.091 258.988C549.619 258.94 549.218 259.34 548.416 260.141L354.328 454.124C353.316 455.135 352.81 455.641 352.271 455.518C351.732 455.394 351.497 454.719 351.025 453.368L254.831 177.615C254.251 175.952 253.961 175.12 253.345 175.044C252.729 174.967 252.244 175.702 251.274 177.172L-3.66928 563.499C-3.83345 563.748 -3.91554 563.872 -3.95777 564.013C-4 564.153 -4 564.302 -4 564.6V1056C-4 1056.94 -4 1057.41 -3.70711 1057.71C-3.41421 1058 -2.94281 1058 -2 1058H461.116H975.5H1466C1466.94 1058 1467.41 1058 1467.71 1057.71C1468 1057.41 1468 1056.94 1468 1056V174.027C1468 173.913 1468 173.856 1467.99 173.799C1467.99 173.743 1467.97 173.687 1467.95 173.575L1429.1 6.14003C1428.27 2.56778 1427.86 0.781648 1427.05 0.79619C1426.24 0.810732 1425.89 2.6106 1425.19 6.21032L1387.2 201.6C1386.88 203.254 1386.72 204.08 1386.13 204.253C1385.55 204.425 1384.97 203.82 1383.8 202.608L1358.18 176.108C1357.18 175.072 1356.68 174.554 1356.14 174.67C1355.6 174.787 1355.35 175.465 1354.87 176.82L1271.33 408.822C1271.13 409.372 1271.03 409.647 1270.82 409.822C1270.6 409.997 1270.31 410.039 1269.73 410.124L1037.93 443.887C1037.4 443.966 1037.13 444.005 1036.88 443.913C1036.64 443.821 1036.47 443.613 1036.12 443.198L882.079 260.55L882.079 260.55C881.256 259.574 880.845 259.086 880.332 259.128C879.819 259.169 879.491 259.717 878.835 260.812L787.351 413.572C786.626 414.783 786.263 415.389 785.714 415.404C785.166 415.419 784.77 414.834 783.979 413.665L724.81 326.219C724.519 325.789 724.373 325.573 724.153 325.457C723.933 325.34 723.673 325.34 723.153 325.34H697.415C696.826 325.34 696.531 325.34 696.292 325.195C696.053 325.051 695.916 324.79 695.643 324.267L626.082 191.33C625.254 189.747 624.84 188.956 624.215 188.974C623.589 188.992 623.222 189.806 622.487 191.435L576.652 292.987C575.992 294.448 575.662 295.179 575.073 295.226C574.485 295.273 574.043 294.604 573.16 293.266Z" fill="url(#paint0_linear)"/>
<defs>
<linearGradient id="paint0_linear" x1="700" y1="789.349" x2="663.962" y2="243.432" gradientUnits="userSpaceOnUse">
<stop stop-color="#BC3A5B" stop-opacity="0"/>
<stop offset="0.362847" stop-color="#BC3A5B"/>
<stop offset="1" stop-color="#660F56"/>
</linearGradient>
</defs>
</svg>
