<svg width="1440" height="907" viewBox="0 0 1440 907" fill="none" xmlns="http://www.w3.org/2000/svg">
<path d="M129.15 1.56445L-3.25236 107.9C-3.61974 108.195 -3.80343 108.342 -3.90171 108.547C-4 108.752 -4 108.988 -4 109.459V440V541V647V937C-4 937.943 -4 938.414 -3.70711 938.707C-3.41421 939 -2.94281 939 -2.00001 939H598.333H900.43H1146H1438.5C1439.44 939 1439.91 939 1440.21 938.707C1440.5 938.414 1440.5 937.943 1440.5 937V499.845C1440.5 499.673 1440.5 499.587 1440.49 499.503C1440.47 499.418 1440.44 499.337 1440.38 499.175L1381.05 332.56C1381.02 332.491 1381.01 332.456 1381 332.423C1380.98 332.389 1380.97 332.356 1380.93 332.291L1248.58 83.7208C1247.69 82.0616 1247.25 81.2319 1246.61 81.2697C1245.97 81.3075 1245.63 82.1833 1244.95 83.9349L1186.29 234.525C1185.81 235.771 1185.56 236.395 1185.05 236.512C1184.53 236.63 1184.04 236.173 1183.06 235.26L1089.7 148.008C1089.13 147.469 1088.84 147.2 1088.48 147.178C1088.12 147.155 1087.8 147.387 1087.17 147.849L902.266 281.757C901.41 282.377 900.983 282.687 900.542 282.588C900.102 282.489 899.848 282.025 899.34 281.099L860.055 209.475C859.132 207.791 858.671 206.95 858.025 207.002C857.379 207.054 857.059 207.959 856.417 209.768L813.683 330.26C813.326 331.266 813.147 331.769 812.724 331.936C812.301 332.103 811.827 331.858 810.879 331.367L653.042 249.7C652.41 249.374 652.095 249.21 651.77 249.262C651.445 249.314 651.196 249.567 650.697 250.074L570.866 331.192C570.289 331.779 570.001 332.072 569.63 332.102C569.26 332.132 568.928 331.89 568.263 331.406L396.424 206.149C396.028 205.861 395.83 205.716 395.598 205.677C395.365 205.638 395.131 205.709 394.662 205.852L254.851 248.525C254.073 248.763 253.684 248.881 253.346 248.735C253.009 248.588 252.83 248.223 252.472 247.493L132.198 2.24318C131.69 1.20788 131.436 0.690235 130.967 0.585812C130.498 0.481388 130.049 0.842409 129.15 1.56445Z" fill="url(#paint0_linear)"/>
<defs>
<linearGradient id="paint0_linear" x1="714" y1="625.433" x2="698.904" y2="10.7788" gradientUnits="userSpaceOnUse">
<stop stop-color="#660F56" stop-opacity="0"/>
<stop offset="0.288812" stop-color="#660F56"/>
<stop offset="1" stop-color="#AE2D68"/>
</linearGradient>
</defs>
</svg>
