<svg width="1298" height="934" viewBox="0 0 1298 934" fill="none" xmlns="http://www.w3.org/2000/svg">
<path d="M217.438 394.677L-10.2725 4.38876C-11.7722 1.81837 -12.522 0.533174 -13.261 0.732989C-14 0.932804 -14 2.42075 -14 5.39664V947C-14 947.943 -14 948.414 -13.7071 948.707C-13.4142 949 -12.9428 949 -12 949H646H1201.58C1262.7 949 1293.26 949 1297.53 933.613C1301.8 918.226 1275.6 902.484 1223.22 871.001L889 670.135L346.521 347.477C346.111 347.233 345.906 347.111 345.676 347.091C345.447 347.072 345.224 347.158 344.779 347.33L219.886 395.535C219.127 395.828 218.748 395.975 218.401 395.853C218.053 395.731 217.848 395.38 217.438 394.677Z" fill="url(#paint0_linear)"/>
<defs>
<linearGradient id="paint0_linear" x1="421.12" y1="-40.3757" x2="92.2317" y2="763.189" gradientUnits="userSpaceOnUse">
<stop offset="0.32118" stop-color="#F54952"/>
<stop offset="0.78125" stop-color="#660F56"/>
<stop offset="0.932292" stop-color="#AE2D68"/>
</linearGradient>
</defs>
</svg>
