<svg width="1121" height="775" viewBox="0 0 1121 775" fill="none" xmlns="http://www.w3.org/2000/svg">
<path d="M292.027 288.32L23.1507 654.416C6.08718 677.65 -2.44459 689.266 0.883018 700.649C4.21063 712.032 17.6562 717.224 44.5474 727.607L86.7666 743.91C86.8832 743.955 86.9414 743.977 87.0019 743.992C87.0623 744.008 87.1244 744.015 87.2484 744.03L608.297 806.66L608.299 806.66C608.399 806.672 608.449 806.678 608.5 806.679C608.551 806.68 608.602 806.676 608.703 806.667L1120.17 763.654C1121.04 763.581 1121.47 763.544 1121.74 763.257C1122 762.97 1122 762.534 1122 761.661V3.86151C1122 1.79439 1122 0.760833 1121.38 0.505956C1120.76 0.25108 1120.03 0.985431 1118.58 2.45413L820.611 303.306C820.188 303.733 819.977 303.947 819.701 304.013C819.425 304.08 819.14 303.987 818.568 303.8L675.452 257.001C675.188 256.915 675.056 256.872 674.919 256.866C674.782 256.86 674.647 256.892 674.376 256.955L387.9 323.775C387.601 323.844 387.451 323.879 387.3 323.869C387.149 323.858 387.005 323.802 386.719 323.69L294.366 287.641C293.678 287.373 293.334 287.239 293.008 287.333C292.682 287.428 292.464 287.725 292.027 288.32Z" fill="url(#paint0_linear)"/>
<defs>
<linearGradient id="paint0_linear" x1="840.69" y1="747.514" x2="780.375" y2="62.8666" gradientUnits="userSpaceOnUse">
<stop stop-color="#AE2D68"/>
<stop offset="0.354167" stop-color="#660F56"/>
<stop offset="1" stop-color="#F54952"/>
</linearGradient>
</defs>
</svg>
