<svg width="380" height="79" viewBox="0 0 380 79" fill="none" xmlns="http://www.w3.org/2000/svg">
<g filter="url(#filter0_d)">
<path d="M168.235 0.552734C169.22 0.552734 170.017 1.12695 170.626 2.27539C170.72 2.46289 170.819 2.67383 170.925 2.9082L174.669 11.7324V0.640625H177.358V11.7324C177.358 12.4824 177.001 13.0977 176.286 13.5781C175.782 13.918 175.237 14.0879 174.651 14.0879C173.667 14.0879 172.87 13.5137 172.261 12.3652C172.167 12.1777 172.067 11.9668 171.962 11.7324L168.218 2.9082V14H165.528V2.9082C165.528 2.1582 165.886 1.54297 166.601 1.0625C167.104 0.722656 167.649 0.552734 168.235 0.552734ZM186.288 14.1758H184.495C183.042 14.1758 181.806 13.6602 180.786 12.6289C179.813 11.6445 179.327 10.4668 179.327 9.0957V5.54492C179.327 4.11523 179.843 2.90234 180.874 1.90625C181.894 0.945313 183.101 0.464844 184.495 0.464844H186.288C187.741 0.464844 188.978 0.980469 189.997 2.01172C190.97 2.99609 191.456 4.17383 191.456 5.54492V9.0957C191.456 10.5254 190.94 11.7383 189.909 12.7344C188.89 13.6953 187.683 14.1758 186.288 14.1758ZM184.495 11.8555H186.288C187.097 11.8555 187.747 11.4922 188.239 10.7656C188.579 10.2617 188.749 9.70508 188.749 9.0957V5.54492C188.749 4.61914 188.415 3.88086 187.747 3.33008C187.313 2.9668 186.827 2.78516 186.288 2.78516H184.495C183.687 2.78516 183.036 3.14258 182.544 3.85742C182.192 4.36133 182.017 4.92383 182.017 5.54492V9.0957C182.017 10.0098 182.345 10.7422 183.001 11.293C183.458 11.668 183.956 11.8555 184.495 11.8555ZM202.144 12.2246H196.29L197.731 9.9043H201.335L199.05 3.34766L195.323 14H192.44L196.36 2.82031C196.935 1.26172 197.831 0.476562 199.05 0.464844C200.269 0.476562 201.159 1.26172 201.722 2.82031L205.659 14H202.776L202.144 12.2246ZM209.966 7.68945L210.88 6.23047H215.749V0.640625H218.456V14H215.749V8.55078H209.966V14H207.276V0.640625H209.966V7.68945ZM13.9375 40.5625V51.9375C13.9375 55.1875 15.1042 57.7917 17.4375 59.75C19.0625 61.0833 20.8333 61.75 22.75 61.75H29.125C31.7083 61.75 33.8958 60.875 35.6875 59.125C35.9375 58.875 36.1458 58.6458 36.3125 58.4375L44.625 64.8125C42.2917 67.0208 38.6875 68.5833 33.8125 69.5C32.1042 69.8333 30.5417 70 29.125 70H22.75C17.5833 70 13.1875 68.1667 9.5625 64.5C6.10417 61 4.375 56.8125 4.375 51.9375V40.5625C4.375 35.4792 6.20833 31.1667 9.875 27.625C13.5 24.2083 17.7917 22.5 22.75 22.5H29.125C33.1667 22.5 37.0833 23.3958 40.875 25.1875C42.4583 25.9792 43.7083 26.8125 44.625 27.6875L36.3125 34.125C34.8542 32.25 32.8333 31.1458 30.25 30.8125C29.8333 30.7708 29.4583 30.75 29.125 30.75H22.75C19.875 30.75 17.5625 32.0208 15.8125 34.5625C14.5625 36.3542 13.9375 38.3542 13.9375 40.5625ZM81.9375 63.6875H61.125L66.25 55.4375H79.0625L70.9375 32.125L57.6875 70H47.4375L61.375 30.25C63.4167 24.7083 66.6042 21.9167 70.9375 21.875C75.2708 21.9167 78.4375 24.7083 80.4375 30.25L94.4375 70H84.1875L81.9375 63.6875ZM109.438 61.75H132.062L136.5 70H108.875C105.792 70 103.354 68.8333 101.562 66.5C100.438 65.0417 99.875 63.4167 99.875 61.625V22.5H109.438V61.75ZM170.812 51.9375V40.5625C170.812 37.2708 169.625 34.6458 167.25 32.6875C165.708 31.3958 163.979 30.75 162.062 30.75H149.688V61.75H162.062C164.938 61.75 167.25 60.4583 169 57.875C170.208 56.0833 170.812 54.1042 170.812 51.9375ZM140.125 30.875C140.125 28.0417 141.333 25.7917 143.75 24.125C145.375 23.0417 147.167 22.5 149.125 22.5H162.062C167.229 22.5 171.625 24.3333 175.25 28C178.708 31.5 180.438 35.6875 180.438 40.5625V51.9375C180.438 57.0208 178.604 61.3333 174.938 64.875C171.312 68.2917 167.021 70 162.062 70H140.125V30.875ZM200.5 60.1875L211.125 29.4375H221.25L231.875 60.1875L235.5 22.5H245.75L241.438 62.0625C241.021 65.6042 239.354 68.0625 236.438 69.4375C235.188 70.0208 233.896 70.3125 232.562 70.3125C229.688 70.3125 227.5 69.1875 226 66.9375C225.625 66.3958 225.333 65.8333 225.125 65.25L216.188 39.25L207.312 65.25C206.354 67.8333 204.5 69.4375 201.75 70.0625C201.083 70.2292 200.438 70.3125 199.812 70.3125C196.812 70.3125 194.458 69.1458 192.75 66.8125C191.792 65.4375 191.208 63.8542 191 62.0625L186.625 22.5H196.875L200.5 60.1875ZM262.25 50.625V61.75H286.75L291.25 70H261.688C258.646 70 256.208 68.8542 254.375 66.5625C253.208 65.0625 252.625 63.4167 252.625 61.625V30.875C252.625 28.0833 253.833 25.8542 256.25 24.1875C257.875 23.0625 259.688 22.5 261.688 22.5H291.25L286.75 30.75H262.25V42.375H284.812V50.625H262.25ZM307.875 61.75H330.5L334.938 70H307.312C304.229 70 301.792 68.8333 300 66.5C298.875 65.0417 298.312 63.4167 298.312 61.625V22.5H307.875V61.75ZM348.25 61.75H370.875L375.312 70H347.688C344.604 70 342.167 68.8333 340.375 66.5C339.25 65.0417 338.688 63.4167 338.688 61.625V22.5H348.25V61.75Z" fill="#F54952"/>
</g>
<defs>
<filter id="filter0_d" x="0.375" y="0.464844" width="378.938" height="77.8477" filterUnits="userSpaceOnUse" color-interpolation-filters="sRGB">
<feFlood flood-opacity="0" result="BackgroundImageFix"/>
<feColorMatrix in="SourceAlpha" type="matrix" values="0 0 0 0 0 0 0 0 0 0 0 0 0 0 0 0 0 0 127 0" result="hardAlpha"/>
<feOffset dy="4"/>
<feGaussianBlur stdDeviation="2"/>
<feComposite in2="hardAlpha" operator="out"/>
<feColorMatrix type="matrix" values="0 0 0 0 0 0 0 0 0 0 0 0 0 0 0 0 0 0 0.25 0"/>
<feBlend mode="normal" in2="BackgroundImageFix" result="effect1_dropShadow"/>
<feBlend mode="normal" in="SourceGraphic" in2="effect1_dropShadow" result="shape"/>
</filter>
</defs>
</svg>
