<svg width="129" height="126" viewBox="0 0 129 126" fill="none" xmlns="http://www.w3.org/2000/svg">
<path fill-rule="evenodd" clip-rule="evenodd" d="M64.3505 12.9181L64.3505 1.77054C46.6303 1.77054 30.5877 8.84508 18.9751 20.0844L27.0149 27.844C36.5699 18.622 49.77 12.9181 64.3505 12.9181Z" fill="white"/>
<path fill-rule="evenodd" clip-rule="evenodd" d="M11.55 63.8782H-8.7738e-05C-8.7738e-05 46.7756 7.32991 31.2921 18.9751 20.0842L27.0149 27.8439C17.4599 37.0658 11.55 49.8059 11.55 63.8782Z" fill="white"/>
<path fill-rule="evenodd" clip-rule="evenodd" d="M11.55 63.8782L-8.7738e-05 63.8782C-8.7738e-05 80.9808 7.32991 96.4643 18.9751 107.672L27.0149 99.9125C17.4599 90.6905 11.55 77.9505 11.55 63.8782Z" fill="white"/>
<path fill-rule="evenodd" clip-rule="evenodd" d="M64.3505 114.838L64.3505 125.986C46.6303 125.986 30.5877 118.912 18.9751 107.672L27.0149 99.9126C36.5699 109.135 49.77 114.838 64.3505 114.838Z" fill="white"/>
<path fill-rule="evenodd" clip-rule="evenodd" d="M64.3505 114.838L64.3505 125.986C82.0707 125.986 98.1133 118.912 109.726 107.672L101.686 99.9126C92.131 109.135 78.9309 114.838 64.3505 114.838Z" fill="white"/>
<path fill-rule="evenodd" clip-rule="evenodd" d="M117.151 63.8782L128.701 63.8782C128.701 80.9808 121.371 96.4643 109.726 107.672L101.686 99.9125C111.241 90.6905 117.151 77.9505 117.151 63.8782Z" fill="white"/>
<path fill-rule="evenodd" clip-rule="evenodd" d="M117.151 63.8782H128.701C128.701 46.7756 121.371 31.2921 109.726 20.0842L101.686 27.8439C111.241 37.0658 117.151 49.8059 117.151 63.8782Z" fill="white"/>
<path fill-rule="evenodd" clip-rule="evenodd" d="M114.182 47.0358C109.351 33.7585 99.4008 23.628 87.2196 17.9827L92.1413 8.09028C106.976 14.9409 119.208 27.2057 125.079 43.3421L114.182 47.0358Z" fill="white"/>
<path d="M99.7846 9.94098C100.871 10.6929 101.103 12.2031 100.292 13.2464L93.4586 22.0405C92.9347 22.7147 91.9589 22.8263 91.2963 22.2877C84.4959 16.7607 75.9204 13.8899 67.163 14.2089L66.0568 14.2492C65.1247 14.2831 64.3505 13.5366 64.3505 12.6039V1.72841C64.3505 0.923705 64.9968 0.268182 65.8014 0.256761L67.8827 0.227221C79.2685 0.0656179 90.4209 3.4614 99.7846 9.94098Z" fill="#F54952"/>
</svg>
