<svg width="561" height="569" viewBox="0 0 561 569" fill="none" xmlns="http://www.w3.org/2000/svg">
<path d="M139.991 46.5918C154.986 56.7421 169.98 66.6618 185.437 75.428C166.751 120.412 163.521 170.241 175.748 215.457C204.353 334.031 333.078 376.939 443.348 376.478L443.578 376.478C472.876 385.014 502.173 389.858 531.24 391.934C523.858 406.237 515.323 419.848 505.634 432.536C500.559 439.226 495.253 445.685 489.485 451.683C384.752 440.61 247.958 495.052 157.066 432.536C93.8572 389.627 78.8579 259.749 59.9414 186.39C56.7117 171.164 54.8661 155.477 54.6354 140.021C75.6282 102.649 104.926 70.5835 139.991 46.5918Z" fill="url(#paint0_radial)"/>
<path d="M232.497 6.45139C247.953 2.99104 263.871 0.914837 280.25 0.222769C292.015 -0.238609 304.011 -0.00792363 316.007 1.14553C391.673 8.06622 457.189 45.6686 501.251 100.342C526.566 154.5 316.007 153 228.576 95.2669C213.581 89.961 188.566 62.5 188.566 62.5C188.566 62.5 175.417 40.3789 188.566 24C193.18 18.002 226.73 11.0652 232.497 6.45139Z" fill="url(#paint1_radial)"/>
<path d="M54.8664 140.251C55.0971 155.707 56.9424 171.163 60.1721 186.62C78.8579 260.21 135.566 289 190.281 360.56C202.49 368.957 207.566 435 266.87 422.5C370.066 396.5 398.851 442.327 489.716 451.913C434.812 511.431 353.84 545.803 266.87 537.729C118.767 524.349 9.42039 393.087 23.0311 244.984C26.4914 207.151 37.7953 171.625 54.8664 140.251Z" fill="url(#paint2_radial)"/>
<path d="M207.066 28C188.38 72.9845 79.5662 125.5 175.748 215.687C204.354 334.261 333.079 377.169 443.579 376.477L561 265.977C560.077 203.921 538.162 146.249 501.251 100.572C410.59 112.799 346.892 141.642 256 107.5C198.5 85.901 220.908 35.8434 207.066 28Z" fill="url(#paint3_radial)"/>
<path d="M210.352 193.31C224.193 169.088 239.566 233.5 315.316 209.92C477.566 129.5 478.874 257.673 561 265.977C561 275.205 560.769 284.663 559.847 294.121C557.77 316.037 553.387 337.03 546.467 356.869C519.245 367.942 490.87 374.632 462.265 376.247C456.036 376.478 449.808 376.708 443.348 376.708C382.446 359.637 330.08 324.803 272.869 294.121C235.497 271.975 193.281 226.529 210.352 193.31Z" fill="url(#paint4_radial)"/>
<path d="M232.497 6.45093C226.499 11.0647 221.193 16.1399 216.58 22.3685C203.43 38.7475 226.566 63.1453 185.436 75.4271C49.5659 116 154.985 56.7413 139.991 46.5909C167.673 27.9051 199.047 14.0637 232.497 6.45093Z" fill="url(#paint5_radial)"/>
<path d="M546.465 356.639C542.312 368.865 537.237 380.861 531.47 392.165C502.403 390.089 515.066 419.5 469.566 411C424.066 402.5 443.577 376.709 443.577 376.709C469.566 353 447.338 321.231 453.566 321C481.941 319.155 519.243 367.712 546.465 356.639Z" fill="url(#paint6_radial)"/>
<path d="M115.227 411.956C126.436 413.017 162.71 436.899 174.098 439.732C190.436 443.798 227.209 414.246 261.954 437.254C306.567 460.915 353.67 479.283 375 519.373C380.129 541.125 257.483 548.127 195 518.5C157.842 505.95 127.639 485.53 107.5 465.5C81.4997 436 68.4997 420 68.4997 420C68.4997 420 70.3546 420.181 82.1011 413.369C86.264 410.834 92.8547 421.733 115.227 411.956Z" fill="url(#paint7_radial)"/>
<path d="M79.2084 103.951C-52.5352 63.6084 -41.7637 209.072 280 278C269.228 242.268 231.943 235.813 223.657 239.502C217.581 197.546 180.571 192.474 153.504 211.608C156.266 187.863 140.799 182.1 131.685 181.409C138.866 156.972 125.885 132.997 81.9703 149.365C90.5323 126.082 74.2368 116.86 74.2368 116.86L79.2084 103.951Z" fill="url(#paint8_linear)"/>
<path d="M76.9453 103.951C-51.0342 63.6084 -40.5704 209.072 272 278C261.536 242.268 220.4 235.813 212.351 239.502C206.448 197.546 170.496 192.474 144.203 211.608C146.886 187.863 131.861 182.1 123.007 181.409C129.983 156.972 117.372 132.997 74.7126 149.365C83.0299 126.082 67.2001 116.86 67.2001 116.86L76.9453 103.951Z" fill="url(#paint9_radial)"/>
<path d="M211.035 473.173C211.035 473.173 233.642 451.027 250.944 480.324C271.014 458.87 296.067 498.318 299.066 504.316C324.442 478.017 355.216 466.944 347.834 504.316C373.902 481.708 381.976 512.159 381.976 512.159C408.044 477.787 401.566 473.334 439.566 489C439.566 489 455.566 428.5 479.788 494.166C483.066 516 404.066 518 365.597 552.069C334.566 599.5 211.035 473.173 211.035 473.173Z" fill="url(#paint10_radial)"/>
<defs>
<radialGradient id="paint0_radial" cx="0" cy="0" r="1" gradientUnits="userSpaceOnUse" gradientTransform="translate(352.296 92.3067) rotate(119.219) scale(377.741 437.553)">
<stop stop-color="#AE2D68"/>
<stop offset="1" stop-color="#660F56"/>
</radialGradient>
<radialGradient id="paint1_radial" cx="0" cy="0" r="1" gradientUnits="userSpaceOnUse" gradientTransform="translate(382.967 15.3422) rotate(138.269) scale(166.221 224.496)">
<stop stop-color="#AE2D68"/>
<stop offset="1" stop-color="#660F56"/>
</radialGradient>
<radialGradient id="paint2_radial" cx="0" cy="0" r="1" gradientUnits="userSpaceOnUse" gradientTransform="translate(314.066 184) rotate(119.843) scale(363.732 426.858)">
<stop stop-color="#AE2D68"/>
<stop offset="1" stop-color="#660F56"/>
</radialGradient>
<radialGradient id="paint3_radial" cx="0" cy="0" r="1" gradientUnits="userSpaceOnUse" gradientTransform="translate(401.643 66.2442) rotate(120.769) scale(320.986 383.619)">
<stop stop-color="#AE2D68"/>
<stop offset="1" stop-color="#660F56"/>
</radialGradient>
<radialGradient id="paint4_radial" cx="0" cy="0" r="1" gradientUnits="userSpaceOnUse" gradientTransform="translate(337.5 458) rotate(-68.8505) scale(293.789 397.046)">
<stop stop-color="#AE2D68"/>
<stop offset="1" stop-color="#660F56"/>
</radialGradient>
<radialGradient id="paint5_radial" cx="0" cy="0" r="1" gradientUnits="userSpaceOnUse" gradientTransform="translate(188.404 15.5613) rotate(124.667) scale(79.8811 101.605)">
<stop stop-color="#AE2D68"/>
<stop offset="1" stop-color="#660F56"/>
</radialGradient>
<radialGradient id="paint6_radial" cx="0" cy="0" r="1" gradientUnits="userSpaceOnUse" gradientTransform="translate(506.274 331.001) rotate(119.739) scale(83.4894 97.772)">
<stop stop-color="#AE2D68"/>
<stop offset="1" stop-color="#660F56"/>
</radialGradient>
<radialGradient id="paint7_radial" cx="0" cy="0" r="1" gradientUnits="userSpaceOnUse" gradientTransform="translate(241 384) rotate(96.9728) scale(140.036 182.771)">
<stop stop-color="#AE2D68"/>
<stop offset="1" stop-color="#660F56"/>
</radialGradient>
<linearGradient id="paint8_linear" x1="140" y1="97" x2="140" y2="278" gradientUnits="userSpaceOnUse">
<stop stop-color="#D4D5D7"/>
<stop offset="1" stop-color="#D4D5D7" stop-opacity="0"/>
</linearGradient>
<radialGradient id="paint9_radial" cx="0" cy="0" r="1" gradientUnits="userSpaceOnUse" gradientTransform="translate(223.088 55.5) rotate(133.004) scale(247.501 320.486)">
<stop stop-color="#D4D5D7"/>
<stop offset="0.758311" stop-color="#D4D5D7" stop-opacity="0.30382"/>
<stop offset="0.818271" stop-color="white" stop-opacity="0.51"/>
<stop offset="0.912785" stop-opacity="0"/>
</radialGradient>
<radialGradient id="paint10_radial" cx="0" cy="0" r="1" gradientUnits="userSpaceOnUse" gradientTransform="translate(349.066 414.5) rotate(91.3932) scale(148.265 402.061)">
<stop offset="0.329656" stop-color="white"/>
<stop offset="1" stop-color="white" stop-opacity="0"/>
</radialGradient>
</defs>
</svg>
