<svg width="733" height="890" viewBox="0 0 733 890" fill="none" xmlns="http://www.w3.org/2000/svg">
<g clip-path="url(#clip0)">
<path fill-rule="evenodd" clip-rule="evenodd" d="M747 774C-576.911 665.685 195.37 224.202 747 17V114.409C244.277 313.259 -279.095 588.645 747 698.568V774Z" fill="url(#paint0_radial)" fill-opacity="0.5"/>
<path fill-rule="evenodd" clip-rule="evenodd" d="M957 104C405.37 285.211 -366.912 579.272 957 674V104ZM828 196C474.836 327.616 -19.5931 541.197 828 610V196Z" fill="url(#paint1_radial)" fill-opacity="0.5"/>
<circle cx="234.77" cy="647.867" r="4" fill="#280659"/>
<ellipse cx="448.27" cy="485.867" rx="2.5" ry="3" fill="#280659"/>
<ellipse cx="233.246" cy="547.772" rx="1.9084" ry="2.67177" transform="rotate(-4.15878 233.246 547.772)" fill="#280659"/>
<circle cx="577.77" cy="200.867" r="4" fill="#280659"/>
<path d="M554.021 627.056C554.156 626.674 554.684 626.622 554.96 626.963L555.88 628.1C556.149 628.434 555.976 628.895 555.565 628.936L554.198 629.071C553.787 629.111 553.443 628.701 553.574 628.328L554.021 627.056Z" fill="#280659"/>
<path d="M519.899 716.491C520.091 716.302 520.4 716.271 520.657 716.415L522.233 717.296C522.478 717.433 522.622 717.699 522.59 717.96L522.382 719.685C522.35 719.953 522.14 720.154 521.864 720.182L520.178 720.35C519.902 720.378 519.624 720.225 519.49 719.974L518.63 718.355C518.5 718.111 518.536 717.827 518.72 717.647L519.899 716.491Z" fill="#280659"/>
<path d="M610.144 483.065C610.386 483.153 610.552 483.373 610.565 483.624L610.661 485.389C610.677 485.677 610.488 485.937 610.205 486.018L608.636 486.469C608.375 486.544 608.094 486.451 607.932 486.236L606.79 484.722C606.629 484.508 606.622 484.219 606.773 484L607.687 482.68C607.852 482.441 608.163 482.345 608.442 482.446L610.144 483.065Z" fill="#280659"/>
<path d="M720.572 144.88C720.74 144.684 721.004 144.606 721.244 144.682L722.929 145.216C723.205 145.303 723.381 145.571 723.357 145.865L723.225 147.492C723.204 147.762 723.017 147.992 722.759 148.068L720.94 148.602C720.682 148.678 720.409 148.582 720.258 148.363L719.345 147.042C719.18 146.804 719.2 146.479 719.392 146.254L720.572 144.88Z" fill="#280659"/>
<path d="M597.6 276.157C597.52 276.402 597.305 276.574 597.054 276.596L595.293 276.746C595.005 276.77 594.74 276.59 594.65 276.309L594.151 274.755C594.068 274.497 594.153 274.213 594.362 274.044L595.84 272.856C596.049 272.688 596.338 272.673 596.561 272.817L597.909 273.69C598.153 273.847 598.259 274.155 598.166 274.437L597.6 276.157Z" fill="#280659"/>
<path d="M522.549 83.6058C522.749 83.7675 522.835 84.0295 522.767 84.2715L522.285 85.9722C522.207 86.2501 521.945 86.435 521.65 86.4203L520.019 86.3385C519.749 86.325 519.513 86.1457 519.429 85.8906L518.839 84.0883C518.756 83.8333 518.843 83.5575 519.057 83.3995L520.349 82.446C520.582 82.2738 520.908 82.2834 521.139 82.4691L522.549 83.6058Z" fill="#280659"/>
<path d="M595.827 383.009C596.036 382.992 596.236 383.129 596.318 383.343L596.819 384.659C596.897 384.864 596.849 385.095 596.7 385.235L595.711 386.162C595.558 386.306 595.332 386.321 595.153 386.199L594.061 385.455C593.882 385.333 593.792 385.103 593.838 384.886L594.135 383.487C594.18 383.276 594.344 383.125 594.544 383.109L595.827 383.009Z" fill="#280659"/>
<path d="M621.902 122.969C621.96 122.767 622.158 122.628 622.388 122.628L623.796 122.624C624.015 122.623 624.214 122.749 624.292 122.938L624.811 124.19C624.891 124.385 624.826 124.601 624.649 124.726L623.567 125.485C623.39 125.609 623.143 125.613 622.956 125.493L621.752 124.721C621.571 124.605 621.487 124.398 621.542 124.206L621.902 122.969Z" fill="#280659"/>
<path d="M697.166 258.759C697.189 258.968 697.059 259.172 696.847 259.26L695.547 259.801C695.345 259.886 695.112 259.845 694.968 259.7L694.011 258.741C693.862 258.592 693.84 258.366 693.956 258.184L694.666 257.069C694.783 256.887 695.01 256.789 695.228 256.829L696.635 257.083C696.848 257.121 697.004 257.28 697.026 257.479L697.166 258.759Z" fill="#280659"/>
<path d="M620.203 456.893C620.449 456.747 620.757 456.958 620.752 457.267L620.713 459.44C620.707 459.742 620.404 459.912 620.164 459.749L618.475 458.598C618.235 458.435 618.235 458.057 618.475 457.915L620.203 456.893Z" fill="#280659"/>
<path d="M699.633 126.233C699.584 125.951 699.89 125.736 700.177 125.851L702.197 126.654C702.477 126.766 702.53 127.109 702.292 127.276L700.62 128.45C700.382 128.618 700.029 128.485 699.98 128.21L699.633 126.233Z" fill="#280659"/>
<path d="M624.069 285.403C624.222 285.645 624.021 285.96 623.712 285.964L621.539 285.992C621.237 285.996 621.057 285.698 621.213 285.453L622.311 283.73C622.467 283.484 622.844 283.473 622.994 283.708L624.069 285.403Z" fill="#280659"/>
<path d="M540.539 62.1031C540.819 62.0451 541.043 62.3442 540.938 62.6348L540.197 64.678C540.094 64.962 539.752 65.0252 539.578 64.7925L538.353 63.1572C538.178 62.9245 538.3 62.5677 538.574 62.511L540.539 62.1031Z" fill="#280659"/>
<ellipse cx="314.457" cy="301.539" rx="3.05345" ry="3.43513" transform="rotate(-4.15878 314.457 301.539)" fill="#280659"/>
<path d="M697.317 667.957C697.436 668.185 697.41 668.46 697.25 668.654L696.129 670.021C695.946 670.244 695.632 670.309 695.368 670.177L693.906 669.45C693.663 669.33 693.518 669.071 693.544 668.804L693.724 666.916C693.749 666.649 693.939 666.431 694.199 666.372L695.764 666.014C696.047 665.95 696.342 666.089 696.479 666.351L697.317 667.957Z" fill="#280659"/>
<path d="M722.404 655.441C722.683 655.5 722.769 655.863 722.556 656.088L721.061 657.664C720.853 657.883 720.514 657.805 720.447 657.522L719.978 655.533C719.911 655.25 720.166 654.972 720.439 655.029L722.404 655.441Z" fill="#280659"/>
<rect x="471.949" y="315.777" width="1.65814" height="1.65814" rx="0.265094" transform="rotate(-24.4476 471.949 315.777)" fill="#280659"/>
<rect width="1.28907" height="1.37488" rx="0.265094" transform="matrix(0.859014 -0.511952 0.447063 0.894503 240.727 403.837)" fill="#280659"/>
<rect x="732.832" y="826.579" width="3.32622" height="3.32622" rx="0.531777" transform="rotate(-24.4476 732.832 826.579)" fill="#280659"/>
<rect width="2.58587" height="2.75799" rx="0.531777" transform="matrix(0.859014 -0.511952 0.447063 0.894503 470.545 818.421)" fill="#280659"/>
<rect x="264.52" y="365.406" width="2.8857" height="2.8857" rx="0.481997" transform="rotate(35.3063 264.52 365.406)" fill="#280659"/>
<rect width="2.28127" height="2.35664" rx="0.481997" transform="matrix(0.830586 0.55689 -0.477777 0.878481 85.8301 457.004)" fill="#280659"/>
<rect x="346.461" y="620.147" width="3.43472" height="3.43472" rx="0.619105" transform="rotate(30.4542 346.461 620.147)" fill="#280659"/>
<rect width="2.69402" height="2.82544" rx="0.619105" transform="matrix(0.876221 0.481909 -0.405107 0.91427 163.773 666.427)" fill="#280659"/>
<rect x="702.139" y="741.125" width="3.43472" height="3.43472" rx="0.619105" transform="rotate(-24.4476 702.139 741.125)" fill="#280659"/>
<rect width="2.67021" height="2.84795" rx="0.619105" transform="matrix(0.859014 -0.511952 0.447063 0.894503 441.959 748.347)" fill="#280659"/>
<rect width="2.67021" height="2.84795" rx="0.619105" transform="matrix(0.859014 -0.511952 0.447063 0.894503 438.01 347.881)" fill="#280659"/>
<path d="M446.378 125.519C446.726 125.313 447.165 125.612 447.157 126.051L447.131 127.513C447.124 127.942 446.694 128.184 446.353 127.951L445.219 127.177C444.878 126.944 444.878 126.408 445.218 126.207L446.378 125.519Z" fill="#280659"/>
<path d="M708.125 346.848C708.504 346.677 708.927 346.981 708.885 347.395L708.667 349.578C708.625 349.992 708.151 350.206 707.813 349.963L706.032 348.682C705.694 348.439 705.746 347.921 706.125 347.75L708.125 346.848Z" fill="#280659"/>
<path d="M322.798 124.519C322.979 124.145 323.497 124.106 323.732 124.45L324.966 126.264C325.201 126.608 324.975 127.076 324.56 127.107L322.372 127.27C321.957 127.3 321.664 126.87 321.845 126.496L322.798 124.519Z" fill="#280659"/>
<path d="M422.265 416.961C422.614 416.754 423.052 417.053 423.044 417.492L423.018 418.952C423.01 419.381 422.58 419.623 422.239 419.391L421.104 418.617C420.763 418.385 420.763 417.85 421.104 417.648L422.265 416.961Z" fill="#280659"/>
<path d="M148.751 361.879C148.886 361.497 149.414 361.444 149.69 361.785L150.608 362.921C150.877 363.255 150.703 363.717 150.292 363.758L148.926 363.894C148.515 363.935 148.171 363.525 148.303 363.151L148.751 361.879Z" fill="#280659"/>
<path d="M316.243 461.915C316.373 462.158 316.332 462.456 316.141 462.655L314.481 464.384C314.291 464.583 313.994 464.636 313.746 464.516L311.588 463.471C311.341 463.352 311.198 463.086 311.236 462.813L311.562 460.438C311.6 460.166 311.809 459.948 312.079 459.9L314.439 459.476C314.71 459.428 314.981 459.559 315.111 459.802L316.243 461.915Z" fill="#280659"/>
<path d="M96.3731 464.436C96.6285 464.539 96.7888 464.794 96.7703 465.068L96.6088 467.46C96.5903 467.735 96.3971 467.966 96.1303 468.033L93.8054 468.619C93.5386 468.686 93.2589 468.574 93.1125 468.341L91.8371 466.311C91.6907 466.078 91.711 465.777 91.8874 465.566L93.424 463.726C93.6004 463.515 93.8927 463.441 94.148 463.543L96.3731 464.436Z" fill="#280659"/>
<path d="M131.083 535.161C131.212 535.384 131.198 535.66 131.047 535.861L129.987 537.275C129.813 537.506 129.502 537.584 129.233 537.465L127.74 536.802C127.493 536.692 127.337 536.44 127.351 536.172L127.448 534.278C127.462 534.01 127.643 533.784 127.899 533.713L129.448 533.288C129.727 533.211 130.028 533.338 130.176 533.594L131.083 535.161Z" fill="#280659"/>
<path d="M37.1437 643.065C37.3859 643.153 37.5519 643.373 37.5655 643.624L37.661 645.389C37.6766 645.677 37.4884 645.937 37.205 646.018L35.6355 646.469C35.3754 646.544 35.0939 646.451 34.9323 646.236L33.7904 644.722C33.6288 644.508 33.622 644.219 33.7735 644L34.6871 642.68C34.852 642.441 35.1634 642.345 35.4415 642.446L37.1437 643.065Z" fill="#280659"/>
<path d="M653.558 51.8814C653.833 51.8801 654.078 52.0561 654.164 52.3173L654.916 54.5938C655.003 54.8551 654.911 55.1422 654.689 55.305L652.757 56.7237C652.535 56.8865 652.233 56.888 652.01 56.7274L650.063 55.3277C649.84 55.167 649.746 54.8808 649.829 54.6187L650.559 52.335C650.643 52.0729 650.886 51.8945 651.161 51.8932L653.558 51.8814Z" fill="#280659"/>
<path d="M362.776 172.143C363.045 172.122 363.301 172.297 363.406 172.572L364.048 174.259C364.148 174.522 364.087 174.818 363.896 174.997L362.628 176.186C362.431 176.371 362.141 176.39 361.912 176.234L360.511 175.28C360.282 175.124 360.166 174.828 360.226 174.55L360.607 172.757C360.664 172.486 360.874 172.292 361.131 172.272L362.776 172.143Z" fill="#280659"/>
<path d="M575.467 450.892C575.556 450.995 575.568 451.144 575.497 451.261L574.88 452.278C574.81 452.394 574.672 452.452 574.539 452.421L573.381 452.148C573.248 452.117 573.151 452.004 573.139 451.868L573.041 450.682C573.03 450.546 573.107 450.419 573.233 450.366L574.33 449.906C574.456 449.853 574.601 449.887 574.69 449.991L575.467 450.892Z" fill="#280659"/>
<path d="M287.961 289.473C288.096 289.495 288.201 289.602 288.222 289.736L288.402 290.912C288.423 291.047 288.354 291.18 288.232 291.241L287.17 291.776C287.048 291.837 286.9 291.813 286.804 291.716L285.968 290.871C285.872 290.774 285.849 290.626 285.911 290.505L286.457 289.448C286.519 289.327 286.653 289.259 286.787 289.281L287.961 289.473Z" fill="#280659"/>
<path d="M327.777 511.575C327.861 511.668 327.881 511.803 327.828 511.918L327.455 512.731C327.394 512.864 327.251 512.939 327.109 512.913L326.325 512.769C326.194 512.745 326.095 512.642 326.075 512.51L325.936 511.578C325.917 511.446 325.982 511.315 326.099 511.25L326.804 510.86C326.931 510.789 327.089 510.815 327.186 510.921L327.777 511.575Z" fill="#280659"/>
<path d="M450.771 172.457C451.046 172.456 451.291 172.632 451.377 172.893L452.129 175.169C452.216 175.431 452.124 175.718 451.902 175.881L449.969 177.299C449.748 177.462 449.446 177.464 449.223 177.303L447.276 175.903C447.053 175.743 446.958 175.457 447.042 175.194L447.772 172.911C447.856 172.649 448.099 172.47 448.374 172.469L450.771 172.457Z" fill="#280659"/>
<path d="M215.747 284.642C216.016 284.621 216.272 284.796 216.377 285.071L217.019 286.758C217.119 287.021 217.058 287.317 216.866 287.496L215.598 288.685C215.402 288.87 215.112 288.889 214.883 288.733L213.482 287.779C213.253 287.622 213.137 287.327 213.196 287.049L213.577 285.256C213.635 284.985 213.845 284.79 214.101 284.77L215.747 284.642Z" fill="#280659"/>
<path d="M627.741 539.601C627.849 539.768 627.836 539.986 627.71 540.14L626.614 541.481C626.488 541.635 626.278 541.691 626.092 541.619L624.478 540.991C624.293 540.918 624.175 540.735 624.186 540.537L624.284 538.807C624.296 538.609 624.433 538.44 624.626 538.389L626.301 537.948C626.493 537.898 626.696 537.977 626.804 538.144L627.741 539.601Z" fill="#280659"/>
<path d="M372.991 583.179C373.096 583.331 373.1 583.529 373.002 583.684L372.313 584.771C372.2 584.949 371.98 585.025 371.779 584.956L370.672 584.573C370.488 584.51 370.363 584.338 370.358 584.144L370.329 582.771C370.325 582.577 370.443 582.403 370.624 582.336L371.715 581.931C371.913 581.858 372.136 581.93 372.257 582.106L372.991 583.179Z" fill="#280659"/>
<path d="M645.884 650.375C646.16 650.373 646.404 650.549 646.491 650.811L647.243 653.087C647.329 653.348 647.237 653.636 647.015 653.798L645.083 655.217C644.861 655.38 644.56 655.381 644.336 655.221L642.39 653.821C642.166 653.66 642.072 653.374 642.155 653.112L642.885 650.828C642.969 650.566 643.212 650.388 643.487 650.387L645.884 650.375Z" fill="#280659"/>
<path d="M393.485 675.248C393.754 675.227 394.01 675.401 394.115 675.676L394.757 677.364C394.857 677.627 394.796 677.923 394.605 678.102L393.337 679.291C393.14 679.475 392.85 679.495 392.621 679.339L391.22 678.384C390.991 678.228 390.875 677.933 390.935 677.654L391.316 675.861C391.373 675.591 391.583 675.396 391.84 675.376L393.485 675.248Z" fill="#280659"/>
<path d="M388.291 762.181C388.566 762.18 388.811 762.356 388.897 762.617L389.649 764.894C389.735 765.155 389.643 765.442 389.422 765.605L387.489 767.024C387.267 767.186 386.966 767.188 386.742 767.027L384.796 765.627C384.573 765.467 384.478 765.181 384.562 764.919L385.291 762.635C385.375 762.373 385.618 762.194 385.893 762.193L388.291 762.181Z" fill="#280659"/>
<path d="M204.192 783.415C204.461 783.394 204.717 783.569 204.822 783.844L205.464 785.531C205.564 785.794 205.503 786.09 205.312 786.269L204.044 787.458C203.847 787.643 203.557 787.662 203.328 787.506L201.927 786.552C201.698 786.396 201.582 786.1 201.642 785.822L202.023 784.029C202.08 783.758 202.29 783.564 202.547 783.544L204.192 783.415Z" fill="#280659"/>
<path d="M127.925 454.563C128.139 454.562 128.33 454.699 128.397 454.903L128.984 456.678C129.051 456.882 128.98 457.106 128.807 457.233L127.299 458.339C127.126 458.466 126.891 458.467 126.717 458.342L125.199 457.251C125.025 457.125 124.951 456.902 125.017 456.698L125.586 454.917C125.651 454.712 125.84 454.573 126.055 454.572L127.925 454.563Z" fill="#280659"/>
<path d="M22.8271 543.009C23.0364 542.992 23.2364 543.129 23.3181 543.343L23.8186 544.659C23.8966 544.864 23.849 545.095 23.6998 545.235L22.7111 546.162C22.5576 546.306 22.3317 546.321 22.153 546.199L21.0605 545.455C20.8818 545.333 20.7917 545.103 20.8378 544.886L21.1349 543.487C21.1797 543.276 21.3435 543.125 21.5435 543.109L22.8271 543.009Z" fill="#280659"/>
<path d="M152.815 544.093C153.082 543.972 153.379 544.186 153.35 544.478L153.06 547.369C153.031 547.661 152.697 547.811 152.459 547.64L150.1 545.944C149.862 545.773 149.899 545.408 150.166 545.288L152.815 544.093Z" fill="#280659"/>
<path d="M47.2027 616.893C47.4485 616.747 47.7574 616.958 47.7518 617.267L47.7128 619.44C47.7074 619.742 47.4044 619.912 47.1641 619.749L45.4754 618.598C45.2351 618.435 45.2349 618.057 45.475 617.915L47.2027 616.893Z" fill="#280659"/>
</g>
<defs>
<radialGradient id="paint0_radial" cx="0" cy="0" r="1" gradientUnits="userSpaceOnUse" gradientTransform="translate(747.231 435.633) rotate(170.752) scale(768.489 742.094)">
<stop stop-color="white"/>
<stop offset="0.118055" stop-color="white"/>
<stop offset="0.43783" stop-color="white" stop-opacity="0.554271"/>
<stop offset="0.579792" stop-color="white" stop-opacity="0.751736"/>
<stop offset="0.810764" stop-color="white" stop-opacity="0.230903"/>
<stop offset="1" stop-color="white" stop-opacity="0.4"/>
</radialGradient>
<radialGradient id="paint1_radial" cx="0" cy="0" r="1" gradientUnits="userSpaceOnUse" gradientTransform="translate(645.835 460.322) rotate(175.449) scale(711.376 805.617)">
<stop stop-color="white"/>
<stop offset="0.243055" stop-color="white" stop-opacity="0.501736"/>
<stop offset="0.451389" stop-color="white" stop-opacity="0.751736"/>
<stop offset="0.72743" stop-color="white" stop-opacity="0.27257"/>
<stop offset="0.94618" stop-color="white" stop-opacity="0.42"/>
</radialGradient>
<clipPath id="clip0">
<rect width="733" height="890" rx="20" fill="white"/>
</clipPath>
</defs>
</svg>
