<svg width="1440" height="2354" viewBox="0 0 1440 2354" fill="none" xmlns="http://www.w3.org/2000/svg">
<g clip-path="url(#clip0)" filter="url(#filter0_d)">
<ellipse cx="83.6585" cy="1044.45" rx="1.39685" ry="0.829194" transform="rotate(-19.5884 83.6585 1044.45)" fill="white"/>
<ellipse cx="281.065" cy="974.204" rx="1.39691" ry="0.829194" transform="rotate(-19.5884 281.065 974.204)" fill="white"/>
<ellipse cx="478.481" cy="903.954" rx="1.39674" ry="0.829194" transform="rotate(-19.5884 478.481 903.954)" fill="white"/>
<ellipse cx="675.889" cy="833.705" rx="1.397" ry="0.829194" transform="rotate(-19.5884 675.889 833.705)" fill="white"/>
<ellipse cx="873.295" cy="763.456" rx="1.39691" ry="0.829194" transform="rotate(-19.5884 873.295 763.456)" fill="white"/>
<ellipse cx="1070.71" cy="693.205" rx="1.39674" ry="0.829194" transform="rotate(-19.5884 1070.71 693.205)" fill="white"/>
<ellipse cx="1268.12" cy="622.957" rx="1.39691" ry="0.829194" transform="rotate(-19.5884 1268.12 622.957)" fill="white"/>
<ellipse cx="177.34" cy="1099.38" rx="1.39691" ry="0.829194" transform="rotate(-19.5884 177.34 1099.38)" fill="white"/>
<ellipse cx="374.754" cy="1029.13" rx="1.39687" ry="0.829194" transform="rotate(-19.5884 374.754 1029.13)" fill="white"/>
<ellipse cx="572.16" cy="958.879" rx="1.39683" ry="0.829194" transform="rotate(-19.5884 572.16 958.879)" fill="white"/>
<ellipse cx="769.571" cy="888.63" rx="1.397" ry="0.829194" transform="rotate(-19.5884 769.571 888.63)" fill="white"/>
<ellipse cx="966.985" cy="818.379" rx="1.39691" ry="0.829194" transform="rotate(-19.5884 966.985 818.379)" fill="white"/>
<ellipse cx="1164.39" cy="748.13" rx="1.39691" ry="0.829194" transform="rotate(-19.5884 1164.39 748.13)" fill="white"/>
<ellipse cx="1361.8" cy="677.882" rx="1.397" ry="0.829194" transform="rotate(-19.5884 1361.8 677.882)" fill="white"/>
<ellipse cx="86.7699" cy="1219.87" rx="1.39698" ry="0.829049" transform="rotate(-19.5884 86.7699 1219.87)" fill="white"/>
<ellipse cx="284.186" cy="1149.62" rx="1.39687" ry="0.829049" transform="rotate(-19.5884 284.186 1149.62)" fill="white"/>
<ellipse cx="481.592" cy="1079.37" rx="1.39683" ry="0.829049" transform="rotate(-19.5884 481.592 1079.37)" fill="white"/>
<ellipse cx="679.002" cy="1009.12" rx="1.39691" ry="0.829049" transform="rotate(-19.5884 679.002 1009.12)" fill="white"/>
<ellipse cx="876.416" cy="938.869" rx="1.39691" ry="0.829049" transform="rotate(-19.5884 876.416 938.869)" fill="white"/>
<ellipse cx="1073.82" cy="868.621" rx="1.39691" ry="0.829049" transform="rotate(-19.5884 1073.82 868.621)" fill="white"/>
<ellipse cx="1271.23" cy="798.372" rx="1.39708" ry="0.829049" transform="rotate(-19.5884 1271.23 798.372)" fill="white"/>
<ellipse cx="101.49" cy="1302.89" rx="1.39689" ry="0.829049" transform="rotate(-19.5884 101.49 1302.89)" fill="white"/>
<ellipse cx="298.897" cy="1232.64" rx="1.39691" ry="0.829049" transform="rotate(-19.5884 298.897 1232.64)" fill="white"/>
<ellipse cx="496.313" cy="1162.39" rx="1.39691" ry="0.829049" transform="rotate(-19.5884 496.313 1162.39)" fill="white"/>
<ellipse cx="693.721" cy="1092.14" rx="1.39674" ry="0.829049" transform="rotate(-19.5884 693.721 1092.14)" fill="white"/>
<ellipse cx="891.129" cy="1021.9" rx="1.39691" ry="0.829049" transform="rotate(-19.5884 891.129 1021.9)" fill="white"/>
<ellipse cx="1088.54" cy="951.645" rx="1.397" ry="0.829049" transform="rotate(-19.5884 1088.54 951.645)" fill="white"/>
<ellipse cx="1285.95" cy="881.397" rx="1.39691" ry="0.829049" transform="rotate(-19.5884 1285.95 881.397)" fill="white"/>
<ellipse cx="24.0823" cy="1418.7" rx="1.39693" ry="0.829049" transform="rotate(-19.5884 24.0823 1418.7)" fill="white"/>
<ellipse cx="221.498" cy="1348.45" rx="1.39687" ry="0.829049" transform="rotate(-19.5884 221.498 1348.45)" fill="white"/>
<ellipse cx="418.905" cy="1278.2" rx="1.39696" ry="0.829049" transform="rotate(-19.5884 418.905 1278.2)" fill="white"/>
<ellipse cx="616.313" cy="1207.95" rx="1.39691" ry="0.829049" transform="rotate(-19.5884 616.313 1207.95)" fill="white"/>
<ellipse cx="813.725" cy="1137.7" rx="1.39691" ry="0.829049" transform="rotate(-19.5884 813.725 1137.7)" fill="white"/>
<ellipse cx="1011.14" cy="1067.45" rx="1.39691" ry="0.829049" transform="rotate(-19.5884 1011.14 1067.45)" fill="white"/>
<ellipse cx="1208.54" cy="997.205" rx="1.39708" ry="0.829049" transform="rotate(-19.5884 1208.54 997.205)" fill="white"/>
<ellipse cx="1405.96" cy="926.954" rx="1.39691" ry="0.829049" transform="rotate(-19.5884 1405.96 926.954)" fill="white"/>
<ellipse cx="12.4807" cy="1511.09" rx="1.39691" ry="0.829049" transform="rotate(-19.5884 12.4807 1511.09)" fill="white"/>
<ellipse cx="209.891" cy="1440.84" rx="1.39696" ry="0.829049" transform="rotate(-19.5884 209.891 1440.84)" fill="white"/>
<ellipse cx="407.297" cy="1370.59" rx="1.39691" ry="0.829049" transform="rotate(-19.5884 407.297 1370.59)" fill="white"/>
<ellipse cx="604.711" cy="1300.34" rx="1.39687" ry="0.829049" transform="rotate(-19.5884 604.711 1300.34)" fill="white"/>
<ellipse cx="802.121" cy="1230.09" rx="1.39683" ry="0.829049" transform="rotate(-19.5884 802.121 1230.09)" fill="white"/>
<ellipse cx="999.528" cy="1159.85" rx="1.39708" ry="0.829049" transform="rotate(-19.5884 999.528 1159.85)" fill="white"/>
<ellipse cx="1196.94" cy="1089.59" rx="1.39691" ry="0.829049" transform="rotate(-19.5884 1196.94 1089.59)" fill="white"/>
<ellipse cx="1394.35" cy="1019.35" rx="1.39691" ry="0.829049" transform="rotate(-19.5884 1394.35 1019.35)" fill="white"/>
<ellipse cx="79.8382" cy="1575.38" rx="1.39693" ry="0.829194" transform="rotate(-19.5884 79.8382 1575.38)" fill="white"/>
<ellipse cx="277.254" cy="1505.13" rx="1.39687" ry="0.829194" transform="rotate(-19.5884 277.254 1505.13)" fill="white"/>
<ellipse cx="474.661" cy="1434.88" rx="1.39696" ry="0.829194" transform="rotate(-19.5884 474.661 1434.88)" fill="white"/>
<ellipse cx="672.069" cy="1364.64" rx="1.39691" ry="0.829194" transform="rotate(-19.5884 672.069 1364.64)" fill="white"/>
<ellipse cx="869.481" cy="1294.39" rx="1.39691" ry="0.829194" transform="rotate(-19.5884 869.481 1294.39)" fill="white"/>
<ellipse cx="1066.89" cy="1224.14" rx="1.39691" ry="0.829194" transform="rotate(-19.5884 1066.89 1224.14)" fill="white"/>
<ellipse cx="1264.3" cy="1153.89" rx="1.39708" ry="0.829194" transform="rotate(-19.5884 1264.3 1153.89)" fill="white"/>
<ellipse cx="42.4729" cy="1678.71" rx="1.39691" ry="0.829121" transform="rotate(-19.5884 42.4729 1678.71)" fill="white"/>
<ellipse cx="239.879" cy="1608.46" rx="1.39696" ry="0.829121" transform="rotate(-19.5884 239.879 1608.46)" fill="white"/>
<ellipse cx="437.293" cy="1538.21" rx="1.39691" ry="0.829121" transform="rotate(-19.5884 437.293 1538.21)" fill="white"/>
<ellipse cx="634.7" cy="1467.96" rx="1.39691" ry="0.829121" transform="rotate(-19.5884 634.7 1467.96)" fill="white"/>
<ellipse cx="832.11" cy="1397.71" rx="1.39704" ry="0.829121" transform="rotate(-19.5884 832.11 1397.71)" fill="white"/>
<ellipse cx="1029.52" cy="1327.46" rx="1.39674" ry="0.829121" transform="rotate(-19.5884 1029.52 1327.46)" fill="white"/>
<ellipse cx="1226.93" cy="1257.21" rx="1.39691" ry="0.829121" transform="rotate(-19.5884 1226.93 1257.21)" fill="white"/>
<ellipse cx="1424.34" cy="1186.96" rx="1.39691" ry="0.829121" transform="rotate(-19.5884 1424.34 1186.96)" fill="white"/>
<ellipse cx="149.313" cy="1728.95" rx="1.39696" ry="0.829049" transform="rotate(-19.5884 149.313 1728.95)" fill="white"/>
<ellipse cx="346.727" cy="1658.7" rx="1.39691" ry="0.829049" transform="rotate(-19.5884 346.727 1658.7)" fill="white"/>
<ellipse cx="544.133" cy="1588.45" rx="1.39691" ry="0.829049" transform="rotate(-19.5884 544.133 1588.45)" fill="white"/>
<ellipse cx="741.543" cy="1518.2" rx="1.39704" ry="0.829049" transform="rotate(-19.5884 741.543 1518.2)" fill="white"/>
<ellipse cx="938.957" cy="1447.95" rx="1.3967" ry="0.829049" transform="rotate(-19.5884 938.957 1447.95)" fill="white"/>
<ellipse cx="1136.36" cy="1377.7" rx="1.39691" ry="0.829049" transform="rotate(-19.5884 1136.36 1377.7)" fill="white"/>
<ellipse cx="1333.77" cy="1307.45" rx="1.39691" ry="0.829049" transform="rotate(-19.5884 1333.77 1307.45)" fill="white"/>
<ellipse cx="150.871" cy="1816.66" rx="1.39693" ry="0.829049" transform="rotate(-19.5884 150.871 1816.66)" fill="white"/>
<ellipse cx="348.278" cy="1746.41" rx="1.39698" ry="0.829049" transform="rotate(-19.5884 348.278 1746.41)" fill="white"/>
<ellipse cx="545.694" cy="1676.16" rx="1.39696" ry="0.829049" transform="rotate(-19.5884 545.694 1676.16)" fill="white"/>
<ellipse cx="743.1" cy="1605.91" rx="1.39674" ry="0.829049" transform="rotate(-19.5884 743.1 1605.91)" fill="white"/>
<ellipse cx="940.508" cy="1535.66" rx="1.39704" ry="0.829049" transform="rotate(-19.5884 940.508 1535.66)" fill="white"/>
<ellipse cx="1137.92" cy="1465.41" rx="1.397" ry="0.829049" transform="rotate(-19.5884 1137.92 1465.41)" fill="white"/>
<ellipse cx="1335.33" cy="1395.16" rx="1.39691" ry="0.829049" transform="rotate(-19.5884 1335.33 1395.16)" fill="white"/>
<ellipse cx="60.301" cy="1937.15" rx="1.39691" ry="0.829049" transform="rotate(-19.5884 60.301 1937.15)" fill="white"/>
<ellipse cx="257.711" cy="1866.9" rx="1.39696" ry="0.829049" transform="rotate(-19.5884 257.711 1866.9)" fill="white"/>
<ellipse cx="455.125" cy="1796.65" rx="1.39696" ry="0.829049" transform="rotate(-19.5884 455.125 1796.65)" fill="white"/>
<ellipse cx="652.533" cy="1726.4" rx="1.39687" ry="0.829049" transform="rotate(-19.5884 652.533 1726.4)" fill="white"/>
<ellipse cx="849.942" cy="1656.15" rx="1.39704" ry="0.829049" transform="rotate(-19.5884 849.942 1656.15)" fill="white"/>
<ellipse cx="1047.36" cy="1585.9" rx="1.39691" ry="0.829049" transform="rotate(-19.5884 1047.36 1585.9)" fill="white"/>
<ellipse cx="1244.76" cy="1515.65" rx="1.39691" ry="0.829049" transform="rotate(-19.5884 1244.76 1515.65)" fill="white"/>
<ellipse cx="180.309" cy="1982.71" rx="1.39691" ry="0.829194" transform="rotate(-19.5884 180.309 1982.71)" fill="white"/>
<ellipse cx="377.717" cy="1912.46" rx="1.39696" ry="0.829194" transform="rotate(-19.5884 377.717 1912.46)" fill="white"/>
<ellipse cx="575.123" cy="1842.21" rx="1.39691" ry="0.829194" transform="rotate(-19.5884 575.123 1842.21)" fill="white"/>
<ellipse cx="772.537" cy="1771.96" rx="1.39687" ry="0.829194" transform="rotate(-19.5884 772.537 1771.96)" fill="white"/>
<ellipse cx="969.948" cy="1701.71" rx="1.39683" ry="0.829194" transform="rotate(-19.5884 969.948 1701.71)" fill="white"/>
<ellipse cx="1167.36" cy="1631.46" rx="1.39708" ry="0.829194" transform="rotate(-19.5884 1167.36 1631.46)" fill="white"/>
<ellipse cx="1364.77" cy="1561.21" rx="1.39691" ry="0.829194" transform="rotate(-19.5884 1364.77 1561.21)" fill="white"/>
<ellipse cx="50.2562" cy="2117.25" rx="1.39693" ry="0.829194" transform="rotate(-19.5884 50.2562 2117.25)" fill="white"/>
<ellipse cx="247.664" cy="2047" rx="1.39693" ry="0.829194" transform="rotate(-19.5884 247.664 2047)" fill="white"/>
<ellipse cx="445.08" cy="1976.75" rx="1.39687" ry="0.829194" transform="rotate(-19.5884 445.08 1976.75)" fill="white"/>
<ellipse cx="642.487" cy="1906.5" rx="1.39696" ry="0.829194" transform="rotate(-19.5884 642.487 1906.5)" fill="white"/>
<ellipse cx="839.893" cy="1836.25" rx="1.39691" ry="0.829194" transform="rotate(-19.5884 839.893 1836.25)" fill="white"/>
<ellipse cx="1037.31" cy="1766" rx="1.39691" ry="0.829194" transform="rotate(-19.5884 1037.31 1766)" fill="white"/>
<ellipse cx="1234.72" cy="1695.75" rx="1.39691" ry="0.829194" transform="rotate(-19.5884 1234.72 1695.75)" fill="white"/>
<ellipse cx="1432.12" cy="1625.5" rx="1.39708" ry="0.829194" transform="rotate(-19.5884 1432.12 1625.5)" fill="white"/>
<ellipse cx="173.043" cy="2170.64" rx="1.39691" ry="0.828903" transform="rotate(-19.5884 173.043 2170.64)" fill="white"/>
<ellipse cx="370.459" cy="2100.39" rx="1.39689" ry="0.828903" transform="rotate(-19.5884 370.459 2100.39)" fill="white"/>
<ellipse cx="567.865" cy="2030.14" rx="1.39691" ry="0.828903" transform="rotate(-19.5884 567.865 2030.14)" fill="white"/>
<ellipse cx="765.276" cy="1959.89" rx="1.39704" ry="0.828903" transform="rotate(-19.5884 765.276 1959.89)" fill="white"/>
<ellipse cx="962.688" cy="1889.64" rx="1.39674" ry="0.828903" transform="rotate(-19.5884 962.688 1889.64)" fill="white"/>
<ellipse cx="1160.1" cy="1819.39" rx="1.39691" ry="0.828903" transform="rotate(-19.5884 1160.1 1819.39)" fill="white"/>
<ellipse cx="1357.5" cy="1749.14" rx="1.39691" ry="0.828903" transform="rotate(-19.5884 1357.5 1749.14)" fill="white"/>
<ellipse cx="124.748" cy="2284.92" rx="1.39693" ry="0.829194" transform="rotate(-19.5884 124.748 2284.92)" fill="white"/>
<ellipse cx="322.157" cy="2214.67" rx="1.39696" ry="0.829194" transform="rotate(-19.5884 322.157 2214.67)" fill="white"/>
<ellipse cx="519.571" cy="2144.42" rx="1.39691" ry="0.829194" transform="rotate(-19.5884 519.571 2144.42)" fill="white"/>
<ellipse cx="716.977" cy="2074.17" rx="1.39691" ry="0.829194" transform="rotate(-19.5884 716.977 2074.17)" fill="white"/>
<ellipse cx="914.387" cy="2003.92" rx="1.39704" ry="0.829194" transform="rotate(-19.5884 914.387 2003.92)" fill="white"/>
<ellipse cx="1111.8" cy="1933.67" rx="1.3967" ry="0.829194" transform="rotate(-19.5884 1111.8 1933.67)" fill="white"/>
<ellipse cx="1309.21" cy="1863.42" rx="1.39691" ry="0.829194" transform="rotate(-19.5884 1309.21 1863.42)" fill="white"/>
<ellipse cx="260.143" cy="2332.06" rx="1.39689" ry="0.829194" transform="rotate(-19.5884 260.143 2332.06)" fill="white"/>
<ellipse cx="457.549" cy="2261.81" rx="1.39698" ry="0.829194" transform="rotate(-19.5884 457.549 2261.81)" fill="white"/>
<ellipse cx="654.965" cy="2191.56" rx="1.39687" ry="0.829194" transform="rotate(-19.5884 654.965 2191.56)" fill="white"/>
<ellipse cx="852.373" cy="2121.31" rx="1.39683" ry="0.829194" transform="rotate(-19.5884 852.373 2121.31)" fill="white"/>
<ellipse cx="1049.78" cy="2051.06" rx="1.39691" ry="0.829194" transform="rotate(-19.5884 1049.78 2051.06)" fill="white"/>
<ellipse cx="1247.2" cy="1980.81" rx="1.39691" ry="0.829194" transform="rotate(-19.5884 1247.2 1980.81)" fill="white"/>
<ellipse cx="606.66" cy="2305.84" rx="1.39691" ry="0.829049" transform="rotate(-19.5884 606.66 2305.84)" fill="white"/>
<ellipse cx="804.076" cy="2235.58" rx="1.39687" ry="0.829049" transform="rotate(-19.5884 804.076 2235.58)" fill="white"/>
<ellipse cx="1001.48" cy="2165.34" rx="1.39683" ry="0.829049" transform="rotate(-19.5884 1001.48 2165.34)" fill="white"/>
<ellipse cx="1198.89" cy="2095.09" rx="1.397" ry="0.829049" transform="rotate(-19.5884 1198.89 2095.09)" fill="white"/>
<ellipse cx="1396.31" cy="2024.84" rx="1.39691" ry="0.829049" transform="rotate(-19.5884 1396.31 2024.84)" fill="white"/>
<ellipse cx="755.776" cy="2349.86" rx="1.39691" ry="0.829194" transform="rotate(-19.5884 755.776 2349.86)" fill="white"/>
<ellipse cx="953.19" cy="2279.61" rx="1.39687" ry="0.829194" transform="rotate(-19.5884 953.19 2279.61)" fill="white"/>
<ellipse cx="1150.6" cy="2209.36" rx="1.39683" ry="0.829194" transform="rotate(-19.5884 1150.6 2209.36)" fill="white"/>
<ellipse cx="1348" cy="2139.11" rx="1.39708" ry="0.829194" transform="rotate(-19.5884 1348 2139.11)" fill="white"/>
<ellipse cx="1062.82" cy="2337.69" rx="1.39683" ry="0.829194" transform="rotate(-19.5884 1062.82 2337.69)" fill="white"/>
<ellipse cx="1260.22" cy="2267.44" rx="1.397" ry="0.829194" transform="rotate(-19.5884 1260.22 2267.44)" fill="white"/>
<ellipse cx="1432.88" cy="2294.26" rx="1.397" ry="0.829049" transform="rotate(-19.5884 1432.88 2294.26)" fill="white"/>
<ellipse cx="240.326" cy="1401.06" rx="0.962736" ry="0.703033" transform="rotate(-105.711 240.326 1401.06)" fill="white"/>
<ellipse cx="201.225" cy="1262.04" rx="0.962738" ry="0.703033" transform="rotate(-105.711 201.225 1262.04)" fill="white"/>
<ellipse cx="162.121" cy="1123.02" rx="0.962753" ry="0.703033" transform="rotate(-105.711 162.121 1123.02)" fill="white"/>
<ellipse cx="123.018" cy="984.01" rx="0.962738" ry="0.703033" transform="rotate(-105.711 123.018 984.01)" fill="white"/>
<ellipse cx="83.9161" cy="844.997" rx="0.962708" ry="0.703033" transform="rotate(-105.711 83.9161 844.997)" fill="white"/>
<ellipse cx="44.8106" cy="705.978" rx="0.962677" ry="0.703033" transform="rotate(-105.711 44.8106 705.978)" fill="white"/>
<ellipse cx="5.70904" cy="566.965" rx="0.962769" ry="0.703033" transform="rotate(-105.711 5.70904 566.965)" fill="white"/>
<ellipse cx="294.838" cy="1335.72" rx="0.962738" ry="0.703037" transform="rotate(-105.711 294.838 1335.72)" fill="white"/>
<ellipse cx="255.734" cy="1196.7" rx="0.962738" ry="0.703037" transform="rotate(-105.711 255.734 1196.7)" fill="white"/>
<ellipse cx="216.633" cy="1057.69" rx="0.962708" ry="0.703037" transform="rotate(-105.711 216.633 1057.69)" fill="white"/>
<ellipse cx="177.529" cy="918.673" rx="0.962769" ry="0.703037" transform="rotate(-105.711 177.529 918.673)" fill="white"/>
<ellipse cx="138.426" cy="779.654" rx="0.962738" ry="0.703037" transform="rotate(-105.711 138.426 779.654)" fill="white"/>
<ellipse cx="99.3224" cy="640.641" rx="0.962646" ry="0.703037" transform="rotate(-105.711 99.3224 640.641)" fill="white"/>
<ellipse cx="60.2208" cy="501.627" rx="0.962708" ry="0.703037" transform="rotate(-105.711 60.2208 501.627)" fill="white"/>
<ellipse cx="21.1173" cy="362.608" rx="0.962708" ry="0.703037" transform="rotate(-105.711 21.1173 362.608)" fill="white"/>
<ellipse cx="385.846" cy="1400.13" rx="0.962734" ry="0.703033" transform="rotate(-105.711 385.846 1400.13)" fill="white"/>
<ellipse cx="346.742" cy="1261.11" rx="0.962708" ry="0.703033" transform="rotate(-105.711 346.742 1261.11)" fill="white"/>
<ellipse cx="307.639" cy="1122.1" rx="0.962738" ry="0.703033" transform="rotate(-105.711 307.639 1122.1)" fill="white"/>
<ellipse cx="268.537" cy="983.083" rx="0.962799" ry="0.703033" transform="rotate(-105.711 268.537 983.083)" fill="white"/>
<ellipse cx="229.432" cy="844.064" rx="0.962738" ry="0.703033" transform="rotate(-105.711 229.432 844.064)" fill="white"/>
<ellipse cx="190.33" cy="705.05" rx="0.962646" ry="0.703033" transform="rotate(-105.711 190.33 705.05)" fill="white"/>
<ellipse cx="151.227" cy="566.037" rx="0.962799" ry="0.703033" transform="rotate(-105.711 151.227 566.037)" fill="white"/>
<ellipse cx="112.123" cy="427.018" rx="0.962738" ry="0.703033" transform="rotate(-105.711 112.123 427.018)" fill="white"/>
<ellipse cx="73.0215" cy="288.004" rx="0.962769" ry="0.703033" transform="rotate(-105.711 73.0215 288.004)" fill="white"/>
<ellipse cx="33.918" cy="148.991" rx="0.962769" ry="0.703033" transform="rotate(-105.711 33.918 148.991)" fill="white"/>
<ellipse cx="455.998" cy="1390.4" rx="0.962736" ry="0.703033" transform="rotate(-105.711 455.998 1390.4)" fill="white"/>
<ellipse cx="416.895" cy="1251.38" rx="0.96273" ry="0.703033" transform="rotate(-105.711 416.895 1251.38)" fill="white"/>
<ellipse cx="377.791" cy="1112.36" rx="0.962723" ry="0.703033" transform="rotate(-105.711 377.791 1112.36)" fill="white"/>
<ellipse cx="338.69" cy="973.349" rx="0.962677" ry="0.703033" transform="rotate(-105.711 338.69 973.349)" fill="white"/>
<ellipse cx="299.586" cy="834.336" rx="0.962708" ry="0.703033" transform="rotate(-105.711 299.586 834.336)" fill="white"/>
<ellipse cx="260.483" cy="695.317" rx="0.962616" ry="0.703033" transform="rotate(-105.711 260.483 695.317)" fill="white"/>
<ellipse cx="221.379" cy="556.304" rx="0.962738" ry="0.703033" transform="rotate(-105.711 221.379 556.304)" fill="white"/>
<ellipse cx="182.277" cy="417.29" rx="0.962677" ry="0.703033" transform="rotate(-105.711 182.277 417.29)" fill="white"/>
<ellipse cx="143.174" cy="278.272" rx="0.962708" ry="0.703033" transform="rotate(-105.711 143.174 278.272)" fill="white"/>
<ellipse cx="104.07" cy="139.258" rx="0.96283" ry="0.703033" transform="rotate(-105.711 104.07 139.258)" fill="white"/>
<ellipse cx="505.295" cy="1306.52" rx="0.962742" ry="0.703033" transform="rotate(-105.711 505.295 1306.52)" fill="white"/>
<ellipse cx="466.193" cy="1167.51" rx="0.962738" ry="0.703033" transform="rotate(-105.711 466.193 1167.51)" fill="white"/>
<ellipse cx="427.09" cy="1028.49" rx="0.962784" ry="0.703033" transform="rotate(-105.711 427.09 1028.49)" fill="white"/>
<ellipse cx="387.986" cy="889.474" rx="0.962738" ry="0.703033" transform="rotate(-105.711 387.986 889.474)" fill="white"/>
<ellipse cx="348.883" cy="750.46" rx="0.962708" ry="0.703033" transform="rotate(-105.711 348.883 750.46)" fill="white"/>
<ellipse cx="309.781" cy="611.446" rx="0.96283" ry="0.703033" transform="rotate(-105.711 309.781 611.446)" fill="white"/>
<ellipse cx="270.676" cy="472.428" rx="0.962769" ry="0.703033" transform="rotate(-105.711 270.676 472.428)" fill="white"/>
<ellipse cx="231.574" cy="333.414" rx="0.962769" ry="0.703033" transform="rotate(-105.711 231.574 333.414)" fill="white"/>
<ellipse cx="192.471" cy="194.401" rx="0.962708" ry="0.703033" transform="rotate(-105.711 192.471 194.401)" fill="white"/>
<ellipse cx="153.367" cy="55.3818" rx="0.963074" ry="0.703033" transform="rotate(-105.711 153.367 55.3818)" fill="white"/>
<ellipse cx="580.66" cy="1315.32" rx="0.962738" ry="0.703033" transform="rotate(-105.711 580.66 1315.32)" fill="white"/>
<ellipse cx="541.559" cy="1176.31" rx="0.962738" ry="0.703033" transform="rotate(-105.711 541.559 1176.31)" fill="white"/>
<ellipse cx="502.455" cy="1037.29" rx="0.962692" ry="0.703033" transform="rotate(-105.711 502.455 1037.29)" fill="white"/>
<ellipse cx="463.352" cy="898.279" rx="0.962723" ry="0.703033" transform="rotate(-105.711 463.352 898.279)" fill="white"/>
<ellipse cx="424.25" cy="759.265" rx="0.962738" ry="0.703033" transform="rotate(-105.711 424.25 759.265)" fill="white"/>
<ellipse cx="385.145" cy="620.247" rx="0.962769" ry="0.703033" transform="rotate(-105.711 385.145 620.247)" fill="white"/>
<ellipse cx="346.043" cy="481.233" rx="0.962677" ry="0.703033" transform="rotate(-105.711 346.043 481.233)" fill="white"/>
<ellipse cx="306.94" cy="342.22" rx="0.962708" ry="0.703033" transform="rotate(-105.711 306.94 342.22)" fill="white"/>
<ellipse cx="267.836" cy="203.201" rx="0.962769" ry="0.703033" transform="rotate(-105.711 267.836 203.201)" fill="white"/>
<ellipse cx="228.734" cy="64.1873" rx="0.962769" ry="0.703033" transform="rotate(-105.711 228.734 64.1873)" fill="white"/>
<ellipse cx="640.387" cy="1268.52" rx="0.962742" ry="0.703033" transform="rotate(-105.711 640.387 1268.52)" fill="white"/>
<ellipse cx="601.283" cy="1129.51" rx="0.962738" ry="0.703033" transform="rotate(-105.711 601.283 1129.51)" fill="white"/>
<ellipse cx="562.18" cy="990.493" rx="0.962784" ry="0.703033" transform="rotate(-105.711 562.18 990.493)" fill="white"/>
<ellipse cx="523.076" cy="851.475" rx="0.962738" ry="0.703033" transform="rotate(-105.711 523.076 851.475)" fill="white"/>
<ellipse cx="483.975" cy="712.461" rx="0.962708" ry="0.703033" transform="rotate(-105.711 483.975 712.461)" fill="white"/>
<ellipse cx="444.871" cy="573.447" rx="0.96283" ry="0.703033" transform="rotate(-105.711 444.871 573.447)" fill="white"/>
<ellipse cx="405.768" cy="434.429" rx="0.962769" ry="0.703033" transform="rotate(-105.711 405.768 434.429)" fill="white"/>
<ellipse cx="366.664" cy="295.415" rx="0.962769" ry="0.703033" transform="rotate(-105.711 366.664 295.415)" fill="white"/>
<ellipse cx="327.563" cy="156.401" rx="0.962708" ry="0.703033" transform="rotate(-105.711 327.563 156.401)" fill="white"/>
<ellipse cx="288.459" cy="17.3828" rx="0.963074" ry="0.703033" transform="rotate(-105.711 288.459 17.3828)" fill="white"/>
<ellipse cx="722.318" cy="1295.48" rx="0.962738" ry="0.703033" transform="rotate(-105.711 722.318 1295.48)" fill="white"/>
<ellipse cx="683.215" cy="1156.46" rx="0.962753" ry="0.703033" transform="rotate(-105.711 683.215 1156.46)" fill="white"/>
<ellipse cx="644.111" cy="1017.45" rx="0.962723" ry="0.703033" transform="rotate(-105.711 644.111 1017.45)" fill="white"/>
<ellipse cx="605.008" cy="878.438" rx="0.962692" ry="0.703033" transform="rotate(-105.711 605.008 878.438)" fill="white"/>
<ellipse cx="565.904" cy="739.419" rx="0.962769" ry="0.703033" transform="rotate(-105.711 565.904 739.419)" fill="white"/>
<ellipse cx="526.803" cy="600.406" rx="0.962708" ry="0.703033" transform="rotate(-105.711 526.803 600.406)" fill="white"/>
<ellipse cx="487.699" cy="461.392" rx="0.962769" ry="0.703033" transform="rotate(-105.711 487.699 461.392)" fill="white"/>
<ellipse cx="448.596" cy="322.373" rx="0.962708" ry="0.703033" transform="rotate(-105.711 448.596 322.373)" fill="white"/>
<ellipse cx="409.492" cy="183.36" rx="0.962769" ry="0.703033" transform="rotate(-105.711 409.492 183.36)" fill="white"/>
<ellipse cx="370.389" cy="44.3411" rx="0.962769" ry="0.703033" transform="rotate(-105.711 370.389 44.3411)" fill="white"/>
<ellipse cx="774.221" cy="1220.87" rx="0.962738" ry="0.703064" transform="rotate(-105.711 774.221 1220.87)" fill="white"/>
<ellipse cx="735.119" cy="1081.86" rx="0.962738" ry="0.703064" transform="rotate(-105.711 735.119 1081.86)" fill="white"/>
<ellipse cx="696.016" cy="942.847" rx="0.962723" ry="0.703064" transform="rotate(-105.711 696.016 942.847)" fill="white"/>
<ellipse cx="656.912" cy="803.829" rx="0.962769" ry="0.703064" transform="rotate(-105.711 656.912 803.829)" fill="white"/>
<ellipse cx="617.809" cy="664.815" rx="0.962769" ry="0.703064" transform="rotate(-105.711 617.809 664.815)" fill="white"/>
<ellipse cx="578.707" cy="525.802" rx="0.962769" ry="0.703064" transform="rotate(-105.711 578.707 525.802)" fill="white"/>
<ellipse cx="539.602" cy="386.783" rx="0.962708" ry="0.703064" transform="rotate(-105.711 539.602 386.783)" fill="white"/>
<ellipse cx="500.5" cy="247.77" rx="0.962769" ry="0.703064" transform="rotate(-105.711 500.5 247.77)" fill="white"/>
<ellipse cx="461.397" cy="108.756" rx="0.962769" ry="0.703064" transform="rotate(-105.711 461.397 108.756)" fill="white"/>
<ellipse cx="846.981" cy="1220.41" rx="0.962725" ry="0.703033" transform="rotate(-105.711 846.981 1220.41)" fill="white"/>
<ellipse cx="807.877" cy="1081.39" rx="0.962746" ry="0.703033" transform="rotate(-105.711 807.877 1081.39)" fill="white"/>
<ellipse cx="768.775" cy="942.381" rx="0.962677" ry="0.703033" transform="rotate(-105.711 768.775 942.381)" fill="white"/>
<ellipse cx="729.672" cy="803.367" rx="0.962738" ry="0.703033" transform="rotate(-105.711 729.672 803.367)" fill="white"/>
<ellipse cx="690.568" cy="664.349" rx="0.962738" ry="0.703033" transform="rotate(-105.711 690.568 664.349)" fill="white"/>
<ellipse cx="651.465" cy="525.335" rx="0.962769" ry="0.703033" transform="rotate(-105.711 651.465 525.335)" fill="white"/>
<ellipse cx="612.363" cy="386.321" rx="0.96286" ry="0.703033" transform="rotate(-105.711 612.363 386.321)" fill="white"/>
<ellipse cx="573.258" cy="247.303" rx="0.962708" ry="0.703033" transform="rotate(-105.711 573.258 247.303)" fill="white"/>
<ellipse cx="534.156" cy="108.289" rx="0.962769" ry="0.703033" transform="rotate(-105.711 534.156 108.289)" fill="white"/>
<ellipse cx="898.885" cy="1145.8" rx="0.962742" ry="0.702972" transform="rotate(-105.711 898.885 1145.8)" fill="white"/>
<ellipse cx="859.781" cy="1006.79" rx="0.962708" ry="0.702972" transform="rotate(-105.711 859.781 1006.79)" fill="white"/>
<ellipse cx="820.68" cy="867.777" rx="0.962769" ry="0.702972" transform="rotate(-105.711 820.68 867.777)" fill="white"/>
<ellipse cx="781.576" cy="728.758" rx="0.962769" ry="0.702972" transform="rotate(-105.711 781.576 728.758)" fill="white"/>
<ellipse cx="742.473" cy="589.744" rx="0.962738" ry="0.702972" transform="rotate(-105.711 742.473 589.744)" fill="white"/>
<ellipse cx="703.371" cy="450.731" rx="0.962799" ry="0.702972" transform="rotate(-105.711 703.371 450.731)" fill="white"/>
<ellipse cx="664.266" cy="311.712" rx="0.962677" ry="0.702972" transform="rotate(-105.711 664.266 311.712)" fill="white"/>
<ellipse cx="625.164" cy="172.699" rx="0.962769" ry="0.702972" transform="rotate(-105.711 625.164 172.699)" fill="white"/>
<ellipse cx="586.061" cy="33.6852" rx="0.962708" ry="0.702972" transform="rotate(-105.711 586.061 33.6852)" fill="white"/>
<ellipse cx="987.285" cy="1200.95" rx="0.962738" ry="0.703064" transform="rotate(-105.711 987.285 1200.95)" fill="white"/>
<ellipse cx="948.182" cy="1061.93" rx="0.962738" ry="0.703064" transform="rotate(-105.711 948.182 1061.93)" fill="white"/>
<ellipse cx="909.078" cy="922.915" rx="0.962692" ry="0.703064" transform="rotate(-105.711 909.078 922.915)" fill="white"/>
<ellipse cx="869.977" cy="783.901" rx="0.962723" ry="0.703064" transform="rotate(-105.711 869.977 783.901)" fill="white"/>
<ellipse cx="830.873" cy="644.888" rx="0.962738" ry="0.703064" transform="rotate(-105.711 830.873 644.888)" fill="white"/>
<ellipse cx="791.77" cy="505.869" rx="0.962769" ry="0.703064" transform="rotate(-105.711 791.77 505.869)" fill="white"/>
<ellipse cx="752.666" cy="366.856" rx="0.962677" ry="0.703064" transform="rotate(-105.711 752.666 366.856)" fill="white"/>
<ellipse cx="713.565" cy="227.842" rx="0.962708" ry="0.703064" transform="rotate(-105.711 713.565 227.842)" fill="white"/>
<ellipse cx="674.461" cy="88.8233" rx="0.962769" ry="0.703064" transform="rotate(-105.711 674.461 88.8233)" fill="white"/>
<ellipse cx="1047.01" cy="1154.14" rx="0.962742" ry="0.703094" transform="rotate(-105.711 1047.01 1154.14)" fill="white"/>
<ellipse cx="1007.91" cy="1015.13" rx="0.962738" ry="0.703094" transform="rotate(-105.711 1007.91 1015.13)" fill="white"/>
<ellipse cx="968.805" cy="876.115" rx="0.962784" ry="0.703094" transform="rotate(-105.711 968.805 876.115)" fill="white"/>
<ellipse cx="929.701" cy="737.097" rx="0.962738" ry="0.703094" transform="rotate(-105.711 929.701 737.097)" fill="white"/>
<ellipse cx="890.598" cy="598.083" rx="0.962708" ry="0.703094" transform="rotate(-105.711 890.598 598.083)" fill="white"/>
<ellipse cx="851.496" cy="459.07" rx="0.96283" ry="0.703094" transform="rotate(-105.711 851.496 459.07)" fill="white"/>
<ellipse cx="812.391" cy="320.051" rx="0.962769" ry="0.703094" transform="rotate(-105.711 812.391 320.051)" fill="white"/>
<ellipse cx="773.289" cy="181.037" rx="0.962769" ry="0.703094" transform="rotate(-105.711 773.289 181.037)" fill="white"/>
<ellipse cx="734.186" cy="42.0237" rx="0.962708" ry="0.703094" transform="rotate(-105.711 734.186 42.0237)" fill="white"/>
<ellipse cx="1103.06" cy="1068.37" rx="0.962738" ry="0.703033" transform="rotate(-105.711 1103.06 1068.37)" fill="white"/>
<ellipse cx="1063.96" cy="929.358" rx="0.962723" ry="0.703033" transform="rotate(-105.711 1063.96 929.358)" fill="white"/>
<ellipse cx="1024.86" cy="790.34" rx="0.962769" ry="0.703033" transform="rotate(-105.711 1024.86 790.34)" fill="white"/>
<ellipse cx="985.754" cy="651.326" rx="0.962738" ry="0.703033" transform="rotate(-105.711 985.754 651.326)" fill="white"/>
<ellipse cx="946.65" cy="512.313" rx="0.962738" ry="0.703033" transform="rotate(-105.711 946.65 512.313)" fill="white"/>
<ellipse cx="907.547" cy="373.294" rx="0.962708" ry="0.703033" transform="rotate(-105.711 907.547 373.294)" fill="white"/>
<ellipse cx="868.445" cy="234.28" rx="0.962738" ry="0.703033" transform="rotate(-105.711 868.445 234.28)" fill="white"/>
<ellipse cx="829.342" cy="95.2666" rx="0.962769" ry="0.703033" transform="rotate(-105.711 829.342 95.2666)" fill="white"/>
<ellipse cx="1193" cy="1103.08" rx="0.962738" ry="0.702972" transform="rotate(-105.711 1193 1103.08)" fill="white"/>
<ellipse cx="1153.9" cy="964.063" rx="0.962738" ry="0.702972" transform="rotate(-105.711 1153.9 964.063)" fill="white"/>
<ellipse cx="1114.8" cy="825.049" rx="0.962723" ry="0.702972" transform="rotate(-105.711 1114.8 825.049)" fill="white"/>
<ellipse cx="1075.7" cy="686.031" rx="0.962769" ry="0.702972" transform="rotate(-105.711 1075.7 686.031)" fill="white"/>
<ellipse cx="1036.59" cy="547.017" rx="0.962769" ry="0.702972" transform="rotate(-105.711 1036.59 547.017)" fill="white"/>
<ellipse cx="997.49" cy="408.004" rx="0.962769" ry="0.702972" transform="rotate(-105.711 997.49 408.004)" fill="white"/>
<ellipse cx="958.385" cy="268.985" rx="0.962708" ry="0.702972" transform="rotate(-105.711 958.385 268.985)" fill="white"/>
<ellipse cx="919.283" cy="129.971" rx="0.962769" ry="0.702972" transform="rotate(-105.711 919.283 129.971)" fill="white"/>
<ellipse cx="1245.1" cy="1008.41" rx="0.962708" ry="0.703003" transform="rotate(-105.711 1245.1 1008.41)" fill="white"/>
<ellipse cx="1205.99" cy="869.401" rx="0.962738" ry="0.703003" transform="rotate(-105.711 1205.99 869.401)" fill="white"/>
<ellipse cx="1166.89" cy="730.387" rx="0.962799" ry="0.703003" transform="rotate(-105.711 1166.89 730.387)" fill="white"/>
<ellipse cx="1127.79" cy="591.369" rx="0.962738" ry="0.703003" transform="rotate(-105.711 1127.79 591.369)" fill="white"/>
<ellipse cx="1088.69" cy="452.355" rx="0.962646" ry="0.703003" transform="rotate(-105.711 1088.69 452.355)" fill="white"/>
<ellipse cx="1049.58" cy="313.342" rx="0.962799" ry="0.703003" transform="rotate(-105.711 1049.58 313.342)" fill="white"/>
<ellipse cx="1010.48" cy="174.323" rx="0.962738" ry="0.703003" transform="rotate(-105.711 1010.48 174.323)" fill="white"/>
<ellipse cx="971.377" cy="35.3094" rx="0.962769" ry="0.703003" transform="rotate(-105.711 971.377 35.3094)" fill="white"/>
<ellipse cx="1335.04" cy="1043.12" rx="0.962738" ry="0.703064" transform="rotate(-105.711 1335.04 1043.12)" fill="white"/>
<ellipse cx="1295.94" cy="904.106" rx="0.962738" ry="0.703064" transform="rotate(-105.711 1295.94 904.106)" fill="white"/>
<ellipse cx="1256.83" cy="765.092" rx="0.962708" ry="0.703064" transform="rotate(-105.711 1256.83 765.092)" fill="white"/>
<ellipse cx="1217.73" cy="626.079" rx="0.962769" ry="0.703064" transform="rotate(-105.711 1217.73 626.079)" fill="white"/>
<ellipse cx="1178.63" cy="487.06" rx="0.962738" ry="0.703064" transform="rotate(-105.711 1178.63 487.06)" fill="white"/>
<ellipse cx="1139.53" cy="348.047" rx="0.962646" ry="0.703064" transform="rotate(-105.711 1139.53 348.047)" fill="white"/>
<ellipse cx="1100.42" cy="209.033" rx="0.962708" ry="0.703064" transform="rotate(-105.711 1100.42 209.033)" fill="white"/>
<ellipse cx="1061.32" cy="70.0142" rx="0.962708" ry="0.703064" transform="rotate(-105.711 1061.32 70.0142)" fill="white"/>
<ellipse cx="1424.98" cy="1077.83" rx="0.962738" ry="0.703003" transform="rotate(-105.711 1424.98 1077.83)" fill="white"/>
<ellipse cx="1385.88" cy="938.816" rx="0.962738" ry="0.703003" transform="rotate(-105.711 1385.88 938.816)" fill="white"/>
<ellipse cx="1346.77" cy="799.797" rx="0.962692" ry="0.703003" transform="rotate(-105.711 1346.77 799.797)" fill="white"/>
<ellipse cx="1307.67" cy="660.784" rx="0.962723" ry="0.703003" transform="rotate(-105.711 1307.67 660.784)" fill="white"/>
<ellipse cx="1268.57" cy="521.77" rx="0.962738" ry="0.703003" transform="rotate(-105.711 1268.57 521.77)" fill="white"/>
<ellipse cx="1229.46" cy="382.751" rx="0.962769" ry="0.703003" transform="rotate(-105.711 1229.46 382.751)" fill="white"/>
<ellipse cx="1190.36" cy="243.738" rx="0.962677" ry="0.703003" transform="rotate(-105.711 1190.36 243.738)" fill="white"/>
<ellipse cx="1151.26" cy="104.724" rx="0.962708" ry="0.703003" transform="rotate(-105.711 1151.26 104.724)" fill="white"/>
<ellipse cx="1405.43" cy="723.293" rx="0.962708" ry="0.703003" transform="rotate(-105.711 1405.43 723.293)" fill="white"/>
<ellipse cx="1366.33" cy="584.28" rx="0.962769" ry="0.703003" transform="rotate(-105.711 1366.33 584.28)" fill="white"/>
<ellipse cx="1327.23" cy="445.261" rx="0.962738" ry="0.703003" transform="rotate(-105.711 1327.23 445.261)" fill="white"/>
<ellipse cx="1288.13" cy="306.247" rx="0.962646" ry="0.703003" transform="rotate(-105.711 1288.13 306.247)" fill="white"/>
<ellipse cx="1249.02" cy="167.234" rx="0.962708" ry="0.703003" transform="rotate(-105.711 1249.02 167.234)" fill="white"/>
<ellipse cx="1209.92" cy="28.2152" rx="0.962708" ry="0.703003" transform="rotate(-105.711 1209.92 28.2152)" fill="white"/>
<ellipse cx="1405.2" cy="463.333" rx="0.962738" ry="0.703064" transform="rotate(-105.711 1405.2 463.333)" fill="white"/>
<ellipse cx="1366.1" cy="324.319" rx="0.962769" ry="0.703064" transform="rotate(-105.711 1366.1 324.319)" fill="white"/>
<ellipse cx="1327" cy="185.305" rx="0.96286" ry="0.703064" transform="rotate(-105.711 1327 185.305)" fill="white"/>
<ellipse cx="1287.89" cy="46.2867" rx="0.962708" ry="0.703064" transform="rotate(-105.711 1287.89 46.2867)" fill="white"/>
<ellipse cx="1412.79" cy="231.177" rx="0.962708" ry="0.703064" transform="rotate(-105.711 1412.79 231.177)" fill="white"/>
<ellipse cx="1373.69" cy="92.1629" rx="0.962738" ry="0.703064" transform="rotate(-105.711 1373.69 92.1629)" fill="white"/>
<ellipse cx="140.142" cy="43.9193" rx="0.999969" ry="1.35349" transform="rotate(-5.72689 140.142 43.9193)" fill="white"/>
<ellipse cx="289.39" cy="28.9515" rx="1" ry="1.35349" transform="rotate(-5.72689 289.39 28.9515)" fill="white"/>
<ellipse cx="438.64" cy="13.9838" rx="1.00006" ry="1.35349" transform="rotate(-5.72689 438.64 13.9838)" fill="white"/>
<ellipse cx="587.896" cy="-0.984739" rx="0.999969" ry="1.35349" transform="rotate(-5.72689 587.896 -0.984739)" fill="white"/>
<ellipse cx="64.0949" cy="187.574" rx="1.00001" ry="1.35351" transform="rotate(-5.72689 64.0949 187.574)" fill="white"/>
<ellipse cx="213.345" cy="172.606" rx="0.999985" ry="1.35351" transform="rotate(-5.72689 213.345 172.606)" fill="white"/>
<ellipse cx="362.593" cy="157.638" rx="1.00006" ry="1.35351" transform="rotate(-5.72689 362.593 157.638)" fill="white"/>
<ellipse cx="511.849" cy="142.67" rx="0.999969" ry="1.35351" transform="rotate(-5.72689 511.849 142.67)" fill="white"/>
<ellipse cx="661.099" cy="127.702" rx="0.999969" ry="1.35351" transform="rotate(-5.72689 661.099 127.702)" fill="white"/>
<ellipse cx="810.347" cy="112.734" rx="1.00003" ry="1.35351" transform="rotate(-5.72689 810.347 112.734)" fill="white"/>
<ellipse cx="959.603" cy="97.7655" rx="1.00009" ry="1.35351" transform="rotate(-5.72689 959.603 97.7655)" fill="white"/>
<ellipse cx="1108.85" cy="82.7977" rx="1" ry="1.35351" transform="rotate(-5.72689 1108.85 82.7977)" fill="white"/>
<ellipse cx="1258.1" cy="67.83" rx="1" ry="1.35351" transform="rotate(-5.72689 1258.1 67.83)" fill="white"/>
<ellipse cx="67.6457" cy="323.245" rx="1" ry="1.35351" transform="rotate(-5.72689 67.6457 323.245)" fill="white"/>
<ellipse cx="216.902" cy="308.276" rx="1.00003" ry="1.35351" transform="rotate(-5.72689 216.902 308.276)" fill="white"/>
<ellipse cx="366.152" cy="293.308" rx="0.999954" ry="1.35351" transform="rotate(-5.72689 366.152 293.308)" fill="white"/>
<ellipse cx="515.402" cy="278.34" rx="0.999985" ry="1.35351" transform="rotate(-5.72689 515.402 278.34)" fill="white"/>
<ellipse cx="664.655" cy="263.372" rx="1" ry="1.35351" transform="rotate(-5.72689 664.655 263.372)" fill="white"/>
<ellipse cx="813.906" cy="248.404" rx="1.00006" ry="1.35351" transform="rotate(-5.72689 813.906 248.404)" fill="white"/>
<ellipse cx="963.156" cy="233.436" rx="1.00003" ry="1.35351" transform="rotate(-5.72689 963.156 233.436)" fill="white"/>
<ellipse cx="1112.41" cy="218.468" rx="1" ry="1.35351" transform="rotate(-5.72689 1112.41 218.468)" fill="white"/>
<ellipse cx="1261.66" cy="203.5" rx="1" ry="1.35351" transform="rotate(-5.72689 1261.66 203.5)" fill="white"/>
<ellipse cx="1.55585" cy="465.901" rx="1" ry="1.35352" transform="rotate(-5.72689 1.55585 465.901)" fill="white"/>
<ellipse cx="150.806" cy="450.933" rx="1" ry="1.35352" transform="rotate(-5.72689 150.806 450.933)" fill="white"/>
<ellipse cx="300.056" cy="435.965" rx="1" ry="1.35352" transform="rotate(-5.72689 300.056 435.965)" fill="white"/>
<ellipse cx="449.31" cy="420.996" rx="0.999969" ry="1.35352" transform="rotate(-5.72689 449.31 420.996)" fill="white"/>
<ellipse cx="598.56" cy="406.029" rx="0.999969" ry="1.35352" transform="rotate(-5.72689 598.56 406.029)" fill="white"/>
<ellipse cx="747.81" cy="391.061" rx="1.00003" ry="1.35352" transform="rotate(-5.72689 747.81 391.061)" fill="white"/>
<ellipse cx="897.064" cy="376.092" rx="1.00009" ry="1.35352" transform="rotate(-5.72689 897.064 376.092)" fill="white"/>
<ellipse cx="1046.31" cy="361.125" rx="1" ry="1.35352" transform="rotate(-5.72689 1046.31 361.125)" fill="white"/>
<ellipse cx="1195.56" cy="346.157" rx="1" ry="1.35352" transform="rotate(-5.72689 1195.56 346.157)" fill="white"/>
<ellipse cx="1344.82" cy="331.188" rx="0.999939" ry="1.35352" transform="rotate(-5.72689 1344.82 331.188)" fill="white"/>
<ellipse cx="134.46" cy="588.6" rx="1.00001" ry="1.35349" transform="rotate(-5.72689 134.46 588.6)" fill="white"/>
<ellipse cx="283.714" cy="573.631" rx="1" ry="1.35349" transform="rotate(-5.72689 283.714 573.631)" fill="white"/>
<ellipse cx="432.964" cy="558.664" rx="0.999985" ry="1.35349" transform="rotate(-5.72689 432.964 558.664)" fill="white"/>
<ellipse cx="582.214" cy="543.696" rx="1" ry="1.35349" transform="rotate(-5.72689 582.214 543.696)" fill="white"/>
<ellipse cx="731.468" cy="528.728" rx="1.00006" ry="1.35349" transform="rotate(-5.72689 731.468 528.728)" fill="white"/>
<ellipse cx="880.718" cy="513.76" rx="1" ry="1.35349" transform="rotate(-5.72689 880.718 513.76)" fill="white"/>
<ellipse cx="1029.97" cy="498.792" rx="1.00003" ry="1.35349" transform="rotate(-5.72689 1029.97 498.792)" fill="white"/>
<ellipse cx="1179.22" cy="483.824" rx="0.999939" ry="1.35349" transform="rotate(-5.72689 1179.22 483.824)" fill="white"/>
<ellipse cx="1328.47" cy="468.856" rx="1" ry="1.35349" transform="rotate(-5.72689 1328.47 468.856)" fill="white"/>
<ellipse cx="28.5695" cy="735.247" rx="1" ry="1.35349" transform="rotate(-5.72689 28.5695 735.247)" fill="white"/>
<ellipse cx="177.818" cy="720.28" rx="1" ry="1.35349" transform="rotate(-5.72689 177.818 720.28)" fill="white"/>
<ellipse cx="327.068" cy="705.312" rx="1" ry="1.35349" transform="rotate(-5.72689 327.068 705.312)" fill="white"/>
<ellipse cx="476.323" cy="690.344" rx="0.999969" ry="1.35349" transform="rotate(-5.72689 476.323 690.344)" fill="white"/>
<ellipse cx="625.573" cy="675.376" rx="0.999969" ry="1.35349" transform="rotate(-5.72689 625.573 675.376)" fill="white"/>
<ellipse cx="774.822" cy="660.408" rx="1.00003" ry="1.35349" transform="rotate(-5.72689 774.822 660.408)" fill="white"/>
<ellipse cx="924.077" cy="645.44" rx="1.00009" ry="1.35349" transform="rotate(-5.72689 924.077 645.44)" fill="white"/>
<ellipse cx="1073.33" cy="630.472" rx="1" ry="1.35349" transform="rotate(-5.72689 1073.33 630.472)" fill="white"/>
<ellipse cx="1222.58" cy="615.504" rx="1" ry="1.35349" transform="rotate(-5.72689 1222.58 615.504)" fill="white"/>
<ellipse cx="1371.83" cy="600.536" rx="0.999939" ry="1.35349" transform="rotate(-5.72689 1371.83 600.536)" fill="white"/>
<ellipse cx="141.845" cy="862.634" rx="0.999985" ry="1.35349" transform="rotate(-5.72689 141.845 862.634)" fill="white"/>
<ellipse cx="291.095" cy="847.667" rx="1" ry="1.35349" transform="rotate(-5.72689 291.095 847.667)" fill="white"/>
<ellipse cx="440.345" cy="832.699" rx="0.999985" ry="1.35349" transform="rotate(-5.72689 440.345 832.699)" fill="white"/>
<ellipse cx="589.599" cy="817.73" rx="1" ry="1.35349" transform="rotate(-5.72689 589.599 817.73)" fill="white"/>
<ellipse cx="738.849" cy="802.763" rx="1" ry="1.35349" transform="rotate(-5.72689 738.849 802.763)" fill="white"/>
<ellipse cx="888.099" cy="787.795" rx="0.999908" ry="1.35349" transform="rotate(-5.72689 888.099 787.795)" fill="white"/>
<ellipse cx="1037.35" cy="772.826" rx="0.999969" ry="1.35349" transform="rotate(-5.72689 1037.35 772.826)" fill="white"/>
<ellipse cx="1186.6" cy="757.859" rx="1" ry="1.35349" transform="rotate(-5.72689 1186.6 757.859)" fill="white"/>
<ellipse cx="1335.85" cy="742.891" rx="1" ry="1.35349" transform="rotate(-5.72689 1335.85 742.891)" fill="white"/>
<ellipse cx="65.8" cy="1006.29" rx="1" ry="1.35349" transform="rotate(-5.72689 65.8 1006.29)" fill="white"/>
<ellipse cx="215.05" cy="991.321" rx="1.00001" ry="1.35349" transform="rotate(-5.72689 215.05 991.321)" fill="white"/>
<ellipse cx="364.3" cy="976.353" rx="1" ry="1.35349" transform="rotate(-5.72689 364.3 976.353)" fill="white"/>
<ellipse cx="513.554" cy="961.384" rx="1" ry="1.35349" transform="rotate(-5.72689 513.554 961.384)" fill="white"/>
<ellipse cx="662.804" cy="946.417" rx="1" ry="1.35349" transform="rotate(-5.72689 662.804 946.417)" fill="white"/>
<ellipse cx="812.054" cy="931.449" rx="0.999908" ry="1.35349" transform="rotate(-5.72689 812.054 931.449)" fill="white"/>
<ellipse cx="961.308" cy="916.48" rx="1" ry="1.35349" transform="rotate(-5.72689 961.308 916.48)" fill="white"/>
<ellipse cx="1110.56" cy="901.513" rx="1" ry="1.35349" transform="rotate(-5.72689 1110.56 901.513)" fill="white"/>
<ellipse cx="1259.81" cy="886.545" rx="1" ry="1.35349" transform="rotate(-5.72689 1259.81 886.545)" fill="white"/>
<ellipse cx="59.4016" cy="1142.96" rx="0.999999" ry="1.35349" transform="rotate(-5.72689 59.4016 1142.96)" fill="white"/>
<ellipse cx="208.655" cy="1127.99" rx="1" ry="1.35349" transform="rotate(-5.72689 208.655 1127.99)" fill="white"/>
<ellipse cx="357.905" cy="1113.02" rx="1" ry="1.35349" transform="rotate(-5.72689 357.905 1113.02)" fill="white"/>
<ellipse cx="507.155" cy="1098.05" rx="0.999939" ry="1.35349" transform="rotate(-5.72689 507.155 1098.05)" fill="white"/>
<ellipse cx="656.411" cy="1083.09" rx="1" ry="1.35349" transform="rotate(-5.72689 656.411 1083.09)" fill="white"/>
<ellipse cx="805.659" cy="1068.12" rx="1.00006" ry="1.35349" transform="rotate(-5.72689 805.659 1068.12)" fill="white"/>
<ellipse cx="954.909" cy="1053.15" rx="1.00003" ry="1.35349" transform="rotate(-5.72689 954.909 1053.15)" fill="white"/>
<ellipse cx="1104.17" cy="1038.18" rx="0.999969" ry="1.35349" transform="rotate(-5.72689 1104.17 1038.18)" fill="white"/>
<ellipse cx="1253.41" cy="1023.21" rx="1" ry="1.35349" transform="rotate(-5.72689 1253.41 1023.21)" fill="white"/>
<ellipse cx="1402.66" cy="1008.25" rx="1" ry="1.35349" transform="rotate(-5.72689 1402.66 1008.25)" fill="white"/>
<ellipse cx="132.613" cy="1271.64" rx="1" ry="1.35356" transform="rotate(-5.72689 132.613 1271.64)" fill="white"/>
<ellipse cx="281.862" cy="1256.68" rx="1" ry="1.35356" transform="rotate(-5.72689 281.862 1256.68)" fill="white"/>
<ellipse cx="431.111" cy="1241.71" rx="1" ry="1.35356" transform="rotate(-5.72689 431.111 1241.71)" fill="white"/>
<ellipse cx="580.366" cy="1226.74" rx="1.00002" ry="1.35356" transform="rotate(-5.72689 580.366 1226.74)" fill="white"/>
<ellipse cx="729.616" cy="1211.77" rx="1" ry="1.35356" transform="rotate(-5.72689 729.616 1211.77)" fill="white"/>
<ellipse cx="878.865" cy="1196.8" rx="1.00003" ry="1.35356" transform="rotate(-5.72689 878.865 1196.8)" fill="white"/>
<ellipse cx="1028.12" cy="1181.84" rx="0.999878" ry="1.35356" transform="rotate(-5.72689 1028.12 1181.84)" fill="white"/>
<ellipse cx="1177.37" cy="1166.87" rx="1" ry="1.35356" transform="rotate(-5.72689 1177.37 1166.87)" fill="white"/>
<ellipse cx="1326.62" cy="1151.9" rx="1" ry="1.35356" transform="rotate(-5.72689 1326.62 1151.9)" fill="white"/>
<ellipse cx="66.5168" cy="1414.3" rx="1" ry="1.35349" transform="rotate(-5.72689 66.5168 1414.3)" fill="white"/>
<ellipse cx="215.767" cy="1399.33" rx="1.00001" ry="1.35349" transform="rotate(-5.72689 215.767 1399.33)" fill="white"/>
<ellipse cx="365.021" cy="1384.36" rx="1" ry="1.35349" transform="rotate(-5.72689 365.021 1384.36)" fill="white"/>
<ellipse cx="514.271" cy="1369.4" rx="0.999985" ry="1.35349" transform="rotate(-5.72689 514.271 1369.4)" fill="white"/>
<ellipse cx="663.521" cy="1354.43" rx="1" ry="1.35349" transform="rotate(-5.72689 663.521 1354.43)" fill="white"/>
<ellipse cx="812.775" cy="1339.46" rx="1.00006" ry="1.35349" transform="rotate(-5.72689 812.775 1339.46)" fill="white"/>
<ellipse cx="962.025" cy="1324.49" rx="1" ry="1.35349" transform="rotate(-5.72689 962.025 1324.49)" fill="white"/>
<ellipse cx="1111.27" cy="1309.52" rx="1.00003" ry="1.35349" transform="rotate(-5.72689 1111.27 1309.52)" fill="white"/>
<ellipse cx="1260.53" cy="1294.56" rx="0.999939" ry="1.35349" transform="rotate(-5.72689 1260.53 1294.56)" fill="white"/>
<ellipse cx="1409.78" cy="1279.59" rx="1" ry="1.35349" transform="rotate(-5.72689 1409.78 1279.59)" fill="white"/>
<ellipse cx="109.874" cy="1545.98" rx="1" ry="1.35342" transform="rotate(-5.72689 109.874 1545.98)" fill="white"/>
<ellipse cx="259.124" cy="1531.01" rx="1" ry="1.35342" transform="rotate(-5.72689 259.124 1531.01)" fill="white"/>
<ellipse cx="408.374" cy="1516.04" rx="1" ry="1.35342" transform="rotate(-5.72689 408.374 1516.04)" fill="white"/>
<ellipse cx="557.628" cy="1501.08" rx="0.999969" ry="1.35342" transform="rotate(-5.72689 557.628 1501.08)" fill="white"/>
<ellipse cx="706.878" cy="1486.11" rx="0.999969" ry="1.35342" transform="rotate(-5.72689 706.878 1486.11)" fill="white"/>
<ellipse cx="856.128" cy="1471.14" rx="1.00003" ry="1.35342" transform="rotate(-5.72689 856.128 1471.14)" fill="white"/>
<ellipse cx="1005.38" cy="1456.17" rx="1.00009" ry="1.35342" transform="rotate(-5.72689 1005.38 1456.17)" fill="white"/>
<ellipse cx="1154.63" cy="1441.2" rx="1" ry="1.35342" transform="rotate(-5.72689 1154.63 1441.2)" fill="white"/>
<ellipse cx="1303.88" cy="1426.24" rx="1" ry="1.35342" transform="rotate(-5.72689 1303.88 1426.24)" fill="white"/>
<ellipse cx="194.378" cy="1687.14" rx="1" ry="1.35342" transform="rotate(-5.72689 194.378 1687.14)" fill="white"/>
<ellipse cx="343.628" cy="1672.17" rx="0.999969" ry="1.35342" transform="rotate(-5.72689 343.628 1672.17)" fill="white"/>
<ellipse cx="492.884" cy="1657.2" rx="1.00002" ry="1.35342" transform="rotate(-5.72689 492.884 1657.2)" fill="white"/>
<ellipse cx="642.132" cy="1642.23" rx="1.00002" ry="1.35342" transform="rotate(-5.72689 642.132 1642.23)" fill="white"/>
<ellipse cx="791.382" cy="1627.26" rx="0.999969" ry="1.35342" transform="rotate(-5.72689 791.382 1627.26)" fill="white"/>
<ellipse cx="940.638" cy="1612.3" rx="1" ry="1.35342" transform="rotate(-5.72689 940.638 1612.3)" fill="white"/>
<ellipse cx="1089.89" cy="1597.33" rx="1.00006" ry="1.35342" transform="rotate(-5.72689 1089.89 1597.33)" fill="white"/>
<ellipse cx="1239.14" cy="1582.36" rx="1" ry="1.35342" transform="rotate(-5.72689 1239.14 1582.36)" fill="white"/>
<ellipse cx="1388.39" cy="1567.39" rx="0.999939" ry="1.35342" transform="rotate(-5.72689 1388.39 1567.39)" fill="white"/>
<ellipse cx="149.536" cy="1841.26" rx="1" ry="1.35349" transform="rotate(-5.72689 149.536 1841.26)" fill="white"/>
<ellipse cx="298.786" cy="1826.29" rx="1.00001" ry="1.35349" transform="rotate(-5.72689 298.786 1826.29)" fill="white"/>
<ellipse cx="448.036" cy="1811.33" rx="1" ry="1.35349" transform="rotate(-5.72689 448.036 1811.33)" fill="white"/>
<ellipse cx="597.29" cy="1796.36" rx="1" ry="1.35349" transform="rotate(-5.72689 597.29 1796.36)" fill="white"/>
<ellipse cx="746.54" cy="1781.39" rx="1" ry="1.35349" transform="rotate(-5.72689 746.54 1781.39)" fill="white"/>
<ellipse cx="895.79" cy="1766.42" rx="0.999908" ry="1.35349" transform="rotate(-5.72689 895.79 1766.42)" fill="white"/>
<ellipse cx="1045.04" cy="1751.45" rx="1" ry="1.35349" transform="rotate(-5.72689 1045.04 1751.45)" fill="white"/>
<ellipse cx="1194.29" cy="1736.49" rx="1" ry="1.35349" transform="rotate(-5.72689 1194.29 1736.49)" fill="white"/>
<ellipse cx="1343.54" cy="1721.52" rx="1" ry="1.35349" transform="rotate(-5.72689 1343.54 1721.52)" fill="white"/>
<ellipse cx="243.724" cy="1978.73" rx="1.00001" ry="1.35342" transform="rotate(-5.72689 243.724 1978.73)" fill="white"/>
<ellipse cx="392.974" cy="1963.76" rx="0.999985" ry="1.35342" transform="rotate(-5.72689 392.974 1963.76)" fill="white"/>
<ellipse cx="542.224" cy="1948.79" rx="1.00006" ry="1.35342" transform="rotate(-5.72689 542.224 1948.79)" fill="white"/>
<ellipse cx="691.478" cy="1933.82" rx="0.999969" ry="1.35342" transform="rotate(-5.72689 691.478 1933.82)" fill="white"/>
<ellipse cx="840.728" cy="1918.86" rx="0.999969" ry="1.35342" transform="rotate(-5.72689 840.728 1918.86)" fill="white"/>
<ellipse cx="989.978" cy="1903.89" rx="1.00003" ry="1.35342" transform="rotate(-5.72689 989.978 1903.89)" fill="white"/>
<ellipse cx="1139.23" cy="1888.92" rx="1.00009" ry="1.35342" transform="rotate(-5.72689 1139.23 1888.92)" fill="white"/>
<ellipse cx="1288.48" cy="1873.95" rx="1" ry="1.35342" transform="rotate(-5.72689 1288.48 1873.95)" fill="white"/>
<ellipse cx="1437.73" cy="1858.98" rx="1" ry="1.35342" transform="rotate(-5.72689 1437.73 1858.98)" fill="white"/>
<ellipse cx="198.876" cy="2132.86" rx="1" ry="1.35356" transform="rotate(-5.72689 198.876 2132.86)" fill="white"/>
<ellipse cx="348.132" cy="2117.89" rx="0.999969" ry="1.35356" transform="rotate(-5.72689 348.132 2117.89)" fill="white"/>
<ellipse cx="497.382" cy="2102.92" rx="1" ry="1.35356" transform="rotate(-5.72689 497.382 2102.92)" fill="white"/>
<ellipse cx="646.63" cy="2087.95" rx="1.00006" ry="1.35356" transform="rotate(-5.72689 646.63 2087.95)" fill="white"/>
<ellipse cx="795.886" cy="2072.98" rx="0.999969" ry="1.35356" transform="rotate(-5.72689 795.886 2072.98)" fill="white"/>
<ellipse cx="945.136" cy="2058.02" rx="1" ry="1.35356" transform="rotate(-5.72689 945.136 2058.02)" fill="white"/>
<ellipse cx="1094.38" cy="2043.05" rx="1.00003" ry="1.35356" transform="rotate(-5.72689 1094.38 2043.05)" fill="white"/>
<ellipse cx="1243.64" cy="2028.08" rx="0.999939" ry="1.35356" transform="rotate(-5.72689 1243.64 2028.08)" fill="white"/>
<ellipse cx="1392.89" cy="2013.11" rx="1" ry="1.35356" transform="rotate(-5.72689 1392.89 2013.11)" fill="white"/>
<ellipse cx="154.036" cy="2286.98" rx="1" ry="1.35342" transform="rotate(-5.72689 154.036 2286.98)" fill="white"/>
<ellipse cx="303.286" cy="2272.02" rx="1.00001" ry="1.35342" transform="rotate(-5.72689 303.286 2272.02)" fill="white"/>
<ellipse cx="452.54" cy="2257.05" rx="1" ry="1.35342" transform="rotate(-5.72689 452.54 2257.05)" fill="white"/>
<ellipse cx="601.79" cy="2242.08" rx="0.999985" ry="1.35342" transform="rotate(-5.72689 601.79 2242.08)" fill="white"/>
<ellipse cx="751.04" cy="2227.11" rx="1" ry="1.35342" transform="rotate(-5.72689 751.04 2227.11)" fill="white"/>
<ellipse cx="900.294" cy="2212.14" rx="1.00006" ry="1.35342" transform="rotate(-5.72689 900.294 2212.14)" fill="white"/>
<ellipse cx="1049.54" cy="2197.18" rx="1" ry="1.35342" transform="rotate(-5.72689 1049.54 2197.18)" fill="white"/>
<ellipse cx="1198.79" cy="2182.21" rx="1.00003" ry="1.35342" transform="rotate(-5.72689 1198.79 2182.21)" fill="white"/>
<ellipse cx="1348.05" cy="2167.24" rx="0.999939" ry="1.35342" transform="rotate(-5.72689 1348.05 2167.24)" fill="white"/>
<ellipse cx="974.851" cy="2308.3" rx="1" ry="1.35316" transform="rotate(-5.72689 974.851 2308.3)" fill="white"/>
<ellipse cx="1124.1" cy="2339.33" rx="1.00003" ry="1.35316" transform="rotate(-5.72689 1124.1 2339.33)" fill="white"/>
<ellipse cx="1273.35" cy="2324.36" rx="0.999939" ry="1.35316" transform="rotate(-5.72689 1273.35 2324.36)" fill="white"/>
<ellipse cx="1422.6" cy="2309.39" rx="1" ry="1.35316" transform="rotate(-5.72689 1422.6 2309.39)" fill="white"/>
<ellipse rx="2.0596" ry="2.89152" transform="matrix(0.964241 0.265027 -0.396696 0.91795 777.605 38.6283)" fill="white"/>
<ellipse rx="2.05959" ry="2.89152" transform="matrix(0.964241 0.265028 -0.396695 0.91795 1081.23 107.233)" fill="white"/>
<ellipse rx="2.05973" ry="2.89152" transform="matrix(0.964241 0.265028 -0.396695 0.91795 1384.86 175.841)" fill="white"/>
<ellipse rx="2.05961" ry="2.89152" transform="matrix(0.964241 0.265026 -0.396696 0.91795 410.456 219.821)" fill="white"/>
<ellipse rx="2.05956" ry="2.89154" transform="matrix(0.964241 0.265026 -0.396696 0.91795 702.616 314.972)" fill="white"/>
<ellipse rx="2.05962" ry="2.89151" transform="matrix(0.964241 0.265026 -0.396696 0.91795 1006.24 383.577)" fill="white"/>
<ellipse rx="2.05956" ry="2.89151" transform="matrix(0.964241 0.265027 -0.396696 0.91795 1309.88 452.184)" fill="white"/>
<ellipse rx="2.05961" ry="2.8915" transform="matrix(0.96424 0.265032 -0.396692 0.917952 236.173 468.874)" fill="white"/>
<ellipse rx="2.05961" ry="2.89149" transform="matrix(0.96424 0.26503 -0.396694 0.917951 528.333 564.025)" fill="white"/>
<ellipse rx="2.05963" ry="2.89154" transform="matrix(0.964241 0.265028 -0.396695 0.91795 831.96 632.629)" fill="white"/>
<ellipse rx="2.05953" ry="2.89152" transform="matrix(0.964241 0.265025 -0.396697 0.91795 1135.59 701.237)" fill="white"/>
<ellipse rx="2.0596" ry="2.89153" transform="matrix(0.964242 0.265023 -0.396698 0.917949 1427.75 796.385)" fill="white"/>
<ellipse rx="2.05959" ry="2.89153" transform="matrix(0.964241 0.265027 -0.396696 0.91795 240.624 767.052)" fill="white"/>
<ellipse rx="2.05956" ry="2.89154" transform="matrix(0.964241 0.265026 -0.396696 0.91795 532.786 862.204)" fill="white"/>
<ellipse rx="2.05953" ry="2.89152" transform="matrix(0.964241 0.265028 -0.396695 0.917951 836.413 930.808)" fill="white"/>
<ellipse rx="2.05962" ry="2.89152" transform="matrix(0.964241 0.265028 -0.396695 0.917951 1140.04 999.416)" fill="white"/>
<ellipse rx="2.05958" ry="2.89154" transform="matrix(0.96424 0.265029 -0.396694 0.917951 1432.2 1094.56)" fill="white"/>
<ellipse rx="2.05962" ry="2.89157" transform="matrix(0.964242 0.265022 -0.396699 0.917949 75.126 1021.49)" fill="white"/>
<ellipse rx="2.05963" ry="2.89157" transform="matrix(0.964242 0.265024 -0.396698 0.917949 367.282 1116.64)" fill="white"/>
<ellipse rx="2.05963" ry="2.89152" transform="matrix(0.96424 0.26503 -0.396693 0.917951 670.913 1185.24)" fill="white"/>
<ellipse rx="2.05968" ry="2.89145" transform="matrix(0.964239 0.265035 -0.39669 0.917953 974.54 1253.85)" fill="white"/>
<ellipse rx="2.0596" ry="2.89154" transform="matrix(0.964239 0.265033 -0.396692 0.917952 1266.7 1349)" fill="white"/>
<ellipse rx="2.0596" ry="2.89157" transform="matrix(0.964243 0.265021 -0.3967 0.917948 202.929 1368.42)" fill="white"/>
<ellipse rx="2.05958" ry="2.89148" transform="matrix(0.964239 0.265033 -0.396692 0.917952 506.56 1437.03)" fill="white"/>
<ellipse rx="2.05974" ry="2.89153" transform="matrix(0.96424 0.265029 -0.396694 0.917951 810.187 1505.63)" fill="white"/>
<ellipse rx="2.05962" ry="2.89157" transform="matrix(0.964242 0.265023 -0.396699 0.917949 1102.35 1600.78)" fill="white"/>
<ellipse rx="2.05936" ry="2.89149" transform="matrix(0.964241 0.265027 -0.396696 0.91795 1395.65 1693.28)" fill="white"/>
<ellipse rx="2.05962" ry="2.89163" transform="matrix(0.964242 0.265023 -0.396698 0.917949 247.097 1677.51)" fill="white"/>
<ellipse rx="2.05959" ry="2.89157" transform="matrix(0.964243 0.265021 -0.3967 0.917948 550.729 1746.12)" fill="white"/>
<ellipse rx="2.05964" ry="2.89157" transform="matrix(0.964241 0.265027 -0.396696 0.91795 854.36 1814.73)" fill="white"/>
<ellipse rx="2.05966" ry="2.89157" transform="matrix(0.96424 0.265031 -0.396693 0.917951 1146.52 1909.88)" fill="white"/>
<ellipse rx="2.05945" ry="2.89155" transform="matrix(0.964238 0.265037 -0.396689 0.917953 1439.82 2002.37)" fill="white"/>
<ellipse rx="2.05962" ry="2.89152" transform="matrix(0.964241 0.265028 -0.396695 0.917951 250.337 1960.51)" fill="white"/>
<ellipse rx="2.05961" ry="2.89161" transform="matrix(0.964245 0.265013 -0.396705 0.917946 553.964 2029.12)" fill="white"/>
<ellipse rx="2.05963" ry="2.89161" transform="matrix(0.964244 0.265017 -0.396703 0.917947 846.126 2124.27)" fill="white"/>
<ellipse rx="2.05942" ry="2.89163" transform="matrix(0.964244 0.265017 -0.396702 0.917947 1139.43 2216.76)" fill="white"/>
<ellipse rx="2.05962" ry="2.89152" transform="matrix(0.964241 0.265028 -0.396695 0.917951 174.528 2195.06)" fill="white"/>
<ellipse rx="2.05954" ry="2.89144" transform="matrix(0.964238 0.265037 -0.396689 0.917953 478.155 2263.66)" fill="white"/>
</g>
<defs>
<filter id="filter0_d" x="-10" y="-19" width="1460" height="2387" filterUnits="userSpaceOnUse" color-interpolation-filters="sRGB">
<feFlood flood-opacity="0" result="BackgroundImageFix"/>
<feColorMatrix in="SourceAlpha" type="matrix" values="0 0 0 0 0 0 0 0 0 0 0 0 0 0 0 0 0 0 127 0" result="hardAlpha"/>
<feOffset dy="4"/>
<feGaussianBlur stdDeviation="5"/>
<feColorMatrix type="matrix" values="0 0 0 0 0 0 0 0 0 0 0 0 0 0 0 0 0 0 0.25 0"/>
<feBlend mode="normal" in2="BackgroundImageFix" result="effect1_dropShadow"/>
<feBlend mode="normal" in="SourceGraphic" in2="effect1_dropShadow" result="shape"/>
</filter>
<clipPath id="clip0">
<rect width="1440" height="2367" fill="white" transform="translate(0 -13)"/>
</clipPath>
</defs>
</svg>
