<svg width="451" height="478" viewBox="0 0 451 478" fill="none" xmlns="http://www.w3.org/2000/svg">
<g opacity="0.3" filter="url(#filter0_f)">
<path d="M413.126 148.079C423.935 171.721 425.771 185.835 425.863 194.701C425.956 204.76 425.226 210.149 424.42 214.247C422.303 224.838 420.532 225.568 419.821 219.961C419.23 214.552 419.15 203.358 416.546 190.773C414.106 179.014 411.459 165.326 403.485 152.099C397.899 142.455 389.245 129.214 373.082 116.908C364.944 110.746 350.995 106.161 336.421 102.137C332.915 101.177 328.575 100.464 323.618 99.976C318.662 99.488 308.256 97.9913 297.005 97.9829C287.095 97.9774 276.862 98.9648 267.132 100.707C259.014 102.163 251.547 104.082 244.963 105.838C241.115 106.884 235.906 108.629 230.689 110.406C226.906 111.695 223.369 112.965 220.529 113.227C218.394 113.437 211.811 114.06 200.551 122.926C190.155 131.174 166.771 155.702 162.637 189.818C160.806 205.055 162.938 221.593 169.727 236.365C176.351 250.752 185.054 259.063 187.475 261.106C192.58 265.321 183.606 256.151 177.915 246.487C172.326 236.99 165.839 220.163 165.929 203.81C166.078 182.251 168.891 189.584 170.321 192.339C170.919 193.47 172.435 193.997 173.505 193.212C175.207 191.961 176.599 189.39 177.657 188.049C181.207 183.642 183.812 177.89 185.054 176.274C186.662 174.215 188.682 170.711 187.836 173.188C186.045 178.352 183.878 179.451 180.951 200.75C179.806 209.098 179.466 215.894 179.854 222.712C180.149 227.875 180.775 234.132 185.669 242.948C193.475 256.932 220.913 279.464 253.643 278.564C283.298 277.723 299.355 263.498 306.352 255.523C312.994 247.945 314.208 243.915 314.552 243.902C315.208 243.897 309.364 261.478 287.957 272.856C284.596 274.406 276.271 278.288 264.327 280.079C251.897 281.938 235.333 281.013 220.173 275.132C189.123 263.05 175.677 233.628 173.787 224.942C172.508 219.099 172.259 217.836 171.507 217.035C170.658 216.194 169.953 218.997 169.001 216.883C168.283 215.274 166.297 217.44 172.946 233.39C178.789 247.372 190.41 263.795 212.049 274.997C222.804 280.556 231.05 282.663 238.175 284.087C245.287 285.502 266.451 284.804 272.833 283.774C280.013 282.618 290.178 279.751 300.135 273.88C309.603 268.289 319.668 257.199 323.858 251.316C331.782 240.195 333.367 226.062 335.28 223.162C336.8 220.893 339.198 222.316 340.486 225.852C342.902 231.867 344.074 229.389 345.299 231.32C346.008 232.432 347.77 234.405 345.668 243.202C344.614 247.591 342.086 254.676 336.704 262.282C331.054 270.26 321.868 279.35 308.314 286.576C321.791 279.108 322.674 276.36 318.561 278.532C313.777 281.065 297.05 290.309 282.292 293.156C265.764 296.338 242.877 296.459 222.605 289.399C200.068 281.535 183.28 265.916 175.017 254.098C167.483 243.291 160.344 226.162 159.358 207.544C158.288 187.113 165.186 165.728 172.172 152.798C178.509 141.081 180.778 138.035 181.208 136.618C181.639 135.202 181.694 134.858 181.235 135.201C179.989 136.143 176.622 140.869 182.493 130.181C185.975 123.898 192.157 117.337 199.951 111.586C209.142 104.824 218.513 101.353 225.05 99.2586C232.367 96.9816 241.716 94.9978 249.575 94.3294C260.282 93.4262 280.562 90.192 301.681 90.0718C316.943 90.0205 328.979 91.4617 339.846 93.8578C350.713 96.254 360.421 99.5773 367.772 103.634C388.917 115.42 405.766 132.809 413.126 148.079Z" fill="#622480"/>
</g>
<g opacity="0.3" filter="url(#filter1_f)">
<path d="M122.285 76.5084C109.126 91.369 99.5212 105.474 92.3187 117.359C87.1766 125.847 82.5545 134.381 79.2661 142.606C74.8014 153.867 71.6193 172.512 72.9034 176.705C74.0845 180.187 78.4869 183.648 81.1125 180.853C83.7967 178.046 85.3524 174.803 86.8494 171.73C89.055 167.201 90.7155 163.193 92.2279 159.799C93.9515 155.928 96.4951 148.157 100.349 138.711C104.896 127.572 111.464 114.325 118.925 102.842C139.688 70.9549 154.138 62.308 160.714 57.5425C175.436 46.9395 168.099 55.483 163.052 61.3103C158.931 66.0461 156.182 69.853 152.911 74.2191C149.471 78.7533 141.719 85.9323 142.994 87.9192C144.126 89.3856 149.734 88.3619 158.356 82.018C165.15 77.0198 171.728 72.7572 177.723 69.2657C185.432 64.7775 192.549 61.3621 198.365 58.9917C217.071 51.757 227.362 48.98 232.252 48.179C238.338 47.1851 235.641 48.8249 232.776 49.9341C229.946 51.0059 221.194 53.7331 208.381 59.8601C197.466 65.0818 184.986 72.2408 171.68 81.9418C164.115 87.4742 152.474 97.2271 140.87 112.956C132.079 124.88 121.305 141.693 117.632 167.967C115.533 183.256 116.372 200.654 121.587 216.961C126.253 231.533 134.458 245.298 145.181 256.165C154.729 265.832 166.345 273.372 178.561 278.202C189.525 282.532 201.338 284.874 213.073 284.957C247.229 285.096 292.993 258.6 301.928 222.072C305.918 205.632 301.893 189.414 292.489 180.517C284.175 172.67 272.14 171.168 263.709 174.36C250.109 179.435 244.944 183.12 244.193 176.108C243.42 168.719 255.377 156.501 264.422 154.22C285.331 149.02 298.444 159.718 300.201 162.545C302.318 165.908 314.409 176.168 317.933 195.102C321.763 215.797 311.939 245.303 295.704 264.199C310.31 246.71 319.09 223.907 318.063 204.641C317.103 186.935 308.092 173.079 298.215 166.414C280.891 154.755 265.847 160.972 273.926 162.179C280.962 163.103 294.896 166.809 303.771 180.502C313.645 195.778 314.408 224.45 297.855 249.936C279.947 277.435 245.435 295.52 216.041 299.547C184.811 303.801 160.38 294.821 148.669 288.234C131.152 278.395 120.628 264.999 113.059 250.858C108.419 242.18 104.592 232.399 101.906 221.47C98.8321 208.954 97.2512 194.723 98.1807 179.188C99.8945 151.074 109.468 127.898 115.985 114.767C122.879 100.885 124.16 99.0404 116.778 110.561C113.039 116.435 106.227 129.598 101.891 140.05C98.4377 148.406 93.6506 165.878 90.7449 177.109C89.5936 181.593 88.414 187.411 86.7946 193.521C85.6915 197.681 84.527 201.682 82.13 204.86C79.4855 208.412 72.9652 199.001 73.3789 214.575C73.5273 219.409 75.368 230.055 80.106 241.647C84.2169 251.696 86.6922 255.821 87.3151 257.525C88.4958 260.87 76.6267 251.533 68.3887 216.331C64.5104 199.625 64.1521 179.122 67.0505 161.564C70.2747 142.078 77.4863 124.686 82.1649 116.347C89.5899 103.221 95.9805 96.8493 100.592 91.9707C108.356 83.7589 114.952 77.5747 121.083 71.9697C113.384 79.27 104.47 88.7775 96.4168 98.9633C91.1385 105.642 84.928 114.007 79.7466 124.732C73.2181 138.335 67.2204 169.686 67.3029 173.049C67.4776 175.937 68.1875 164.858 71.2038 155.101C73.2505 148.51 79.1915 134.77 83.0648 128.725C86.7799 122.976 90.9626 117.089 95.5634 110.61C102.271 101.165 110.559 89.6452 122.285 76.5084Z" fill="#280659"/>
</g>
<g opacity="0.3" filter="url(#filter2_f)">
<path d="M33.7085 250.919C37.3654 261.276 41.5913 271.802 51.1019 289.544C61.0823 308.147 75.9889 329.296 100.918 348.913C112.281 357.837 124.565 365.434 137.066 371.531C148.18 376.949 159.388 381.162 170.212 384.37C187.58 389.514 203.717 392.193 218.33 393.492C227.905 394.32 237.212 394.615 245.675 394.102C252.567 393.682 260.152 392.554 267.341 390.449C280.446 386.583 281.255 385.716 284.596 379.27C285.709 377.019 285.436 373.441 283.189 372.553C279.273 371.011 273.411 371.815 268.526 372.105C260.114 372.583 246.761 374.848 230.8 375.582C210.237 376.523 187.3 373.943 170.35 369.185C131.242 358.145 138.964 355.985 133.622 352.291C126.104 347.1 125.777 345.835 127.413 345.189C129.632 344.486 143.486 352.527 148.737 353.054C153.13 353.461 161.648 357.636 163.554 354.901C164.916 352.715 159.61 346.273 153.38 341.165C148.168 336.893 142.251 332.217 136.966 327.494C130.141 321.393 124.133 315.031 120.003 309.775C110.105 296.617 105.049 288.543 103.175 284.634C100.943 279.973 102.986 281.833 105.915 285.438C108.898 289.14 114.583 296.73 124.173 306.349C132.263 314.461 142.172 322.583 152.999 331.165C158.574 335.559 181.163 344.345 198.159 348.03C210.876 350.783 224.788 355.55 256.866 345.524C272.821 340.496 289.732 331.718 304.389 319.378C317.542 308.297 328.974 294.243 337.037 279.077C350.621 253.492 354.676 223.696 350.016 200.406C343.505 168.433 311.949 133.46 273.078 133.594C255.416 133.676 238.221 141.222 228.021 152.814C218.827 163.281 215.862 176.507 218.114 186.007C221.236 199.425 228.51 203.339 228.813 206.794C229.085 209.988 223.549 212.539 216.637 210.091C201.477 204.692 198.204 170.855 200.502 167.096C203.165 162.912 209.401 145.174 227.846 132.073C248.139 117.688 282.76 113.625 308.368 123.202C286.772 115.487 260.296 116.123 240.342 125.866C222.071 134.807 210.327 150.568 206.343 163.146C199.388 185.196 205.544 195.051 207.57 177.565C209.352 161.528 221.967 140.503 245.166 130.47C271.272 119.214 309.481 124.121 336.688 147.979C365.07 172.94 374.6 213.075 371.596 242.452C369.961 258.354 365.293 272.413 359.706 283.731C353.499 296.295 345.616 306.711 337.508 315.162C325.764 327.36 312.036 338.346 297.413 346.915C280.358 356.901 262.968 362.997 249.072 366.141C218.258 373.091 198.553 370.105 199.595 370.751C200.51 371.117 204.414 372.068 215.371 372.445C224.62 372.747 247.85 370.181 256.135 368.957C262.942 367.951 271.979 365.937 281.142 364.066C287.506 362.767 293.577 361.292 297.118 363.333C299.608 364.727 292.933 370.042 305.549 370.026C308.171 369.984 313.943 369.257 327.629 358.451C338.41 349.927 346.398 342.935 358.248 326.106C369.354 310.322 372.98 301.502 375.031 297.816C377.05 294.194 378.48 291.637 377.49 295.033C375.116 303.057 359.198 340.58 323.081 368.907C289.194 395.379 248.654 404.495 229.873 405.61C216.217 406.398 208.728 404.861 204.371 403.612C198.101 401.812 194.248 399.653 188.481 397.613C177.475 393.672 169.623 390.106 161.332 386.329C148.977 380.7 136.272 374.695 120.604 364.852C98.3663 350.86 80.4826 333.774 67.5851 317.183C52.6305 297.932 46.3359 284.397 42.6804 276.727C53.2086 297.754 85.6396 337.557 85.4665 337.116C85.0594 336.625 72.2338 324.398 60.4542 306.543C46.4008 285.221 40.04 269.356 33.7085 250.919Z" fill="#280659"/>
</g>
<defs>
<filter id="filter0_f" x="149.248" y="80.0703" width="286.623" height="225.172" filterUnits="userSpaceOnUse" color-interpolation-filters="sRGB">
<feFlood flood-opacity="0" result="BackgroundImageFix"/>
<feBlend mode="normal" in="SourceGraphic" in2="BackgroundImageFix" result="shape"/>
<feGaussianBlur stdDeviation="5" result="effect1_foregroundBlur"/>
</filter>
<filter id="filter1_f" x="0" y="0" width="367.459" height="370.897" filterUnits="userSpaceOnUse" color-interpolation-filters="sRGB">
<feFlood flood-opacity="0" result="BackgroundImageFix"/>
<feBlend mode="normal" in="SourceGraphic" in2="BackgroundImageFix" result="shape"/>
<feGaussianBlur stdDeviation="5" result="effect1_foregroundBlur"/>
</filter>
<filter id="filter2_f" x="0.269531" y="27.8047" width="450.189" height="450.195" filterUnits="userSpaceOnUse" color-interpolation-filters="sRGB">
<feFlood flood-opacity="0" result="BackgroundImageFix"/>
<feBlend mode="normal" in="SourceGraphic" in2="BackgroundImageFix" result="shape"/>
<feGaussianBlur stdDeviation="5" result="effect1_foregroundBlur"/>
</filter>
</defs>
</svg>
