<svg width="1440" height="2354" viewBox="0 0 1440 2354" fill="none" xmlns="http://www.w3.org/2000/svg">
<ellipse cx="13.9096" cy="270.774" rx="1.87257" ry="0.882658" transform="rotate(-69.7592 13.9096 270.774)" fill="white"/>
<ellipse cx="111.081" cy="7.24546" rx="1.87257" ry="0.882658" transform="rotate(-69.7592 111.081 7.24546)" fill="white"/>
<ellipse cx="31.7826" cy="476.937" rx="1.87233" ry="0.882663" transform="rotate(-69.7592 31.7826 476.937)" fill="white"/>
<ellipse cx="128.956" cy="213.41" rx="1.87245" ry="0.882663" transform="rotate(-69.7592 128.956 213.41)" fill="white"/>
<ellipse cx="56.1322" cy="665.533" rx="1.87233" ry="0.882658" transform="rotate(-69.7592 56.1322 665.533)" fill="white"/>
<ellipse cx="153.304" cy="402.004" rx="1.87263" ry="0.882658" transform="rotate(-69.7592 153.304 402.004)" fill="white"/>
<ellipse cx="250.48" cy="138.467" rx="1.87251" ry="0.882658" transform="rotate(-69.7592 250.48 138.467)" fill="white"/>
<ellipse cx="35.1322" cy="977.114" rx="1.87245" ry="0.882658" transform="rotate(-69.7592 35.1322 977.114)" fill="white"/>
<ellipse cx="132.31" cy="713.578" rx="1.87227" ry="0.882658" transform="rotate(-69.7592 132.31 713.578)" fill="white"/>
<ellipse cx="229.48" cy="450.048" rx="1.87251" ry="0.882658" transform="rotate(-69.7592 229.48 450.048)" fill="white"/>
<ellipse cx="326.654" cy="186.522" rx="1.87239" ry="0.882658" transform="rotate(-69.7592 326.654 186.522)" fill="white"/>
<ellipse cx="65.9643" cy="1148.13" rx="1.87251" ry="0.882658" transform="rotate(-69.7592 65.9643 1148.13)" fill="white"/>
<ellipse cx="163.136" cy="884.607" rx="1.87245" ry="0.882658" transform="rotate(-69.7592 163.136 884.607)" fill="white"/>
<ellipse cx="260.31" cy="621.08" rx="1.87269" ry="0.882658" transform="rotate(-69.7592 260.31 621.08)" fill="white"/>
<ellipse cx="357.484" cy="357.542" rx="1.87257" ry="0.882658" transform="rotate(-69.7592 357.484 357.542)" fill="white"/>
<ellipse cx="454.658" cy="94.0145" rx="1.87257" ry="0.882658" transform="rotate(-69.7592 454.658 94.0145)" fill="white"/>
<ellipse cx="32.0111" cy="1494.85" rx="1.87242" ry="0.882658" transform="rotate(-69.7592 32.0111 1494.85)" fill="white"/>
<ellipse cx="129.183" cy="1231.32" rx="1.87248" ry="0.882658" transform="rotate(-69.7592 129.183 1231.32)" fill="white"/>
<ellipse cx="226.355" cy="967.794" rx="1.87251" ry="0.882658" transform="rotate(-69.7592 226.355 967.794)" fill="white"/>
<ellipse cx="323.529" cy="704.256" rx="1.87257" ry="0.882658" transform="rotate(-69.7592 323.529 704.256)" fill="white"/>
<ellipse cx="420.702" cy="440.729" rx="1.87239" ry="0.882658" transform="rotate(-69.7592 420.702 440.729)" fill="white"/>
<ellipse cx="517.874" cy="177.201" rx="1.87245" ry="0.882658" transform="rotate(-69.7592 517.874 177.201)" fill="white"/>
<ellipse cx="36.9252" cy="1736.15" rx="1.87251" ry="0.882658" transform="rotate(-69.7592 36.9252 1736.15)" fill="white"/>
<ellipse cx="134.097" cy="1472.63" rx="1.8726" ry="0.882658" transform="rotate(-69.7592 134.097 1472.63)" fill="white"/>
<ellipse cx="231.273" cy="1209.09" rx="1.87251" ry="0.882658" transform="rotate(-69.7592 231.273 1209.09)" fill="white"/>
<ellipse cx="328.447" cy="945.563" rx="1.87245" ry="0.882658" transform="rotate(-69.7592 328.447 945.563)" fill="white"/>
<ellipse cx="425.619" cy="682.034" rx="1.87269" ry="0.882658" transform="rotate(-69.7592 425.619 682.034)" fill="white"/>
<ellipse cx="522.794" cy="418.497" rx="1.87257" ry="0.882658" transform="rotate(-69.7592 522.794 418.497)" fill="white"/>
<ellipse cx="619.966" cy="154.969" rx="1.87257" ry="0.882658" transform="rotate(-69.7592 619.966 154.969)" fill="white"/>
<ellipse cx="88.8412" cy="1855.09" rx="1.87254" ry="0.882658" transform="rotate(-69.7592 88.8412 1855.09)" fill="white"/>
<ellipse cx="186.013" cy="1591.56" rx="1.87248" ry="0.882658" transform="rotate(-69.7592 186.013 1591.56)" fill="white"/>
<ellipse cx="283.185" cy="1328.03" rx="1.87242" ry="0.882658" transform="rotate(-69.7592 283.185 1328.03)" fill="white"/>
<ellipse cx="380.361" cy="1064.49" rx="1.87257" ry="0.882658" transform="rotate(-69.7592 380.361 1064.49)" fill="white"/>
<ellipse cx="477.535" cy="800.965" rx="1.87245" ry="0.882658" transform="rotate(-69.7592 477.535 800.965)" fill="white"/>
<ellipse cx="574.706" cy="537.436" rx="1.87257" ry="0.882658" transform="rotate(-69.7592 574.706 537.436)" fill="white"/>
<ellipse cx="671.882" cy="273.899" rx="1.87245" ry="0.882658" transform="rotate(-69.7592 671.882 273.899)" fill="white"/>
<ellipse cx="769.054" cy="10.3709" rx="1.87257" ry="0.882658" transform="rotate(-69.7592 769.054 10.3709)" fill="white"/>
<ellipse cx="113.191" cy="2043.68" rx="1.87251" ry="0.882697" transform="rotate(-69.7592 113.191 2043.68)" fill="white"/>
<ellipse cx="210.365" cy="1780.15" rx="1.87251" ry="0.882697" transform="rotate(-69.7592 210.365 1780.15)" fill="white"/>
<ellipse cx="307.537" cy="1516.63" rx="1.87248" ry="0.882697" transform="rotate(-69.7592 307.537 1516.63)" fill="white"/>
<ellipse cx="404.712" cy="1253.09" rx="1.87257" ry="0.882697" transform="rotate(-69.7592 404.712 1253.09)" fill="white"/>
<ellipse cx="501.884" cy="989.56" rx="1.87257" ry="0.882697" transform="rotate(-69.7592 501.884 989.56)" fill="white"/>
<ellipse cx="599.058" cy="726.034" rx="1.87257" ry="0.882697" transform="rotate(-69.7592 599.058 726.034)" fill="white"/>
<ellipse cx="696.232" cy="462.495" rx="1.87245" ry="0.882697" transform="rotate(-69.7592 696.232 462.495)" fill="white"/>
<ellipse cx="793.406" cy="198.969" rx="1.87257" ry="0.882697" transform="rotate(-69.7592 793.406 198.969)" fill="white"/>
<ellipse cx="182.888" cy="2109.3" rx="1.87249" ry="0.882658" transform="rotate(-69.7592 182.888 2109.3)" fill="white"/>
<ellipse cx="280.064" cy="1845.76" rx="1.87253" ry="0.882658" transform="rotate(-69.7592 280.064 1845.76)" fill="white"/>
<ellipse cx="377.238" cy="1582.24" rx="1.87239" ry="0.882658" transform="rotate(-69.7592 377.238 1582.24)" fill="white"/>
<ellipse cx="474.408" cy="1318.71" rx="1.87251" ry="0.882658" transform="rotate(-69.7592 474.408 1318.71)" fill="white"/>
<ellipse cx="571.583" cy="1055.17" rx="1.87251" ry="0.882658" transform="rotate(-69.7592 571.583 1055.17)" fill="white"/>
<ellipse cx="668.755" cy="791.643" rx="1.87257" ry="0.882658" transform="rotate(-69.7592 668.755 791.643)" fill="white"/>
<ellipse cx="765.929" cy="528.117" rx="1.87275" ry="0.882658" transform="rotate(-69.7592 765.929 528.117)" fill="white"/>
<ellipse cx="863.103" cy="264.578" rx="1.87245" ry="0.882658" transform="rotate(-69.7592 863.103 264.578)" fill="white"/>
<ellipse cx="960.277" cy="1.05088" rx="1.87257" ry="0.882658" transform="rotate(-69.7592 960.277 1.05088)" fill="white"/>
<ellipse cx="304.415" cy="2034.36" rx="1.87252" ry="0.882582" transform="rotate(-69.7592 304.415 2034.36)" fill="white"/>
<ellipse cx="401.587" cy="1770.83" rx="1.87245" ry="0.882582" transform="rotate(-69.7592 401.587 1770.83)" fill="white"/>
<ellipse cx="498.759" cy="1507.31" rx="1.87257" ry="0.882582" transform="rotate(-69.7592 498.759 1507.31)" fill="white"/>
<ellipse cx="595.935" cy="1243.77" rx="1.87257" ry="0.882582" transform="rotate(-69.7592 595.935 1243.77)" fill="white"/>
<ellipse cx="693.107" cy="980.24" rx="1.87251" ry="0.882582" transform="rotate(-69.7592 693.107 980.24)" fill="white"/>
<ellipse cx="790.281" cy="716.713" rx="1.87263" ry="0.882582" transform="rotate(-69.7592 790.281 716.713)" fill="white"/>
<ellipse cx="887.454" cy="453.175" rx="1.87239" ry="0.882582" transform="rotate(-69.7592 887.454 453.175)" fill="white"/>
<ellipse cx="984.628" cy="189.649" rx="1.87257" ry="0.882582" transform="rotate(-69.7592 984.628 189.649)" fill="white"/>
<ellipse cx="335.242" cy="2205.39" rx="1.87251" ry="0.882697" transform="rotate(-69.7592 335.242 2205.39)" fill="white"/>
<ellipse cx="432.414" cy="1941.86" rx="1.87251" ry="0.882697" transform="rotate(-69.7592 432.414 1941.86)" fill="white"/>
<ellipse cx="529.589" cy="1678.32" rx="1.87242" ry="0.882697" transform="rotate(-69.7592 529.589 1678.32)" fill="white"/>
<ellipse cx="626.761" cy="1414.8" rx="1.87248" ry="0.882697" transform="rotate(-69.7592 626.761 1414.8)" fill="white"/>
<ellipse cx="723.935" cy="1151.27" rx="1.87251" ry="0.882697" transform="rotate(-69.7592 723.935 1151.27)" fill="white"/>
<ellipse cx="821.109" cy="887.732" rx="1.87257" ry="0.882697" transform="rotate(-69.7592 821.109 887.732)" fill="white"/>
<ellipse cx="918.281" cy="624.204" rx="1.87239" ry="0.882697" transform="rotate(-69.7592 918.281 624.204)" fill="white"/>
<ellipse cx="1015.45" cy="360.677" rx="1.87245" ry="0.882697" transform="rotate(-69.7592 1015.45 360.677)" fill="white"/>
<ellipse cx="1112.63" cy="97.1402" rx="1.87257" ry="0.882697" transform="rotate(-69.7592 1112.63 97.1402)" fill="white"/>
<ellipse cx="437.332" cy="2183.16" rx="1.87252" ry="0.882735" transform="rotate(-69.7592 437.332 2183.16)" fill="white"/>
<ellipse cx="534.503" cy="1919.63" rx="1.87251" ry="0.882735" transform="rotate(-69.7592 534.503 1919.63)" fill="white"/>
<ellipse cx="631.677" cy="1656.1" rx="1.8726" ry="0.882735" transform="rotate(-69.7592 631.677 1656.1)" fill="white"/>
<ellipse cx="728.853" cy="1392.57" rx="1.87251" ry="0.882735" transform="rotate(-69.7592 728.853 1392.57)" fill="white"/>
<ellipse cx="826.025" cy="1129.04" rx="1.87245" ry="0.882735" transform="rotate(-69.7592 826.025 1129.04)" fill="white"/>
<ellipse cx="923.199" cy="865.511" rx="1.87269" ry="0.882735" transform="rotate(-69.7592 923.199 865.511)" fill="white"/>
<ellipse cx="1020.37" cy="601.972" rx="1.87257" ry="0.882735" transform="rotate(-69.7592 1020.37 601.972)" fill="white"/>
<ellipse cx="1117.55" cy="338.446" rx="1.87257" ry="0.882735" transform="rotate(-69.7592 1117.55 338.446)" fill="white"/>
<ellipse cx="1214.72" cy="74.9172" rx="1.87245" ry="0.882735" transform="rotate(-69.7592 1214.72 74.9172)" fill="white"/>
<ellipse cx="573.597" cy="2093.71" rx="1.87251" ry="0.882658" transform="rotate(-69.7592 573.597 2093.71)" fill="white"/>
<ellipse cx="670.771" cy="1830.18" rx="1.87248" ry="0.882658" transform="rotate(-69.7592 670.771 1830.18)" fill="white"/>
<ellipse cx="767.947" cy="1566.64" rx="1.87257" ry="0.882658" transform="rotate(-69.7592 767.947 1566.64)" fill="white"/>
<ellipse cx="865.117" cy="1303.12" rx="1.87251" ry="0.882658" transform="rotate(-69.7592 865.117 1303.12)" fill="white"/>
<ellipse cx="962.288" cy="1039.59" rx="1.87251" ry="0.882658" transform="rotate(-69.7592 962.288 1039.59)" fill="white"/>
<ellipse cx="1059.47" cy="776.051" rx="1.87245" ry="0.882658" transform="rotate(-69.7592 1059.47 776.051)" fill="white"/>
<ellipse cx="1156.64" cy="512.523" rx="1.87251" ry="0.882658" transform="rotate(-69.7592 1156.64 512.523)" fill="white"/>
<ellipse cx="1253.81" cy="248.994" rx="1.87257" ry="0.882658" transform="rotate(-69.7592 1253.81 248.994)" fill="white"/>
<ellipse cx="625.65" cy="2232.64" rx="1.87251" ry="0.882582" transform="rotate(-69.7592 625.65 2232.64)" fill="white"/>
<ellipse cx="722.824" cy="1969.12" rx="1.87251" ry="0.882582" transform="rotate(-69.7592 722.824 1969.12)" fill="white"/>
<ellipse cx="819.995" cy="1705.59" rx="1.87248" ry="0.882582" transform="rotate(-69.7592 819.995 1705.59)" fill="white"/>
<ellipse cx="917.171" cy="1442.05" rx="1.87257" ry="0.882582" transform="rotate(-69.7592 917.171 1442.05)" fill="white"/>
<ellipse cx="1014.34" cy="1178.52" rx="1.87257" ry="0.882582" transform="rotate(-69.7592 1014.34 1178.52)" fill="white"/>
<ellipse cx="1111.52" cy="914.995" rx="1.87257" ry="0.882582" transform="rotate(-69.7592 1111.52 914.995)" fill="white"/>
<ellipse cx="1208.69" cy="651.457" rx="1.87245" ry="0.882582" transform="rotate(-69.7592 1208.69 651.457)" fill="white"/>
<ellipse cx="1305.86" cy="387.93" rx="1.87257" ry="0.882582" transform="rotate(-69.7592 1305.86 387.93)" fill="white"/>
<ellipse cx="1403.03" cy="124.402" rx="1.87257" ry="0.882582" transform="rotate(-69.7592 1403.03 124.402)" fill="white"/>
<ellipse cx="766.742" cy="2125.01" rx="1.87245" ry="0.88262" transform="rotate(-69.7592 766.742 2125.01)" fill="white"/>
<ellipse cx="863.913" cy="1861.48" rx="1.87251" ry="0.88262" transform="rotate(-69.7592 863.913 1861.48)" fill="white"/>
<ellipse cx="961.087" cy="1597.95" rx="1.87263" ry="0.88262" transform="rotate(-69.7592 961.087 1597.95)" fill="white"/>
<ellipse cx="1058.26" cy="1334.41" rx="1.87251" ry="0.88262" transform="rotate(-69.7592 1058.26 1334.41)" fill="white"/>
<ellipse cx="1155.43" cy="1070.89" rx="1.87233" ry="0.88262" transform="rotate(-69.7592 1155.43 1070.89)" fill="white"/>
<ellipse cx="1252.61" cy="807.359" rx="1.87263" ry="0.88262" transform="rotate(-69.7592 1252.61 807.359)" fill="white"/>
<ellipse cx="1349.78" cy="543.82" rx="1.87251" ry="0.88262" transform="rotate(-69.7592 1349.78 543.82)" fill="white"/>
<ellipse cx="818.792" cy="2263.95" rx="1.87251" ry="0.882697" transform="rotate(-69.7592 818.792 2263.95)" fill="white"/>
<ellipse cx="915.966" cy="2000.41" rx="1.87251" ry="0.882697" transform="rotate(-69.7592 915.966 2000.41)" fill="white"/>
<ellipse cx="1013.14" cy="1736.89" rx="1.87245" ry="0.882697" transform="rotate(-69.7592 1013.14 1736.89)" fill="white"/>
<ellipse cx="1110.31" cy="1473.36" rx="1.87257" ry="0.882697" transform="rotate(-69.7592 1110.31 1473.36)" fill="white"/>
<ellipse cx="1207.49" cy="1209.82" rx="1.87251" ry="0.882697" transform="rotate(-69.7592 1207.49 1209.82)" fill="white"/>
<ellipse cx="1304.66" cy="946.295" rx="1.87233" ry="0.882697" transform="rotate(-69.7592 1304.66 946.295)" fill="white"/>
<ellipse cx="1401.83" cy="682.767" rx="1.87245" ry="0.882697" transform="rotate(-69.7592 1401.83 682.767)" fill="white"/>
<ellipse cx="968.015" cy="2139.36" rx="1.87251" ry="0.88262" transform="rotate(-69.7592 968.015 2139.36)" fill="white"/>
<ellipse cx="1065.19" cy="1875.82" rx="1.87242" ry="0.88262" transform="rotate(-69.7592 1065.19 1875.82)" fill="white"/>
<ellipse cx="1162.36" cy="1612.29" rx="1.87248" ry="0.88262" transform="rotate(-69.7592 1162.36 1612.29)" fill="white"/>
<ellipse cx="1259.53" cy="1348.76" rx="1.87251" ry="0.88262" transform="rotate(-69.7592 1259.53 1348.76)" fill="white"/>
<ellipse cx="1356.71" cy="1085.23" rx="1.87257" ry="0.88262" transform="rotate(-69.7592 1356.71 1085.23)" fill="white"/>
<ellipse cx="1000.63" cy="2331" rx="1.87251" ry="0.88262" transform="rotate(-69.7592 1000.63 2331)" fill="white"/>
<ellipse cx="1097.81" cy="2067.47" rx="1.87251" ry="0.88262" transform="rotate(-69.7592 1097.81 2067.47)" fill="white"/>
<ellipse cx="1194.98" cy="1803.94" rx="1.87245" ry="0.88262" transform="rotate(-69.7592 1194.98 1803.94)" fill="white"/>
<ellipse cx="1292.15" cy="1540.41" rx="1.87257" ry="0.88262" transform="rotate(-69.7592 1292.15 1540.41)" fill="white"/>
<ellipse cx="1389.33" cy="1276.87" rx="1.87251" ry="0.88262" transform="rotate(-69.7592 1389.33 1276.87)" fill="white"/>
<ellipse cx="1154.55" cy="2168.22" rx="1.87253" ry="0.882697" transform="rotate(-69.7592 1154.55 2168.22)" fill="white"/>
<ellipse cx="1251.72" cy="1904.69" rx="1.87239" ry="0.882697" transform="rotate(-69.7592 1251.72 1904.69)" fill="white"/>
<ellipse cx="1348.89" cy="1641.16" rx="1.87251" ry="0.882697" transform="rotate(-69.7592 1348.89 1641.16)" fill="white"/>
<ellipse cx="1191.85" cy="2321.68" rx="1.87251" ry="0.882697" transform="rotate(-69.7592 1191.85 2321.68)" fill="white"/>
<ellipse cx="1289.02" cy="2058.15" rx="1.87248" ry="0.882697" transform="rotate(-69.7592 1289.02 2058.15)" fill="white"/>
<ellipse cx="1386.2" cy="1794.62" rx="1.87257" ry="0.882697" transform="rotate(-69.7592 1386.2 1794.62)" fill="white"/>
</svg>
