<svg width="1440" height="2354" viewBox="0 0 1440 2354" fill="none" xmlns="http://www.w3.org/2000/svg">
<ellipse cx="108.334" cy="147.833" rx="2.13504" ry="2.88517" transform="rotate(-6.61035 108.334 147.833)" fill="white"/>
<ellipse cx="424.805" cy="96.6356" rx="2.13507" ry="2.88516" transform="rotate(-6.61035 424.805 96.6356)" fill="white"/>
<ellipse cx="741.273" cy="45.4381" rx="2.13504" ry="2.88519" transform="rotate(-6.61035 741.273 45.4381)" fill="white"/>
<ellipse cx="1061.06" cy="22.9012" rx="2.13507" ry="2.88516" transform="rotate(-6.61035 1061.06 22.9012)" fill="white"/>
<ellipse cx="1380.86" cy="16.3641" rx="2.13513" ry="2.88517" transform="rotate(-6.61035 1380.86 16.3641)" fill="white"/>
<ellipse cx="77.9198" cy="441.806" rx="2.13507" ry="2.88524" transform="rotate(-6.61035 77.9198 441.806)" fill="white"/>
<ellipse cx="394.389" cy="390.608" rx="2.13507" ry="2.88518" transform="rotate(-6.61035 394.389 390.608)" fill="white"/>
<ellipse cx="710.859" cy="339.412" rx="2.13516" ry="2.88516" transform="rotate(-6.61035 710.859 339.412)" fill="white"/>
<ellipse cx="1030.65" cy="316.874" rx="2.13513" ry="2.88518" transform="rotate(-6.61035 1030.65 316.874)" fill="white"/>
<ellipse cx="1350.44" cy="294.337" rx="2.13495" ry="2.88524" transform="rotate(-6.61035 1350.44 294.337)" fill="white"/>
<ellipse cx="238.715" cy="716.524" rx="2.13506" ry="2.88516" transform="rotate(-6.61035 238.715 716.524)" fill="white"/>
<ellipse cx="555.185" cy="665.327" rx="2.1351" ry="2.88519" transform="rotate(-6.61035 555.185 665.327)" fill="white"/>
<ellipse cx="871.656" cy="614.13" rx="2.13507" ry="2.88522" transform="rotate(-6.61035 871.656 614.13)" fill="white"/>
<ellipse cx="1191.45" cy="591.592" rx="2.13495" ry="2.88519" transform="rotate(-6.61035 1191.45 591.592)" fill="white"/>
<ellipse cx="218.908" cy="1009.27" rx="2.13506" ry="2.88516" transform="rotate(-6.61035 218.908 1009.27)" fill="white"/>
<ellipse cx="535.379" cy="958.071" rx="2.13507" ry="2.8851" transform="rotate(-6.61035 535.379 958.071)" fill="white"/>
<ellipse cx="851.85" cy="906.873" rx="2.13516" ry="2.88519" transform="rotate(-6.61035 851.85 906.873)" fill="white"/>
<ellipse cx="1171.64" cy="884.336" rx="2.13507" ry="2.8851" transform="rotate(-6.61035 1171.64 884.336)" fill="white"/>
<ellipse cx="199.098" cy="1302.01" rx="2.13509" ry="2.88525" transform="rotate(-6.61035 199.098 1302.01)" fill="white"/>
<ellipse cx="515.572" cy="1250.81" rx="2.13507" ry="2.88513" transform="rotate(-6.61035 515.572 1250.81)" fill="white"/>
<ellipse cx="832.041" cy="1199.62" rx="2.13504" ry="2.88519" transform="rotate(-6.61035 832.041 1199.62)" fill="white"/>
<ellipse cx="1151.83" cy="1177.08" rx="2.13513" ry="2.88513" transform="rotate(-6.61035 1151.83 1177.08)" fill="white"/>
<ellipse cx="82.1913" cy="1591.49" rx="2.13507" ry="2.88513" transform="rotate(-6.61035 82.1913 1591.49)" fill="white"/>
<ellipse cx="401.982" cy="1568.95" rx="2.13507" ry="2.88513" transform="rotate(-6.61035 401.982 1568.95)" fill="white"/>
<ellipse cx="718.453" cy="1517.75" rx="2.1351" ry="2.88513" transform="rotate(-6.61035 718.453 1517.75)" fill="white"/>
<ellipse cx="1034.92" cy="1466.55" rx="2.13516" ry="2.88513" transform="rotate(-6.61035 1034.92 1466.55)" fill="white"/>
<ellipse cx="1354.71" cy="1444.02" rx="2.13513" ry="2.88513" transform="rotate(-6.61035 1354.71 1444.02)" fill="white"/>
<ellipse cx="236.56" cy="1875.66" rx="2.13506" ry="2.88519" transform="rotate(-6.61035 236.56 1875.66)" fill="white"/>
<ellipse cx="553.031" cy="1824.47" rx="2.13509" ry="2.88519" transform="rotate(-6.61035 553.031 1824.47)" fill="white"/>
<ellipse cx="869.5" cy="1773.27" rx="2.13519" ry="2.88519" transform="rotate(-6.61035 869.5 1773.27)" fill="white"/>
<ellipse cx="1189.29" cy="1750.73" rx="2.13513" ry="2.88519" transform="rotate(-6.61035 1189.29 1750.73)" fill="white"/>
<ellipse cx="289.846" cy="2122.18" rx="2.13505" ry="2.88525" transform="rotate(-6.61035 289.846 2122.18)" fill="white"/>
<ellipse cx="606.316" cy="2070.98" rx="2.13507" ry="2.88513" transform="rotate(-6.61035 606.316 2070.98)" fill="white"/>
<ellipse cx="922.785" cy="2019.78" rx="2.13516" ry="2.88525" transform="rotate(-6.61035 922.785 2019.78)" fill="white"/>
<ellipse cx="1242.58" cy="1997.25" rx="2.13507" ry="2.88513" transform="rotate(-6.61035 1242.58 1997.25)" fill="white"/>
<ellipse cx="1035.74" cy="2317.47" rx="2.13498" ry="2.88501" transform="rotate(-6.61035 1035.74 2317.47)" fill="white"/>
<ellipse cx="1355.53" cy="2294.94" rx="2.13507" ry="2.88513" transform="rotate(-6.61035 1355.53 2294.94)" fill="white"/>
</svg>
